# https://github.com/mikedh/trimesh

o geometry_0
v 0.00075176 -0.01197365 2e-07 0.54509804 0.71372549 0.60000000
v 0.00074706 -0.01188682 0.00144558 0.54509804 0.71372549 0.60000000
v 0.00107361 -0.01193376 2e-07 0.54509804 0.71372549 0.60000000
v 0.00107596 -0.01195018 -0.011 0.54509804 0.71372549 0.60000000
v -0.00075176 -0.01197365 2e-07 0.54509804 0.71372549 0.60000000
v -0.00074706 -0.01188682 0.00144558 0.54509804 0.71372549 0.60000000
v 0.00073062 -0.01162631 0.00287069 0.54509804 0.71372549 0.60000000
v 0.00223179 -0.01170141 0.00144558 0.54509804 0.71372549 0.60000000
v 0.00224824 -0.0117859 2e-07 0.54509804 0.71372549 0.60000000
v 0.00319029 -0.01156764 -0.011 0.54509804 0.71372549 0.60000000
v -0.00107596 -0.01195018 -0.011 0.54509804 0.71372549 0.60000000
v -0.00107361 -0.01193376 2e-07 0.54509804 0.71372549 0.60000000
v -0.00073062 -0.01162631 0.00287069 0.54509804 0.71372549 0.60000000
v -0.00223179 -0.01170141 0.00144558 0.54509804 0.71372549 0.60000000
v 0.00070478 -0.01119683 0.00425303 0.54509804 0.71372549 0.60000000
v 0.00218246 -0.01144325 0.00287069 0.54509804 0.71372549 0.60000000
v 0.00359906 -0.01107948 0.00287069 0.54509804 0.71372549 0.60000000
v 0.00367894 -0.01132825 0.00144558 0.54509804 0.71372549 0.60000000
v 0.00370713 -0.01141274 2e-07 0.54509804 0.71372549 0.60000000
v 0.00520595 -0.01081193 -0.011 0.54509804 0.71372549 0.60000000
v -0.00319029 -0.01156764 -0.011 0.54509804 0.71372549 0.60000000
v -0.00224824 -0.0117859 2e-07 0.54509804 0.71372549 0.60000000
v -0.00218246 -0.01144325 0.00287069 0.54509804 0.71372549 0.60000000
v -0.00070478 -0.01119683 0.00425303 0.54509804 0.71372549 0.60000000
v -0.00370713 -0.01141274 2e-07 0.54509804 0.71372549 0.60000000
v -0.00367894 -0.01132825 0.00144558 0.54509804 0.71372549 0.60000000
v -0.00359906 -0.01107948 0.00287069 0.54509804 0.71372549 0.60000000
v 0.00066484 -0.01060306 0.00557684 0.54509804 0.71372549 0.60000000
v 0.00198982 -0.01043643 0.00557684 0.54509804 0.71372549 0.60000000
v 0.00210023 -0.01102081 0.00425303 0.54509804 0.71372549 0.60000000
v 0.00346515 -0.01066877 0.00425303 0.54509804 0.71372549 0.60000000
v 0.00477604 -0.01015011 0.00425303 0.54509804 0.71372549 0.60000000
v 0.00495928 -0.01053969 0.00287069 0.54509804 0.71372549 0.60000000
v 0.00506969 -0.01077673 0.00144558 0.54509804 0.71372549 0.60000000
v 0.00510728 -0.01085653 2e-07 0.54509804 0.71372549 0.60000000
v 0.0052036 -0.01080489 2e-07 0.54509804 0.71372549 0.60000000
v 0.00642991 -0.01013133 2e-07 0.54509804 0.71372549 0.60000000
v 0.00705247 -0.00970654 -0.011 0.54509804 0.71372549 0.60000000
v -0.00520595 -0.01081193 -0.011 0.54509804 0.71372549 0.60000000
v -0.00210023 -0.01102081 0.00425303 0.54509804 0.71372549 0.60000000
v -0.00066484 -0.01060306 0.00557684 0.54509804 0.71372549 0.60000000
v -0.00198982 -0.01043643 0.00557684 0.54509804 0.71372549 0.60000000
v -0.00510728 -0.01085653 2e-07 0.54509804 0.71372549 0.60000000
v -0.00506969 -0.01077673 0.00144558 0.54509804 0.71372549 0.60000000
v -0.00495928 -0.01053969 0.00287069 0.54509804 0.71372549 0.60000000
v -0.00477604 -0.01015011 0.00425303 0.54509804 0.71372549 0.60000000
v -0.00346515 -0.01066877 0.00425303 0.54509804 0.71372549 0.60000000
v 0.00061785 -0.0098544 0.00681509 0.54509804 0.71372549 0.60000000
v 0.00184886 -0.0096995 0.00681509 0.54509804 0.71372549 0.60000000
v 0.00305168 -0.00938971 0.00681509 0.54509804 0.71372549 0.60000000
v 0.00328191 -0.01010317 0.00557684 0.54509804 0.71372549 0.60000000
v 0.00452232 -0.00961267 0.00557684 0.54509804 0.71372549 0.60000000
v 0.00601175 -0.00947185 0.00425303 0.54509804 0.71372549 0.60000000
v 0.00624197 -0.00983797 0.00287069 0.54509804 0.71372549 0.60000000
v 0.00638293 -0.01005623 0.00144558 0.54509804 0.71372549 0.60000000
v 0.0075928 -0.00917849 0.00144558 0.54509804 0.71372549 0.60000000
v 0.00764683 -0.0092442 2e-07 0.54509804 0.71372549 0.60000000
v 0.00867345 -0.00829136 -0.011 0.54509804 0.71372549 0.60000000
v -0.00705247 -0.00970654 -0.011 0.54509804 0.71372549 0.60000000
v -0.00642991 -0.01013133 2e-07 0.54509804 0.71372549 0.60000000
v -0.0052036 -0.01080489 2e-07 0.54509804 0.71372549 0.60000000
v -0.00061785 -0.0098544 0.00681509 0.54509804 0.71372549 0.60000000
v -0.00184886 -0.0096995 0.00681509 0.54509804 0.71372549 0.60000000
v -0.00328191 -0.01010317 0.00557684 0.54509804 0.71372549 0.60000000
v -0.00305168 -0.00938971 0.00681509 0.54509804 0.71372549 0.60000000
v -0.00638293 -0.01005623 0.00144558 0.54509804 0.71372549 0.60000000
v -0.00624197 -0.00983797 0.00287069 0.54509804 0.71372549 0.60000000
v -0.00452232 -0.00961267 0.00557684 0.54509804 0.71372549 0.60000000
v -0.00601175 -0.00947185 0.00425303 0.54509804 0.71372549 0.60000000
v 0.00056382 -0.00896257 0.00795654 0.54509804 0.71372549 0.60000000
v 0.00168207 -0.00882176 0.00795654 0.54509804 0.71372549 0.60000000
v 0.00277447 -0.00854248 0.00795654 0.54509804 0.71372549 0.60000000
v 0.00420282 -0.00893441 0.00681509 0.54509804 0.71372549 0.60000000
v 0.00569225 -0.00896961 0.00557684 0.54509804 0.71372549 0.60000000
v 0.00677291 -0.00818575 0.00557684 0.54509804 0.71372549 0.60000000
v 0.00715114 -0.00864339 0.00425303 0.54509804 0.71372549 0.60000000
v 0.007426 -0.00897665 0.00287069 0.54509804 0.71372549 0.60000000
v 0.00849256 -0.00797452 0.00287069 0.54509804 0.71372549 0.60000000
v 0.00868285 -0.00815289 0.00144558 0.54509804 0.71372549 0.60000000
v 0.00874628 -0.00821391 2e-07 0.54509804 0.71372549 0.60000000
v 0.00866876 -0.00828666 2e-07 0.54509804 0.71372549 0.60000000
v 0.00970713 -0.00705219 2e-07 0.54509804 0.71372549 0.60000000
v 0.01001488 -0.00661097 -0.011 0.54509804 0.71372549 0.60000000
v -0.00764683 -0.0092442 2e-07 0.54509804 0.71372549 0.60000000
v -0.00867345 -0.00829136 -0.011 0.54509804 0.71372549 0.60000000
v -0.0075928 -0.00917849 0.00144558 0.54509804 0.71372549 0.60000000
v -0.00056382 -0.00896257 0.00795654 0.54509804 0.71372549 0.60000000
v -0.00168207 -0.00882176 0.00795654 0.54509804 0.71372549 0.60000000
v -0.00277447 -0.00854248 0.00795654 0.54509804 0.71372549 0.60000000
v -0.00420282 -0.00893441 0.00681509 0.54509804 0.71372549 0.60000000
v -0.007426 -0.00897665 0.00287069 0.54509804 0.71372549 0.60000000
v -0.00715114 -0.00864339 0.00425303 0.54509804 0.71372549 0.60000000
v -0.00569225 -0.00896961 0.00557684 0.54509804 0.71372549 0.60000000
v -0.00677291 -0.00818575 0.00557684 0.54509804 0.71372549 0.60000000
v 0.00049804 -0.00794167 0.00898091 0.54509804 0.71372549 0.60000000
v 0.00148943 -0.00781493 0.00898091 0.54509804 0.71372549 0.60000000
v 0.00245732 -0.00756616 0.00898091 0.54509804 0.71372549 0.60000000
v 0.00338763 -0.0071977 0.00898091 0.54509804 0.71372549 0.60000000
v 0.00382224 -0.00812473 0.00795654 0.54509804 0.71372549 0.60000000
v 0.00481128 -0.00758259 0.00795654 0.54509804 0.71372549 0.60000000
v 0.00529052 -0.00833595 0.00681509 0.54509804 0.71372549 0.60000000
v 0.00629366 -0.00760841 0.00681509 0.54509804 0.71372549 0.60000000
v 0.0077455 -0.0072728 0.00557684 0.54509804 0.71372549 0.60000000
v 0.00817776 -0.00767881 0.00425303 0.54509804 0.71372549 0.60000000
v 0.00907518 -0.00659454 0.00425303 0.54509804 0.71372549 0.60000000
v 0.00942522 -0.00684566 0.00287069 0.54509804 0.71372549 0.60000000
v 0.00963665 -0.00700056 0.00144558 0.54509804 0.71372549 0.60000000
v 0.01051527 -0.00578017 2e-07 0.54509804 0.71372549 0.60000000
v 0.01103211 -0.00471467 -0.011 0.54509804 0.71372549 0.60000000
v -0.00866876 -0.00828666 2e-07 0.54509804 0.71372549 0.60000000
v -0.01001488 -0.00661097 -0.011 0.54509804 0.71372549 0.60000000
v -0.00970713 -0.00705219 2e-07 0.54509804 0.71372549 0.60000000
v -0.00874628 -0.00821391 2e-07 0.54509804 0.71372549 0.60000000
v -0.00868285 -0.00815289 0.00144558 0.54509804 0.71372549 0.60000000
v -0.00849256 -0.00797452 0.00287069 0.54509804 0.71372549 0.60000000
v -0.00049804 -0.00794167 0.00898091 0.54509804 0.71372549 0.60000000
v -0.00148943 -0.00781493 0.00898091 0.54509804 0.71372549 0.60000000
v -0.00382224 -0.00812473 0.00795654 0.54509804 0.71372549 0.60000000
v -0.00338763 -0.0071977 0.00898091 0.54509804 0.71372549 0.60000000
v -0.00245732 -0.00756616 0.00898091 0.54509804 0.71372549 0.60000000
v -0.00529052 -0.00833595 0.00681509 0.54509804 0.71372549 0.60000000
v -0.00481128 -0.00758259 0.00795654 0.54509804 0.71372549 0.60000000
v -0.00817776 -0.00767881 0.00425303 0.54509804 0.71372549 0.60000000
v -0.0077455 -0.0072728 0.00557684 0.54509804 0.71372549 0.60000000
v -0.00629366 -0.00760841 0.00681509 0.54509804 0.71372549 0.60000000
v 0.00042756 -0.00680107 0.00987471 0.54509804 0.71372549 0.60000000
v 0.00127565 -0.00669546 0.00987471 0.54509804 0.71372549 0.60000000
v 0.00210493 -0.00648189 0.00987471 0.54509804 0.71372549 0.60000000
v 0.00290133 -0.00616741 0.00987471 0.54509804 0.71372549 0.60000000
v 0.0042639 -0.00671893 0.00898091 0.54509804 0.71372549 0.60000000
v 0.00572279 -0.00692076 0.00795654 0.54509804 0.71372549 0.60000000
v 0.00654738 -0.00614863 0.00795654 0.54509804 0.71372549 0.60000000
v 0.00719812 -0.00675883 0.00681509 0.54509804 0.71372549 0.60000000
v 0.00798982 -0.00580364 0.00681509 0.54509804 0.71372549 0.60000000
v 0.00859593 -0.00624485 0.00557684 0.54509804 0.71372549 0.60000000
v 0.00983164 -0.00540466 0.00425303 0.54509804 0.71372549 0.60000000
v 0.01020987 -0.00561119 0.00287069 0.54509804 0.71372549 0.60000000
v 0.01043774 -0.00573792 0.00144558 0.54509804 0.71372549 0.60000000
v 0.01115662 -0.00441661 2e-07 0.54509804 0.71372549 0.60000000
v 0.01169695 -0.00266817 -0.011 0.54509804 0.71372549 0.60000000
v -0.01103211 -0.00471467 -0.011 0.54509804 0.71372549 0.60000000
v -0.01051527 -0.00578017 2e-07 0.54509804 0.71372549 0.60000000
v -0.00963665 -0.00700056 0.00144558 0.54509804 0.71372549 0.60000000
v -0.00942522 -0.00684566 0.00287069 0.54509804 0.71372549 0.60000000
v -0.00907518 -0.00659454 0.00425303 0.54509804 0.71372549 0.60000000
v -0.00127565 -0.00669546 0.00987471 0.54509804 0.71372549 0.60000000
v -0.00042756 -0.00680107 0.00987471 0.54509804 0.71372549 0.60000000
v -0.0042639 -0.00671893 0.00898091 0.54509804 0.71372549 0.60000000
v -0.00290133 -0.00616741 0.00987471 0.54509804 0.71372549 0.60000000
v -0.00210493 -0.00648189 0.00987471 0.54509804 0.71372549 0.60000000
v -0.00572279 -0.00692076 0.00795654 0.54509804 0.71372549 0.60000000
v -0.00859593 -0.00624485 0.00557684 0.54509804 0.71372549 0.60000000
v -0.00798982 -0.00580364 0.00681509 0.54509804 0.71372549 0.60000000
v -0.00719812 -0.00675883 0.00681509 0.54509804 0.71372549 0.60000000
v -0.00654738 -0.00614863 0.00795654 0.54509804 0.71372549 0.60000000
v 0.00034769 -0.00556425 0.01062441 0.54509804 0.71372549 0.60000000
v 0.00104307 -0.00547742 0.01062441 0.54509804 0.71372549 0.60000000
v 0.001722 -0.00530374 0.01062441 0.54509804 0.71372549 0.60000000
v 0.00237275 -0.00504558 0.01062441 0.54509804 0.71372549 0.60000000
v 0.00365074 -0.00575435 0.00987471 0.54509804 0.71372549 0.60000000
v 0.00434377 -0.00524977 0.00987471 0.54509804 0.71372549 0.60000000
v 0.00506969 -0.00612986 0.00898091 0.54509804 0.71372549 0.60000000
v 0.00580031 -0.00544691 0.00898091 0.54509804 0.71372549 0.60000000
v 0.00726625 -0.00527793 0.00795654 0.54509804 0.71372549 0.60000000
v 0.00787001 -0.00432508 0.00795654 0.54509804 0.71372549 0.60000000
v 0.00865231 -0.00475691 0.00681509 0.54509804 0.71372549 0.60000000
v 0.0093101 -0.00511834 0.00557684 0.54509804 0.71372549 0.60000000
v 0.00987862 -0.00390968 0.00557684 0.54509804 0.71372549 0.60000000
v 0.0104307 -0.00412794 0.00425303 0.54509804 0.71372549 0.60000000
v 0.01083242 -0.00428753 0.00287069 0.54509804 0.71372549 0.60000000
v 0.01107439 -0.00438376 0.00144558 0.54509804 0.71372549 0.60000000
v 0.0115372 -0.00296153 0.00144558 0.54509804 0.71372549 0.60000000
v 0.01162177 -0.00298265 2e-07 0.54509804 0.71372549 0.60000000
v 0.01168285 -0.00266582 2e-07 0.54509804 0.71372549 0.60000000
v 0.01190368 -0.00150175 2e-07 0.54509804 0.71372549 0.60000000
v 0.0119859 -0.00053718 -0.011 0.54509804 0.71372549 0.60000000
v -0.01169695 -0.00266817 -0.011 0.54509804 0.71372549 0.60000000
v -0.01115662 -0.00441661 2e-07 0.54509804 0.71372549 0.60000000
v -0.01043774 -0.00573792 0.00144558 0.54509804 0.71372549 0.60000000
v -0.01020987 -0.00561119 0.00287069 0.54509804 0.71372549 0.60000000
v -0.00983164 -0.00540466 0.00425303 0.54509804 0.71372549 0.60000000
v -0.001722 -0.00530374 0.01062441 0.54509804 0.71372549 0.60000000
v -0.00104307 -0.00547742 0.01062441 0.54509804 0.71372549 0.60000000
v -0.00034769 -0.00556425 0.01062441 0.54509804 0.71372549 0.60000000
v -0.00434377 -0.00524977 0.00987471 0.54509804 0.71372549 0.60000000
v -0.00365074 -0.00575435 0.00987471 0.54509804 0.71372549 0.60000000
v -0.00506969 -0.00612986 0.00898091 0.54509804 0.71372549 0.60000000
v -0.00237275 -0.00504558 0.01062441 0.54509804 0.71372549 0.60000000
v -0.00580031 -0.00544691 0.00898091 0.54509804 0.71372549 0.60000000
v -0.0093101 -0.00511834 0.00557684 0.54509804 0.71372549 0.60000000
v -0.00787001 -0.00432508 0.00795654 0.54509804 0.71372549 0.60000000
v -0.00726625 -0.00527793 0.00795654 0.54509804 0.71372549 0.60000000
v -0.00865231 -0.00475691 0.00681509 0.54509804 0.71372549 0.60000000
v 0.00026547 -0.00424529 0.01121877 0.54509804 0.71372549 0.60000000
v 0.0007964 -0.00417958 0.01121877 0.54509804 0.71372549 0.60000000
v 0.00131323 -0.0040458 0.01121877 0.54509804 0.71372549 0.60000000
v 0.00181128 -0.00384866 0.01121877 0.54509804 0.71372549 0.60000000
v 0.00227878 -0.00359285 0.01121877 0.54509804 0.71372549 0.60000000
v 0.0029859 -0.00470763 0.01062441 0.54509804 0.71372549 0.60000000
v 0.00355442 -0.00429692 0.01062441 0.54509804 0.71372549 0.60000000
v 0.00496868 -0.00466539 0.00987471 0.54509804 0.71372549 0.60000000
v 0.0055137 -0.0040059 0.00987471 0.54509804 0.71372549 0.60000000
v 0.00643696 -0.00467477 0.00898091 0.54509804 0.71372549 0.60000000
v 0.00697259 -0.00383223 0.00898091 0.54509804 0.71372549 0.60000000
v 0.00834926 -0.00330653 0.00795654 0.54509804 0.71372549 0.60000000
v 0.00918089 -0.00363509 0.00681509 0.54509804 0.71372549 0.60000000
v 0.00739781 -0.00292867 0.00898091 0.54509804 0.71372549 0.60000000
v 0.01028974 -0.00264 0.00557684 0.54509804 0.71372549 0.60000000
v 0.01086766 -0.00278786 0.00425303 0.54509804 0.71372549 0.60000000
v 0.00956382 -0.0024546 0.00681509 0.54509804 0.71372549 0.60000000
v 0.01128348 -0.00289582 0.00287069 0.54509804 0.71372549 0.60000000
v 0.01155834 -0.00145951 0.00287069 0.54509804 0.71372549 0.60000000
v 0.01181676 -0.00149237 0.00144558 0.54509804 0.71372549 0.60000000
v 0.012 2.7e-07 2e-07 0.54509804 0.71372549 0.60000000
v 0.01188959 0.00161024 -0.011 0.54509804 0.71372549 0.60000000
v -0.0119859 -0.00053718 -0.011 0.54509804 0.71372549 0.60000000
v -0.01190368 -0.00150175 2e-07 0.54509804 0.71372549 0.60000000
v -0.01168285 -0.00266582 2e-07 0.54509804 0.71372549 0.60000000
v -0.01162177 -0.00298265 2e-07 0.54509804 0.71372549 0.60000000
v -0.01107439 -0.00438376 0.00144558 0.54509804 0.71372549 0.60000000
v -0.0115372 -0.00296153 0.00144558 0.54509804 0.71372549 0.60000000
v -0.01083242 -0.00428753 0.00287069 0.54509804 0.71372549 0.60000000
v -0.0104307 -0.00412794 0.00425303 0.54509804 0.71372549 0.60000000
v -0.00987862 -0.00390968 0.00557684 0.54509804 0.71372549 0.60000000
v -0.00181128 -0.00384866 0.01121877 0.54509804 0.71372549 0.60000000
v -0.00131323 -0.0040458 0.01121877 0.54509804 0.71372549 0.60000000
v -0.0007964 -0.00417958 0.01121877 0.54509804 0.71372549 0.60000000
v -0.00026547 -0.00424529 0.01121877 0.54509804 0.71372549 0.60000000
v -0.00496868 -0.00466539 0.00987471 0.54509804 0.71372549 0.60000000
v -0.00355442 -0.00429692 0.01062441 0.54509804 0.71372549 0.60000000
v -0.0029859 -0.00470763 0.01062441 0.54509804 0.71372549 0.60000000
v -0.00227878 -0.00359285 0.01121877 0.54509804 0.71372549 0.60000000
v -0.00643696 -0.00467477 0.00898091 0.54509804 0.71372549 0.60000000
v -0.0055137 -0.0040059 0.00987471 0.54509804 0.71372549 0.60000000
v -0.00918089 -0.00363509 0.00681509 0.54509804 0.71372549 0.60000000
v -0.00834926 -0.00330653 0.00795654 0.54509804 0.71372549 0.60000000
v -0.00739781 -0.00292867 0.00898091 0.54509804 0.71372549 0.60000000
v -0.00697259 -0.00383223 0.00898091 0.54509804 0.71372549 0.60000000
v 0.00017854 -0.00286531 0.01164879 0.54509804 0.71372549 0.60000000
v 0.00053798 -0.00282072 0.01164879 0.54509804 0.71372549 0.60000000
v 0.00088567 -0.00272919 0.01164879 0.54509804 0.71372549 0.60000000
v 0.00122161 -0.00259776 0.01164879 0.54509804 0.71372549 0.60000000
v 0.00271104 -0.00327836 0.01121877 0.54509804 0.71372549 0.60000000
v 0.00153876 -0.00242409 0.01164879 0.54509804 0.71372549 0.60000000
v 0.00183007 -0.00221287 0.01164879 0.54509804 0.71372549 0.60000000
v 0.00406421 -0.00381581 0.01062441 0.54509804 0.71372549 0.60000000
v 0.00310102 -0.00291225 0.01121877 0.54509804 0.71372549 0.60000000
v 0.00451057 -0.00327602 0.01062441 0.54509804 0.71372549 0.60000000
v 0.00597181 -0.00328306 0.00987471 0.54509804 0.71372549 0.60000000
v 0.00488645 -0.00268694 0.01062441 0.54509804 0.71372549 0.60000000
v 0.0086993 -0.00223399 0.00795654 0.54509804 0.71372549 0.60000000
v 0.00633594 -0.00250858 0.00987471 0.54509804 0.71372549 0.60000000
v 0.00660141 -0.0016942 0.00987471 0.54509804 0.71372549 0.60000000
v 0.00770556 -0.00197818 0.00898091 0.54509804 0.71372549 0.60000000
v 0.01054111 -0.00133043 0.00557684 0.54509804 0.71372549 0.60000000
v 0.01113078 -0.00140553 0.00425303 0.54509804 0.71372549 0.60000000
v 0.0097964 -0.00123655 0.00681509 0.54509804 0.71372549 0.60000000
v 0.01164996 2.7e-07 0.00287069 0.54509804 0.71372549 0.60000000
v 0.01191073 2.7e-07 0.00144558 0.54509804 0.71372549 0.60000000
v 0.01181676 0.0014929 0.00144558 0.54509804 0.71372549 0.60000000
v 0.01190368 0.00150229 2e-07 0.54509804 0.71372549 0.60000000
v 0.01188489 0.0016079 2e-07 0.54509804 0.71372549 0.60000000
v 0.01162177 0.00298318 2e-07 0.54509804 0.71372549 0.60000000
v 0.01141269 0.00370603 -0.011 0.54509804 0.71372549 0.60000000
v -0.012 2.7e-07 2e-07 0.54509804 0.71372549 0.60000000
v -0.01188959 0.00161024 -0.011 0.54509804 0.71372549 0.60000000
v -0.01181676 -0.00149237 0.00144558 0.54509804 0.71372549 0.60000000
v -0.01128348 -0.00289582 0.00287069 0.54509804 0.71372549 0.60000000
v -0.01155834 -0.00145951 0.00287069 0.54509804 0.71372549 0.60000000
v -0.01086766 -0.00278786 0.00425303 0.54509804 0.71372549 0.60000000
v -0.01028974 -0.00264 0.00557684 0.54509804 0.71372549 0.60000000
v -0.00956382 -0.0024546 0.00681509 0.54509804 0.71372549 0.60000000
v -0.00122161 -0.00259776 0.01164879 0.54509804 0.71372549 0.60000000
v -0.00088567 -0.00272919 0.01164879 0.54509804 0.71372549 0.60000000
v -0.00053798 -0.00282072 0.01164879 0.54509804 0.71372549 0.60000000
v -0.00017854 -0.00286531 0.01164879 0.54509804 0.71372549 0.60000000
v -0.00451057 -0.00327602 0.01062441 0.54509804 0.71372549 0.60000000
v -0.00406421 -0.00381581 0.01062441 0.54509804 0.71372549 0.60000000
v -0.00310102 -0.00291225 0.01121877 0.54509804 0.71372549 0.60000000
v -0.00271104 -0.00327836 0.01121877 0.54509804 0.71372549 0.60000000
v -0.00183007 -0.00221287 0.01164879 0.54509804 0.71372549 0.60000000
v -0.00153876 -0.00242409 0.01164879 0.54509804 0.71372549 0.60000000
v -0.00597181 -0.00328306 0.00987471 0.54509804 0.71372549 0.60000000
v -0.00488645 -0.00268694 0.01062441 0.54509804 0.71372549 0.60000000
v -0.0086993 -0.00223399 0.00795654 0.54509804 0.71372549 0.60000000
v -0.00660141 -0.0016942 0.00987471 0.54509804 0.71372549 0.60000000
v -0.00633594 -0.00250858 0.00987471 0.54509804 0.71372549 0.60000000
v -0.00770556 -0.00197818 0.00898091 0.54509804 0.71372549 0.60000000
v 8.927e-05 -0.00144308 0.0119122 0.54509804 0.71372549 0.60000000
v 0.00027016 -0.00141961 0.0119122 0.54509804 0.71372549 0.60000000
v 0.00044636 -0.00137502 0.0119122 0.54509804 0.71372549 0.60000000
v 0.00061551 -0.00130696 0.0119122 0.54509804 0.71372549 0.60000000
v 0.00077291 -0.00122013 0.0119122 0.54509804 0.71372549 0.60000000
v 0.00092091 -0.00111452 0.0119122 0.54509804 0.71372549 0.60000000
v 0.00209084 -0.0019641 0.01164879 0.54509804 0.71372549 0.60000000
v 0.00232106 -0.00168716 0.01164879 0.54509804 0.71372549 0.60000000
v 0.00344166 -0.00249919 0.01121877 0.54509804 0.71372549 0.60000000
v 0.00372827 -0.00204858 0.01121877 0.54509804 0.71372549 0.60000000
v 0.00518481 -0.00205093 0.01062441 0.54509804 0.71372549 0.60000000
v 0.00891073 -0.0011239 0.00795654 0.54509804 0.71372549 0.60000000
v 0.0078935 -0.00099482 0.00898091 0.54509804 0.71372549 0.60000000
v 0.00676116 -0.00085166 0.00987471 0.54509804 0.71372549 0.60000000
v 0.00540094 -0.00138676 0.01062441 0.54509804 0.71372549 0.60000000
v 0.0055325 -0.00069677 0.01062441 0.54509804 0.71372549 0.60000000
v 0.01062334 2.7e-07 0.00557684 0.54509804 0.71372549 0.60000000
v 0.0112177 2.7e-07 0.00425303 0.54509804 0.71372549 0.60000000
v 0.00987392 2.7e-07 0.00681509 0.54509804 0.71372549 0.60000000
v 0.00898121 2.7e-07 0.00795654 0.54509804 0.71372549 0.60000000
v 0.01113078 0.00140372 0.00425303 0.54509804 0.71372549 0.60000000
v 0.01155834 0.00145769 0.00287069 0.54509804 0.71372549 0.60000000
v 0.0115372 0.00296206 0.00144558 0.54509804 0.71372549 0.60000000
v 0.01115662 0.0044148 2e-07 0.54509804 0.71372549 0.60000000
v 0.01056695 0.00568447 -0.011 0.54509804 0.71372549 0.60000000
v -0.01190368 0.00150229 2e-07 0.54509804 0.71372549 0.60000000
v -0.01181676 0.0014929 0.00144558 0.54509804 0.71372549 0.60000000
v -0.01191073 2.7e-07 0.00144558 0.54509804 0.71372549 0.60000000
v -0.01162177 0.00298318 2e-07 0.54509804 0.71372549 0.60000000
v -0.01188489 0.0016079 2e-07 0.54509804 0.71372549 0.60000000
v -0.01141269 0.00370603 -0.011 0.54509804 0.71372549 0.60000000
v -0.01164996 2.7e-07 0.00287069 0.54509804 0.71372549 0.60000000
v -0.01113078 -0.00140553 0.00425303 0.54509804 0.71372549 0.60000000
v -0.01054111 -0.00133043 0.00557684 0.54509804 0.71372549 0.60000000
v -0.0097964 -0.00123655 0.00681509 0.54509804 0.71372549 0.60000000
v -0.00061551 -0.00130696 0.0119122 0.54509804 0.71372549 0.60000000
v -0.00044636 -0.00137502 0.0119122 0.54509804 0.71372549 0.60000000
v -0.00027016 -0.00141961 0.0119122 0.54509804 0.71372549 0.60000000
v -8.927e-05 -0.00144308 0.0119122 0.54509804 0.71372549 0.60000000
v -0.00344166 -0.00249919 0.01121877 0.54509804 0.71372549 0.60000000
v -0.00232106 -0.00168716 0.01164879 0.54509804 0.71372549 0.60000000
v -0.00209084 -0.0019641 0.01164879 0.54509804 0.71372549 0.60000000
v -0.00092091 -0.00111452 0.0119122 0.54509804 0.71372549 0.60000000
v -0.00077291 -0.00122013 0.0119122 0.54509804 0.71372549 0.60000000
v -0.00372827 -0.00204858 0.01121877 0.54509804 0.71372549 0.60000000
v -0.00518481 -0.00205093 0.01062441 0.54509804 0.71372549 0.60000000
v -0.00891073 -0.0011239 0.00795654 0.54509804 0.71372549 0.60000000
v -0.0078935 -0.00099482 0.00898091 0.54509804 0.71372549 0.60000000
v -0.00676116 -0.00085166 0.00987471 0.54509804 0.71372549 0.60000000
v -0.0055325 -0.00069677 0.01062441 0.54509804 0.71372549 0.60000000
v -0.00540094 -0.00138676 0.01062441 0.54509804 0.71372549 0.60000000
v 0 2.7e-07 0.012 0.54509804 0.71372549 0.60000000
v 0.00105247 -0.00098778 0.0119122 0.54509804 0.71372549 0.60000000
v 0.00116993 -0.00084931 0.0119122 0.54509804 0.71372549 0.60000000
v 0.00251605 -0.00138206 0.01164879 0.54509804 0.71372549 0.60000000
v 0.00266875 -0.00105584 0.01164879 0.54509804 0.71372549 0.60000000
v 0.0039538 -0.00156512 0.01121877 0.54509804 0.71372549 0.60000000
v 0.0041206 -0.00105584 0.01121877 0.54509804 0.71372549 0.60000000
v 0.00795693 2.7e-07 0.00898091 0.54509804 0.71372549 0.60000000
v 0.00681519 2.7e-07 0.00987471 0.54509804 0.71372549 0.60000000
v 0.00422161 -0.00053248 0.01121877 0.54509804 0.71372549 0.60000000
v 0.0042545 2.7e-07 0.01121877 0.54509804 0.71372549 0.60000000
v 0.00557478 2.7e-07 0.01062441 0.54509804 0.71372549 0.60000000
v 0.01054111 0.00133096 0.00557684 0.54509804 0.71372549 0.60000000
v 0.0097964 0.00123709 0.00681509 0.54509804 0.71372549 0.60000000
v 0.00891073 0.00112443 0.00795654 0.54509804 0.71372549 0.60000000
v 0.01086766 0.00278839 0.00425303 0.54509804 0.71372549 0.60000000
v 0.01128348 0.00289635 0.00287069 0.54509804 0.71372549 0.60000000
v 0.01083242 0.00428806 0.00287069 0.54509804 0.71372549 0.60000000
v 0.01107439 0.00438429 0.00144558 0.54509804 0.71372549 0.60000000
v 0.01051527 0.0057807 2e-07 0.54509804 0.71372549 0.60000000
v 0.00970713 0.00705272 2e-07 0.54509804 0.71372549 0.60000000
v 0.00938058 0.00747986 -0.011 0.54509804 0.71372549 0.60000000
v -0.0115372 0.00296206 0.00144558 0.54509804 0.71372549 0.60000000
v -0.01155834 0.00145769 0.00287069 0.54509804 0.71372549 0.60000000
v -0.01115662 0.0044148 2e-07 0.54509804 0.71372549 0.60000000
v -0.01056695 0.00568447 -0.011 0.54509804 0.71372549 0.60000000
v -0.01113078 0.00140372 0.00425303 0.54509804 0.71372549 0.60000000
v -0.0112177 2.7e-07 0.00425303 0.54509804 0.71372549 0.60000000
v -0.01062334 2.7e-07 0.00557684 0.54509804 0.71372549 0.60000000
v -0.00987392 2.7e-07 0.00681509 0.54509804 0.71372549 0.60000000
v -0.00898121 2.7e-07 0.00795654 0.54509804 0.71372549 0.60000000
v -0.00251605 -0.00138206 0.01164879 0.54509804 0.71372549 0.60000000
v -0.00116993 -0.00084931 0.0119122 0.54509804 0.71372549 0.60000000
v -0.00105247 -0.00098778 0.0119122 0.54509804 0.71372549 0.60000000
v -0.0039538 -0.00156512 0.01121877 0.54509804 0.71372549 0.60000000
v -0.00266875 -0.00105584 0.01164879 0.54509804 0.71372549 0.60000000
v -0.0041206 -0.00105584 0.01121877 0.54509804 0.71372549 0.60000000
v -0.00795693 2.7e-07 0.00898091 0.54509804 0.71372549 0.60000000
v -0.00681519 2.7e-07 0.00987471 0.54509804 0.71372549 0.60000000
v -0.00557478 2.7e-07 0.01062441 0.54509804 0.71372549 0.60000000
v -0.0042545 2.7e-07 0.01121877 0.54509804 0.71372549 0.60000000
v -0.00422161 -0.00053248 0.01121877 0.54509804 0.71372549 0.60000000
v 8.927e-05 0.00144361 0.0119122 0.54509804 0.71372549 0.60000000
v 0.00027016 0.00142014 0.0119122 0.54509804 0.71372549 0.60000000
v 0.00044636 0.00137555 0.0119122 0.54509804 0.71372549 0.60000000
v 0.00061551 0.00130749 0.0119122 0.54509804 0.71372549 0.60000000
v 0.00077291 0.00122066 0.0119122 0.54509804 0.71372549 0.60000000
v 0.00092091 0.0011127 0.0119122 0.54509804 0.71372549 0.60000000
v 0.00105247 0.00098831 0.0119122 0.54509804 0.71372549 0.60000000
v 0.00116993 0.00084985 0.0119122 0.54509804 0.71372549 0.60000000
v 0.00126625 0.00069495 0.0119122 0.54509804 0.71372549 0.60000000
v 0.00134377 0.00053067 0.0119122 0.54509804 0.71372549 0.60000000
v 0.00140016 0.00035934 0.0119122 0.54509804 0.71372549 0.60000000
v 0.00143305 0.00018098 0.0119122 0.54509804 0.71372549 0.60000000
v 0.00144479 2.7e-07 0.0119122 0.54509804 0.71372549 0.60000000
v 0.00143305 -0.00018045 0.0119122 0.54509804 0.71372549 0.60000000
v 0.00140016 -0.00035881 0.0119122 0.54509804 0.71372549 0.60000000
v 0.00134377 -0.00053014 0.0119122 0.54509804 0.71372549 0.60000000
v 0.00126625 -0.00069677 0.0119122 0.54509804 0.71372549 0.60000000
v -0.00126625 -0.00069677 0.0119122 0.54509804 0.71372549 0.60000000
v -0.00134377 -0.00053014 0.0119122 0.54509804 0.71372549 0.60000000
v -0.00140016 -0.00035881 0.0119122 0.54509804 0.71372549 0.60000000
v -0.00143305 -0.00018045 0.0119122 0.54509804 0.71372549 0.60000000
v -0.00144479 2.7e-07 0.0119122 0.54509804 0.71372549 0.60000000
v -0.00143305 0.00018098 0.0119122 0.54509804 0.71372549 0.60000000
v -0.00140016 0.00035934 0.0119122 0.54509804 0.71372549 0.60000000
v -0.00134377 0.00053067 0.0119122 0.54509804 0.71372549 0.60000000
v -0.00126625 0.00069495 0.0119122 0.54509804 0.71372549 0.60000000
v -0.00116993 0.00084985 0.0119122 0.54509804 0.71372549 0.60000000
v -0.00105247 0.00098831 0.0119122 0.54509804 0.71372549 0.60000000
v -0.00092091 0.0011127 0.0119122 0.54509804 0.71372549 0.60000000
v -0.00077291 0.00122066 0.0119122 0.54509804 0.71372549 0.60000000
v -0.00061551 0.00130749 0.0119122 0.54509804 0.71372549 0.60000000
v -0.00044636 0.00137555 0.0119122 0.54509804 0.71372549 0.60000000
v -0.00027016 0.00142014 0.0119122 0.54509804 0.71372549 0.60000000
v -8.927e-05 0.00144361 0.0119122 0.54509804 0.71372549 0.60000000
v 0.00278152 -0.00071319 0.01164879 0.54509804 0.71372549 0.60000000
v 0.00676116 0.00085219 0.00987471 0.54509804 0.71372549 0.60000000
v 0.0078935 0.00099535 0.00898091 0.54509804 0.71372549 0.60000000
v 0.0055325 0.0006973 0.01062441 0.54509804 0.71372549 0.60000000
v 0.0028473 -0.00035881 0.01164879 0.54509804 0.71372549 0.60000000
v 0.00287079 2.7e-07 0.01164879 0.54509804 0.71372549 0.60000000
v 0.00422161 0.00053067 0.01121877 0.54509804 0.71372549 0.60000000
v 0.00956382 0.00245513 0.00681509 0.54509804 0.71372549 0.60000000
v 0.01028974 0.00264054 0.00557684 0.54509804 0.71372549 0.60000000
v 0.0086993 0.00223217 0.00795654 0.54509804 0.71372549 0.60000000
v 0.00987862 0.00391021 0.00557684 0.54509804 0.71372549 0.60000000
v 0.0104307 0.00412847 0.00425303 0.54509804 0.71372549 0.60000000
v 0.00983164 0.00540284 0.00425303 0.54509804 0.71372549 0.60000000
v 0.01020987 0.00561172 0.00287069 0.54509804 0.71372549 0.60000000
v 0.01043774 0.00573845 0.00144558 0.54509804 0.71372549 0.60000000
v 0.00963665 0.00700109 0.00144558 0.54509804 0.71372549 0.60000000
v 0.00874628 0.00821444 2e-07 0.54509804 0.71372549 0.60000000
v 0.0078935 0.00903586 -0.011 0.54509804 0.71372549 0.60000000
v -0.01128348 0.00289635 0.00287069 0.54509804 0.71372549 0.60000000
v -0.01107439 0.00438429 0.00144558 0.54509804 0.71372549 0.60000000
v -0.01083242 0.00428806 0.00287069 0.54509804 0.71372549 0.60000000
v -0.01086766 0.00278839 0.00425303 0.54509804 0.71372549 0.60000000
v -0.01051527 0.0057807 2e-07 0.54509804 0.71372549 0.60000000
v -0.00938058 0.00747986 -0.011 0.54509804 0.71372549 0.60000000
v -0.00970713 0.00705272 2e-07 0.54509804 0.71372549 0.60000000
v -0.01054111 0.00133096 0.00557684 0.54509804 0.71372549 0.60000000
v -0.0097964 0.00123709 0.00681509 0.54509804 0.71372549 0.60000000
v -0.00891073 0.00112443 0.00795654 0.54509804 0.71372549 0.60000000
v -0.00278152 -0.00071319 0.01164879 0.54509804 0.71372549 0.60000000
v -0.0078935 0.00099535 0.00898091 0.54509804 0.71372549 0.60000000
v -0.00676116 0.00085219 0.00987471 0.54509804 0.71372549 0.60000000
v -0.0055325 0.0006973 0.01062441 0.54509804 0.71372549 0.60000000
v -0.00422161 0.00053067 0.01121877 0.54509804 0.71372549 0.60000000
v -0.00287079 2.7e-07 0.01164879 0.54509804 0.71372549 0.60000000
v -0.0028473 -0.00035881 0.01164879 0.54509804 0.71372549 0.60000000
v 0.00017854 0.00286584 0.01164879 0.54509804 0.71372549 0.60000000
v 0.00053798 0.0028189 0.01164879 0.54509804 0.71372549 0.60000000
v 0.00088567 0.00272972 0.01164879 0.54509804 0.71372549 0.60000000
v 0.00122161 0.00259594 0.01164879 0.54509804 0.71372549 0.60000000
v 0.00153876 0.00242462 0.01164879 0.54509804 0.71372549 0.60000000
v 0.00183007 0.00221105 0.01164879 0.54509804 0.71372549 0.60000000
v 0.00209084 0.00196463 0.01164879 0.54509804 0.71372549 0.60000000
v 0.00232106 0.00168769 0.01164879 0.54509804 0.71372549 0.60000000
v 0.00251605 0.00138259 0.01164879 0.54509804 0.71372549 0.60000000
v 0.00266875 0.00105637 0.01164879 0.54509804 0.71372549 0.60000000
v 0.00278152 0.00071373 0.01164879 0.54509804 0.71372549 0.60000000
v 0.0028473 0.00035934 0.01164879 0.54509804 0.71372549 0.60000000
v -0.0028473 0.00035934 0.01164879 0.54509804 0.71372549 0.60000000
v -0.00278152 0.00071373 0.01164879 0.54509804 0.71372549 0.60000000
v -0.00266875 0.00105637 0.01164879 0.54509804 0.71372549 0.60000000
v -0.00251605 0.00138259 0.01164879 0.54509804 0.71372549 0.60000000
v -0.00232106 0.00168769 0.01164879 0.54509804 0.71372549 0.60000000
v -0.00209084 0.00196463 0.01164879 0.54509804 0.71372549 0.60000000
v -0.00183007 0.00221105 0.01164879 0.54509804 0.71372549 0.60000000
v -0.00153876 0.00242462 0.01164879 0.54509804 0.71372549 0.60000000
v -0.00122161 0.00259594 0.01164879 0.54509804 0.71372549 0.60000000
v -0.00053798 0.0028189 0.01164879 0.54509804 0.71372549 0.60000000
v -0.00088567 0.00272972 0.01164879 0.54509804 0.71372549 0.60000000
v -0.00017854 0.00286584 0.01164879 0.54509804 0.71372549 0.60000000
v 0.00660141 0.00169473 0.00987471 0.54509804 0.71372549 0.60000000
v 0.00770556 0.00197871 0.00898091 0.54509804 0.71372549 0.60000000
v 0.00540094 0.00138494 0.01062441 0.54509804 0.71372549 0.60000000
v 0.0041206 0.00105637 0.01121877 0.54509804 0.71372549 0.60000000
v 0.00918089 0.00363562 0.00681509 0.54509804 0.71372549 0.60000000
v 0.00739781 0.00292686 0.00898091 0.54509804 0.71372549 0.60000000
v 0.00834926 0.00330471 0.00795654 0.54509804 0.71372549 0.60000000
v 0.0093101 0.00511887 0.00557684 0.54509804 0.71372549 0.60000000
v 0.00859593 0.00624304 0.00557684 0.54509804 0.71372549 0.60000000
v 0.00907518 0.00659273 0.00425303 0.54509804 0.71372549 0.60000000
v 0.00942522 0.00684619 0.00287069 0.54509804 0.71372549 0.60000000
v 0.00849256 0.00797506 0.00287069 0.54509804 0.71372549 0.60000000
v 0.00868285 0.00815342 0.00144558 0.54509804 0.71372549 0.60000000
v 0.0075928 0.00917667 0.00144558 0.54509804 0.71372549 0.60000000
v 0.00764683 0.00924473 2e-07 0.54509804 0.71372549 0.60000000
v 0.00642991 0.01013186 2e-07 0.54509804 0.71372549 0.60000000
v 0.0061527 0.01030084 -0.011 0.54509804 0.71372549 0.60000000
v -0.01043774 0.00573845 0.00144558 0.54509804 0.71372549 0.60000000
v -0.01020987 0.00561172 0.00287069 0.54509804 0.71372549 0.60000000
v -0.00983164 0.00540284 0.00425303 0.54509804 0.71372549 0.60000000
v -0.0104307 0.00412847 0.00425303 0.54509804 0.71372549 0.60000000
v -0.00987862 0.00391021 0.00557684 0.54509804 0.71372549 0.60000000
v -0.01028974 0.00264054 0.00557684 0.54509804 0.71372549 0.60000000
v -0.00963665 0.00700109 0.00144558 0.54509804 0.71372549 0.60000000
v -0.00874628 0.00821444 2e-07 0.54509804 0.71372549 0.60000000
v -0.0078935 0.00903586 -0.011 0.54509804 0.71372549 0.60000000
v -0.00956382 0.00245513 0.00681509 0.54509804 0.71372549 0.60000000
v -0.0086993 0.00223217 0.00795654 0.54509804 0.71372549 0.60000000
v -0.00770556 0.00197871 0.00898091 0.54509804 0.71372549 0.60000000
v -0.00660141 0.00169473 0.00987471 0.54509804 0.71372549 0.60000000
v -0.00540094 0.00138494 0.01062441 0.54509804 0.71372549 0.60000000
v -0.0041206 0.00105637 0.01121877 0.54509804 0.71372549 0.60000000
v 0.00026547 0.00424582 0.01121877 0.54509804 0.71372549 0.60000000
v 0.0007964 0.00417776 0.01121877 0.54509804 0.71372549 0.60000000
v 0.00131323 0.00404633 0.01121877 0.54509804 0.71372549 0.60000000
v 0.00181128 0.00384919 0.01121877 0.54509804 0.71372549 0.60000000
v 0.00227878 0.00359103 0.01121877 0.54509804 0.71372549 0.60000000
v 0.00271104 0.00327889 0.01121877 0.54509804 0.71372549 0.60000000
v 0.00310102 0.00291278 0.01121877 0.54509804 0.71372549 0.60000000
v 0.00344166 0.00249972 0.01121877 0.54509804 0.71372549 0.60000000
v 0.00372827 0.00204912 0.01121877 0.54509804 0.71372549 0.60000000
v 0.0039538 0.00156565 0.01121877 0.54509804 0.71372549 0.60000000
v -0.0039538 0.00156565 0.01121877 0.54509804 0.71372549 0.60000000
v -0.00372827 0.00204912 0.01121877 0.54509804 0.71372549 0.60000000
v -0.00344166 0.00249972 0.01121877 0.54509804 0.71372549 0.60000000
v -0.00310102 0.00291278 0.01121877 0.54509804 0.71372549 0.60000000
v -0.00271104 0.00327889 0.01121877 0.54509804 0.71372549 0.60000000
v -0.00227878 0.00359103 0.01121877 0.54509804 0.71372549 0.60000000
v -0.00181128 0.00384919 0.01121877 0.54509804 0.71372549 0.60000000
v -0.00131323 0.00404633 0.01121877 0.54509804 0.71372549 0.60000000
v -0.0007964 0.00417776 0.01121877 0.54509804 0.71372549 0.60000000
v -0.00026547 0.00424582 0.01121877 0.54509804 0.71372549 0.60000000
v 0.00518481 0.00205146 0.01062441 0.54509804 0.71372549 0.60000000
v 0.00633594 0.00250676 0.00987471 0.54509804 0.71372549 0.60000000
v 0.00787001 0.00432561 0.00795654 0.54509804 0.71372549 0.60000000
v 0.00865231 0.00475745 0.00681509 0.54509804 0.71372549 0.60000000
v 0.00597181 0.00328359 0.00987471 0.54509804 0.71372549 0.60000000
v 0.00697259 0.00383276 0.00898091 0.54509804 0.71372549 0.60000000
v 0.00798982 0.00580417 0.00681509 0.54509804 0.71372549 0.60000000
v 0.0077455 0.00727333 0.00557684 0.54509804 0.71372549 0.60000000
v 0.00817776 0.00767934 0.00425303 0.54509804 0.71372549 0.60000000
v 0.00715114 0.00864392 0.00425303 0.54509804 0.71372549 0.60000000
v 0.007426 0.00897484 0.00287069 0.54509804 0.71372549 0.60000000
v 0.00624197 0.00983615 0.00287069 0.54509804 0.71372549 0.60000000
v 0.00638293 0.01005676 0.00144558 0.54509804 0.71372549 0.60000000
v 0.00506969 0.01077726 0.00144558 0.54509804 0.71372549 0.60000000
v 0.00510728 0.01085706 2e-07 0.54509804 0.71372549 0.60000000
v 0.00421457 0.01123491 -0.011 0.54509804 0.71372549 0.60000000
v -0.00942522 0.00684619 0.00287069 0.54509804 0.71372549 0.60000000
v -0.00907518 0.00659273 0.00425303 0.54509804 0.71372549 0.60000000
v -0.00859593 0.00624304 0.00557684 0.54509804 0.71372549 0.60000000
v -0.0093101 0.00511887 0.00557684 0.54509804 0.71372549 0.60000000
v -0.00918089 0.00363562 0.00681509 0.54509804 0.71372549 0.60000000
v -0.00868285 0.00815342 0.00144558 0.54509804 0.71372549 0.60000000
v -0.00849256 0.00797506 0.00287069 0.54509804 0.71372549 0.60000000
v -0.00764683 0.00924473 2e-07 0.54509804 0.71372549 0.60000000
v -0.0075928 0.00917667 0.00144558 0.54509804 0.71372549 0.60000000
v -0.0061527 0.01030084 -0.011 0.54509804 0.71372549 0.60000000
v -0.00642991 0.01013186 2e-07 0.54509804 0.71372549 0.60000000
v -0.00834926 0.00330471 0.00795654 0.54509804 0.71372549 0.60000000
v -0.00739781 0.00292686 0.00898091 0.54509804 0.71372549 0.60000000
v -0.00633594 0.00250676 0.00987471 0.54509804 0.71372549 0.60000000
v -0.00518481 0.00205146 0.01062441 0.54509804 0.71372549 0.60000000
v 0.00034769 0.00556478 0.01062441 0.54509804 0.71372549 0.60000000
v 0.00104307 0.00547795 0.01062441 0.54509804 0.71372549 0.60000000
v 0.001722 0.00530193 0.01062441 0.54509804 0.71372549 0.60000000
v 0.00237275 0.00504377 0.01062441 0.54509804 0.71372549 0.60000000
v 0.0029859 0.00470816 0.01062441 0.54509804 0.71372549 0.60000000
v 0.00355442 0.00429511 0.01062441 0.54509804 0.71372549 0.60000000
v 0.00406421 0.00381634 0.01062441 0.54509804 0.71372549 0.60000000
v 0.00451057 0.00327655 0.01062441 0.54509804 0.71372549 0.60000000
v 0.00488645 0.00268513 0.01062441 0.54509804 0.71372549 0.60000000
v -0.00488645 0.00268513 0.01062441 0.54509804 0.71372549 0.60000000
v -0.00451057 0.00327655 0.01062441 0.54509804 0.71372549 0.60000000
v -0.00406421 0.00381634 0.01062441 0.54509804 0.71372549 0.60000000
v -0.00355442 0.00429511 0.01062441 0.54509804 0.71372549 0.60000000
v -0.0029859 0.00470816 0.01062441 0.54509804 0.71372549 0.60000000
v -0.001722 0.00530193 0.01062441 0.54509804 0.71372549 0.60000000
v -0.00237275 0.00504377 0.01062441 0.54509804 0.71372549 0.60000000
v -0.00104307 0.00547795 0.01062441 0.54509804 0.71372549 0.60000000
v -0.00034769 0.00556478 0.01062441 0.54509804 0.71372549 0.60000000
v 0.00726625 0.00527846 0.00795654 0.54509804 0.71372549 0.60000000
v 0.0055137 0.00400644 0.00987471 0.54509804 0.71372549 0.60000000
v 0.00643696 0.0046753 0.00898091 0.54509804 0.71372549 0.60000000
v 0.00654738 0.00614681 0.00795654 0.54509804 0.71372549 0.60000000
v 0.00719812 0.00675936 0.00681509 0.54509804 0.71372549 0.60000000
v 0.00629366 0.00760894 0.00681509 0.54509804 0.71372549 0.60000000
v 0.00677291 0.00818628 0.00557684 0.54509804 0.71372549 0.60000000
v 0.00601175 0.00947238 0.00425303 0.54509804 0.71372549 0.60000000
v 0.00495928 0.01054022 0.00287069 0.54509804 0.71372549 0.60000000
v 0.00359906 0.01108001 0.00287069 0.54509804 0.71372549 0.60000000
v 0.00367894 0.01132878 0.00144558 0.54509804 0.71372549 0.60000000
v 0.00420752 0.01121379 2e-07 0.54509804 0.71372549 0.60000000
v 0.00370713 0.01141093 2e-07 0.54509804 0.71372549 0.60000000
v 0.00214252 0.01180521 -0.011 0.54509804 0.71372549 0.60000000
v -0.00817776 0.00767934 0.00425303 0.54509804 0.71372549 0.60000000
v -0.0077455 0.00727333 0.00557684 0.54509804 0.71372549 0.60000000
v -0.00798982 0.00580417 0.00681509 0.54509804 0.71372549 0.60000000
v -0.00865231 0.00475745 0.00681509 0.54509804 0.71372549 0.60000000
v -0.00787001 0.00432561 0.00795654 0.54509804 0.71372549 0.60000000
v -0.007426 0.00897484 0.00287069 0.54509804 0.71372549 0.60000000
v -0.00715114 0.00864392 0.00425303 0.54509804 0.71372549 0.60000000
v -0.00638293 0.01005676 0.00144558 0.54509804 0.71372549 0.60000000
v -0.00624197 0.00983615 0.00287069 0.54509804 0.71372549 0.60000000
v -0.00510728 0.01085706 2e-07 0.54509804 0.71372549 0.60000000
v -0.00421457 0.01123491 -0.011 0.54509804 0.71372549 0.60000000
v -0.00506969 0.01077726 0.00144558 0.54509804 0.71372549 0.60000000
v -0.00697259 0.00383276 0.00898091 0.54509804 0.71372549 0.60000000
v -0.00597181 0.00328359 0.00987471 0.54509804 0.71372549 0.60000000
v 0.00042756 0.0068016 0.00987471 0.54509804 0.71372549 0.60000000
v 0.00127565 0.00669599 0.00987471 0.54509804 0.71372549 0.60000000
v 0.00210493 0.00648242 0.00987471 0.54509804 0.71372549 0.60000000
v 0.00290133 0.00616794 0.00987471 0.54509804 0.71372549 0.60000000
v 0.00365074 0.00575488 0.00987471 0.54509804 0.71372549 0.60000000
v 0.00434377 0.0052503 0.00987471 0.54509804 0.71372549 0.60000000
v 0.00496868 0.00466592 0.00987471 0.54509804 0.71372549 0.60000000
v -0.0055137 0.00400644 0.00987471 0.54509804 0.71372549 0.60000000
v -0.00496868 0.00466592 0.00987471 0.54509804 0.71372549 0.60000000
v -0.00434377 0.0052503 0.00987471 0.54509804 0.71372549 0.60000000
v -0.00365074 0.00575488 0.00987471 0.54509804 0.71372549 0.60000000
v -0.00290133 0.00616794 0.00987471 0.54509804 0.71372549 0.60000000
v -0.00210493 0.00648242 0.00987471 0.54509804 0.71372549 0.60000000
v -0.00127565 0.00669599 0.00987471 0.54509804 0.71372549 0.60000000
v -0.00042756 0.0068016 0.00987471 0.54509804 0.71372549 0.60000000
v 0.00580031 0.00544509 0.00898091 0.54509804 0.71372549 0.60000000
v 0.00506969 0.00613039 0.00898091 0.54509804 0.71372549 0.60000000
v 0.00572279 0.00691895 0.00795654 0.54509804 0.71372549 0.60000000
v 0.00481128 0.00758312 0.00795654 0.54509804 0.71372549 0.60000000
v 0.00529052 0.00833648 0.00681509 0.54509804 0.71372549 0.60000000
v 0.00569225 0.00897014 0.00557684 0.54509804 0.71372549 0.60000000
v 0.00452232 0.0096132 0.00557684 0.54509804 0.71372549 0.60000000
v 0.00477604 0.01015064 0.00425303 0.54509804 0.71372549 0.60000000
v 0.00346515 0.0106693 0.00425303 0.54509804 0.71372549 0.60000000
v 0.00218246 0.01144378 0.00287069 0.54509804 0.71372549 0.60000000
v 0.00223179 0.01170194 0.00144558 0.54509804 0.71372549 0.60000000
v 0.00224824 0.01178643 2e-07 0.54509804 0.71372549 0.60000000
v 0.00214017 0.01180051 2e-07 0.54509804 0.71372549 0.60000000
v 0.00075176 0.01197418 2e-07 0.54509804 0.71372549 0.60000000
v 0 0.01199765 -0.011 0.54509804 0.71372549 0.60000000
v -0.00677291 0.00818628 0.00557684 0.54509804 0.71372549 0.60000000
v -0.00629366 0.00760894 0.00681509 0.54509804 0.71372549 0.60000000
v -0.00719812 0.00675936 0.00681509 0.54509804 0.71372549 0.60000000
v -0.00654738 0.00614681 0.00795654 0.54509804 0.71372549 0.60000000
v -0.00726625 0.00527846 0.00795654 0.54509804 0.71372549 0.60000000
v -0.00601175 0.00947238 0.00425303 0.54509804 0.71372549 0.60000000
v -0.00495928 0.01054022 0.00287069 0.54509804 0.71372549 0.60000000
v -0.00420752 0.01121379 2e-07 0.54509804 0.71372549 0.60000000
v -0.00367894 0.01132878 0.00144558 0.54509804 0.71372549 0.60000000
v -0.00214252 0.01180521 -0.011 0.54509804 0.71372549 0.60000000
v -0.00370713 0.01141093 2e-07 0.54509804 0.71372549 0.60000000
v -0.00359906 0.01108001 0.00287069 0.54509804 0.71372549 0.60000000
v -0.00643696 0.0046753 0.00898091 0.54509804 0.71372549 0.60000000
v 0.00049804 0.00793985 0.00898091 0.54509804 0.71372549 0.60000000
v 0.00148943 0.00781547 0.00898091 0.54509804 0.71372549 0.60000000
v 0.00245732 0.00756669 0.00898091 0.54509804 0.71372549 0.60000000
v 0.00338763 0.00719823 0.00898091 0.54509804 0.71372549 0.60000000
v 0.0042639 0.00671711 0.00898091 0.54509804 0.71372549 0.60000000
v -0.00580031 0.00544509 0.00898091 0.54509804 0.71372549 0.60000000
v -0.00506969 0.00613039 0.00898091 0.54509804 0.71372549 0.60000000
v -0.0042639 0.00671711 0.00898091 0.54509804 0.71372549 0.60000000
v -0.00338763 0.00719823 0.00898091 0.54509804 0.71372549 0.60000000
v -0.00245732 0.00756669 0.00898091 0.54509804 0.71372549 0.60000000
v -0.00148943 0.00781547 0.00898091 0.54509804 0.71372549 0.60000000
v -0.00049804 0.00793985 0.00898091 0.54509804 0.71372549 0.60000000
v 0.00382224 0.00812526 0.00795654 0.54509804 0.71372549 0.60000000
v 0.00420282 0.00893494 0.00681509 0.54509804 0.71372549 0.60000000
v 0.00305168 0.00939024 0.00681509 0.54509804 0.71372549 0.60000000
v 0.00328191 0.0101037 0.00557684 0.54509804 0.71372549 0.60000000
v 0.00198982 0.01043696 0.00557684 0.54509804 0.71372549 0.60000000
v 0.00210023 0.01101899 0.00425303 0.54509804 0.71372549 0.60000000
v 0.00070478 0.01119736 0.00425303 0.54509804 0.71372549 0.60000000
v 0.00073062 0.01162684 0.00287069 0.54509804 0.71372549 0.60000000
v 0.00074706 0.01188735 0.00144558 0.54509804 0.71372549 0.60000000
v 0 0.01199765 2e-07 0.54509804 0.71372549 0.60000000
v -0.00075176 0.01197418 2e-07 0.54509804 0.71372549 0.60000000
v -0.00569225 0.00897014 0.00557684 0.54509804 0.71372549 0.60000000
v -0.00529052 0.00833648 0.00681509 0.54509804 0.71372549 0.60000000
v -0.00481128 0.00758312 0.00795654 0.54509804 0.71372549 0.60000000
v -0.00572279 0.00691895 0.00795654 0.54509804 0.71372549 0.60000000
v -0.00477604 0.01015064 0.00425303 0.54509804 0.71372549 0.60000000
v -0.00452232 0.0096132 0.00557684 0.54509804 0.71372549 0.60000000
v -0.00223179 0.01170194 0.00144558 0.54509804 0.71372549 0.60000000
v -0.00214017 0.01180051 2e-07 0.54509804 0.71372549 0.60000000
v -0.00224824 0.01178643 2e-07 0.54509804 0.71372549 0.60000000
v -0.00218246 0.01144378 0.00287069 0.54509804 0.71372549 0.60000000
v -0.00346515 0.0106693 0.00425303 0.54509804 0.71372549 0.60000000
v 0.00056382 0.0089631 0.00795654 0.54509804 0.71372549 0.60000000
v 0.00168207 0.00882229 0.00795654 0.54509804 0.71372549 0.60000000
v 0.00277447 0.00854066 0.00795654 0.54509804 0.71372549 0.60000000
v -0.00277447 0.00854066 0.00795654 0.54509804 0.71372549 0.60000000
v -0.00382224 0.00812526 0.00795654 0.54509804 0.71372549 0.60000000
v -0.00168207 0.00882229 0.00795654 0.54509804 0.71372549 0.60000000
v -0.00056382 0.0089631 0.00795654 0.54509804 0.71372549 0.60000000
v 0.00184886 0.00970003 0.00681509 0.54509804 0.71372549 0.60000000
v 0.00061785 0.00985493 0.00681509 0.54509804 0.71372549 0.60000000
v 0.00066484 0.01060359 0.00557684 0.54509804 0.71372549 0.60000000
v -0.00070478 0.01119736 0.00425303 0.54509804 0.71372549 0.60000000
v -0.00073062 0.01162684 0.00287069 0.54509804 0.71372549 0.60000000
v -0.00074706 0.01188735 0.00144558 0.54509804 0.71372549 0.60000000
v -0.00420282 0.00893494 0.00681509 0.54509804 0.71372549 0.60000000
v -0.00328191 0.0101037 0.00557684 0.54509804 0.71372549 0.60000000
v -0.00305168 0.00939024 0.00681509 0.54509804 0.71372549 0.60000000
v -0.00210023 0.01101899 0.00425303 0.54509804 0.71372549 0.60000000
v -0.00198982 0.01043696 0.00557684 0.54509804 0.71372549 0.60000000
v -0.00184886 0.00970003 0.00681509 0.54509804 0.71372549 0.60000000
v -0.00061785 0.00985493 0.00681509 0.54509804 0.71372549 0.60000000
v -0.00066484 0.01060359 0.00557684 0.54509804 0.71372549 0.60000000
f 3 2 1
f 4 3 1
f 11 4 1
f 5 11 1
f 6 5 1
f 2 6 1
f 13 6 2
f 7 13 2
f 8 7 2
f 3 8 2
f 9 8 3
f 4 9 3
f 10 9 4
f 20 10 4
f 38 20 4
f 58 38 4
f 83 58 4
f 109 83 4
f 140 109 4
f 176 140 4
f 215 176 4
f 264 215 4
f 313 264 4
f 361 313 4
f 433 361 4
f 491 433 4
f 542 491 4
f 589 542 4
f 633 589 4
f 643 633 4
f 600 643 4
f 552 600 4
f 500 552 4
f 439 500 4
f 365 439 4
f 319 365 4
f 266 319 4
f 216 266 4
f 177 216 4
f 141 177 4
f 111 141 4
f 85 111 4
f 59 85 4
f 39 59 4
f 21 39 4
f 11 21 4
f 12 11 5
f 6 12 5
f 14 12 6
f 13 14 6
f 16 15 7
f 8 16 7
f 24 13 7
f 15 24 7
f 17 16 8
f 18 17 8
f 19 18 8
f 9 19 8
f 10 19 9
f 20 19 10
f 22 21 11
f 12 22 11
f 14 22 12
f 23 14 13
f 24 23 13
f 25 22 14
f 26 25 14
f 27 26 14
f 23 27 14
f 41 24 15
f 28 41 15
f 29 28 15
f 30 29 15
f 16 30 15
f 17 30 16
f 31 30 17
f 32 31 17
f 33 32 17
f 34 33 17
f 18 34 17
f 19 34 18
f 35 34 19
f 20 35 19
f 36 35 20
f 37 36 20
f 38 37 20
f 22 25 21
f 25 39 21
f 40 27 23
f 24 40 23
f 42 40 24
f 41 42 24
f 43 39 25
f 44 43 25
f 26 44 25
f 27 44 26
f 45 44 27
f 46 45 27
f 47 46 27
f 40 47 27
f 29 48 28
f 62 41 28
f 48 62 28
f 49 48 29
f 50 49 29
f 51 50 29
f 31 51 29
f 30 31 29
f 52 51 31
f 32 52 31
f 53 52 32
f 54 53 32
f 33 54 32
f 34 54 33
f 35 36 34
f 55 54 34
f 36 55 34
f 37 55 36
f 56 55 37
f 57 56 37
f 38 57 37
f 58 57 38
f 60 59 39
f 61 60 39
f 43 61 39
f 42 47 40
f 62 42 41
f 62 63 42
f 64 47 42
f 65 64 42
f 63 65 42
f 44 61 43
f 66 61 44
f 67 66 44
f 45 67 44
f 46 67 45
f 47 68 46
f 69 67 46
f 68 69 46
f 64 68 47
f 49 70 48
f 87 62 48
f 70 87 48
f 71 70 49
f 72 71 49
f 50 72 49
f 73 72 50
f 52 73 50
f 51 52 50
f 74 73 52
f 53 74 52
f 75 74 53
f 76 75 53
f 54 76 53
f 77 76 54
f 56 77 54
f 55 56 54
f 78 77 56
f 79 78 56
f 80 79 56
f 81 80 56
f 57 81 56
f 58 81 57
f 80 81 58
f 82 80 58
f 83 82 58
f 60 84 59
f 84 85 59
f 61 66 60
f 86 84 60
f 66 86 60
f 87 63 62
f 87 88 63
f 89 65 63
f 88 89 63
f 65 68 64
f 90 68 65
f 89 90 65
f 67 86 66
f 91 86 67
f 92 91 67
f 69 92 67
f 93 69 68
f 90 93 68
f 94 92 69
f 93 94 69
f 116 87 70
f 95 116 70
f 71 95 70
f 96 95 71
f 72 96 71
f 98 97 72
f 99 98 72
f 73 99 72
f 97 96 72
f 100 99 73
f 101 100 73
f 74 101 73
f 102 101 74
f 75 102 74
f 76 103 75
f 103 102 75
f 104 103 76
f 77 104 76
f 78 104 77
f 106 105 78
f 107 106 78
f 79 107 78
f 105 104 78
f 80 107 79
f 82 107 80
f 108 107 82
f 83 108 82
f 109 108 83
f 110 85 84
f 86 110 84
f 112 111 85
f 113 112 85
f 110 113 85
f 113 110 86
f 114 113 86
f 115 114 86
f 91 115 86
f 116 88 87
f 116 117 88
f 117 89 88
f 118 90 89
f 119 118 89
f 120 119 89
f 117 120 89
f 121 93 90
f 122 121 90
f 118 122 90
f 123 115 91
f 92 123 91
f 124 123 92
f 94 124 92
f 125 94 93
f 121 125 93
f 125 124 94
f 127 126 95
f 96 127 95
f 147 116 95
f 126 147 95
f 97 127 96
f 129 128 97
f 98 129 97
f 128 127 97
f 130 129 98
f 99 130 98
f 100 130 99
f 131 130 100
f 102 131 100
f 101 102 100
f 132 131 102
f 133 132 102
f 103 133 102
f 135 134 103
f 105 135 103
f 104 105 103
f 134 133 103
f 136 135 105
f 106 136 105
f 137 136 106
f 107 137 106
f 138 137 107
f 108 138 107
f 139 138 108
f 109 139 108
f 140 139 109
f 142 141 111
f 112 142 111
f 113 143 112
f 143 142 112
f 114 143 113
f 115 143 114
f 144 143 115
f 145 144 115
f 123 145 115
f 146 117 116
f 147 146 116
f 146 120 117
f 148 122 118
f 119 148 118
f 120 149 119
f 149 148 119
f 150 149 120
f 146 150 120
f 122 125 121
f 151 125 122
f 148 151 122
f 124 145 123
f 152 145 124
f 153 152 124
f 154 153 124
f 125 154 124
f 151 155 125
f 155 154 125
f 184 147 126
f 156 184 126
f 127 156 126
f 158 157 127
f 128 158 127
f 157 156 127
f 129 158 128
f 159 158 129
f 199 159 129
f 160 199 129
f 130 160 129
f 162 161 130
f 131 162 130
f 161 160 130
f 163 162 131
f 132 163 131
f 134 164 132
f 133 134 132
f 164 163 132
f 165 164 134
f 166 165 134
f 167 166 134
f 135 167 134
f 136 167 135
f 168 167 136
f 169 168 136
f 170 169 136
f 137 170 136
f 138 170 137
f 171 170 138
f 139 171 138
f 172 171 139
f 173 172 139
f 140 173 139
f 174 173 140
f 175 174 140
f 176 175 140
f 178 177 141
f 142 178 141
f 143 179 142
f 179 178 142
f 144 180 143
f 180 179 143
f 181 180 144
f 145 181 144
f 152 181 145
f 182 150 146
f 183 182 146
f 184 183 146
f 147 184 146
f 186 185 148
f 149 186 148
f 187 151 148
f 185 187 148
f 182 188 149
f 150 182 149
f 231 186 149
f 188 231 149
f 189 155 151
f 187 189 151
f 190 181 152
f 153 190 152
f 192 191 153
f 155 192 153
f 154 155 153
f 193 190 153
f 191 193 153
f 189 192 155
f 195 194 156
f 157 195 156
f 228 184 156
f 194 228 156
f 158 195 157
f 196 195 158
f 197 196 158
f 159 197 158
f 199 198 159
f 198 197 159
f 161 200 160
f 200 199 160
f 201 200 161
f 163 201 161
f 162 163 161
f 202 201 163
f 203 202 163
f 164 203 163
f 204 203 164
f 165 204 164
f 206 205 165
f 166 206 165
f 207 204 165
f 205 207 165
f 167 206 166
f 168 206 167
f 209 208 168
f 169 209 168
f 210 206 168
f 208 210 168
f 170 209 169
f 211 209 170
f 172 211 170
f 171 172 170
f 213 212 172
f 174 213 172
f 173 174 172
f 212 211 172
f 175 213 174
f 176 214 175
f 214 213 175
f 215 214 176
f 217 216 177
f 218 217 177
f 219 218 177
f 178 219 177
f 179 220 178
f 221 219 178
f 220 221 178
f 222 220 179
f 180 222 179
f 181 222 180
f 223 222 181
f 224 223 181
f 190 224 181
f 225 188 182
f 226 225 182
f 227 226 182
f 183 227 182
f 184 227 183
f 228 227 184
f 189 187 185
f 229 189 185
f 230 229 185
f 186 230 185
f 231 230 186
f 232 231 188
f 225 232 188
f 233 192 189
f 234 233 189
f 229 234 189
f 193 235 190
f 235 224 190
f 235 193 191
f 236 235 191
f 237 236 191
f 238 237 191
f 192 238 191
f 233 238 192
f 276 228 194
f 239 276 194
f 195 239 194
f 240 239 195
f 196 240 195
f 242 241 196
f 197 242 196
f 241 240 196
f 198 242 197
f 200 243 198
f 199 200 198
f 244 242 198
f 245 244 198
f 243 245 198
f 201 246 200
f 247 243 200
f 246 247 200
f 248 246 201
f 202 248 201
f 204 249 202
f 203 204 202
f 250 248 202
f 249 250 202
f 207 249 204
f 251 207 205
f 206 251 205
f 210 251 206
f 252 249 207
f 253 252 207
f 254 253 207
f 251 254 207
f 255 210 208
f 209 255 208
f 256 255 209
f 212 256 209
f 211 212 209
f 255 257 210
f 257 251 210
f 259 258 212
f 213 259 212
f 258 256 212
f 214 259 213
f 260 259 214
f 261 260 214
f 215 261 214
f 262 261 215
f 263 262 215
f 264 263 215
f 217 265 216
f 265 266 216
f 218 267 217
f 267 265 217
f 219 221 218
f 221 267 218
f 222 221 220
f 222 268 221
f 269 267 221
f 268 269 221
f 270 268 222
f 223 270 222
f 224 270 223
f 271 270 224
f 272 271 224
f 235 272 224
f 226 273 225
f 273 232 225
f 274 273 226
f 275 274 226
f 227 275 226
f 276 275 227
f 228 276 227
f 278 277 229
f 230 278 229
f 277 234 229
f 279 278 230
f 280 279 230
f 232 280 230
f 231 232 230
f 281 280 232
f 282 281 232
f 273 282 232
f 234 238 233
f 283 238 234
f 284 283 234
f 277 284 234
f 236 285 235
f 285 272 235
f 237 285 236
f 287 286 237
f 283 287 237
f 238 283 237
f 288 285 237
f 286 288 237
f 240 289 239
f 327 276 239
f 289 327 239
f 290 289 240
f 291 290 240
f 241 291 240
f 242 291 241
f 292 291 242
f 244 292 242
f 247 245 243
f 293 292 244
f 294 293 244
f 245 294 244
f 295 294 245
f 247 295 245
f 248 247 246
f 296 295 247
f 297 296 247
f 248 297 247
f 250 297 248
f 252 250 249
f 298 297 250
f 299 298 250
f 252 299 250
f 257 300 251
f 301 254 251
f 300 301 251
f 253 299 252
f 301 302 253
f 254 301 253
f 303 299 253
f 304 303 253
f 302 304 253
f 306 305 255
f 256 306 255
f 307 257 255
f 305 307 255
f 258 306 256
f 308 300 257
f 307 308 257
f 309 306 258
f 310 309 258
f 259 310 258
f 260 310 259
f 261 262 260
f 311 310 260
f 262 311 260
f 263 311 262
f 312 311 263
f 264 312 263
f 313 312 264
f 314 266 265
f 315 314 265
f 316 315 265
f 267 316 265
f 318 317 266
f 314 318 266
f 317 319 266
f 269 316 267
f 270 269 268
f 321 320 269
f 270 321 269
f 320 316 269
f 322 321 270
f 271 322 270
f 272 322 271
f 323 322 272
f 285 323 272
f 324 282 273
f 325 324 273
f 274 325 273
f 275 325 274
f 326 325 275
f 327 326 275
f 276 327 275
f 328 284 277
f 279 328 277
f 278 279 277
f 329 328 279
f 330 329 279
f 281 330 279
f 280 281 279
f 331 330 281
f 282 331 281
f 332 331 282
f 324 332 282
f 284 287 283
f 328 333 284
f 334 287 284
f 333 334 284
f 335 323 285
f 336 335 285
f 288 336 285
f 336 288 286
f 337 336 286
f 338 337 286
f 339 338 286
f 334 339 286
f 287 334 286
f 290 340 289
f 340 327 289
f 291 340 290
f 292 340 291
f 293 340 292
f 294 340 293
f 295 341 294
f 341 340 294
f 342 341 295
f 296 342 295
f 297 343 296
f 343 342 296
f 298 343 297
f 344 343 298
f 345 344 298
f 299 345 298
f 346 345 299
f 303 346 299
f 347 301 300
f 308 347 300
f 347 302 301
f 348 304 302
f 347 348 302
f 349 346 303
f 304 349 303
f 350 349 304
f 351 350 304
f 348 351 304
f 352 307 305
f 306 352 305
f 309 352 306
f 353 308 307
f 352 353 307
f 354 347 308
f 353 354 308
f 355 352 309
f 310 355 309
f 311 356 310
f 356 355 310
f 357 356 311
f 358 357 311
f 312 358 311
f 359 358 312
f 313 359 312
f 360 359 313
f 361 360 313
f 315 318 314
f 362 318 315
f 363 362 315
f 316 363 315
f 320 363 316
f 318 362 317
f 364 319 317
f 362 364 317
f 364 365 319
f 366 363 320
f 367 366 320
f 321 367 320
f 322 367 321
f 368 367 322
f 369 368 322
f 323 369 322
f 370 369 323
f 335 370 323
f 340 332 324
f 325 340 324
f 326 340 325
f 327 340 326
f 329 371 328
f 371 333 328
f 372 371 329
f 330 372 329
f 373 372 330
f 331 373 330
f 340 373 331
f 332 340 331
f 374 334 333
f 375 374 333
f 371 375 333
f 376 339 334
f 374 376 334
f 377 370 335
f 336 377 335
f 337 377 336
f 338 378 337
f 378 377 337
f 380 379 338
f 381 380 338
f 339 381 338
f 379 378 338
f 376 381 339
f 383 382 340
f 384 383 340
f 385 384 340
f 386 385 340
f 387 386 340
f 388 387 340
f 389 388 340
f 390 389 340
f 391 390 340
f 392 391 340
f 393 392 340
f 394 393 340
f 395 394 340
f 396 395 340
f 397 396 340
f 398 397 340
f 342 398 340
f 341 342 340
f 372 373 340
f 399 372 340
f 400 399 340
f 401 400 340
f 402 401 340
f 403 402 340
f 404 403 340
f 405 404 340
f 406 405 340
f 407 406 340
f 408 407 340
f 409 408 340
f 410 409 340
f 411 410 340
f 412 411 340
f 413 412 340
f 414 413 340
f 415 414 340
f 382 415 340
f 343 398 342
f 344 398 343
f 397 398 344
f 396 397 344
f 416 396 344
f 345 416 344
f 346 416 345
f 349 416 346
f 417 348 347
f 418 417 347
f 354 418 347
f 419 351 348
f 417 419 348
f 420 416 349
f 421 420 349
f 350 421 349
f 422 421 350
f 419 422 350
f 351 419 350
f 423 353 352
f 424 423 352
f 355 424 352
f 425 354 353
f 423 425 353
f 425 418 354
f 426 424 355
f 427 426 355
f 357 427 355
f 356 357 355
f 428 427 357
f 429 428 357
f 430 429 357
f 358 430 357
f 359 430 358
f 431 430 359
f 360 431 359
f 432 431 360
f 361 432 360
f 433 432 361
f 363 434 362
f 435 364 362
f 436 435 362
f 434 436 362
f 437 434 363
f 366 437 363
f 438 365 364
f 435 438 364
f 440 439 365
f 438 440 365
f 441 437 366
f 367 441 366
f 368 441 367
f 369 441 368
f 370 442 369
f 442 441 369
f 377 443 370
f 443 442 370
f 399 375 371
f 372 399 371
f 444 376 374
f 375 444 374
f 401 444 375
f 400 401 375
f 399 400 375
f 444 381 376
f 446 445 377
f 378 446 377
f 445 443 377
f 447 446 378
f 379 447 378
f 380 447 379
f 449 448 380
f 381 449 380
f 448 447 380
f 450 449 381
f 444 450 381
f 383 451 382
f 474 415 382
f 451 474 382
f 452 451 383
f 384 452 383
f 453 452 384
f 454 453 384
f 385 454 384
f 455 454 385
f 386 455 385
f 387 455 386
f 456 455 387
f 457 456 387
f 388 457 387
f 389 457 388
f 458 457 389
f 459 458 389
f 390 459 389
f 391 459 390
f 460 459 391
f 461 460 391
f 392 461 391
f 462 461 392
f 393 462 392
f 421 462 393
f 394 421 393
f 395 421 394
f 420 421 395
f 396 420 395
f 416 420 396
f 450 444 401
f 402 450 401
f 449 450 402
f 403 449 402
f 404 449 403
f 463 449 404
f 405 463 404
f 464 463 405
f 465 464 405
f 406 465 405
f 466 465 406
f 407 466 406
f 408 466 407
f 467 466 408
f 468 467 408
f 409 468 408
f 410 468 409
f 469 468 410
f 470 469 410
f 411 470 410
f 412 470 411
f 471 470 412
f 413 471 412
f 414 472 413
f 473 471 413
f 472 473 413
f 415 474 414
f 474 472 414
f 475 419 417
f 418 475 417
f 476 475 418
f 425 476 418
f 477 422 419
f 475 477 419
f 422 462 421
f 461 462 422
f 478 461 422
f 477 478 422
f 424 426 423
f 479 425 423
f 426 479 423
f 480 476 425
f 481 480 425
f 479 481 425
f 427 428 426
f 482 479 426
f 428 482 426
f 483 482 428
f 484 483 428
f 485 484 428
f 429 485 428
f 431 485 429
f 430 431 429
f 486 485 431
f 487 486 431
f 432 487 431
f 488 487 432
f 489 488 432
f 433 489 432
f 490 489 433
f 491 490 433
f 437 436 434
f 492 438 435
f 436 492 435
f 493 492 436
f 494 493 436
f 495 494 436
f 437 495 436
f 496 495 437
f 497 496 437
f 441 497 437
f 498 440 438
f 492 498 438
f 440 499 439
f 499 500 439
f 498 499 440
f 501 497 441
f 442 501 441
f 502 501 442
f 443 502 442
f 445 502 443
f 504 503 445
f 446 504 445
f 503 502 445
f 447 504 446
f 448 505 447
f 505 504 447
f 464 506 448
f 463 464 448
f 449 463 448
f 506 505 448
f 508 507 451
f 452 508 451
f 526 474 451
f 507 526 451
f 509 508 452
f 453 509 452
f 510 509 453
f 454 510 453
f 455 510 454
f 511 510 455
f 512 511 455
f 456 512 455
f 513 512 456
f 457 513 456
f 458 513 457
f 514 513 458
f 459 514 458
f 515 514 459
f 460 515 459
f 516 515 460
f 461 516 460
f 478 516 461
f 517 506 464
f 465 517 464
f 518 517 465
f 466 518 465
f 519 518 466
f 467 519 466
f 520 519 467
f 468 520 467
f 469 520 468
f 521 520 469
f 470 521 469
f 522 521 470
f 523 522 470
f 471 523 470
f 473 523 471
f 524 473 472
f 525 524 472
f 474 525 472
f 524 523 473
f 526 525 474
f 476 480 475
f 527 477 475
f 528 527 475
f 480 528 475
f 527 478 477
f 527 516 478
f 529 481 479
f 530 529 479
f 482 530 479
f 531 528 480
f 532 531 480
f 481 532 480
f 529 532 481
f 533 530 482
f 483 533 482
f 534 533 483
f 484 534 483
f 535 534 484
f 485 535 484
f 486 535 485
f 536 535 486
f 537 536 486
f 488 537 486
f 487 488 486
f 538 537 488
f 539 538 488
f 490 539 488
f 489 490 488
f 540 539 490
f 541 540 490
f 491 541 490
f 542 541 491
f 493 498 492
f 543 498 493
f 494 543 493
f 544 543 494
f 545 544 494
f 546 545 494
f 496 546 494
f 495 496 494
f 547 546 496
f 501 547 496
f 497 501 496
f 548 499 498
f 549 548 498
f 543 549 498
f 550 500 499
f 551 550 499
f 548 551 499
f 553 552 500
f 550 553 500
f 502 547 501
f 554 547 502
f 555 554 502
f 503 555 502
f 504 555 503
f 556 555 504
f 557 556 504
f 505 557 504
f 506 557 505
f 517 557 506
f 575 526 507
f 558 575 507
f 559 558 507
f 508 559 507
f 509 559 508
f 560 559 509
f 510 560 509
f 561 560 510
f 562 561 510
f 511 562 510
f 512 562 511
f 563 562 512
f 513 563 512
f 564 563 513
f 565 564 513
f 514 565 513
f 515 565 514
f 566 565 515
f 527 566 515
f 516 527 515
f 518 557 517
f 567 557 518
f 568 567 518
f 519 568 518
f 520 568 519
f 569 568 520
f 570 569 520
f 521 570 520
f 571 570 521
f 522 571 521
f 523 571 522
f 524 572 523
f 573 571 523
f 572 573 523
f 574 572 524
f 525 574 524
f 526 574 525
f 575 574 526
f 528 531 527
f 531 566 527
f 530 533 529
f 576 532 529
f 533 576 529
f 577 566 531
f 532 577 531
f 578 577 532
f 576 578 532
f 579 576 533
f 580 579 533
f 534 580 533
f 581 580 534
f 582 581 534
f 536 582 534
f 535 536 534
f 583 582 536
f 538 583 536
f 537 538 536
f 584 583 538
f 539 584 538
f 540 584 539
f 585 584 540
f 586 585 540
f 541 586 540
f 587 586 541
f 542 587 541
f 588 587 542
f 589 588 542
f 590 549 543
f 544 590 543
f 591 590 544
f 545 591 544
f 592 591 545
f 546 592 545
f 593 592 546
f 547 593 546
f 594 593 547
f 554 594 547
f 549 551 548
f 595 551 549
f 596 595 549
f 590 596 549
f 551 553 550
f 597 553 551
f 598 597 551
f 595 598 551
f 553 599 552
f 599 600 552
f 601 599 553
f 597 601 553
f 602 594 554
f 555 602 554
f 603 602 555
f 556 603 555
f 557 603 556
f 567 603 557
f 605 604 558
f 559 605 558
f 618 575 558
f 604 618 558
f 606 605 559
f 560 606 559
f 607 606 560
f 561 607 560
f 562 607 561
f 608 607 562
f 563 608 562
f 609 608 563
f 610 609 563
f 564 610 563
f 565 610 564
f 577 610 565
f 566 577 565
f 611 603 567
f 568 611 567
f 612 611 568
f 569 612 568
f 570 612 569
f 613 612 570
f 614 613 570
f 571 614 570
f 573 615 571
f 615 614 571
f 615 573 572
f 616 615 572
f 574 616 572
f 617 616 574
f 575 617 574
f 618 617 575
f 619 578 576
f 579 619 576
f 578 610 577
f 619 610 578
f 620 619 579
f 621 620 579
f 581 621 579
f 580 581 579
f 622 621 581
f 623 622 581
f 624 623 581
f 582 624 581
f 583 624 582
f 625 624 583
f 626 625 583
f 584 626 583
f 585 626 584
f 628 627 585
f 629 628 585
f 586 629 585
f 627 626 585
f 588 629 586
f 587 588 586
f 630 629 588
f 589 630 588
f 631 630 589
f 632 631 589
f 633 632 589
f 591 596 590
f 634 596 591
f 635 634 591
f 636 635 591
f 592 636 591
f 637 636 592
f 638 637 592
f 594 638 592
f 593 594 592
f 602 638 594
f 596 598 595
f 639 598 596
f 634 639 596
f 640 601 597
f 598 640 597
f 639 640 598
f 641 600 599
f 642 641 599
f 601 642 599
f 644 643 600
f 641 644 600
f 645 642 601
f 640 645 601
f 646 638 602
f 611 646 602
f 603 611 602
f 658 618 604
f 647 658 604
f 605 647 604
f 648 647 605
f 649 648 605
f 606 649 605
f 607 649 606
f 651 650 607
f 608 651 607
f 650 649 607
f 609 651 608
f 620 651 609
f 610 620 609
f 619 620 610
f 612 646 611
f 652 646 612
f 653 652 612
f 613 653 612
f 614 654 613
f 654 653 613
f 615 654 614
f 655 654 615
f 656 655 615
f 616 656 615
f 617 656 616
f 657 656 617
f 658 657 617
f 618 658 617
f 622 651 620
f 621 622 620
f 650 651 622
f 659 650 622
f 660 659 622
f 623 660 622
f 624 660 623
f 625 660 624
f 661 660 625
f 662 661 625
f 627 662 625
f 626 627 625
f 663 662 627
f 664 663 627
f 628 664 627
f 665 664 628
f 666 665 628
f 629 666 628
f 667 666 629
f 632 667 629
f 631 632 629
f 630 631 629
f 668 667 632
f 633 668 632
f 669 668 633
f 643 669 633
f 670 639 634
f 635 670 634
f 671 670 635
f 672 671 635
f 673 672 635
f 637 673 635
f 636 637 635
f 653 673 637
f 652 653 637
f 638 652 637
f 646 652 638
f 674 640 639
f 675 674 639
f 670 675 639
f 674 645 640
f 642 644 641
f 676 644 642
f 645 676 642
f 677 669 643
f 678 677 643
f 644 678 643
f 676 678 644
f 679 676 645
f 680 679 645
f 674 680 645
f 648 681 647
f 687 658 647
f 681 687 647
f 682 681 648
f 649 682 648
f 650 683 649
f 683 682 649
f 659 683 650
f 672 673 653
f 654 672 653
f 655 672 654
f 656 684 655
f 685 672 655
f 684 685 655
f 686 684 656
f 657 686 656
f 687 686 657
f 658 687 657
f 660 683 659
f 661 683 660
f 682 683 661
f 688 682 661
f 663 688 661
f 662 663 661
f 689 688 663
f 690 689 663
f 665 690 663
f 664 665 663
f 701 690 665
f 691 701 665
f 692 691 665
f 666 692 665
f 693 692 666
f 667 693 666
f 668 693 667
f 669 693 668
f 676 693 669
f 677 676 669
f 694 675 670
f 671 694 670
f 672 694 671
f 685 694 672
f 675 680 674
f 695 680 675
f 696 695 675
f 694 696 675
f 677 678 676
f 692 693 676
f 679 692 676
f 691 692 679
f 697 691 679
f 680 697 679
f 698 697 680
f 695 698 680
f 700 687 681
f 689 700 681
f 688 689 681
f 682 688 681
f 694 685 684
f 696 694 684
f 686 696 684
f 687 699 686
f 699 696 686
f 700 699 687
f 701 700 689
f 690 701 689
f 698 701 691
f 697 698 691
f 696 698 695
f 699 698 696
f 700 701 698
f 699 700 698