# Blender v3.6.4 OBJ File: ''
# www.blender.org
mtllib link_1.0.mtl
o link_1.0
v 0.0098 -0.01095 0.041
v 0.0098 -0.01095 0.0578
v 0.0098 0.01085 0.0578
v 0.0098 -0.00945 0.03
v 0.0098 0.01085 0.041
v 0.0098 0.01115 0.03
v 0.0098 0.01355 0.041
v 0.0098 0.01115 0.024
v 0.0098 0.01355 0.013
v 0.0098 -0.00945 0.024
v 0.0098 0.01085 0.013
v 0.0098 -0.01095 0.013
v 0.0098 0.01085 -0.0038
v 0.0098 -0.01095 -0.0038
v 0.0098 -0.01345 0.013
v 0.0098 -0.01345 0.041
v -0.000689 0.01145 0.005457
v -0.001368 0.01145 -0.005327
v 0.000689 0.01145 0.005457
v 0 0.01145 -0.0055
v 0.001368 0.01145 -0.005327
v -0.004644 0.01145 -0.002947
v -0.002025 0.01145 0.005114
v -0.003765 0.01145 -0.004009
v -0.00265 0.01145 -0.00482
v -0.005403 0.01145 0.001031
v -0.005489 0.01145 -0.000345
v -0.005231 0.01145 -0.0017
v 0.00265 0.01145 -0.00482
v 0.003765 0.01145 -0.004009
v 0.004644 0.01145 -0.002947
v 0.005231 0.01145 -0.0017
v 0.005489 0.01145 -0.000345
v 0.005403 0.01145 0.001031
v -0.003233 0.01145 0.00445
v -0.004238 0.01145 0.003506
v -0.004977 0.01145 0.002342
v 0.004977 0.01145 0.002342
v 0.004238 0.01145 0.003506
v 0.002025 0.01145 0.005114
v 0.003233 0.01145 0.00445
v -0.005224 0.01135 0.001903
v -0.005501 0.01135 0.001049
v -0.005493 0.011388 0.001048
v -0.000968 0.01135 -0.005478
v 0 0.01135 -0.0056
v 0 0.011388 -0.005592
v 0.005527 0.011442 -0.000348
v 0.005267 0.011442 -0.001711
v 0.005298 0.011421 -0.001721
v -0.000694 0.011442 0.005495
v 0.000694 0.011442 0.005495
v 0.000698 0.011421 0.005527
v 0.002059 0.011388 0.0052
v 0.002051 0.011421 0.00518
v 0.002039 0.011442 0.005149
v 0.004722 0.011388 -0.002997
v 0.004704 0.011421 -0.002985
v 0.004676 0.011442 -0.002968
v 0.001377 0.011442 -0.005364
v 0 0.011442 -0.005538
v 0 0.011421 -0.005571
v -0.001385 0.011421 -0.005396
v -0.001391 0.011388 -0.005417
v -0.002694 0.011388 -0.004901
v -0.002668 0.011442 -0.004853
v -0.003791 0.011442 -0.004037
v -0.003813 0.011421 -0.004061
v -0.004704 0.011421 -0.002985
v -0.004722 0.011388 -0.002997
v -0.005319 0.011388 -0.001728
v -0.004676 0.011442 -0.002968
v -0.005298 0.011421 -0.001721
v -0.005581 0.011388 -0.000351
v -0.005589 0.01135 -0.000352
v -0.005567 0.01135 -2e-06
v -0.005527 0.011442 -0.000348
v -0.00544 0.011442 0.001038
v -0.005472 0.011421 0.001044
v -0.005041 0.011421 0.002372
v -0.00506 0.011388 0.002381
v -0.004309 0.011388 0.003565
v -0.004267 0.011442 0.00353
v -0.003255 0.011442 0.004481
v -0.003274 0.011421 0.004507
v -0.002051 0.011421 0.00518
v -0.002059 0.011388 0.0052
v -0.000701 0.011388 0.005548
v -0.002039 0.011442 0.005149
v -0.000698 0.011421 0.005527
v 0.000701 0.011388 0.005548
v 0.000702 0.01135 0.005556
v 0.000966 0.01135 0.005488
v 0.004309 0.011388 0.003565
v 0.003287 0.011388 0.004524
v 0.003274 0.011421 0.004507
v 0.005224 0.01135 0.001903
v 0.005067 0.01135 0.002384
v 0.00506 0.011388 0.002381
v 0.004292 0.011421 0.003551
v 0.003255 0.011442 0.004481
v 0.004267 0.011442 0.00353
v 0.005011 0.011442 0.002358
v 0.005041 0.011421 0.002372
v 0.005472 0.011421 0.001044
v 0.005493 0.011388 0.001048
v 0.005581 0.011388 -0.000351
v 0.00544 0.011442 0.001038
v 0.00556 0.011421 -0.00035
v 0.005319 0.011388 -0.001728
v 0.005326 0.01135 -0.00173
v 0.005243 0.01135 -0.001906
v 0.002694 0.011388 -0.004901
v 0.003828 0.011388 -0.004077
v 0.003813 0.011421 -0.004061
v 0.000968 0.01135 -0.005478
v 0.001393 0.01135 -0.005424
v 0.001391 0.011388 -0.005417
v 0.002684 0.011421 -0.004882
v 0.003791 0.011442 -0.004037
v 0.002668 0.011442 -0.004853
v 0.001385 0.011421 -0.005396
v -0.004256 0.01135 -0.003572
v -0.003833 0.01135 -0.004082
v -0.003828 0.011388 -0.004077
v -0.002684 0.011421 -0.004882
v -0.001377 0.011442 -0.005364
v 0 0.01145 -0.0055
v -0.002792 0.01135 -0.004839
v -0.002698 0.01135 -0.004907
v -0.001393 0.01135 -0.005424
v -0.005326 0.01135 -0.00173
v -0.005243 0.01135 -0.001906
v -0.004728 0.01135 -0.003001
v -0.005267 0.011442 -0.001711
v -0.00556 0.011421 -0.00035
v -0.002779 0.01135 0.004812
v -0.003292 0.01135 0.00453
v -0.003287 0.011388 0.004524
v -0.004292 0.011421 0.003551
v -0.005011 0.011442 0.002358
v -0.004287 0.01135 0.003596
v -0.004315 0.01135 0.00357
v -0.005067 0.01135 0.002384
v -0.000702 0.01135 0.005556
v -0.000966 0.01135 0.005488
v -0.002061 0.01135 0.005207
v 0.002061 0.01135 0.005207
v 0.002779 0.01135 0.004812
v 0.004315 0.01135 0.00357
v 0.004287 0.01135 0.003596
v 0.003292 0.01135 0.00453
v 0.005589 0.01135 -0.000352
v 0.005567 0.01135 -2e-06
v 0.005501 0.01135 0.001049
v 0.004728 0.01135 -0.003001
v 0.004256 0.01135 -0.003572
v 0.002698 0.01135 -0.004907
v 0.002792 0.01135 -0.004839
v 0.003833 0.01135 -0.004082
v 0.005326 0.01095 -0.00173
v 0.005589 0.01095 -0.000352
v 0.0056 0.01095 0
v 0.005501 0.01095 0.001049
v 0.005224 0.01095 0.001903
v 0.005067 0.01095 0.002384
v 0.004315 0.01095 0.00357
v 0.004287 0.01095 0.003596
v 0.003292 0.01095 0.00453
v 0.002779 0.01095 0.004812
v 0.002061 0.01095 0.005207
v 0.000966 0.01095 0.005488
v 0.000702 0.01095 0.005556
v -0.000702 0.01095 0.005556
v -0.000966 0.01095 0.005488
v -0.002061 0.01095 0.005207
v -0.002779 0.01095 0.004812
v -0.003292 0.01095 0.00453
v -0.004287 0.01095 0.003596
v -0.004315 0.01095 0.00357
v -0.005067 0.01095 0.002384
v -0.005224 0.01095 0.001903
v -0.005501 0.01095 0.001049
v -0.005567 0.01095 -2e-06
v -0.005589 0.01095 -0.000352
v -0.005326 0.01095 -0.00173
v -0.005243 0.01095 -0.001906
v -0.004728 0.01095 -0.003001
v -0.004256 0.01095 -0.003572
v -0.003833 0.01095 -0.004082
v -0.002792 0.01095 -0.004839
v -0.002698 0.01095 -0.004907
v -0.001393 0.01095 -0.005424
v -0.000968 0.01095 -0.005478
v 0 0.01135 -0.0056
v 0 0.01095 -0.0056
v 0.000968 0.01095 -0.005478
v 0.001393 0.01095 -0.005424
v 0.002698 0.01095 -0.004907
v 0.002792 0.01095 -0.004839
v 0.003833 0.01095 -0.004082
v 0.004256 0.01095 -0.003572
v 0.004728 0.01095 -0.003001
v 0.005243 0.01095 -0.001906
v 0 0.0109 -0.005587
v -0.001389 0.0109 -0.005411
v -0.002691 0.0109 -0.004896
v -0.003824 0.0109 -0.004072
v -0.004717 0.0109 -0.002993
v -0.005313 0.0109 -0.001726
v -0.005576 0.0109 -0.000351
v -0.005488 0.0109 0.001047
v -0.005055 0.0109 0.002379
v -0.004305 0.0109 0.003561
v -0.003284 0.0109 0.00452
v -0.002057 0.0109 0.005194
v -0.0007 0.0109 0.005543
v 0.0007 0.0109 0.005543
v 0.002057 0.0109 0.005194
v 0.003284 0.0109 0.00452
v 0.004305 0.0109 0.003561
v 0.005055 0.0109 0.002379
v 0.005488 0.0109 0.001047
v 0.0056 0.01095 0
v 0.005576 0.0109 -0.000351
v 0.005313 0.0109 -0.001726
v 0.004717 0.0109 -0.002993
v 0.003824 0.0109 -0.004072
v 0.002691 0.0109 -0.004896
v 0.001389 0.0109 -0.005411
v 0 0.01095 -0.0056
v 0.00138 0.010863 -0.005376
v 0.002674 0.010863 -0.004864
v 0.003799 0.010863 -0.004046
v 0.004686 0.010863 -0.002974
v 0.005278 0.010863 -0.001715
v 0.005539 0.010863 -0.000348
v 0.005452 0.010863 0.00104
v 0.005022 0.010863 0.002363
v 0.004276 0.010863 0.003538
v 0.003262 0.010863 0.00449
v 0.002043 0.010863 0.00516
v 0.000696 0.010863 0.005506
v -0.000696 0.010863 0.005506
v -0.002043 0.010863 0.00516
v -0.003262 0.010863 0.00449
v -0.004276 0.010863 0.003538
v -0.005022 0.010863 0.002363
v -0.005452 0.010863 0.00104
v -0.005539 0.010863 -0.000348
v -0.005278 0.010863 -0.001715
v -0.004686 0.010863 -0.002974
v -0.003799 0.010863 -0.004046
v -0.002674 0.010863 -0.004864
v -0.00138 0.010863 -0.005376
v 0 0.010863 -0.00555
v 0.001368 0.01085 -0.005327
v 0.00265 0.01085 -0.00482
v 0.003765 0.01085 -0.004009
v 0.004644 0.01085 -0.002947
v 0.005231 0.01085 -0.0017
v 0.005489 0.01085 -0.000345
v 0.005403 0.01085 0.001031
v 0.004977 0.01085 0.002342
v 0.004238 0.01085 0.003506
v 0.003233 0.01085 0.00445
v 0.002025 0.01085 0.005114
v 0.000689 0.01085 0.005457
v -0.000689 0.01085 0.005457
v -0.002025 0.01085 0.005114
v -0.003233 0.01085 0.00445
v -0.004238 0.01085 0.003506
v -0.004977 0.01085 0.002342
v -0.005403 0.01085 0.001031
v -0.005489 0.01085 -0.000345
v -0.005231 0.01085 -0.0017
v -0.004644 0.01085 -0.002947
v -0.003765 0.01085 -0.004009
v -0.00265 0.01085 -0.00482
v -0.001368 0.01085 -0.005327
v 0 0.01085 -0.0055
v -0.006345 0.01085 0.008245
v -0.007739 0.01085 0.008955
v -0.0098 0.01085 -0.0038
v -0.008845 0.01085 0.010061
v -0.009555 0.01085 0.011455
v -0.0098 0.01085 0.013
v 0.006345 0.01085 0.008245
v 0.009555 0.01085 0.011455
v 0.008845 0.01085 0.010061
v 0.007739 0.01085 0.008955
v 0.009555 0.01085 -0.005345
v 0.008845 0.01085 -0.006739
v -0.0048 0.01085 -0.0088
v 0.0048 0.01085 -0.0088
v 0.006345 0.01085 -0.008555
v 0.007739 0.01085 -0.007845
v -0.009555 0.01085 -0.005345
v -0.008845 0.01085 -0.006739
v -0.006345 0.01085 -0.008555
v -0.007739 0.01085 -0.007845
v -0.0048 0.01085 0.008
v 0.0048 0.01085 0.008
v -0.0048 0.01355 0.008
v -0.006345 0.01355 0.008245
v -0.007739 0.01355 0.008955
v -0.008845 0.01355 0.010061
v -0.009555 0.01355 0.011455
v -0.0098 0.01355 0.013
v 0.0048 0.01355 0.008
v 0.006345 0.01355 0.008245
v 0.007739 0.01355 0.008955
v 0.008845 0.01355 0.010061
v 0.009555 0.01355 0.011455
v -0.0098 0.01115 0.024
v -0.0098 0.01115 0.03
v -0.009572 0.01115 0.025148
v -0.009572 0.01115 0.028852
v -0.008921 0.01115 0.026121
v -0.008921 0.01115 0.027879
v -0.007948 0.01115 0.026772
v -0.007948 0.01115 0.027228
v -0.0068 0.01115 0.027
v 0.009572 0.01115 0.025148
v 0.009572 0.01115 0.028852
v 0.008921 0.01115 0.026121
v 0.008921 0.01115 0.027879
v 0.007948 0.01115 0.027228
v 0.007948 0.01115 0.026772
v 0.0068 0.01115 0.027
v -0.008845 -0.01095 0.010061
v -0.0098 -0.01095 -0.0038
v -0.009555 -0.01095 0.011455
v -0.0098 -0.01095 0.013
v 0.006345 -0.01095 0.008245
v 0.007739 -0.01095 0.008955
v 0.008845 -0.01095 0.010061
v 0.009555 -0.01095 0.011455
v 0.0048 -0.01095 0.008
v 0.009555 -0.01095 -0.005345
v 0.008845 -0.01095 -0.006739
v -0.0048 -0.01095 0.008
v -0.006345 -0.01095 -0.008555
v -0.007739 -0.01095 -0.007845
v -0.0048 -0.01095 -0.0088
v 0.0048 -0.01095 -0.0088
v 0.007739 -0.01095 -0.007845
v 0.006345 -0.01095 -0.008555
v -0.007739 -0.01095 0.008955
v -0.006345 -0.01095 0.008245
v -0.009555 -0.01095 -0.005345
v -0.008845 -0.01095 -0.006739
v 0.0048 -0.01345 0.008
v 0.006345 -0.01345 0.008245
v 0.007739 -0.01345 0.008955
v 0.008845 -0.01345 0.010061
v 0.009555 -0.01345 0.011455
v -0.0048 -0.01345 0.008
v -0.006345 -0.01345 0.008245
v -0.007739 -0.01345 0.008955
v -0.008845 -0.01345 0.010061
v -0.009555 -0.01345 0.011455
v -0.0098 -0.01345 0.013
v 0.009572 -0.00945 0.025148
v 0.009572 -0.00945 0.028852
v 0.008921 -0.00945 0.026121
v 0.008921 -0.00945 0.027879
v 0.007948 -0.00945 0.026772
v 0.007948 -0.00945 0.027228
v 0.0068 -0.00945 0.027
v -0.0068 -0.00945 0.027
v -0.007948 -0.00945 0.026772
v -0.008921 -0.00945 0.026121
v -0.009572 -0.00945 0.025148
v -0.0098 -0.00945 0.024
v -0.0098 -0.01345 0.041
v -0.0098 -0.00945 0.03
v -0.0098 -0.01095 0.041
v -0.0098 0.01355 0.041
v -0.0098 0.01085 0.041
v -0.0098 0.01085 0.0578
v -0.0098 -0.01095 0.0578
v 0.001368 0.01145 0.048673
v 0.000689 0.01145 0.059457
v 0 0.01145 0.0485
v -0.001368 0.01145 0.048673
v -0.000689 0.01145 0.059457
v -0.002025 0.01145 0.059114
v -0.003233 0.01145 0.05845
v 0.00265 0.01145 0.04918
v 0.003765 0.01145 0.049991
v 0.004644 0.01145 0.051053
v 0.005231 0.01145 0.0523
v 0.003233 0.01145 0.05845
v 0.002025 0.01145 0.059114
v -0.003765 0.01145 0.049991
v -0.00265 0.01145 0.04918
v -0.004977 0.01145 0.056342
v -0.004238 0.01145 0.057506
v 0.005489 0.01145 0.053655
v 0.005403 0.01145 0.055031
v 0.004238 0.01145 0.057506
v 0.004977 0.01145 0.056342
v -0.005403 0.01145 0.055031
v -0.005489 0.01145 0.053655
v -0.005231 0.01145 0.0523
v -0.004644 0.01145 0.051053
v -0.005224 0.01135 0.055903
v -0.005501 0.01135 0.055049
v -0.005493 0.011388 0.055048
v -0.000968 0.01135 0.048522
v 0 0.01135 0.0484
v 0 0.011388 0.048408
v 0.005527 0.011442 0.053652
v 0.005267 0.011442 0.052289
v 0.005298 0.011421 0.052279
v -0.000694 0.011442 0.059495
v 0.000694 0.011442 0.059495
v 0.000698 0.011421 0.059527
v 0.002059 0.011388 0.0592
v 0.002051 0.011421 0.05918
v 0.002039 0.011442 0.059149
v 0.004722 0.011388 0.051003
v 0.004704 0.011421 0.051015
v 0.004676 0.011442 0.051032
v 0.001377 0.011442 0.048636
v 0 0.011442 0.048462
v 0 0.011421 0.048429
v -0.001385 0.011421 0.048604
v -0.001391 0.011388 0.048583
v -0.002694 0.011388 0.049099
v -0.002668 0.011442 0.049147
v -0.003791 0.011442 0.049963
v -0.003813 0.011421 0.049939
v -0.004704 0.011421 0.051015
v -0.004722 0.011388 0.051003
v -0.005319 0.011388 0.052272
v -0.004676 0.011442 0.051032
v -0.005298 0.011421 0.052279
v -0.005581 0.011388 0.053649
v -0.005589 0.01135 0.053648
v -0.005567 0.01135 0.053998
v -0.005527 0.011442 0.053652
v -0.00544 0.011442 0.055038
v -0.005472 0.011421 0.055044
v -0.005041 0.011421 0.056372
v -0.00506 0.011388 0.056381
v -0.004309 0.011388 0.057565
v -0.004267 0.011442 0.05753
v -0.003255 0.011442 0.058481
v -0.003274 0.011421 0.058507
v -0.002051 0.011421 0.05918
v -0.002059 0.011388 0.0592
v -0.000701 0.011388 0.059548
v -0.002039 0.011442 0.059149
v -0.000698 0.011421 0.059527
v 0.000701 0.011388 0.059548
v 0.000702 0.01135 0.059556
v 0.000966 0.01135 0.059488
v 0.004309 0.011388 0.057565
v 0.003287 0.011388 0.058524
v 0.003274 0.011421 0.058507
v 0.005224 0.01135 0.055903
v 0.005067 0.01135 0.056384
v 0.00506 0.011388 0.056381
v 0.004292 0.011421 0.057551
v 0.003255 0.011442 0.058481
v 0.004267 0.011442 0.05753
v 0.005011 0.011442 0.056358
v 0.005041 0.011421 0.056372
v 0.005472 0.011421 0.055044
v 0.005493 0.011388 0.055048
v 0.005581 0.011388 0.053649
v 0.00544 0.011442 0.055038
v 0.00556 0.011421 0.05365
v 0.005319 0.011388 0.052272
v 0.005326 0.01135 0.05227
v 0.005243 0.01135 0.052094
v 0.002694 0.011388 0.049099
v 0.003828 0.011388 0.049923
v 0.003813 0.011421 0.049939
v 0.000968 0.01135 0.048522
v 0.001393 0.01135 0.048576
v 0.001391 0.011388 0.048583
v 0.002684 0.011421 0.049118
v 0.003791 0.011442 0.049963
v 0.002668 0.011442 0.049147
v 0.001385 0.011421 0.048604
v -0.004256 0.01135 0.050428
v -0.003833 0.01135 0.049918
v -0.003828 0.011388 0.049923
v -0.002684 0.011421 0.049118
v -0.001377 0.011442 0.048636
v 0 0.01145 0.0485
v -0.002792 0.01135 0.049161
v -0.002698 0.01135 0.049093
v -0.001393 0.01135 0.048576
v -0.005326 0.01135 0.05227
v -0.005243 0.01135 0.052094
v -0.004728 0.01135 0.050999
v -0.005267 0.011442 0.052289
v -0.00556 0.011421 0.05365
v -0.002779 0.01135 0.058812
v -0.003292 0.01135 0.05853
v -0.003287 0.011388 0.058524
v -0.004292 0.011421 0.057551
v -0.005011 0.011442 0.056358
v -0.004287 0.01135 0.057596
v -0.004315 0.01135 0.05757
v -0.005067 0.01135 0.056384
v -0.000702 0.01135 0.059556
v -0.000966 0.01135 0.059488
v -0.002061 0.01135 0.059207
v 0.002061 0.01135 0.059207
v 0.002779 0.01135 0.058812
v 0.004315 0.01135 0.05757
v 0.004287 0.01135 0.057596
v 0.003292 0.01135 0.05853
v 0.005589 0.01135 0.053648
v 0.005567 0.01135 0.053998
v 0.005501 0.01135 0.055049
v 0.004728 0.01135 0.050999
v 0.004256 0.01135 0.050428
v 0.002698 0.01135 0.049093
v 0.002792 0.01135 0.049161
v 0.003833 0.01135 0.049918
v 0.005326 0.01095 0.05227
v 0.005589 0.01095 0.053648
v 0.0056 0.01095 0.054
v 0.005501 0.01095 0.055049
v 0.005224 0.01095 0.055903
v 0.005067 0.01095 0.056384
v 0.004315 0.01095 0.05757
v 0.004287 0.01095 0.057596
v 0.003292 0.01095 0.05853
v 0.002779 0.01095 0.058812
v 0.002061 0.01095 0.059207
v 0.000966 0.01095 0.059488
v 0.000702 0.01095 0.059556
v -0.000702 0.01095 0.059556
v -0.000966 0.01095 0.059488
v -0.002061 0.01095 0.059207
v -0.002779 0.01095 0.058812
v -0.003292 0.01095 0.05853
v -0.004287 0.01095 0.057596
v -0.004315 0.01095 0.05757
v -0.005067 0.01095 0.056384
v -0.005224 0.01095 0.055903
v -0.005501 0.01095 0.055049
v -0.005567 0.01095 0.053998
v -0.005589 0.01095 0.053648
v -0.005326 0.01095 0.05227
v -0.005243 0.01095 0.052094
v -0.004728 0.01095 0.050999
v -0.004256 0.01095 0.050428
v -0.003833 0.01095 0.049918
v -0.002792 0.01095 0.049161
v -0.002698 0.01095 0.049093
v -0.001393 0.01095 0.048576
v -0.000968 0.01095 0.048522
v 0 0.01135 0.0484
v 0 0.01095 0.0484
v 0.000968 0.01095 0.048522
v 0.001393 0.01095 0.048576
v 0.002698 0.01095 0.049093
v 0.002792 0.01095 0.049161
v 0.003833 0.01095 0.049918
v 0.004256 0.01095 0.050428
v 0.004728 0.01095 0.050999
v 0.005243 0.01095 0.052094
v 0 0.0109 0.048413
v -0.001389 0.0109 0.048589
v -0.002691 0.0109 0.049104
v -0.003824 0.0109 0.049928
v -0.004717 0.0109 0.051007
v -0.005313 0.0109 0.052274
v -0.005576 0.0109 0.053649
v -0.005488 0.0109 0.055047
v -0.005055 0.0109 0.056379
v -0.004305 0.0109 0.057561
v -0.003284 0.0109 0.05852
v -0.002057 0.0109 0.059194
v -0.0007 0.0109 0.059543
v 0.0007 0.0109 0.059543
v 0.002057 0.0109 0.059194
v 0.003284 0.0109 0.05852
v 0.004305 0.0109 0.057561
v 0.005055 0.0109 0.056379
v 0.005488 0.0109 0.055047
v 0.005576 0.0109 0.053649
v 0.005313 0.0109 0.052274
v 0.004717 0.0109 0.051007
v 0.003824 0.0109 0.049928
v 0.002691 0.0109 0.049104
v 0.001389 0.0109 0.048589
v 0 0.01095 0.0484
v 0.00138 0.010863 0.048624
v 0.002674 0.010863 0.049136
v 0.003799 0.010863 0.049954
v 0.004686 0.010863 0.051026
v 0.005278 0.010863 0.052285
v 0.005539 0.010863 0.053652
v 0.005452 0.010863 0.05504
v 0.005022 0.010863 0.056363
v 0.004276 0.010863 0.057538
v 0.003262 0.010863 0.05849
v 0.002043 0.010863 0.05916
v 0.000696 0.010863 0.059506
v -0.000696 0.010863 0.059506
v -0.002043 0.010863 0.05916
v -0.003262 0.010863 0.05849
v -0.004276 0.010863 0.057538
v -0.005022 0.010863 0.056363
v -0.005452 0.010863 0.05504
v -0.005539 0.010863 0.053652
v -0.005278 0.010863 0.052285
v -0.004686 0.010863 0.051026
v -0.003799 0.010863 0.049954
v -0.002674 0.010863 0.049136
v -0.00138 0.010863 0.048624
v 0 0.010863 0.04845
v 0.001368 0.01085 0.048673
v 0.00265 0.01085 0.04918
v 0.003765 0.01085 0.049991
v 0.004644 0.01085 0.051053
v 0.005231 0.01085 0.0523
v 0.005489 0.01085 0.053655
v 0.005403 0.01085 0.055031
v 0.004977 0.01085 0.056342
v 0.004238 0.01085 0.057506
v 0.003233 0.01085 0.05845
v 0.002025 0.01085 0.059114
v 0.000689 0.01085 0.059457
v -0.000689 0.01085 0.059457
v -0.002025 0.01085 0.059114
v -0.003233 0.01085 0.05845
v -0.004238 0.01085 0.057506
v -0.004977 0.01085 0.056342
v -0.005403 0.01085 0.055031
v -0.005489 0.01085 0.053655
v -0.005231 0.01085 0.0523
v -0.004644 0.01085 0.051053
v -0.003765 0.01085 0.049991
v -0.00265 0.01085 0.04918
v -0.001368 0.01085 0.048673
v 0 0.01085 0.0485
v 0.007739 0.01085 0.045045
v 0.008845 0.01085 0.043939
v 0.009555 0.01085 0.042545
v -0.009555 0.01085 0.042545
v -0.008845 0.01085 0.043939
v 0.006345 0.01085 0.045755
v 0.009555 0.01085 0.059345
v 0.0048 0.01085 0.046
v -0.0048 0.01085 0.046
v -0.006345 0.01085 0.045755
v -0.007739 0.01085 0.045045
v -0.0048 0.01085 0.0628
v 0.0048 0.01085 0.0628
v -0.006345 0.01085 0.062555
v -0.007739 0.01085 0.061845
v -0.008845 0.01085 0.060739
v -0.009555 0.01085 0.059345
v 0.006345 0.01085 0.062555
v 0.007739 0.01085 0.061845
v 0.008845 0.01085 0.060739
v 0.0048 0.01355 0.046
v 0.006345 0.01355 0.045755
v 0.007739 0.01355 0.045045
v 0.008845 0.01355 0.043939
v 0.009555 0.01355 0.042545
v -0.0048 0.01355 0.046
v -0.006345 0.01355 0.045755
v -0.007739 0.01355 0.045045
v -0.008845 0.01355 0.043939
v -0.009555 0.01355 0.042545
v -0.009555 -0.01095 0.042545
v -0.008845 -0.01095 0.043939
v 0.009555 -0.01095 0.042545
v 0.008845 -0.01095 0.043939
v -0.0048 -0.01095 0.046
v -0.006345 -0.01095 0.045755
v -0.007739 -0.01095 0.045045
v 0.0048 -0.01095 0.046
v 0.006345 -0.01095 0.062555
v 0.007739 -0.01095 0.061845
v -0.009555 -0.01095 0.059345
v -0.008845 -0.01095 0.060739
v -0.007739 -0.01095 0.061845
v 0.007739 -0.01095 0.045045
v 0.006345 -0.01095 0.045755
v 0.009555 -0.01095 0.059345
v 0.008845 -0.01095 0.060739
v -0.006345 -0.01095 0.062555
v -0.0048 -0.01095 0.0628
v 0.0048 -0.01095 0.0628
v -0.0048 -0.01345 0.046
v -0.006345 -0.01345 0.045755
v -0.007739 -0.01345 0.045045
v -0.008845 -0.01345 0.043939
v -0.009555 -0.01345 0.042545
v 0.0048 -0.01345 0.046
v 0.006345 -0.01345 0.045755
v 0.007739 -0.01345 0.045045
v 0.008845 -0.01345 0.043939
v 0.009555 -0.01345 0.042545
v -0.007948 -0.00945 0.027228
v -0.008921 -0.00945 0.027879
v -0.009572 -0.00945 0.028852
vn 1 0 0
vn 0 1 0
vn -0.9331 0.1936 0.3032
vn -0.933 0.1937 0.3032
vn -0.123 0.1936 -0.9733
vn 0.5487 0.8294 -0.1047
vn 0 0.8294 0.5586
vn 0 0.9805 0.1966
vn -0.0489 0.9805 0.1903
vn -0.0489 0.9805 0.1904
vn 0.1931 0.9805 -0.0368
vn 0.1962 0.9805 0.0123
vn 0.2073 0.5526 0.8073
vn 0.2073 0.5525 0.8073
vn 0.1389 0.8294 0.5411
vn 0.1389 0.8294 0.541
vn 0.0489 0.9805 0.1904
vn 0.0489 0.9805 0.1903
vn 0.7542 0.5525 -0.3549
vn 0.5054 0.8295 -0.2378
vn 0.5054 0.8294 -0.2379
vn 0.1779 0.9805 -0.0837
vn 0.0724 0.9805 -0.1828
vn 0.0724 0.9805 -0.1827
vn 0.0246 0.9805 -0.195
vn 0.07 0.8294 -0.5542
vn -0.07 0.8294 -0.5542
vn -0.1045 0.5525 -0.8269
vn -0.3068 0.5525 -0.775
vn -0.3068 0.5526 -0.775
vn -0.0724 0.9805 -0.1828
vn -0.0724 0.9805 -0.1827
vn -0.1155 0.9805 -0.1591
vn -0.3283 0.8294 -0.4519
vn -0.3283 0.8295 -0.4519
vn -0.4304 0.8294 -0.3561
vn -0.6422 0.5525 -0.5313
vn -0.7542 0.5525 -0.3549
vn -0.1155 0.9805 -0.159
vn -0.1515 0.9805 -0.1253
vn -0.5055 0.8294 -0.2378
vn -0.5055 0.8294 -0.2379
vn -0.7542 0.5526 -0.3549
vn -0.8186 0.5527 -0.1562
vn -0.8187 0.5526 -0.1562
vn -0.9637 0.1936 -0.1838
vn -0.9791 0.1936 0.0616
vn -0.1931 0.9805 -0.0368
vn -0.1962 0.9805 0.0123
vn -0.5575 0.8294 0.0351
vn -0.5313 0.8294 0.1726
vn -0.7927 0.5525 0.2576
vn -0.7927 0.5526 0.2576
vn -0.7037 0.5525 0.4466
vn -0.7038 0.5525 0.4466
vn -0.166 0.9805 0.1053
vn -0.1346 0.9805 0.1433
vn -0.3824 0.8294 0.4072
vn -0.2691 0.8294 0.4895
vn -0.4015 0.5525 0.7304
vn -0.2073 0.5525 0.8073
vn -0.0947 0.9805 0.1723
vn -0.0947 0.9805 0.1722
vn -0.1389 0.8294 0.5411
vn 0 0.5525 0.8335
vn 0 0.1936 0.9811
vn 0.244 0.1936 0.9503
vn 0.5706 0.5525 0.6076
vn 0.9331 0.1936 0.3032
vn 0.8284 0.1937 0.5256
vn 0.8284 0.1936 0.5257
vn 0.7038 0.5525 0.4466
vn 0.7037 0.5525 0.4466
vn 0.7037 0.5526 0.4466
vn 0.5707 0.5524 0.6077
vn 0.3824 0.8294 0.4072
vn 0.1346 0.9805 0.1433
vn 0.166 0.9805 0.1053
vn 0.4717 0.8294 0.2993
vn 0.5313 0.8294 0.1726
vn 0.7927 0.5525 0.2576
vn 0.8319 0.5525 0.0523
vn 0.8318 0.5525 0.0523
vn 0.1869 0.9805 0.0608
vn 0.1869 0.9805 0.0607
vn 0.5575 0.8294 0.0351
vn 0.8187 0.5525 -0.1562
vn 0.8187 0.5526 -0.1562
vn 0.9637 0.1936 -0.1838
vn 0.8877 0.1936 -0.4177
vn 0.4899 0.5525 -0.6743
vn 0.123 0.1936 -0.9733
vn 0.3612 0.1936 -0.9122
vn 0.3068 0.5525 -0.775
vn 0.3283 0.8294 -0.4519
vn 0.3283 0.8295 -0.4519
vn 0.1155 0.9805 -0.159
vn 0.2056 0.8294 -0.5194
vn 0.1045 0.5525 -0.8269
vn -0.7559 0.1936 -0.6254
vn -0.5767 0.1936 -0.7937
vn -0.4899 0.5525 -0.6743
vn -0.3068 0.5526 -0.7749
vn -0.2056 0.8294 -0.5194
vn -0.0246 0.9805 -0.195
vn -0.3612 0.1936 -0.9122
vn -0.8877 0.1936 -0.4177
vn -0.1779 0.9805 -0.0837
vn -0.5054 0.8294 -0.2379
vn -0.5487 0.8294 -0.1047
vn -0.8187 0.5525 -0.1562
vn -0.8319 0.5525 0.0523
vn -0.9791 0.1936 0.0617
vn -0.8318 0.5525 0.0523
vn -0.4726 0.1936 0.8597
vn -0.6716 0.1936 0.7152
vn -0.5706 0.5525 0.6076
vn -0.5706 0.5524 0.6076
vn -0.4717 0.8294 0.2993
vn -0.4716 0.8294 0.2993
vn -0.187 0.9805 0.0607
vn -0.1869 0.9805 0.0607
vn -0.8284 0.1936 0.5256
vn -0.8284 0.1936 0.5257
vn -0.8284 0.1937 0.5256
vn -0.244 0.1936 0.9503
vn -0.1389 0.8295 0.541
vn 0.0947 0.9805 0.1723
vn 0.0947 0.9805 0.1722
vn 0.2691 0.8294 0.4895
vn 0.4015 0.5525 0.7304
vn 0.4726 0.1936 0.8597
vn 0.6716 0.1936 0.7152
vn 0.4716 0.8294 0.2993
vn 0.7927 0.5526 0.2576
vn 0.9791 0.1936 0.0616
vn 0.933 0.1937 0.3032
vn 0.1515 0.9805 -0.1253
vn 0.4304 0.8294 -0.3561
vn 0.6422 0.5526 -0.5313
vn 0.6422 0.5525 -0.5313
vn 0.7559 0.1936 -0.6254
vn 0.5767 0.1936 -0.7937
vn 0.756 0.1936 -0.6253
vn 0.9823 0 -0.1875
vn 0.998 0 0.0627
vn 0.9961 0.082 -0.0311
vn 0.9946 0.0824 0.0625
vn 0.9956 0 0.094
vn 0.9511 0 0.3088
vn 0.951 0 0.3091
vn 0.9511 0 0.309
vn 0.8445 0 0.5355
vn 0.8444 0 0.5358
vn 0.6846 0 0.729
vn 0.6845 0 0.729
vn 0.6844 0 0.7291
vn 0.4817 0 0.8763
vn 0.4819 0 0.8762
vn 0.4816 0 0.8764
vn 0.482 0 0.8762
vn 0.2486 0 0.9686
vn 0.2489 0 0.9685
vn 0.249 0 0.9685
vn 0.2487 0 0.9686
vn 0 0 1
vn -0.2487 0 0.9686
vn -0.2488 0 0.9686
vn -0.249 0 0.9685
vn -0.2486 0 0.9686
vn -0.482 0 0.8762
vn -0.4816 0 0.8764
vn -0.4819 0 0.8762
vn -0.4817 0 0.8763
vn -0.6844 0 0.7291
vn -0.6845 0 0.729
vn -0.8445 0 0.5355
vn -0.8444 0 0.5358
vn -0.9511 0 0.3089
vn -0.951 0 0.3091
vn -0.9511 0 0.309
vn -0.998 0 0.0627
vn -0.9823 0 -0.1875
vn -0.9048 0 -0.4259
vn -0.9047 0 -0.4261
vn -0.9049 0 -0.4256
vn -0.7705 0 -0.6374
vn -0.7704 0 -0.6375
vn -0.7706 0 -0.6374
vn -0.5881 0 -0.8088
vn -0.5877 0 -0.8091
vn -0.5876 0 -0.8092
vn -0.5878 0 -0.809
vn -0.3683 0 -0.9297
vn -0.368 0 -0.9298
vn -0.1255 0 -0.9921
vn -0.1256 0 -0.9921
vn -0.125 0 -0.9922
vn 0.125 0 -0.9922
vn 0.1255 0 -0.9921
vn 0.1257 0 -0.9921
vn 0.1256 0 -0.9921
vn 0.3683 0 -0.9297
vn 0.368 0 -0.9298
vn 0.5878 0 -0.809
vn 0.5877 0 -0.8091
vn 0.5881 0 -0.8088
vn 0.7705 0 -0.6374
vn 0.9049 0 -0.4256
vn 0.9047 0 -0.4261
vn 0.9048 0 -0.4259
vn -0.1211 -0.2569 -0.9588
vn -0.1211 -0.257 -0.9588
vn -0.3558 -0.2569 -0.8986
vn -0.5681 -0.2569 -0.7819
vn -0.5681 -0.2568 -0.7819
vn -0.5681 -0.2569 -0.7818
vn -0.7447 -0.2569 -0.616
vn -0.7447 -0.2569 -0.6159
vn -0.7446 -0.2569 -0.616
vn -0.8744 -0.257 -0.4115
vn -0.8745 -0.2569 -0.4115
vn -0.8745 -0.2569 -0.4114
vn -0.9493 -0.2569 -0.1811
vn -0.9645 -0.2569 0.0607
vn -0.9191 -0.2569 0.2987
vn -0.9192 -0.2569 0.2986
vn -0.9191 -0.2569 0.2986
vn -0.816 -0.2569 0.5178
vn -0.816 -0.257 0.5178
vn -0.6616 -0.2569 0.7045
vn -0.4656 -0.2569 0.8469
vn -0.4658 -0.257 0.8467
vn -0.4656 -0.257 0.8468
vn -0.2403 -0.2569 0.9361
vn 0 -0.2569 0.9664
vn 0.2403 -0.2568 0.9361
vn 0.2403 -0.2569 0.9361
vn 0.4658 -0.257 0.8467
vn 0.4656 -0.257 0.8468
vn 0.4656 -0.2569 0.8469
vn 0.6616 -0.2569 0.7045
vn 0.816 -0.2569 0.5178
vn 0.816 -0.257 0.5178
vn 0.9191 -0.2569 0.2987
vn 0.9191 -0.2569 0.2986
vn 0.9192 -0.2569 0.2986
vn 0.9619 -0.2577 0.0909
vn 0.7316 -0.6802 0.046
vn 0.9655 -0.2587 -0.0303
vn 0.9493 -0.2569 -0.1811
vn 0.8745 -0.2569 -0.4115
vn 0.8745 -0.2569 -0.4114
vn 0.8744 -0.257 -0.4115
vn 0.7447 -0.2569 -0.616
vn 0.7446 -0.2569 -0.616
vn 0.7447 -0.2569 -0.6159
vn 0.5681 -0.2569 -0.7819
vn 0.5681 -0.2568 -0.7819
vn 0.3558 -0.2569 -0.8986
vn 0.1211 -0.257 -0.9588
vn 0.1211 -0.2569 -0.9588
vn 0.2613 -0.7043 -0.66
vn 0.2613 -0.7043 -0.6601
vn 0.4173 -0.7043 -0.5743
vn 0.547 -0.7043 -0.4525
vn 0.6423 -0.7043 -0.3023
vn 0.6973 -0.7043 -0.133
vn 0.7085 -0.7043 0.0446
vn 0.7083 -0.7045 0.0446
vn 0.6752 -0.7043 0.2194
vn 0.5994 -0.7043 0.3804
vn 0.486 -0.7043 0.5175
vn 0.486 -0.7042 0.5175
vn 0.342 -0.7043 0.6221
vn 0.342 -0.7042 0.6221
vn 0.1765 -0.7043 0.6876
vn 0 -0.7043 0.7099
vn -0.1765 -0.7043 0.6876
vn -0.342 -0.7043 0.6221
vn -0.342 -0.7042 0.6222
vn -0.486 -0.7043 0.5175
vn -0.486 -0.7042 0.5176
vn -0.5994 -0.7043 0.3804
vn -0.6752 -0.7043 0.2194
vn -0.7085 -0.7043 0.0446
vn -0.6973 -0.7043 -0.133
vn -0.6423 -0.7043 -0.3023
vn -0.547 -0.7043 -0.4525
vn -0.4173 -0.7043 -0.5743
vn -0.2613 -0.7043 -0.66
vn -0.2613 -0.7043 -0.6601
vn -0.089 -0.7043 -0.7043
vn -0.0891 -0.7044 -0.7042
vn -0.0888 -0.7043 -0.7043
vn 0.0892 -0.7043 -0.7043
vn 0.0893 -0.7041 -0.7045
vn 0.089 -0.7043 -0.7043
vn 0.096 -0.9654 -0.2424
vn 0.1533 -0.9654 -0.2109
vn 0.2009 -0.9654 -0.1662
vn 0.2359 -0.9654 -0.111
vn 0.2561 -0.9654 -0.0488
vn 0.2561 -0.9654 -0.0489
vn 0.2602 -0.9654 0.0164
vn 0.248 -0.9654 0.0806
vn 0.2201 -0.9654 0.1397
vn 0.1785 -0.9654 0.1901
vn 0.1256 -0.9654 0.2285
vn 0.0648 -0.9654 0.2525
vn 0 -0.9654 0.2607
vn 0 -0.9654 0.2608
vn -0.0648 -0.9654 0.2525
vn -0.0648 -0.9654 0.2526
vn -0.1256 -0.9654 0.2285
vn -0.1785 -0.9654 0.1901
vn -0.2201 -0.9654 0.1397
vn -0.248 -0.9654 0.0806
vn -0.2602 -0.9654 0.0164
vn -0.2561 -0.9654 -0.0488
vn -0.2561 -0.9654 -0.0489
vn -0.2359 -0.9654 -0.111
vn -0.2009 -0.9654 -0.1662
vn -0.1533 -0.9654 -0.2109
vn -0.096 -0.9654 -0.2424
vn -0.0327 -0.9654 -0.2587
vn 0.0327 -0.9654 -0.2587
vn -0.1566 0 -0.9877
vn -0.1563 0 -0.9877
vn -0.4538 0 -0.8911
vn -0.7071 0 -0.7071
vn -0.8911 0 -0.4538
vn -0.8909 0 -0.4541
vn -0.9877 0 -0.1563
vn -0.9877 0 -0.1566
vn 0.1566 0 -0.9877
vn 0.1563 0 -0.9877
vn 0.4538 0 -0.8911
vn 0.4541 0 -0.8909
vn 0.4539 0 -0.8911
vn 0.7071 0 -0.7071
vn 0.8911 0 -0.4538
vn 0.8909 0 -0.4541
vn 0.9877 0 -0.1566
vn 0.9877 0 -0.1563
vn 0 0 -1
vn 0 -1 0
vn -0.9877 0 -0.1561
vn -0.4541 0 -0.8909
vn 0.9808 0 0.1951
vn 0.9807 0 0.1953
vn 0.8313 0 0.5558
vn 0.8314 0 0.5557
vn 0.5557 0 0.8314
vn 0.5556 0 0.8314
vn 0.1953 0 0.9807
vn 0.1948 0 0.9808
vn -0.1953 0 0.9807
vn -0.1948 0 0.9808
vn -0.5557 0 0.8314
vn -0.5556 0 0.8314
vn -0.8313 0 0.5558
vn -0.8314 0 0.5557
vn -0.9807 0 0.1953
vn -0.9808 0 0.1951
vn -1 0 0
vn -0.933 0.1936 0.3032
vn 0 0.9805 0.1967
vn 0.2073 0.5527 0.8072
vn 0.0489 0.9805 0.1905
vn 0.5055 0.8294 -0.2379
vn 0.07 0.8295 -0.5542
vn -0.1045 0.5526 -0.8269
vn -0.3284 0.8294 -0.4519
vn -0.8188 0.5525 -0.1562
vn -0.166 0.9805 0.1052
vn -0.3824 0.8294 0.4073
vn -0.2691 0.8295 0.4895
vn -0.4015 0.5526 0.7304
vn -0.2073 0.5526 0.8073
vn -0.1389 0.8294 0.541
vn -0.1389 0.8294 0.5412
vn 0 0.1937 0.9811
vn 0.244 0.1937 0.9502
vn 0.5705 0.5525 0.6076
vn 0.8283 0.1937 0.5257
vn 0.5707 0.5523 0.6077
vn 0.3824 0.8295 0.4071
vn 0.4717 0.8294 0.2994
vn 0.4716 0.8294 0.2994
vn 0.187 0.9805 0.0608
vn 0.8186 0.5527 -0.1562
vn 0.4899 0.5526 -0.6743
vn 0.1229 0.1936 -0.9733
vn 0.3068 0.5526 -0.7749
vn 0.3068 0.5526 -0.775
vn 0.3284 0.8294 -0.4519
vn 0.3283 0.8294 -0.452
vn 0.2056 0.8295 -0.5194
vn -0.756 0.1936 -0.6253
vn -0.4899 0.5526 -0.6743
vn -0.2056 0.8295 -0.5194
vn -0.0246 0.9805 -0.1949
vn 0.0246 0.9805 -0.1949
vn -0.1229 0.1936 -0.9734
vn -0.4726 0.1935 0.8597
vn -0.4727 0.1936 0.8597
vn -0.6715 0.1937 0.7152
vn -0.5706 0.5523 0.6078
vn -0.5706 0.5524 0.6077
vn -0.7037 0.5522 0.4471
vn -0.4716 0.8295 0.2993
vn -0.6716 0.1937 0.7152
vn -0.8283 0.1937 0.5257
vn -0.5706 0.5526 0.6075
vn -0.4727 0.1935 0.8597
vn -0.244 0.1937 0.9502
vn -0.244 0.1935 0.9503
vn -0.4726 0.1935 0.8598
vn 0.244 0.1935 0.9503
vn 0.0947 0.9805 0.1724
vn 0.2691 0.8295 0.4895
vn 0.4015 0.5526 0.7304
vn 0.4726 0.1935 0.8597
vn 0.4726 0.1935 0.8598
vn 0.6716 0.1937 0.7152
vn 0.6715 0.1937 0.7152
vn 0.3824 0.8294 0.4073
vn 0.4716 0.8295 0.2993
vn 0.1045 0.5525 -0.827
vn 0.9509 0 0.3094
vn 0.6846 0 0.7289
vn -0.6846 0 0.7289
vn -0.9048 0 -0.4258
vn -0.7708 0 -0.6371
vn 0.7702 0 -0.6378
vn 0.7708 0 -0.6371
vn -0.7446 -0.2569 -0.6161
vn -0.8161 -0.2568 0.5178
vn -0.6615 -0.2569 0.7046
vn -0.4655 -0.2568 0.847
vn -0.4656 -0.2568 0.8469
vn -0.2404 -0.2569 0.9361
vn 0.2404 -0.2569 0.9361
vn 0.6615 -0.2569 0.7046
vn 0.8744 -0.257 -0.4114
vn 0.7446 -0.2569 -0.6161
vn 0.568 -0.257 -0.7819
vn 0.568 -0.2569 -0.7819
vn 0.6751 -0.7043 0.2194
vn 0.4859 -0.7043 0.5175
vn 0.342 -0.7042 0.6222
vn -0.1765 -0.7042 0.6877
vn -0.342 -0.7044 0.622
vn -0.486 -0.7042 0.5175
vn -0.486 -0.7043 0.5174
vn -0.6751 -0.7043 0.2194
vn -0.7086 -0.7042 0.0447
vn -0.7084 -0.7044 0.0445
vn -0.6973 -0.7044 -0.133
vn -0.0888 -0.7041 -0.7045
vn 0.096 -0.9654 -0.2425
vn 0.1532 -0.9654 -0.2109
vn 0.1256 -0.9654 0.2284
vn -0.1532 -0.9654 -0.2109
vn -0.096 -0.9654 -0.2425
vn 0.0327 -0.9654 -0.2586
vn 0.1566 0 0.9877
vn 0.4538 0 0.8911
vn 0.4539 0 0.8911
vn 0.7071 0 0.7071
vn 0.8911 0 0.4538
vn 0.8909 0 0.4541
vn 0.9877 0 0.1566
vn -0.1566 0 0.9877
vn -0.4541 0 0.8909
vn -0.4538 0 0.8911
vn -0.4539 0 0.8911
vn -0.7071 0 0.7071
vn -0.8911 0 0.4538
vn -0.8909 0 0.4543
vn -0.9877 0 0.1563
vn -0.9877 0 0.1566
vn -0.1563 0 0.9877
vn -0.8909 0 0.4541
vn 0.1563 0 0.9877
vn -0.4542 0 0.8909
vn -0.8911 0 0.4539
vn 0.1561 0 0.9877
vn 0.4542 0 0.8909
vn 0.4541 0 0.8909
vn 0.8911 0 0.4539
vn 0.9877 0 0.1563
vn -0.9807 0 -0.1953
vn -0.9808 0 -0.1951
vn -0.8315 0 -0.5555
vn -0.8314 0 -0.5557
vn -0.5557 0 -0.8314
vn -0.5556 0 -0.8314
vn -0.1951 0 -0.9808
vn -0.1948 0 -0.9808
vn 0.1951 0 -0.9808
vn 0.1948 0 -0.9808
vn 0.5557 0 -0.8314
vn 0.5556 0 -0.8314
vn 0.8315 0 -0.5555
vn 0.8314 0 -0.5557
vn 0.9807 0 -0.1953
vn 0.9808 0 -0.1951
usemtl black_metal
s 1
f 3//1 2//1 1//1
f 6//1 5//1 4//1
f 7//1 5//1 6//1
f 8//1 7//1 6//1
f 9//1 7//1 8//1
f 10//1 9//1 8//1
f 11//1 9//1 10//1
f 12//1 11//1 10//1
f 13//1 11//1 12//1
f 14//1 13//1 12//1
f 10//1 15//1 12//1
f 16//1 15//1 10//1
f 4//1 16//1 10//1
f 1//1 16//1 4//1
f 5//1 1//1 4//1
f 3//1 1//1 5//1
f 19//2 18//2 17//2
f 20//2 18//2 19//2
f 21//2 20//2 19//2
f 23//2 17//2 22//2
f 17//2 24//2 22//2
f 25//2 24//2 17//2
f 18//2 25//2 17//2
f 28//2 27//2 26//2
f 19//2 29//2 21//2
f 30//2 29//2 19//2
f 31//2 30//2 19//2
f 19//2 32//2 31//2
f 33//2 32//2 19//2
f 34//2 33//2 19//2
f 22//2 35//2 23//2
f 36//2 35//2 22//2
f 28//2 36//2 22//2
f 37//2 36//2 28//2
f 26//2 37//2 28//2
f 19//2 38//2 34//2
f 39//2 38//2 19//2
f 40//2 39//2 19//2
f 41//2 39//2 40//2
f 44//3 43//4 42//3
f 47//5 46//5 45//5
f 50//6 49//6 48//6
f 53//7 52//7 51//7
f 17//8 52//8 19//8
f 51//8 52//8 17//8
f 23//9 51//10 17//9
f 33//11 49//11 32//11
f 48//11 49//11 33//11
f 34//12 48//12 33//12
f 55//13 53//14 54//13
f 52//15 53//15 55//15
f 56//16 52//15 55//15
f 19//17 52//17 56//17
f 40//18 19//17 56//17
f 58//19 50//19 57//19
f 49//21 50//20 58//20
f 59//21 49//21 58//20
f 32//22 49//22 59//22
f 31//22 32//22 59//22
f 60//23 21//24 29//23
f 61//25 21//25 60//25
f 62//26 61//26 60//26
f 63//27 61//27 62//27
f 64//28 63//28 62//28
f 65//30 63//29 64//29
f 66//32 25//32 18//31
f 67//33 25//33 66//33
f 68//34 67//35 66//34
f 69//36 67//36 68//36
f 70//37 69//37 68//37
f 71//38 69//38 70//38
f 67//33 24//39 25//33
f 72//40 24//40 67//40
f 69//36 72//36 67//36
f 73//42 72//42 69//41
f 71//38 73//43 69//38
f 74//45 73//45 71//44
f 75//46 74//46 71//46
f 76//47 74//47 75//47
f 77//48 27//48 28//48
f 78//49 27//49 77//49
f 79//50 78//50 77//50
f 80//51 78//51 79//51
f 81//52 80//53 79//52
f 82//55 80//55 81//54
f 83//56 36//56 37//56
f 84//57 36//57 83//57
f 85//58 84//58 83//58
f 86//59 84//59 85//59
f 87//60 86//60 85//60
f 88//61 86//61 87//61
f 84//57 35//57 36//57
f 89//62 35//63 84//62
f 86//59 89//59 84//59
f 90//64 89//64 86//64
f 88//61 90//61 86//61
f 91//65 90//65 88//65
f 92//66 91//66 88//66
f 93//67 91//67 92//67
f 96//68 95//68 94//68
f 99//69 98//69 97//69
f 94//71 98//71 99//70
f 100//74 94//73 99//72
f 96//68 94//68 100//75
f 101//76 96//76 100//76
f 102//77 39//77 41//77
f 103//78 39//78 102//78
f 104//79 103//79 102//79
f 105//80 103//80 104//80
f 106//81 105//81 104//81
f 107//82 105//83 106//82
f 103//78 38//78 39//78
f 108//84 38//85 103//84
f 105//80 108//80 103//80
f 109//86 108//86 105//86
f 107//82 109//82 105//83
f 110//88 109//88 107//87
f 111//89 110//89 107//89
f 112//90 110//90 111//90
f 115//91 114//91 113//91
f 118//92 117//92 116//92
f 113//93 117//93 118//93
f 119//94 113//94 118//94
f 115//91 113//91 119//91
f 120//95 115//96 119//95
f 121//97 29//97 30//97
f 60//23 29//23 121//23
f 122//98 60//98 121//98
f 62//26 60//26 122//26
f 47//99 62//99 122//99
f 64//28 62//28 47//28
f 45//5 64//5 47//5
f 125//100 124//100 123//100
f 65//101 124//101 125//101
f 126//102 65//102 125//102
f 63//29 65//30 126//103
f 127//104 63//104 126//104
f 61//27 63//27 127//27
f 128//105 61//105 127//105
f 21//25 61//25 128//25
f 65//101 129//101 124//101
f 130//101 129//101 65//101
f 64//106 130//106 65//106
f 131//106 130//106 64//106
f 45//5 131//5 64//5
f 127//105 18//105 128//105
f 66//32 18//31 127//31
f 126//104 66//104 127//104
f 68//34 66//34 126//34
f 125//102 68//102 126//102
f 70//37 68//37 125//37
f 123//100 70//100 125//100
f 71//46 132//46 75//46
f 133//107 132//107 71//107
f 70//107 133//107 71//107
f 134//107 133//107 70//107
f 123//100 134//100 70//100
f 72//40 22//40 24//40
f 135//108 22//108 72//108
f 73//42 135//109 72//42
f 136//110 135//110 73//110
f 74//45 136//111 73//45
f 44//112 136//112 74//112
f 76//47 44//113 74//47
f 43//47 44//113 76//47
f 135//108 28//108 22//108
f 77//48 28//48 135//48
f 136//110 77//110 135//110
f 79//50 77//50 136//50
f 44//112 79//114 136//112
f 81//52 79//52 44//52
f 42//3 81//3 44//3
f 139//115 138//115 137//115
f 82//116 138//116 139//116
f 140//118 82//118 139//117
f 80//55 82//55 140//55
f 141//119 80//120 140//119
f 78//51 80//51 141//51
f 26//122 78//122 141//121
f 27//49 78//49 26//49
f 82//116 142//116 138//116
f 143//116 142//116 82//116
f 81//125 143//124 82//123
f 144//124 143//124 81//125
f 42//3 144//3 81//3
f 141//121 37//121 26//122
f 83//56 37//56 141//56
f 140//119 83//119 141//119
f 85//58 83//58 140//58
f 139//117 85//117 140//118
f 87//60 85//60 139//60
f 137//115 87//115 139//115
f 88//66 145//66 92//66
f 146//126 145//126 88//126
f 87//126 146//126 88//126
f 147//126 146//126 87//126
f 137//115 147//115 87//115
f 89//62 23//63 35//63
f 51//10 23//9 89//10
f 90//64 51//127 89//64
f 53//7 51//7 90//7
f 91//65 53//65 90//65
f 54//13 53//14 91//14
f 93//67 54//67 91//67
f 148//67 54//67 93//67
f 56//128 101//129 40//128
f 96//130 101//130 56//130
f 55//130 96//130 56//130
f 95//131 96//131 55//131
f 54//131 95//131 55//131
f 149//132 95//132 54//132
f 148//132 149//132 54//132
f 94//71 150//71 98//71
f 151//133 150//133 94//133
f 95//133 151//133 94//133
f 152//133 151//133 95//133
f 149//132 152//132 95//132
f 101//129 41//129 40//128
f 102//77 41//77 101//77
f 100//76 102//76 101//76
f 104//79 102//79 100//134
f 99//72 104//72 100//74
f 106//81 104//81 99//135
f 97//69 106//69 99//69
f 107//89 153//89 111//89
f 154//136 153//136 107//136
f 106//136 154//136 107//136
f 155//136 154//136 106//136
f 97//69 155//137 106//69
f 108//84 34//85 38//85
f 48//12 34//12 108//12
f 109//86 48//86 108//86
f 50//6 48//6 109//6
f 110//88 50//88 109//88
f 57//19 50//19 110//19
f 112//90 57//90 110//90
f 156//90 57//90 112//90
f 59//138 120//138 31//138
f 115//139 120//139 59//139
f 58//139 115//139 59//139
f 114//140 115//140 58//140
f 57//141 114//140 58//140
f 157//142 114//142 57//142
f 156//142 157//142 57//142
f 113//93 158//93 117//93
f 159//143 158//143 113//143
f 114//143 159//143 113//143
f 160//143 159//143 114//143
f 157//142 160//144 114//142
f 120//138 30//138 31//138
f 121//97 30//97 120//97
f 119//95 121//95 120//95
f 122//98 121//98 119//98
f 118//94 122//94 119//94
f 47//99 122//99 118//99
f 116//92 47//92 118//92
f 46//92 47//92 116//92
f 153//145 161//145 111//145
f 162//145 161//145 153//145
f 154//146 162//146 153//146
f 163//147 162//147 154//147
f 155//148 163//148 154//148
f 164//149 163//149 155//149
f 97//151 164//151 155//150
f 165//151 164//151 97//151
f 98//152 165//151 97//151
f 166//152 165//151 98//152
f 150//154 166//154 98//153
f 167//153 166//154 150//154
f 151//156 167//156 150//155
f 168//156 167//156 151//156
f 152//157 168//156 151//156
f 169//157 168//156 152//157
f 149//159 169//158 152//158
f 170//159 169//158 149//159
f 148//160 170//159 149//159
f 171//161 170//159 148//160
f 93//164 171//163 148//162
f 172//164 171//163 93//164
f 92//165 172//164 93//164
f 173//162 172//164 92//165
f 145//166 173//166 92//166
f 174//166 173//166 145//166
f 146//167 174//168 145//167
f 175//169 174//168 146//167
f 147//170 175//169 146//167
f 176//169 175//169 147//170
f 137//173 176//172 147//171
f 177//173 176//172 137//173
f 138//174 177//173 137//173
f 178//174 177//173 138//174
f 142//176 178//175 138//175
f 179//176 178//175 142//176
f 143//176 179//176 142//176
f 180//176 179//176 143//176
f 144//178 180//178 143//177
f 181//177 180//178 144//178
f 42//180 181//180 144//179
f 182//181 181//180 42//180
f 43//181 182//181 42//180
f 183//179 182//181 43//181
f 76//182 183//182 43//182
f 184//182 183//182 76//182
f 75//182 184//182 76//182
f 185//182 184//182 75//182
f 132//183 185//183 75//183
f 186//183 185//183 132//183
f 133//185 186//184 132//184
f 187//185 186//184 133//185
f 134//186 187//185 133//185
f 188//186 187//185 134//186
f 123//187 188//187 134//187
f 189//188 188//187 123//187
f 124//187 189//188 123//187
f 190//189 189//188 124//187
f 129//191 190//190 124//190
f 191//192 190//190 129//191
f 130//193 191//192 129//191
f 192//193 191//192 130//193
f 131//194 192//194 130//194
f 193//195 192//194 131//194
f 45//196 193//197 131//196
f 194//196 193//197 45//196
f 195//198 194//196 45//196
f 196//198 194//196 195//198
f 116//200 196//199 195//199
f 197//200 196//199 116//200
f 117//201 197//200 116//200
f 198//202 197//200 117//201
f 158//203 198//203 117//203
f 199//204 198//203 158//203
f 159//206 199//205 158//205
f 200//206 199//205 159//206
f 160//207 200//206 159//206
f 201//207 200//206 160//207
f 157//208 201//208 160//208
f 202//208 201//208 157//208
f 156//208 202//208 157//208
f 203//208 202//208 156//208
f 112//210 203//209 156//209
f 204//210 203//209 112//210
f 111//211 204//210 112//210
f 161//211 204//210 111//211
f 206//212 194//212 205//212
f 193//213 194//212 206//212
f 207//214 193//214 206//214
f 207//214 192//214 193//214
f 191//216 192//215 207//215
f 208//217 191//216 207//215
f 208//217 190//215 191//216
f 189//218 190//219 208//218
f 209//218 189//218 208//218
f 209//218 188//220 189//218
f 187//223 188//222 209//221
f 210//222 187//223 209//221
f 186//222 187//223 210//222
f 211//224 186//224 210//224
f 211//224 185//224 186//224
f 184//225 185//225 211//225
f 212//225 184//225 211//225
f 212//225 183//225 184//225
f 182//228 183//227 212//226
f 213//226 182//228 212//226
f 181//228 182//228 213//226
f 214//230 181//229 213//229
f 214//230 180//230 181//229
f 179//231 180//231 214//231
f 215//231 179//231 214//231
f 215//231 178//231 179//231
f 177//232 178//232 215//232
f 216//233 177//232 215//232
f 216//233 176//234 177//232
f 175//235 176//235 216//235
f 217//235 175//235 216//235
f 174//235 175//235 217//235
f 218//236 174//236 217//236
f 218//236 173//236 174//236
f 172//238 173//238 218//237
f 219//238 172//238 218//237
f 219//238 171//238 172//238
f 170//241 171//240 219//239
f 220//241 170//241 219//239
f 169//241 170//241 220//241
f 221//242 169//242 220//242
f 221//242 168//242 169//242
f 167//242 168//242 221//242
f 222//243 167//244 221//243
f 222//243 166//243 167//244
f 165//246 166//246 222//245
f 223//245 165//246 222//245
f 223//245 164//247 165//246
f 224//248 164//248 223//248
f 225//249 224//249 223//249
f 162//250 224//250 225//250
f 226//251 162//251 225//251
f 226//251 161//251 162//251
f 204//253 161//252 226//252
f 227//252 204//253 226//252
f 227//252 203//254 204//253
f 202//255 203//256 227//255
f 228//255 202//255 227//255
f 201//257 202//255 228//255
f 229//258 201//258 228//258
f 229//258 200//259 201//258
f 199//258 200//259 229//258
f 230//260 199//260 229//260
f 230//260 198//260 199//260
f 197//262 198//261 230//261
f 205//262 197//262 230//261
f 231//262 197//262 205//262
f 194//212 231//212 205//212
f 229//263 232//264 230//263
f 233//264 232//264 229//263
f 228//265 233//265 229//265
f 234//265 233//265 228//265
f 227//266 234//266 228//266
f 235//266 234//266 227//266
f 226//267 235//267 227//267
f 236//267 235//267 226//267
f 225//268 236//268 226//268
f 237//268 236//268 225//268
f 223//269 237//270 225//269
f 238//269 237//270 223//269
f 222//271 238//271 223//271
f 239//271 238//271 222//271
f 221//272 239//272 222//272
f 240//272 239//272 221//272
f 220//273 240//273 221//273
f 241//274 240//273 220//273
f 219//276 241//275 220//275
f 242//275 241//275 219//276
f 218//277 242//277 219//277
f 243//277 242//277 218//277
f 217//278 243//278 218//278
f 244//278 243//278 217//278
f 216//279 244//279 217//279
f 245//279 244//279 216//279
f 215//280 245//281 216//280
f 246//280 245//281 215//280
f 214//282 246//282 215//282
f 247//283 246//282 214//282
f 213//284 247//284 214//284
f 248//284 247//284 213//284
f 212//285 248//285 213//285
f 249//285 248//285 212//285
f 211//286 249//286 212//286
f 250//286 249//286 211//286
f 210//287 250//287 211//287
f 251//287 250//287 210//287
f 209//288 251//288 210//288
f 252//288 251//288 209//288
f 208//289 252//289 209//289
f 253//289 252//289 208//289
f 207//290 253//290 208//290
f 254//290 253//290 207//290
f 206//292 254//292 207//291
f 255//292 254//292 206//292
f 205//294 255//293 206//293
f 256//295 255//293 205//294
f 230//298 256//297 205//296
f 232//298 256//297 230//298
f 233//299 257//299 232//299
f 258//299 257//299 233//299
f 234//300 258//300 233//300
f 259//300 258//300 234//300
f 235//301 259//301 234//301
f 260//301 259//301 235//301
f 236//302 260//302 235//302
f 261//302 260//302 236//302
f 237//304 261//303 236//303
f 262//304 261//303 237//304
f 238//305 262//305 237//305
f 263//305 262//305 238//305
f 239//306 263//306 238//306
f 264//306 263//306 239//306
f 240//307 264//307 239//307
f 265//307 264//307 240//307
f 241//308 265//308 240//308
f 266//308 265//308 241//308
f 242//309 266//309 241//309
f 267//309 266//309 242//309
f 243//310 267//310 242//310
f 268//310 267//310 243//310
f 244//312 268//312 243//311
f 269//312 268//312 244//312
f 245//313 269//314 244//313
f 270//314 269//314 245//313
f 246//315 270//315 245//315
f 271//315 270//315 246//315
f 247//316 271//316 246//316
f 272//316 271//316 247//316
f 248//317 272//317 247//317
f 273//317 272//317 248//317
f 249//318 273//318 248//318
f 274//318 273//318 249//318
f 250//319 274//319 249//319
f 275//319 274//319 250//319
f 251//321 275//321 250//320
f 276//321 275//321 251//321
f 252//322 276//322 251//322
f 277//322 276//322 252//322
f 253//323 277//323 252//323
f 278//323 277//323 253//323
f 254//324 278//324 253//324
f 279//324 278//324 254//324
f 255//325 279//325 254//325
f 280//325 279//325 255//325
f 256//326 280//326 255//326
f 281//326 280//326 256//326
f 232//327 281//327 256//327
f 257//327 281//327 232//327
f 284//2 283//2 282//2
f 284//2 285//2 283//2
f 286//2 285//2 284//2
f 287//2 286//2 284//2
f 269//2 270//2 288//2
f 13//2 289//2 11//2
f 290//2 289//2 13//2
f 263//2 290//2 13//2
f 290//2 265//2 291//2
f 264//2 265//2 290//2
f 263//2 264//2 290//2
f 288//2 268//2 269//2
f 267//2 268//2 288//2
f 291//2 267//2 288//2
f 266//2 267//2 291//2
f 265//2 266//2 291//2
f 13//2 262//2 263//2
f 261//2 262//2 13//2
f 292//2 261//2 13//2
f 260//2 261//2 292//2
f 293//2 260//2 292//2
f 259//2 260//2 293//2
f 284//2 276//2 277//2
f 284//2 275//2 276//2
f 274//2 275//2 284//2
f 282//2 274//2 284//2
f 273//2 274//2 282//2
f 257//2 294//2 281//2
f 295//2 294//2 257//2
f 258//2 295//2 257//2
f 296//2 295//2 258//2
f 259//2 296//2 258//2
f 297//2 296//2 259//2
f 293//2 297//2 259//2
f 277//2 298//2 284//2
f 299//2 298//2 277//2
f 278//2 299//2 277//2
f 294//2 280//2 281//2
f 279//2 280//2 294//2
f 300//2 279//2 294//2
f 278//2 279//2 300//2
f 301//2 278//2 300//2
f 299//2 278//2 301//2
f 282//2 272//2 273//2
f 271//2 272//2 282//2
f 302//2 271//2 282//2
f 270//2 271//2 302//2
f 303//2 270//2 302//2
f 288//2 270//2 303//2
f 305//329 304//329 302//328
f 282//328 305//329 302//328
f 306//330 305//330 282//330
f 283//330 306//330 282//330
f 307//331 306//331 283//331
f 285//331 307//331 283//331
f 308//332 307//332 285//332
f 286//333 308//332 285//332
f 309//335 308//335 286//334
f 287//335 309//335 286//334
f 288//337 303//336 310//336
f 311//336 288//337 310//336
f 291//339 288//339 311//338
f 312//340 291//339 311//338
f 290//341 291//341 312//341
f 313//341 290//341 312//341
f 289//342 290//342 313//342
f 314//343 289//342 313//342
f 11//344 289//344 314//344
f 9//345 11//344 314//344
f 302//346 310//346 303//346
f 304//346 310//346 302//346
f 317//347 316//347 315//347
f 318//347 316//347 317//347
f 319//347 318//347 317//347
f 320//347 318//347 319//347
f 321//347 320//347 319//347
f 322//347 320//347 321//347
f 323//347 322//347 321//347
f 324//347 8//347 6//347
f 325//347 324//347 6//347
f 326//347 324//347 325//347
f 327//347 326//347 325//347
f 328//347 326//347 327//347
f 329//347 326//347 328//347
f 330//347 329//347 328//347
f 333//347 332//347 331//347
f 334//347 332//347 333//347
f 336//347 335//347 14//347
f 14//347 337//347 336//347
f 338//347 337//347 14//347
f 12//347 338//347 14//347
f 339//347 14//347 335//347
f 340//347 14//347 339//347
f 341//347 340//347 339//347
f 344//347 343//347 342//347
f 345//347 342//347 343//347
f 339//347 342//347 345//347
f 346//347 339//347 345//347
f 339//347 347//347 341//347
f 348//347 347//347 339//347
f 346//347 348//347 339//347
f 332//347 349//347 331//347
f 350//347 349//347 332//347
f 351//347 350//347 332//347
f 342//347 350//347 351//347
f 352//347 342//347 351//347
f 344//347 342//347 352//347
f 354//336 353//336 339//336
f 335//336 354//336 339//336
f 355//338 354//338 335//338
f 336//339 355//338 335//338
f 356//341 355//341 336//341
f 337//341 356//341 336//341
f 357//343 356//342 337//342
f 338//343 357//343 337//342
f 15//344 357//345 338//345
f 12//345 15//344 338//345
f 350//328 342//328 358//328
f 359//328 350//328 358//328
f 349//330 350//330 359//330
f 360//330 349//330 359//330
f 331//331 349//331 360//331
f 361//331 331//331 360//331
f 333//332 331//333 361//332
f 362//332 333//332 361//332
f 334//334 333//335 362//334
f 363//348 334//334 362//334
f 358//346 339//346 353//346
f 342//346 339//346 358//346
f 364//2 4//2 10//2
f 365//2 4//2 364//2
f 366//2 365//2 364//2
f 367//2 365//2 366//2
f 368//2 367//2 366//2
f 369//2 367//2 368//2
f 370//2 369//2 368//2
f 348//336 346//337 295//336
f 296//336 348//336 295//336
f 347//338 348//338 296//338
f 297//338 347//338 296//338
f 341//341 347//341 297//341
f 293//341 341//341 297//341
f 340//342 341//342 293//342
f 292//342 340//342 293//342
f 14//344 340//344 292//344
f 13//344 14//344 292//344
f 345//346 295//346 346//346
f 294//346 295//346 345//346
f 300//329 294//328 345//328
f 343//328 300//329 345//328
f 301//330 300//330 343//330
f 344//349 301//330 343//330
f 299//331 301//331 344//331
f 352//331 299//331 344//331
f 298//332 299//332 352//332
f 351//332 298//332 352//332
f 284//335 298//335 351//335
f 332//335 284//335 351//335
f 364//351 10//351 8//350
f 324//350 364//351 8//350
f 366//352 364//353 324//352
f 326//353 366//352 324//352
f 368//354 366//354 326//354
f 329//355 368//354 326//354
f 370//356 368//356 329//356
f 330//357 370//356 329//356
f 372//358 371//359 323//358
f 321//358 372//358 323//358
f 373//360 372//360 321//360
f 319//361 373//360 321//360
f 374//362 373//363 319//362
f 317//363 374//362 319//362
f 375//365 374//365 317//364
f 315//364 375//365 317//364
f 334//366 284//366 332//366
f 287//366 284//366 334//366
f 376//366 375//366 363//366
f 377//366 375//366 376//366
f 378//366 377//366 376//366
f 315//366 316//366 379//366
f 377//366 379//366 316//366
f 380//366 379//366 377//366
f 378//366 380//366 377//366
f 381//366 380//366 378//366
f 382//366 381//366 378//366
f 375//366 334//366 363//366
f 287//366 334//366 375//366
f 315//366 287//366 375//366
f 309//366 287//366 315//366
f 379//366 309//366 315//366
f 385//2 384//2 383//2
f 386//2 384//2 385//2
f 386//2 387//2 384//2
f 388//2 387//2 386//2
f 389//2 388//2 386//2
f 384//2 390//2 383//2
f 391//2 390//2 384//2
f 392//2 391//2 384//2
f 392//2 394//2 393//2
f 395//2 394//2 392//2
f 384//2 395//2 392//2
f 398//2 397//2 396//2
f 386//2 397//2 398//2
f 399//2 386//2 398//2
f 389//2 386//2 399//2
f 394//2 400//2 393//2
f 401//2 400//2 394//2
f 402//2 401//2 394//2
f 403//2 401//2 402//2
f 405//2 404//2 398//2
f 398//2 406//2 405//2
f 407//2 406//2 398//2
f 396//2 407//2 398//2
f 410//3 409//3 408//367
f 413//5 412//5 411//5
f 416//6 415//6 414//6
f 419//7 418//7 417//7
f 387//8 418//368 384//368
f 417//8 418//368 387//8
f 388//9 417//10 387//9
f 400//11 415//11 393//11
f 414//11 415//11 400//11
f 401//12 414//12 400//12
f 421//369 419//14 420//13
f 418//15 419//15 421//15
f 422//15 418//15 421//15
f 384//17 418//370 422//17
f 395//18 384//17 422//17
f 424//19 416//19 423//19
f 415//371 416//371 424//371
f 425//371 415//371 424//371
f 393//22 415//22 425//22
f 392//22 393//22 425//22
f 426//24 383//24 390//24
f 427//25 383//25 426//25
f 428//26 427//26 426//372
f 429//27 427//27 428//27
f 430//28 429//28 428//373
f 431//103 429//30 430//29
f 432//32 397//32 386//32
f 433//39 397//33 432//33
f 434//374 433//35 432//34
f 435//36 433//36 434//36
f 436//37 435//37 434//37
f 437//38 435//38 436//38
f 433//39 396//39 397//33
f 438//40 396//40 433//40
f 435//36 438//36 433//36
f 439//109 438//109 435//42
f 437//38 439//38 435//38
f 440//111 439//375 437//45
f 441//46 440//46 437//46
f 442//47 440//47 441//47
f 443//48 405//48 406//48
f 444//49 405//49 443//49
f 445//50 444//50 443//50
f 446//51 444//51 445//51
f 447//52 446//52 445//52
f 448//55 446//54 447//54
f 449//56 399//56 398//376
f 450//57 399//57 449//57
f 451//58 450//377 449//58
f 452//59 450//378 451//378
f 453//60 452//379 451//60
f 454//380 452//61 453//380
f 450//57 389//57 399//57
f 455//62 389//62 450//62
f 452//59 455//59 450//378
f 456//382 455//381 452//64
f 454//380 456//61 452//61
f 457//65 456//65 454//65
f 458//383 457//383 454//383
f 459//67 457//384 458//384
f 462//68 461//385 460//68
f 465//69 464//69 463//69
f 460//386 464//386 465//70
f 466//72 460//73 465//72
f 462//68 460//68 466//387
f 467//76 462//388 466//76
f 468//77 402//77 394//77
f 469//78 402//78 468//78
f 470//390 469//389 468//79
f 471//80 469//80 470//80
f 472//81 471//81 470//81
f 473//82 471//82 472//82
f 469//78 403//78 402//78
f 474//391 403//85 469//391
f 471//80 474//80 469//80
f 475//86 474//86 471//86
f 473//82 475//82 471//82
f 476//392 475//88 473//87
f 477//89 476//89 473//89
f 478//90 476//90 477//90
f 481//393 480//91 479//393
f 484//92 483//394 482//92
f 479//93 483//93 484//93
f 485//396 479//395 484//94
f 481//393 479//393 485//393
f 486//397 481//398 485//397
f 487//97 390//97 391//97
f 426//24 390//24 487//23
f 488//98 426//399 487//98
f 428//26 426//372 488//372
f 413//99 428//99 488//99
f 430//28 428//373 413//373
f 411//5 430//5 413//5
f 491//100 490//400 489//100
f 431//101 490//101 491//101
f 492//102 431//401 491//401
f 429//30 431//103 492//103
f 493//104 429//402 492//104
f 427//27 429//27 493//27
f 494//403 427//403 493//105
f 383//25 427//25 494//404
f 431//101 495//101 490//101
f 496//101 495//101 431//101
f 430//106 496//106 431//106
f 497//106 496//106 430//106
f 411//5 497//405 430//5
f 493//105 386//105 494//403
f 432//32 386//32 493//31
f 492//104 432//104 493//104
f 434//374 432//34 492//374
f 491//401 434//102 492//102
f 436//37 434//37 491//37
f 489//100 436//100 491//100
f 437//46 498//46 441//46
f 499//107 498//107 437//107
f 436//107 499//107 437//107
f 500//107 499//107 436//107
f 489//100 500//100 436//100
f 438//40 407//40 396//40
f 501//108 407//108 438//108
f 439//109 501//109 438//109
f 502//110 501//110 439//110
f 440//111 502//111 439//375
f 410//112 502//112 440//112
f 442//47 410//113 440//47
f 409//47 410//113 442//47
f 501//108 406//108 407//108
f 443//48 406//48 501//48
f 502//110 443//110 501//110
f 445//50 443//50 502//50
f 410//112 445//112 502//112
f 447//52 445//52 410//52
f 408//367 447//3 410//3
f 505//407 504//115 503//406
f 448//408 504//116 505//116
f 506//410 448//409 505//117
f 446//54 448//55 506//411
f 507//119 446//412 506//119
f 444//51 446//51 507//51
f 404//122 444//122 507//122
f 405//49 444//49 404//49
f 448//408 508//413 504//116
f 509//408 508//413 448//408
f 447//414 509//124 448//414
f 510//125 509//124 447//414
f 408//367 510//3 447//3
f 507//122 398//122 404//122
f 449//56 398//376 507//376
f 506//119 449//119 507//119
f 451//58 449//58 506//58
f 505//117 451//415 506//410
f 453//60 451//60 505//60
f 503//406 453//416 505//407
f 454//383 511//383 458//383
f 512//126 511//417 454//417
f 453//126 512//126 454//417
f 513//418 512//126 453//126
f 503//406 513//419 453//416
f 455//62 388//63 389//62
f 417//10 388//9 455//10
f 456//382 417//382 455//381
f 419//7 417//7 456//7
f 457//65 419//65 456//65
f 420//13 419//14 457//14
f 459//67 420//420 457//384
f 514//420 420//420 459//67
f 422//421 467//128 395//128
f 462//130 467//130 422//422
f 421//422 462//130 422//422
f 461//423 462//423 421//423
f 420//423 461//423 421//423
f 515//425 461//132 420//424
f 514//425 515//425 420//424
f 460//386 516//386 464//386
f 517//427 516//427 460//426
f 461//133 517//427 460//426
f 518//133 517//427 461//133
f 515//425 518//132 461//132
f 467//128 394//129 395//128
f 468//77 394//77 467//77
f 466//76 468//428 467//76
f 470//390 468//79 466//429
f 465//72 470//72 466//72
f 472//81 470//81 465//81
f 463//69 472//69 465//69
f 473//89 519//89 477//89
f 520//136 519//136 473//136
f 472//136 520//136 473//136
f 521//136 520//136 472//136
f 463//69 521//69 472//69
f 474//391 401//85 403//85
f 414//12 401//12 474//12
f 475//86 414//86 474//86
f 416//6 414//6 475//6
f 476//392 416//88 475//88
f 423//19 416//19 476//19
f 478//90 423//90 476//90
f 522//90 423//90 478//90
f 425//138 486//138 392//138
f 481//139 486//139 425//139
f 424//139 481//139 425//139
f 480//141 481//140 424//140
f 423//141 480//141 424//140
f 523//142 480//144 423//142
f 522//142 523//142 423//142
f 479//93 524//93 483//93
f 525//143 524//143 479//143
f 480//143 525//143 479//143
f 526//143 525//143 480//143
f 523//142 526//144 480//144
f 486//138 391//138 392//138
f 487//97 391//97 486//97
f 485//397 487//397 486//397
f 488//98 487//98 485//98
f 484//94 488//94 485//396
f 413//99 488//99 484//430
f 482//92 413//92 484//92
f 412//92 413//92 482//92
f 519//145 527//145 477//145
f 528//145 527//145 519//145
f 520//146 528//146 519//146
f 529//147 528//147 520//147
f 521//148 529//148 520//148
f 530//149 529//149 521//149
f 463//431 530//151 521//152
f 531//151 530//151 463//431
f 464//152 531//151 463//431
f 532//152 531//151 464//152
f 516//153 532//153 464//153
f 533//153 532//153 516//153
f 517//156 533//156 516//432
f 534//156 533//156 517//156
f 518//157 534//156 517//156
f 535//157 534//156 518//157
f 515//159 535//158 518//158
f 536//159 535//158 515//159
f 514//160 536//159 515//159
f 537//158 536//159 514//160
f 459//164 537//163 514//163
f 538//164 537//163 459//164
f 458//162 538//164 459//164
f 539//162 538//164 458//162
f 511//166 539//166 458//166
f 540//166 539//166 511//166
f 512//169 540//170 511//170
f 541//169 540//170 512//169
f 513//169 541//169 512//169
f 542//170 541//169 513//169
f 503//173 542//172 513//171
f 543//173 542//172 503//173
f 504//174 543//173 503//173
f 544//174 543//173 504//174
f 508//176 544//175 504//175
f 545//176 544//175 508//176
f 509//176 545//176 508//176
f 546//433 545//176 509//176
f 510//177 546//177 509//177
f 547//177 546//177 510//177
f 408//180 547//181 510//180
f 548//180 547//181 408//180
f 409//180 548//180 408//180
f 549//181 548//180 409//180
f 442//182 549//182 409//182
f 550//182 549//182 442//182
f 441//182 550//182 442//182
f 551//182 550//182 441//182
f 498//183 551//183 441//183
f 552//183 551//183 498//183
f 499//434 552//184 498//184
f 553//185 552//184 499//434
f 500//186 553//185 499//434
f 554//186 553//185 500//186
f 489//188 554//435 500//435
f 555//188 554//435 489//188
f 490//187 555//188 489//188
f 556//187 555//188 490//187
f 495//191 556//190 490//190
f 557//191 556//190 495//191
f 496//193 557//191 495//191
f 558//193 557//191 496//193
f 497//194 558//194 496//194
f 559//194 558//194 497//194
f 411//196 559//197 497//196
f 560//197 559//197 411//196
f 561//198 560//197 411//196
f 562//198 560//197 561//198
f 482//202 562//199 561//199
f 563//200 562//199 482//202
f 483//202 563//200 482//202
f 564//202 563//200 483//202
f 524//203 564//203 483//203
f 565//203 564//203 524//203
f 525//206 565//205 524//205
f 566//206 565//205 525//206
f 526//207 566//206 525//206
f 567//207 566//206 526//207
f 523//436 567//208 526//208
f 568//208 567//208 523//436
f 522//437 568//208 523//436
f 569//437 568//208 522//437
f 478//210 569//209 522//209
f 570//210 569//209 478//210
f 477//211 570//210 478//210
f 527//211 570//210 477//211
f 572//212 560//212 571//212
f 559//213 560//212 572//212
f 573//214 559//214 572//214
f 573//214 558//214 559//214
f 557//216 558//215 573//215
f 574//215 557//216 573//215
f 574//215 556//215 557//216
f 555//218 556//218 574//438
f 575//220 555//218 574//438
f 575//220 554//220 555//218
f 553//223 554//222 575//221
f 576//222 553//223 575//221
f 552//222 553//223 576//222
f 577//224 552//224 576//224
f 577//224 551//224 552//224
f 550//225 551//225 577//225
f 578//225 550//225 577//225
f 578//225 549//225 550//225
f 548//228 549//228 578//227
f 579//228 548//228 578//227
f 547//228 548//228 579//228
f 580//230 547//229 579//229
f 580//230 546//439 547//229
f 545//440 546//440 580//231
f 581//231 545//440 580//231
f 581//231 544//231 545//440
f 543//232 544//232 581//232
f 582//441 543//232 581//232
f 582//441 542//442 543//232
f 541//235 542//443 582//235
f 583//235 541//235 582//235
f 540//235 541//235 583//235
f 584//236 540//236 583//236
f 584//236 539//236 540//236
f 538//238 539//238 584//238
f 585//238 538//238 584//238
f 585//238 537//444 538//238
f 536//241 537//240 585//239
f 586//241 536//241 585//239
f 535//241 536//241 586//241
f 587//242 535//242 586//242
f 587//242 534//445 535//242
f 533//445 534//445 587//242
f 588//243 533//243 587//243
f 588//243 532//243 533//243
f 531//246 532//246 588//246
f 589//247 531//246 588//246
f 589//247 530//247 531//246
f 529//248 530//248 589//248
f 590//249 529//249 589//249
f 528//250 529//250 590//250
f 591//251 528//251 590//251
f 591//251 527//251 528//251
f 570//253 527//252 591//252
f 592//446 570//253 591//252
f 592//446 569//252 570//253
f 568//255 569//256 592//256
f 593//447 568//255 592//256
f 567//255 568//255 593//447
f 594//449 567//449 593//448
f 594//449 566//258 567//449
f 565//258 566//258 594//449
f 595//260 565//260 594//260
f 595//260 564//260 565//260
f 563//262 564//261 595//262
f 571//262 563//262 595//262
f 596//262 563//262 571//262
f 560//212 596//212 571//212
f 594//264 597//263 595//263
f 598//264 597//263 594//264
f 593//265 598//265 594//265
f 599//265 598//265 593//265
f 592//266 599//266 593//266
f 600//266 599//266 592//266
f 591//267 600//267 592//267
f 601//267 600//267 591//267
f 590//268 601//268 591//268
f 602//268 601//268 590//268
f 589//269 602//270 590//269
f 603//269 602//270 589//269
f 588//450 603//450 589//450
f 604//271 603//450 588//450
f 587//272 604//272 588//272
f 605//272 604//272 587//272
f 586//273 605//274 587//451
f 606//273 605//274 586//273
f 585//452 606//275 586//275
f 607//275 606//275 585//452
f 584//277 607//277 585//277
f 608//277 607//277 584//277
f 583//278 608//278 584//278
f 609//278 608//278 583//278
f 582//279 609//279 583//453
f 610//279 609//279 582//279
f 581//454 610//280 582//280
f 611//454 610//280 581//454
f 580//456 611//455 581//455
f 612//282 611//455 580//456
f 579//284 612//284 580//284
f 613//284 612//284 579//284
f 578//457 613//457 579//285
f 614//457 613//457 578//457
f 577//458 614//286 578//286
f 615//459 614//286 577//458
f 576//287 615//460 577//287
f 616//287 615//460 576//287
f 575//288 616//288 576//288
f 617//288 616//288 575//288
f 574//289 617//289 575//289
f 618//289 617//289 574//289
f 573//290 618//290 574//290
f 619//290 618//290 573//290
f 572//291 619//291 573//291
f 620//291 619//291 572//291
f 571//461 620//293 572//293
f 621//295 620//293 571//461
f 595//298 621//297 571//296
f 597//298 621//297 595//298
f 598//299 622//299 597//299
f 623//462 622//299 598//299
f 599//300 623//300 598//463
f 624//300 623//300 599//300
f 600//301 624//301 599//301
f 625//301 624//301 600//301
f 601//302 625//302 600//302
f 626//302 625//302 601//302
f 602//304 626//304 601//304
f 627//304 626//304 602//304
f 603//305 627//305 602//305
f 628//305 627//305 603//305
f 604//306 628//306 603//306
f 629//306 628//306 604//306
f 605//307 629//307 604//307
f 630//307 629//307 605//307
f 606//308 630//308 605//308
f 631//308 630//308 606//308
f 607//309 631//464 606//464
f 632//309 631//464 607//309
f 608//310 632//310 607//310
f 633//310 632//310 608//310
f 609//311 633//312 608//311
f 634//312 633//312 609//311
f 610//313 634//314 609//313
f 635//314 634//314 610//313
f 611//315 635//315 610//315
f 636//315 635//315 611//315
f 612//316 636//316 611//316
f 637//316 636//316 612//316
f 613//317 637//317 612//317
f 638//317 637//317 613//317
f 614//318 638//318 613//318
f 639//318 638//318 614//318
f 615//319 639//319 614//319
f 640//319 639//319 615//319
f 616//321 640//320 615//320
f 641//321 640//320 616//321
f 617//322 641//322 616//322
f 642//322 641//322 617//322
f 618//323 642//323 617//323
f 643//323 642//323 618//323
f 619//324 643//465 618//324
f 644//465 643//465 619//324
f 620//325 644//325 619//466
f 645//325 644//325 620//325
f 621//326 645//326 620//326
f 646//326 645//326 621//326
f 597//327 646//327 621//467
f 622//327 646//327 597//327
f 3//2 648//2 647//2
f 649//2 648//2 3//2
f 5//2 649//2 3//2
f 381//2 650//2 380//2
f 651//2 650//2 381//2
f 652//2 3//2 647//2
f 627//2 3//2 652//2
f 626//2 627//2 652//2
f 653//2 629//2 630//2
f 3//2 629//2 653//2
f 628//2 629//2 3//2
f 627//2 628//2 3//2
f 652//2 625//2 626//2
f 624//2 625//2 652//2
f 654//2 624//2 652//2
f 654//2 623//2 624//2
f 622//2 623//2 654//2
f 655//2 622//2 654//2
f 646//2 622//2 655//2
f 655//2 645//2 646//2
f 644//2 645//2 655//2
f 656//2 644//2 655//2
f 643//2 644//2 656//2
f 642//2 643//2 656//2
f 656//2 641//2 642//2
f 381//2 641//2 656//2
f 657//2 381//2 656//2
f 651//2 381//2 657//2
f 658//2 635//2 636//2
f 634//2 635//2 658//2
f 659//2 634//2 658//2
f 636//2 660//2 658//2
f 661//2 660//2 636//2
f 637//2 661//2 636//2
f 662//2 661//2 637//2
f 638//2 662//2 637//2
f 663//2 662//2 638//2
f 639//2 663//2 638//2
f 381//2 663//2 639//2
f 640//2 381//2 639//2
f 641//2 381//2 640//2
f 659//2 633//2 634//2
f 632//2 633//2 659//2
f 664//2 632//2 659//2
f 631//2 632//2 664//2
f 665//2 631//2 664//2
f 630//2 631//2 665//2
f 666//2 630//2 665//2
f 653//2 630//2 666//2
f 668//468 667//468 654//468
f 652//468 668//468 654//468
f 669//469 668//469 652//469
f 647//470 669//469 652//469
f 670//471 669//471 647//471
f 648//471 670//471 647//471
f 671//472 670//472 648//472
f 649//473 671//472 648//472
f 7//474 671//474 649//474
f 5//474 7//474 649//474
f 656//475 655//475 672//475
f 673//475 656//475 672//475
f 657//477 656//477 673//476
f 674//478 657//477 673//476
f 651//479 657//479 674//479
f 675//479 651//479 674//479
f 650//480 651//480 675//480
f 676//481 650//480 675//480
f 380//483 650//483 676//482
f 379//483 380//483 676//482
f 654//166 672//166 655//166
f 667//166 672//166 654//166
f 379//2 672//2 667//2
f 675//2 674//2 673//2
f 672//2 675//2 673//2
f 676//2 675//2 672//2
f 379//2 676//2 672//2
f 309//2 304//2 308//2
f 9//2 304//2 309//2
f 379//2 9//2 309//2
f 7//2 9//2 379//2
f 667//2 7//2 379//2
f 668//2 7//2 667//2
f 669//2 7//2 668//2
f 671//2 7//2 669//2
f 670//2 671//2 669//2
f 304//2 307//2 308//2
f 306//2 307//2 304//2
f 305//2 306//2 304//2
f 313//2 312//2 311//2
f 9//2 310//2 304//2
f 311//2 310//2 9//2
f 314//2 311//2 9//2
f 313//2 311//2 314//2
f 382//347 378//347 677//347
f 678//347 382//347 677//347
f 2//347 679//347 1//347
f 680//347 679//347 2//347
f 382//347 682//347 681//347
f 683//347 682//347 382//347
f 678//347 683//347 382//347
f 686//347 685//347 684//347
f 681//347 687//347 382//347
f 688//347 687//347 681//347
f 689//347 688//347 681//347
f 2//347 690//347 680//347
f 691//347 690//347 2//347
f 692//347 691//347 2//347
f 684//347 691//347 692//347
f 693//347 684//347 692//347
f 686//347 684//347 693//347
f 681//347 694//347 689//347
f 695//347 694//347 681//347
f 684//347 695//347 681//347
f 696//347 695//347 684//347
f 685//347 696//347 684//347
f 698//484 697//475 681//475
f 682//484 698//484 681//475
f 699//477 698//477 682//477
f 683//476 699//477 682//477
f 700//479 699//479 683//479
f 678//479 700//479 683//479
f 701//480 700//480 678//485
f 677//480 701//480 678//485
f 376//483 701//482 677//483
f 378//483 376//483 677//483
f 691//468 684//486 702//468
f 703//468 691//468 702//468
f 690//469 691//469 703//469
f 704//469 690//469 703//469
f 680//471 690//471 704//471
f 705//471 680//471 704//471
f 679//472 680//473 705//472
f 706//472 679//472 705//472
f 1//474 679//474 706//474
f 16//474 1//474 706//474
f 702//166 681//166 697//166
f 684//166 681//166 702//166
f 707//2 371//2 372//2
f 373//2 707//2 372//2
f 373//2 708//2 707//2
f 709//2 708//2 373//2
f 374//2 709//2 373//2
f 377//2 709//2 374//2
f 375//2 377//2 374//2
f 363//347 16//347 376//347
f 15//347 16//347 363//347
f 353//347 356//347 357//347
f 355//347 356//347 353//347
f 354//347 355//347 353//347
f 353//347 363//347 358//347
f 15//347 363//347 353//347
f 357//347 15//347 353//347
f 700//347 701//347 376//347
f 16//347 697//347 376//347
f 702//347 697//347 16//347
f 706//347 702//347 16//347
f 703//347 702//347 706//347
f 705//347 703//347 706//347
f 704//347 703//347 705//347
f 360//347 359//347 358//347
f 376//347 699//347 700//347
f 698//347 699//347 376//347
f 697//347 698//347 376//347
f 358//347 361//347 360//347
f 362//347 361//347 358//347
f 363//347 362//347 358//347
f 694//475 695//475 658//484
f 660//484 694//475 658//484
f 689//476 694//477 660//487
f 661//478 689//476 660//487
f 688//479 689//479 661//479
f 662//479 688//479 661//479
f 687//488 688//488 662//485
f 663//480 687//488 662//485
f 382//482 687//483 663//482
f 381//483 382//482 663//482
f 696//166 658//166 695//166
f 659//166 658//166 696//166
f 664//468 659//468 696//468
f 685//489 664//468 696//468
f 665//491 664//469 685//490
f 686//470 665//491 685//490
f 666//471 665//471 686//471
f 693//471 666//471 686//471
f 653//492 666//492 693//473
f 692//472 653//492 693//473
f 3//493 653//474 692//493
f 2//474 3//493 692//493
f 709//494 377//494 316//494
f 318//495 709//494 316//494
f 708//496 709//497 318//496
f 320//497 708//496 318//496
f 707//498 708//498 320//498
f 322//499 707//498 320//498
f 371//500 707//501 322//500
f 323//501 371//500 322//500
f 369//502 370//503 330//502
f 328//503 369//502 330//502
f 367//504 369//504 328//504
f 327//505 367//504 328//504
f 365//506 367//507 327//506
f 325//507 365//506 327//506
f 4//508 365//509 325//508
f 6//508 4//508 325//508
