# Blender v3.6.4 OBJ File: ''
# www.blender.org
mtllib link_2.0.mtl
o link_2.0
v 0 0.01145 0.0439
v -0.001224 0.01145 0.043762
v 0.001224 0.01145 0.033038
v 0 0.01145 0.0329
v -0.003429 0.01145 0.0427
v -0.0043 0.01145 0.041829
v -0.001224 0.01145 0.033038
v -0.002386 0.01145 0.043355
v 0.003429 0.01145 0.0427
v 0.002386 0.01145 0.043355
v 0.001224 0.01145 0.043762
v -0.005362 0.01145 0.039624
v -0.0043 0.01145 0.034971
v -0.003429 0.01145 0.0341
v 0.002386 0.01145 0.033445
v 0.004955 0.01145 0.040786
v 0.0043 0.01145 0.041829
v 0.0055 0.01145 0.0384
v 0.0043 0.01145 0.034971
v 0.005362 0.01145 0.037176
v 0.004955 0.01145 0.036014
v 0.003429 0.01145 0.0341
v 0.005362 0.01145 0.039624
v -0.0055 0.01145 0.0384
v -0.005362 0.01145 0.037176
v -0.004955 0.01145 0.036014
v -0.004955 0.01145 0.040786
v -0.002386 0.01145 0.033445
v -0.00328 0.01135 0.042911
v -0.003492 0.01135 0.042778
v -0.003487 0.011388 0.042772
v -0.003453 0.011442 0.03407
v -0.00433 0.011442 0.034947
v -0.004355 0.011421 0.034927
v -0.005399 0.011442 0.037168
v -0.005538 0.011442 0.0384
v -0.005039 0.011388 0.035974
v -0.005019 0.011421 0.035983
v -0.00499 0.011442 0.035997
v -0.005431 0.011421 0.03716
v -0.005571 0.011421 0.0384
v -0.005431 0.011421 0.03964
v -0.005399 0.011442 0.039632
v -0.00499 0.011442 0.040803
v -0.005019 0.011421 0.040817
v -0.004355 0.011421 0.041873
v -0.004372 0.011388 0.041887
v -0.00433 0.011442 0.041853
v -0.003453 0.011442 0.04273
v -0.003473 0.011421 0.042755
v -0.002417 0.011421 0.043419
v -0.002426 0.011388 0.043439
v -0.001244 0.011388 0.043852
v -0.002403 0.011442 0.04339
v -0.001232 0.011442 0.043799
v -0.00124 0.011421 0.043831
v 0 0.011421 0.043971
v 0 0.011388 0.043992
v 0.001244 0.011388 0.043852
v 0.001246 0.01135 0.04386
v 0.001719 0.01135 0.043694
v 0 0.01145 0.0439
v 0 0.011442 0.043938
v 0.001232 0.011442 0.043799
v 0.00124 0.011421 0.043831
v 0.002417 0.011421 0.043419
v 0.002426 0.011388 0.043439
v 0.003487 0.011388 0.042772
v 0.002403 0.011442 0.04339
v 0.003473 0.011421 0.042755
v 0.004372 0.011388 0.041887
v 0.004378 0.01135 0.041892
v 0.004511 0.01135 0.04168
v 0.003453 0.011442 0.04273
v 0.00433 0.011442 0.041853
v 0.004355 0.011421 0.041873
v 0.005019 0.011421 0.040817
v 0.005039 0.011388 0.040826
v 0.005452 0.011388 0.039644
v 0.00499 0.011442 0.040803
v 0.005399 0.011442 0.039632
v 0.005431 0.011421 0.03964
v 0.005571 0.011421 0.0384
v 0.005592 0.011388 0.0384
v 0.005452 0.011388 0.037156
v 0.00546 0.01135 0.037154
v 0.005294 0.01135 0.036681
v 0.005538 0.011442 0.0384
v 0.005399 0.011442 0.037168
v 0.005431 0.011421 0.03716
v 0.005019 0.011421 0.035983
v 0.005039 0.011388 0.035974
v 0.004372 0.011388 0.034913
v 0.00499 0.011442 0.035997
v 0.004355 0.011421 0.034927
v 0.003487 0.011388 0.034028
v 0.003492 0.01135 0.034022
v 0.00328 0.01135 0.033889
v 0.00433 0.011442 0.034947
v 0.003453 0.011442 0.03407
v 0.003473 0.011421 0.034045
v 0.002417 0.011421 0.033381
v 0.002426 0.011388 0.033361
v 0.001244 0.011388 0.032948
v 0.002403 0.011442 0.03341
v 0.001232 0.011442 0.033001
v 0.00124 0.011421 0.032969
v 0 0.011421 0.032829
v 0 0.011388 0.032808
v -0.001244 0.011388 0.032948
v -0.001246 0.01135 0.03294
v -0.001719 0.01135 0.033106
v 0 0.01145 0.0329
v 0 0.011442 0.032862
v -0.001232 0.011442 0.033001
v -0.00124 0.011421 0.032969
v -0.002417 0.011421 0.033381
v -0.002426 0.011388 0.033361
v -0.003487 0.011388 0.034028
v -0.002403 0.011442 0.03341
v -0.003473 0.011421 0.034045
v -0.004372 0.011388 0.034913
v -0.004378 0.01135 0.034908
v -0.004511 0.01135 0.03512
v -0.005452 0.011388 0.037156
v -0.005592 0.011388 0.0384
v -0.005452 0.011388 0.039644
v -0.005039 0.011388 0.040826
v -0.004511 0.01135 0.04168
v -0.004378 0.01135 0.041892
v 0 0.01135 0.044
v -0.001246 0.01135 0.04386
v -0.001719 0.01135 0.043694
v -0.00243 0.01135 0.043445
v 0.003492 0.01135 0.042778
v 0.00328 0.01135 0.042911
v 0.00243 0.01135 0.043445
v 0.0056 0.01135 0.0384
v 0.00546 0.01135 0.039646
v 0.005294 0.01135 0.040119
v 0.005045 0.01135 0.04083
v 0.004378 0.01135 0.034908
v 0.004511 0.01135 0.03512
v 0.005045 0.01135 0.03597
v 0 0.01135 0.0328
v 0.001246 0.01135 0.03294
v 0.001719 0.01135 0.033106
v 0.00243 0.01135 0.033355
v -0.003492 0.01135 0.034022
v -0.00328 0.01135 0.033889
v -0.00243 0.01135 0.033355
v -0.005045 0.01135 0.03597
v -0.005294 0.01135 0.036681
v -0.005045 0.01135 0.04083
v -0.005294 0.01135 0.040119
v -0.00546 0.01135 0.039646
v -0.0056 0.01135 0.0384
v -0.00546 0.01135 0.037154
v 0.00546 0.01095 0.037154
v 0.005294 0.01095 0.036681
v 0.005045 0.01095 0.03597
v 0.004511 0.01095 0.03512
v 0.004378 0.01095 0.034908
v 0.003492 0.01095 0.034022
v 0.00328 0.01095 0.033889
v 0.00243 0.01095 0.033355
v 0.001719 0.01095 0.033106
v 0.001246 0.01095 0.03294
v 0 0.01095 0.0328
v 0 0.01135 0.0328
v -0.001246 0.01095 0.03294
v -0.001719 0.01095 0.033106
v -0.00243 0.01095 0.033355
v -0.00328 0.01095 0.033889
v -0.003492 0.01095 0.034022
v -0.004378 0.01095 0.034908
v -0.004511 0.01095 0.03512
v -0.005045 0.01095 0.03597
v -0.005294 0.01095 0.036681
v -0.00546 0.01095 0.037154
v -0.0056 0.01095 0.0384
v -0.00546 0.01095 0.039646
v -0.005294 0.01095 0.040119
v -0.005045 0.01095 0.04083
v -0.004511 0.01095 0.04168
v -0.004378 0.01095 0.041892
v -0.003492 0.01095 0.042778
v -0.00328 0.01095 0.042911
v -0.00243 0.01095 0.043445
v -0.001719 0.01095 0.043694
v -0.001246 0.01095 0.04386
v 0 0.01095 0.044
v 0 0.01135 0.044
v 0.001246 0.01095 0.04386
v 0.001719 0.01095 0.043694
v 0.00243 0.01095 0.043445
v 0.00328 0.01095 0.042911
v 0.003492 0.01095 0.042778
v 0.004378 0.01095 0.041892
v 0.004511 0.01095 0.04168
v 0.005045 0.01095 0.04083
v 0.005294 0.01095 0.040119
v 0.00546 0.01095 0.039646
v 0.0056 0.01095 0.0384
v -0.005039 0.010912 0.040826
v -0.005452 0.010912 0.039644
v -0.004372 0.010912 0.041887
v -0.003487 0.010912 0.042772
v -0.002426 0.010912 0.043439
v -0.001244 0.010912 0.043852
v 0 0.010912 0.043992
v 0 0.01095 0.044
v 0.001244 0.010912 0.043852
v 0.002426 0.010912 0.043439
v 0.003487 0.010912 0.042772
v 0.004372 0.010912 0.041887
v 0.005039 0.010912 0.040826
v 0.005452 0.010912 0.039644
v 0.005592 0.010912 0.0384
v 0.005452 0.010912 0.037156
v 0.005039 0.010912 0.035974
v 0.004372 0.010912 0.034913
v 0.003487 0.010912 0.034028
v 0.002426 0.010912 0.033361
v 0.001244 0.010912 0.032948
v 0 0.010912 0.032808
v 0 0.01095 0.0328
v -0.001244 0.010912 0.032948
v -0.002426 0.010912 0.033361
v -0.003487 0.010912 0.034028
v -0.004372 0.010912 0.034913
v -0.005039 0.010912 0.035974
v -0.005452 0.010912 0.037156
v -0.005592 0.010912 0.0384
v -0.005431 0.010879 0.03716
v -0.005019 0.010879 0.035983
v -0.004355 0.010879 0.034927
v -0.003473 0.010879 0.034045
v -0.002417 0.010879 0.033381
v -0.00124 0.010879 0.032969
v 0 0.010879 0.032829
v 0.00124 0.010879 0.032969
v 0.002417 0.010879 0.033381
v 0.003473 0.010879 0.034045
v 0.004355 0.010879 0.034927
v 0.005019 0.010879 0.035983
v 0.005431 0.010879 0.03716
v 0.005571 0.010879 0.0384
v 0.005431 0.010879 0.03964
v 0.005019 0.010879 0.040817
v 0.004355 0.010879 0.041873
v 0.003473 0.010879 0.042755
v 0.002417 0.010879 0.043419
v 0.00124 0.010879 0.043831
v 0 0.010879 0.043971
v -0.00124 0.010879 0.043831
v -0.002417 0.010879 0.043419
v -0.003473 0.010879 0.042755
v -0.004355 0.010879 0.041873
v -0.005019 0.010879 0.040817
v -0.005431 0.010879 0.03964
v -0.005571 0.010879 0.0384
v -0.005399 0.010858 0.037168
v -0.00499 0.010858 0.035997
v -0.00433 0.010858 0.034947
v -0.003453 0.010858 0.03407
v -0.002403 0.010858 0.03341
v -0.001232 0.010858 0.033001
v 0 0.010858 0.032862
v 0.001232 0.010858 0.033001
v 0.002403 0.010858 0.03341
v 0.003453 0.010858 0.03407
v 0.00433 0.010858 0.034947
v 0.00499 0.010858 0.035997
v 0.005399 0.010858 0.037168
v 0.005538 0.010858 0.0384
v 0.005399 0.010858 0.039632
v 0.00499 0.010858 0.040803
v 0.00433 0.010858 0.041853
v 0.003453 0.010858 0.04273
v 0.002403 0.010858 0.04339
v 0.001232 0.010858 0.043799
v 0 0.010858 0.043938
v -0.001232 0.010858 0.043799
v -0.002403 0.010858 0.04339
v -0.003453 0.010858 0.04273
v -0.00433 0.010858 0.041853
v -0.00499 0.010858 0.040803
v -0.005399 0.010858 0.039632
v -0.005538 0.010858 0.0384
v -0.005362 0.01085 0.037176
v -0.004955 0.01085 0.036014
v -0.0043 0.01085 0.034971
v -0.003429 0.01085 0.0341
v -0.002386 0.01085 0.033445
v -0.001224 0.01085 0.033038
v 0 0.01085 0.0329
v 0.001224 0.01085 0.033038
v 0.002386 0.01085 0.033445
v 0.003429 0.01085 0.0341
v 0.0043 0.01085 0.034971
v 0.004955 0.01085 0.036014
v 0.005362 0.01085 0.037176
v 0.0055 0.01085 0.0384
v 0.005362 0.01085 0.039624
v 0.004955 0.01085 0.040786
v 0.0043 0.01085 0.041829
v 0.003429 0.01085 0.0427
v 0.002386 0.01085 0.043355
v 0.001224 0.01085 0.043762
v 0 0.01085 0.0439
v -0.001224 0.01085 0.043762
v -0.002386 0.01085 0.043355
v -0.003429 0.01085 0.0427
v -0.0043 0.01085 0.041829
v -0.004955 0.01085 0.040786
v -0.005362 0.01085 0.039624
v -0.0055 0.01085 0.0384
v 0.009555 0.01085 0.026945
v 0.0098 0.01085 0.0254
v 0.0098 0.01085 0.0422
v -0.0098 0.01085 0.0422
v -0.0098 0.01085 0.0254
v -0.009555 0.01085 0.026945
v -0.008845 0.01085 0.028339
v -0.007739 0.01085 0.029445
v -0.006345 0.01085 0.030155
v 0.006345 0.01085 0.030155
v 0.007739 0.01085 0.029445
v 0.008845 0.01085 0.028339
v 0.009555 0.01085 0.043745
v -0.0048 0.01085 0.0472
v 0.0048 0.01085 0.0472
v 0 0.01085 0.0439
v 0.006345 0.01085 0.046955
v 0.007739 0.01085 0.046245
v 0.008845 0.01085 0.045139
v 0.0048 0.01085 0.0304
v -0.0048 0.01085 0.0304
v 0 0.01085 0.0329
v -0.009555 0.01085 0.043745
v -0.008845 0.01085 0.045139
v -0.007739 0.01085 0.046245
v -0.006345 0.01085 0.046955
v 0.0048 0.01355 0.0304
v 0.006345 0.01355 0.030155
v 0.007739 0.01355 0.029445
v 0.008845 0.01355 0.028339
v 0.009555 0.01355 0.026945
v 0.0098 0.01355 0.0254
v -0.0048 0.01355 0.0304
v -0.006345 0.01355 0.030155
v -0.007739 0.01355 0.029445
v -0.008845 0.01355 0.028339
v -0.009555 0.01355 0.026945
v -0.0098 0.01355 0.0254
v -0.0098 0.01115 0.0144
v -0.009572 0.01115 0.013252
v -0.0098 0.01115 0.0097
v -0.008921 0.01115 0.012279
v 0.007948 0.01115 0.011628
v 0.008921 0.01115 0.012279
v 0.0098 0.01115 0.0097
v 0.009572 0.01115 0.013252
v 0.0098 0.01115 0.0144
v -0.007948 0.01115 0.011628
v -0.0068 0.01115 0.0114
v 0.0068 0.01115 0.0114
v -0.002934 0.00985 -0.000624
v -0.002934 0.00985 0.000624
v -0.002427 0.00985 0.001763
v -0.0015 0.00985 0.002598
v 0.002741 0.00985 -0.00122
v -0.000314 0.00985 0.002984
v 0.002741 0.00985 0.00122
v 0.003 0.00985 0
v 0.002007 0.00985 0.002229
v 0.000927 0.00985 0.002853
v -0.0015 0.00985 -0.002598
v -0.002427 0.00985 -0.001763
v -0.000314 0.00985 -0.002984
v 0.000927 0.00985 -0.002853
v 0.002007 0.00985 -0.002229
v -0.0042 0.01355 -0.0063
v -0.0098 0.01355 -0.0033
v -0.0068 0.01355 -0.0063
v 0.008734 0.01355 0.002342
v 0.003578 0.01355 -0.003941
v 0.007441 0.01355 -7.8e-05
v 0.005699 0.01355 -0.002199
v -0.001469 0.01355 -0.006031
v 0.001158 0.01355 -0.005234
v 0.0098 0.01355 0.0077
v 0.009531 0.01355 0.004969
v -0.009572 0.01355 -0.004448
v -0.008921 0.01355 -0.005421
v -0.007948 0.01355 -0.006072
v -0.008921 0.01155 -0.005421
v -0.009572 0.01155 -0.004448
v -0.0098 0.01155 -0.0033
v 0.002741 0.01155 0.00122
v 0.002007 0.01155 0.002229
v 0.0098 0.01155 0.0077
v 0.0098 0.01155 0.0097
v 0.000927 0.01155 0.002853
v -0.0098 0.01155 0.0097
v -0.000314 0.01155 0.002984
v -0.0015 0.01155 0.002598
v -0.002934 0.01155 -0.000624
v -0.002427 0.01155 -0.001763
v -0.007948 0.01155 -0.006072
v -0.002934 0.01155 0.000624
v -0.002427 0.01155 0.001763
v 0.009531 0.01155 0.004969
v 0.008734 0.01155 0.002342
v 0.003 0.01155 0
v 0.007441 0.01155 -7.8e-05
v 0.002741 0.01155 -0.00122
v 0.005699 0.01155 -0.002199
v 0.002007 0.01155 -0.002229
v 0.003578 0.01155 -0.003941
v 0.000927 0.01155 -0.002853
v 0.001158 0.01155 -0.005234
v -0.000314 0.01155 -0.002984
v -0.001469 0.01155 -0.006031
v -0.0015 0.01155 -0.002598
v -0.0042 0.01155 -0.0063
v -0.0068 0.01155 -0.0063
v 0.003 0.00985 0
v 0.003 0.01155 0
v 0.0098 -0.01095 0.0254
v 0.009555 -0.01095 0.026945
v 0.0098 -0.01095 0.0422
v 0.008845 -0.01095 0.028339
v -0.006345 -0.01095 0.030155
v -0.007739 -0.01095 0.029445
v -0.0098 -0.01095 0.0422
v -0.008845 -0.01095 0.028339
v -0.009555 -0.01095 0.026945
v -0.0098 -0.01095 0.0254
v -0.0048 -0.01095 0.0304
v -0.008845 -0.01095 0.045139
v -0.007739 -0.01095 0.046245
v 0.0048 -0.01095 0.0304
v 0.006345 -0.01095 0.046955
v 0.007739 -0.01095 0.046245
v -0.009555 -0.01095 0.043745
v 0.007739 -0.01095 0.029445
v 0.006345 -0.01095 0.030155
v 0.009555 -0.01095 0.043745
v 0.008845 -0.01095 0.045139
v -0.006345 -0.01095 0.046955
v -0.0048 -0.01095 0.0472
v 0.0048 -0.01095 0.0472
v -0.0048 -0.01345 0.0304
v -0.006345 -0.01345 0.030155
v -0.007739 -0.01345 0.029445
v -0.008845 -0.01345 0.028339
v -0.009555 -0.01345 0.026945
v -0.0098 -0.01345 0.0254
v 0.0048 -0.01345 0.0304
v 0.006345 -0.01345 0.030155
v 0.007739 -0.01345 0.029445
v 0.008845 -0.01345 0.028339
v 0.009555 -0.01345 0.026945
v 0.0098 -0.01345 0.0254
v -0.0098 -0.00945 0.0114
v -0.0068 -0.00945 0.0114
v -0.007948 -0.00945 0.011628
v -0.008921 -0.00945 0.012279
v -0.009572 -0.00945 0.013252
v -0.0098 -0.00945 0.0144
v 0.0038 -0.01045 0
v 0 -0.01045 0.0038
v -0.001454 -0.01045 0.003511
v -0.003511 -0.01045 -0.001454
v -0.002687 -0.01045 -0.002687
v 0.003511 -0.01045 -0.001454
v 0.001454 -0.01045 0.003511
v 0.002687 -0.01045 0.002687
v 0.003511 -0.01045 0.001454
v -0.002687 -0.01045 0.002687
v -0.003511 -0.01045 0.001454
v -0.0038 -0.01045 0
v 0.001454 -0.01045 -0.003511
v 0.002687 -0.01045 -0.002687
v 0 -0.01045 -0.0038
v -0.001454 -0.01045 -0.003511
v 0.0098 -0.00945 0.0114
v 0.0098 -0.00945 0.0144
v 0.009572 -0.00945 0.013252
v 0.008921 -0.00945 0.012279
v 0.007948 -0.00945 0.011628
v 0.0068 -0.00945 0.0114
v -0.009572 -0.01125 -0.004448
v -0.003511 -0.01125 -0.001454
v -0.0098 -0.01125 -0.0033
v -0.0038 -0.01125 0
v -0.0098 -0.01125 0.0114
v -0.003511 -0.01125 0.001454
v -0.002687 -0.01125 0.002687
v -0.008921 -0.01125 -0.005421
v -0.007948 -0.01125 -0.006072
v -0.002687 -0.01125 -0.002687
v -0.0068 -0.01125 -0.0063
v -0.001454 -0.01125 -0.003511
v -0.0042 -0.01125 -0.0063
v 0 -0.01125 -0.0038
v -0.001469 -0.01125 -0.006031
v 0.001454 -0.01125 -0.003511
v 0.001158 -0.01125 -0.005234
v 0.002687 -0.01125 -0.002687
v 0.003578 -0.01125 -0.003941
v 0.003511 -0.01125 -0.001454
v 0.005699 -0.01125 -0.002199
v 0.0038 -0.01125 0
v -0.001454 -0.01125 0.003511
v 0 -0.01125 0.0038
v 0.0098 -0.01125 0.0114
v 0.001454 -0.01125 0.003511
v 0.002687 -0.01125 0.002687
v 0.007441 -0.01125 -7.8e-05
v 0.008734 -0.01125 0.002342
v 0.003511 -0.01125 0.001454
v 0.009531 -0.01125 0.004969
v 0.0098 -0.01125 0.0077
v -0.0042 -0.01345 -0.0063
v -0.0098 -0.01345 -0.0033
v 0.008734 -0.01345 0.002342
v 0.001158 -0.01345 -0.005234
v 0.009531 -0.01345 0.004969
v 0.0098 -0.01345 0.0077
v 0.007441 -0.01345 -7.8e-05
v 0.005699 -0.01345 -0.002199
v 0.003578 -0.01345 -0.003941
v -0.008921 -0.01345 -0.005421
v -0.009572 -0.01345 -0.004448
v -0.007948 -0.01345 -0.006072
v -0.0068 -0.01345 -0.0063
v -0.001469 -0.01345 -0.006031
v -0.0038 -0.01045 0
v -0.0038 -0.01125 0
v 0 -0.01045 0.0038
v 0.0038 -0.01125 0
v 0 -0.01045 -0.0038
vn 0 1 0
vn -0.5221 0.1941 0.8305
vn -0.522 0.194 0.8306
vn -0.522 0.1939 0.8306
vn -0.3945 0.8299 -0.3945
vn -0.3946 0.8299 -0.3945
vn -0.1853 0.9805 -0.0648
vn -0.1388 0.9805 -0.1388
vn -0.1044 0.9806 -0.1662
vn -0.1044 0.9805 -0.1662
vn -0.195 0.9806 -0.022
vn -0.7054 0.5531 -0.4432
vn -0.7054 0.5532 -0.4432
vn -0.4725 0.8298 -0.2968
vn -0.4725 0.8299 -0.2968
vn -0.4725 0.8298 -0.2969
vn -0.1662 0.9805 -0.1044
vn -0.1662 0.9806 -0.1044
vn -0.5545 0.8298 -0.0625
vn -0.5545 0.8298 0.0625
vn -0.195 0.9806 0.022
vn -0.1853 0.9805 0.0648
vn -0.5267 0.8298 0.1843
vn -0.4724 0.8299 0.2969
vn -0.4725 0.8299 0.2969
vn -0.4725 0.8298 0.2969
vn -0.7054 0.5531 0.4432
vn -0.7054 0.5532 0.4432
vn -0.589 0.5533 0.589
vn -0.1662 0.9805 0.1044
vn -0.1662 0.9806 0.1044
vn -0.1388 0.9805 0.1388
vn -0.3946 0.8299 0.3945
vn -0.2969 0.8299 0.4724
vn -0.2969 0.8298 0.4725
vn -0.4432 0.5532 0.7054
vn -0.4432 0.5531 0.7054
vn -0.2751 0.5532 0.7863
vn -0.1044 0.9805 0.1662
vn -0.1044 0.9806 0.1661
vn -0.0648 0.9805 0.1853
vn -0.0648 0.9805 0.1854
vn -0.1843 0.8298 0.5267
vn -0.0625 0.8298 0.5545
vn -0.0933 0.5532 0.8278
vn 0.0933 0.5531 0.8279
vn 0.0933 0.5532 0.8278
vn 0.1098 0.1939 0.9749
vn 0.324 0.1939 0.926
vn -0.022 0.9806 0.195
vn -0.022 0.9805 0.1951
vn 0.022 0.9805 0.1951
vn 0.0625 0.8298 0.5545
vn 0.1843 0.8298 0.5267
vn 0.2751 0.5532 0.7863
vn 0.4432 0.5531 0.7054
vn 0.022 0.9806 0.195
vn 0.0648 0.9805 0.1853
vn 0.0648 0.9806 0.1853
vn 0.2969 0.8298 0.4725
vn 0.589 0.5533 0.589
vn 0.5892 0.553 0.5891
vn 0.6937 0.1939 0.6937
vn 0.8307 0.1939 0.5219
vn 0.8305 0.194 0.5221
vn 0.1044 0.9805 0.1662
vn 0.1044 0.9806 0.1661
vn 0.1044 0.9806 0.1662
vn 0.1388 0.9805 0.1388
vn 0.3946 0.8299 0.3945
vn 0.4725 0.8298 0.2969
vn 0.7054 0.5531 0.4432
vn 0.7054 0.5532 0.4432
vn 0.7863 0.5532 0.2752
vn 0.7863 0.5532 0.2751
vn 0.1662 0.9806 0.1044
vn 0.1662 0.9805 0.1044
vn 0.1853 0.9805 0.0648
vn 0.5267 0.8299 0.1843
vn 0.5267 0.8298 0.1843
vn 0.5545 0.8298 0.0625
vn 0.8278 0.5532 0.0933
vn 0.8279 0.5531 -0.0933
vn 0.8278 0.5532 -0.0933
vn 0.9749 0.1939 -0.1098
vn 0.926 0.1939 -0.324
vn 0.195 0.9806 0.022
vn 0.195 0.9806 -0.022
vn 0.5545 0.8298 -0.0625
vn 0.5545 0.8299 -0.0625
vn 0.5266 0.8299 -0.1843
vn 0.5267 0.8299 -0.1843
vn 0.7863 0.5531 -0.2752
vn 0.7864 0.5531 -0.2751
vn 0.7863 0.5532 -0.2751
vn 0.7054 0.5532 -0.4432
vn 0.7054 0.5531 -0.4432
vn 0.1853 0.9805 -0.0648
vn 0.5267 0.8298 -0.1843
vn 0.4724 0.8299 -0.2969
vn 0.4725 0.8299 -0.2969
vn 0.4725 0.8298 -0.2969
vn 0.5892 0.5529 -0.5892
vn 0.589 0.5533 -0.589
vn 0.5892 0.553 -0.5891
vn 0.6937 0.1939 -0.6937
vn 0.5219 0.194 -0.8306
vn 0.5219 0.1939 -0.8307
vn 0.5221 0.1941 -0.8305
vn 0.1662 0.9805 -0.1044
vn 0.1662 0.9806 -0.1044
vn 0.1388 0.9805 -0.1388
vn 0.3946 0.8299 -0.3945
vn 0.2969 0.8299 -0.4724
vn 0.2969 0.8298 -0.4725
vn 0.4432 0.5531 -0.7054
vn 0.4432 0.5532 -0.7054
vn 0.2751 0.5532 -0.7863
vn 0.1044 0.9805 -0.1663
vn 0.1044 0.9806 -0.1662
vn 0.0648 0.9805 -0.1853
vn 0.1843 0.8299 -0.5266
vn 0.1843 0.8298 -0.5268
vn 0.1843 0.8298 -0.5267
vn 0.0625 0.8298 -0.5545
vn 0.0625 0.8299 -0.5545
vn 0.0625 0.8298 -0.5546
vn 0.0933 0.5532 -0.8278
vn -0.0933 0.5531 -0.8279
vn -0.0933 0.5531 -0.8278
vn -0.0933 0.5532 -0.8278
vn -0.1098 0.1939 -0.9749
vn -0.324 0.1939 -0.926
vn -0.3239 0.194 -0.926
vn 0.022 0.9806 -0.195
vn -0.022 0.9805 -0.1951
vn -0.022 0.9806 -0.195
vn -0.0625 0.8298 -0.5545
vn -0.0625 0.8298 -0.5546
vn -0.1843 0.8299 -0.5267
vn -0.1843 0.8299 -0.5266
vn -0.1843 0.8298 -0.5267
vn -0.2751 0.5532 -0.7863
vn -0.2751 0.5531 -0.7863
vn -0.4432 0.5531 -0.7054
vn -0.0648 0.9805 -0.1853
vn -0.0648 0.9806 -0.1852
vn -0.2969 0.8299 -0.4724
vn -0.2969 0.8298 -0.4725
vn -0.589 0.5533 -0.589
vn -0.5892 0.553 -0.5891
vn -0.6937 0.1939 -0.6937
vn -0.8307 0.1939 -0.5219
vn -0.8305 0.194 -0.5221
vn -0.8278 0.5532 -0.0933
vn -0.8278 0.5531 0.0933
vn -0.8278 0.5532 0.0933
vn -0.7863 0.5532 0.2752
vn -0.7863 0.5531 0.2752
vn -0.7863 0.5532 0.2751
vn -0.8307 0.1939 0.5219
vn -0.8307 0.1939 0.5218
vn -0.6937 0.1939 0.6937
vn -0.4432 0.5531 0.7055
vn -0.5219 0.1939 0.8307
vn -0.1098 0.1939 0.9749
vn -0.324 0.1939 0.926
vn -0.1044 0.9805 0.1663
vn 0.6937 0.194 0.6937
vn 0.5219 0.194 0.8306
vn 0.522 0.194 0.8306
vn 0.5221 0.1941 0.8305
vn 0.5219 0.1939 0.8307
vn 0.5218 0.1939 0.8307
vn 0.0648 0.9806 0.1852
vn 0.2969 0.8298 0.4724
vn 0.3946 0.8298 0.3946
vn 0.7054 0.5531 0.4433
vn 0.9749 0.1939 0.1098
vn 0.926 0.1939 0.324
vn 0.926 0.1939 0.3239
vn 0.7863 0.5532 -0.2752
vn 0.8307 0.1939 -0.5219
vn 0.8307 0.1939 -0.5218
vn 0.4432 0.5531 -0.7055
vn 0.1098 0.1939 -0.9749
vn 0.324 0.1939 -0.926
vn 0.3239 0.194 -0.926
vn 0.022 0.9805 -0.195
vn -0.0625 0.8299 -0.5545
vn -0.6937 0.194 -0.6937
vn -0.5219 0.1939 -0.8307
vn -0.5219 0.194 -0.8306
vn -0.5221 0.1941 -0.8305
vn -0.5218 0.1939 -0.8307
vn -0.3945 0.8299 -0.3946
vn -0.7054 0.5531 -0.4433
vn -0.5267 0.8299 -0.1843
vn -0.5267 0.8298 -0.1843
vn -0.7863 0.5532 -0.2752
vn -0.7863 0.5532 -0.2751
vn -0.926 0.1939 -0.324
vn -0.926 0.194 -0.3239
vn -0.926 0.1939 0.324
vn -0.926 0.1939 0.3239
vn -0.9749 0.1939 0.1098
vn -0.9749 0.1939 -0.1098
vn 0.9439 0 -0.3302
vn 0.9439 0 -0.3303
vn 0.9438 0 -0.3304
vn 0.9438 0 -0.3305
vn 0.8468 0 -0.532
vn 0.8469 0 -0.5317
vn 0.8467 0 -0.5321
vn 0.8467 0 -0.532
vn 0.7071 0 -0.7071
vn 0.532 0 -0.8467
vn 0.5319 0 -0.8468
vn 0.5317 0 -0.8469
vn 0.532 0 -0.8468
vn 0.3302 0 -0.9439
vn 0.3303 0 -0.9439
vn 0.1117 0 -0.9937
vn -0.1117 0 -0.9937
vn -0.3302 0 -0.9439
vn -0.3303 0 -0.9439
vn -0.3301 0 -0.944
vn -0.532 0 -0.8468
vn -0.5321 0 -0.8467
vn -0.5317 0 -0.8469
vn -0.532 0 -0.8467
vn -0.7071 0 -0.7071
vn -0.8466 0 -0.5322
vn -0.8468 0 -0.5319
vn -0.8469 0 -0.5317
vn -0.8468 0 -0.532
vn -0.9438 0 -0.3305
vn -0.9439 0 -0.3302
vn -0.9439 0 -0.3303
vn -0.9937 0 -0.1117
vn -0.9937 0 -0.112
vn -0.9937 0 0.1117
vn -0.9439 0 0.3302
vn -0.9439 0 0.3303
vn -0.9438 0 0.3304
vn -0.9438 0 0.3305
vn -0.8468 0 0.532
vn -0.8469 0 0.5317
vn -0.8467 0 0.532
vn -0.7071 0 0.7071
vn -0.5321 0 0.8467
vn -0.5317 0 0.8469
vn -0.532 0 0.8467
vn -0.532 0 0.8468
vn -0.3305 0 0.9438
vn -0.3302 0 0.9439
vn -0.3303 0 0.9439
vn -0.112 0 0.9937
vn -0.1117 0 0.9937
vn -0.1116 0 0.9937
vn 0.1116 0 0.9937
vn 0.1117 0 0.9937
vn 0.3302 0 0.9439
vn 0.3303 0 0.9439
vn 0.3305 0 0.9438
vn 0.532 0 0.8468
vn 0.5317 0 0.8469
vn 0.532 0 0.8467
vn 0.7071 0 0.7071
vn 0.8467 0 0.5321
vn 0.8467 0 0.532
vn 0.8469 0 0.5317
vn 0.8468 0 0.532
vn 0.9439 0 0.3302
vn 0.9438 0 0.3305
vn 0.9439 0 0.3303
vn 0.9937 0 0.1117
vn 0.9937 0 -0.1117
vn -0.926 -0.1939 0.324
vn -0.8307 -0.1939 0.5219
vn -0.8305 -0.194 0.5221
vn -0.8306 -0.1939 0.522
vn -0.6937 -0.1939 0.6937
vn -0.6937 -0.194 0.6937
vn -0.522 -0.194 0.8306
vn -0.5221 -0.1941 0.8305
vn -0.5219 -0.1939 0.8307
vn -0.324 -0.1939 0.926
vn -0.3239 -0.194 0.926
vn -0.1098 -0.1939 0.9749
vn 0.1098 -0.1939 0.9749
vn 0.324 -0.1939 0.926
vn 0.5219 -0.1939 0.8307
vn 0.5221 -0.1941 0.8305
vn 0.522 -0.194 0.8306
vn 0.6937 -0.1939 0.6937
vn 0.8306 -0.1939 0.522
vn 0.8305 -0.194 0.5221
vn 0.8307 -0.1939 0.5219
vn 0.8307 -0.1939 0.5218
vn 0.926 -0.1939 0.324
vn 0.926 -0.1939 0.3239
vn 0.9749 -0.1939 0.1098
vn 0.9749 -0.1939 -0.1098
vn 0.926 -0.1939 -0.324
vn 0.926 -0.1939 -0.3239
vn 0.8307 -0.1939 -0.5219
vn 0.8305 -0.194 -0.5221
vn 0.8306 -0.1939 -0.5219
vn 0.6937 -0.1939 -0.6937
vn 0.6937 -0.194 -0.6937
vn 0.6937 -0.194 -0.6936
vn 0.5219 -0.1939 -0.8307
vn 0.5219 -0.194 -0.8306
vn 0.522 -0.1941 -0.8305
vn 0.522 -0.1939 -0.8306
vn 0.324 -0.1939 -0.926
vn 0.3239 -0.194 -0.926
vn 0.1098 -0.1939 -0.9749
vn -0.1098 -0.1939 -0.9749
vn -0.324 -0.1939 -0.926
vn -0.3239 -0.194 -0.926
vn -0.522 -0.1939 -0.8306
vn -0.5221 -0.1941 -0.8305
vn -0.5219 -0.1939 -0.8306
vn -0.5219 -0.194 -0.8306
vn -0.6937 -0.1939 -0.6937
vn -0.8307 -0.1939 -0.5219
vn -0.8306 -0.1939 -0.5219
vn -0.8305 -0.194 -0.5221
vn -0.8307 -0.1939 -0.5218
vn -0.926 -0.1939 -0.324
vn -0.926 -0.1939 -0.3239
vn -0.9749 -0.1939 -0.1098
vn -0.9749 -0.1939 0.1098
vn -0.7863 -0.5532 -0.2751
vn -0.7863 -0.5532 -0.2752
vn -0.7863 -0.5531 -0.2752
vn -0.7054 -0.5532 -0.4432
vn -0.7054 -0.5531 -0.4433
vn -0.589 -0.5533 -0.589
vn -0.4432 -0.5532 -0.7054
vn -0.4432 -0.5531 -0.7054
vn -0.2752 -0.5531 -0.7863
vn -0.2752 -0.5532 -0.7863
vn -0.2751 -0.5531 -0.7864
vn -0.0933 -0.5531 -0.8279
vn -0.0933 -0.5531 -0.8278
vn 0.0933 -0.5532 -0.8278
vn 0.0933 -0.5531 -0.8278
vn 0.0933 -0.5531 -0.8279
vn 0.2752 -0.5532 -0.7863
vn 0.2752 -0.5531 -0.7863
vn 0.2751 -0.5532 -0.7863
vn 0.4432 -0.5532 -0.7054
vn 0.4432 -0.5531 -0.7054
vn 0.4432 -0.5531 -0.7055
vn 0.589 -0.5533 -0.589
vn 0.7054 -0.5531 -0.4432
vn 0.7054 -0.5532 -0.4432
vn 0.7864 -0.5531 -0.2751
vn 0.7863 -0.5532 -0.2752
vn 0.7863 -0.5531 -0.2752
vn 0.8278 -0.5532 -0.0933
vn 0.8278 -0.5531 -0.0933
vn 0.8278 -0.5531 0.0933
vn 0.8278 -0.5532 0.0933
vn 0.7863 -0.5532 0.2751
vn 0.7863 -0.5531 0.2752
vn 0.7864 -0.553 0.2752
vn 0.7054 -0.5532 0.4432
vn 0.7054 -0.5531 0.4433
vn 0.589 -0.5533 0.589
vn 0.4432 -0.5531 0.7055
vn 0.4432 -0.5531 0.7054
vn 0.4432 -0.5532 0.7054
vn 0.2752 -0.5531 0.7863
vn 0.2752 -0.5532 0.7863
vn 0.2751 -0.5531 0.7864
vn 0.0933 -0.5531 0.8278
vn -0.0933 -0.5532 0.8278
vn -0.0933 -0.5531 0.8278
vn -0.0933 -0.5531 0.8279
vn -0.2752 -0.5532 0.7863
vn -0.2752 -0.5531 0.7863
vn -0.2751 -0.5532 0.7863
vn -0.4432 -0.5531 0.7054
vn -0.589 -0.5533 0.589
vn -0.7054 -0.5531 0.4432
vn -0.7054 -0.5532 0.4432
vn -0.7864 -0.5531 0.2751
vn -0.7863 -0.5532 0.2752
vn -0.7863 -0.5531 0.2752
vn -0.8278 -0.5532 0.0933
vn -0.8279 -0.5531 0.0933
vn -0.8279 -0.5531 -0.0933
vn -0.8278 -0.5532 -0.0933
vn -0.5267 -0.8298 -0.1843
vn -0.5267 -0.8299 -0.1843
vn -0.4725 -0.8298 -0.2969
vn -0.3946 -0.8298 -0.3946
vn -0.2969 -0.8299 -0.4724
vn -0.2969 -0.8298 -0.4725
vn -0.1843 -0.8298 -0.5267
vn -0.1843 -0.8299 -0.5267
vn -0.0625 -0.8299 -0.5544
vn -0.0625 -0.8299 -0.5545
vn -0.0625 -0.8298 -0.5545
vn 0.0625 -0.8298 -0.5545
vn 0.0625 -0.8299 -0.5544
vn 0.0625 -0.8299 -0.5545
vn 0.1843 -0.8299 -0.5267
vn 0.1843 -0.8298 -0.5267
vn 0.2969 -0.8298 -0.4725
vn 0.3946 -0.8298 -0.3946
vn 0.4725 -0.8298 -0.2969
vn 0.5267 -0.8298 -0.1843
vn 0.5545 -0.8298 -0.0625
vn 0.5545 -0.8298 0.0625
vn 0.5267 -0.8298 0.1843
vn 0.4725 -0.8298 0.2969
vn 0.3946 -0.8298 0.3946
vn 0.2969 -0.8299 0.4724
vn 0.2969 -0.8298 0.4725
vn 0.1843 -0.8298 0.5267
vn 0.1843 -0.8299 0.5267
vn 0.0625 -0.8299 0.5544
vn 0.0625 -0.8299 0.5545
vn 0.0625 -0.8298 0.5545
vn -0.0625 -0.8298 0.5545
vn -0.0625 -0.8299 0.5545
vn -0.0625 -0.8299 0.5544
vn -0.1843 -0.8299 0.5267
vn -0.1843 -0.8298 0.5267
vn -0.2969 -0.8298 0.4725
vn -0.3946 -0.8298 0.3946
vn -0.4725 -0.8298 0.2969
vn -0.4725 -0.8299 0.2969
vn -0.5267 -0.8298 0.1843
vn -0.5545 -0.8298 0.0625
vn -0.5545 -0.8298 -0.0625
vn -0.1853 -0.9805 -0.0648
vn -0.1662 -0.9805 -0.1044
vn -0.1662 -0.9806 -0.1044
vn -0.1388 -0.9805 -0.1388
vn -0.1044 -0.9805 -0.1662
vn -0.1044 -0.9806 -0.1662
vn -0.0648 -0.9806 -0.1852
vn -0.0648 -0.9805 -0.1853
vn -0.022 -0.9805 -0.195
vn -0.022 -0.9805 -0.1951
vn -0.022 -0.9806 -0.195
vn 0.022 -0.9805 -0.1951
vn 0.022 -0.9805 -0.195
vn 0.0648 -0.9806 -0.1852
vn 0.0648 -0.9805 -0.1853
vn 0.1044 -0.9805 -0.1662
vn 0.1388 -0.9805 -0.1388
vn 0.1388 -0.9806 -0.1388
vn 0.1662 -0.9805 -0.1044
vn 0.1662 -0.9806 -0.1044
vn 0.1853 -0.9805 -0.0648
vn 0.195 -0.9806 -0.022
vn 0.195 -0.9806 0.022
vn 0.1853 -0.9805 0.0648
vn 0.1662 -0.9805 0.1044
vn 0.1662 -0.9806 0.1044
vn 0.1388 -0.9805 0.1388
vn 0.1044 -0.9805 0.1663
vn 0.1044 -0.9806 0.1662
vn 0.1044 -0.9806 0.1661
vn 0.0648 -0.9806 0.1852
vn 0.0648 -0.9805 0.1853
vn 0.022 -0.9806 0.195
vn 0.022 -0.9805 0.195
vn 0.022 -0.9805 0.1951
vn -0.022 -0.9806 0.195
vn -0.022 -0.9805 0.195
vn -0.022 -0.9805 0.1951
vn -0.0648 -0.9806 0.1852
vn -0.0648 -0.9805 0.1853
vn -0.1044 -0.9805 0.1663
vn -0.1044 -0.9806 0.1661
vn -0.1388 -0.9805 0.1388
vn -0.1388 -0.9805 0.1389
vn -0.1388 -0.9806 0.1388
vn -0.1662 -0.9805 0.1044
vn -0.1662 -0.9806 0.1044
vn -0.1853 -0.9805 0.0648
vn -0.195 -0.9806 0.022
vn -0.195 -0.9806 -0.022
vn 0.1566 0 0.9877
vn 0.1563 0 0.9877
vn 0.4538 0 0.8911
vn 0.4541 0 0.8909
vn 0.4539 0 0.8911
vn 0.8911 0 0.4538
vn 0.9877 0 0.1563
vn 0.9877 0 0.1566
vn -0.1566 0 0.9877
vn -0.4541 0 0.8909
vn -0.4538 0 0.8911
vn -0.4539 0 0.8911
vn -0.8911 0 0.4538
vn -0.8911 0 0.4539
vn -0.9877 0 0.1566
vn -0.9877 0 0.1563
vn 0 0 1
vn 0 -1 0
vn 0.098 0 -0.9952
vn 0.2903 0 -0.9569
vn 0.4713 0 -0.882
vn 0.6347 0 -0.7728
vn 0.7731 0 -0.6343
vn 0.7728 0 -0.6347
vn 0.882 0 -0.4713
vn 0.9569 0 -0.2903
vn 0.9952 0 -0.098
vn -0.9808 0 -0.1951
vn -0.9807 0 -0.1954
vn -0.9807 0 -0.1953
vn -0.8314 0 -0.5557
vn -0.5561 0 -0.8311
vn -0.5557 0 -0.8314
vn -0.5555 0 -0.8315
vn -0.1953 0 -0.9807
vn -0.1951 0 -0.9808
vn -0.1954 0 -0.9807
vn 0 0 -1
vn 0.9781 0 -0.208
vn 0.9781 0 0.208
vn 0.9782 0 0.2077
vn 0.8089 0 0.5879
vn 0.8089 0 0.588
vn 0.5003 0 0.8659
vn 0.4999 0 0.8661
vn 0.105 0 0.9945
vn 0.1045 0 0.9945
vn 0.1046 0 0.9945
vn -0.3089 0 0.9511
vn -0.309 0 0.9511
vn -0.3092 0 0.951
vn -0.6693 0 0.743
vn -0.9136 0 0.4067
vn -1 0 0
vn -0.9136 0 -0.4067
vn -0.6693 0 -0.743
vn -0.3089 0 -0.9511
vn -0.309 0 -0.9511
vn -0.3092 0 -0.951
vn 0.105 0 -0.9945
vn 0.1045 0 -0.9945
vn 0.1046 0 -0.9945
vn 0.5003 0 -0.8659
vn 0.8089 0 -0.588
vn 0.8087 0 -0.5883
vn 0.9782 0 -0.2077
vn -0.1563 0 0.9877
vn -0.8909 0 0.4542
vn -0.8909 0 0.4541
vn 0.4542 0 0.8909
vn 0.8911 0 0.4539
vn 0.6343 0 -0.7731
vn 0.6344 0 -0.773
vn 0.882 0 -0.4712
vn -0.8314 0 -0.5556
vn -0.8313 0 -0.5558
vn 1 0 0
vn -0.9807 0 0.1953
vn -0.9807 0 0.1954
vn -0.8314 0 0.5556
vn -0.5556 0 0.8314
vn -0.1953 0 0.9807
vn -0.1949 0 0.9808
vn 0.1953 0 0.9807
vn 0.1949 0 0.9808
vn 0.5556 0 0.8314
vn 0.8314 0 0.5556
vn 0.9807 0 0.1953
vn 0.9807 0 0.1954
vn 0.9807 0 -0.1953
vn 0.9807 0 -0.1954
vn 0.8314 0 -0.5556
vn 0.5556 0 -0.8314
vn 0.1953 0 -0.9807
vn 0.1949 0 -0.9808
vn -0.1949 0 -0.9808
vn -0.5556 0 -0.8314
vn -0.1561 0 0.9877
vn 0.1561 0 0.9877
vn 0.8909 0 0.4541
vn -0.1948 0 -0.9808
vn 0.1954 0 -0.9807
vn 0.1948 0 -0.9808
vn 0.5557 0 -0.8314
vn 0.8313 0 -0.5558
vn 0.8314 0 -0.5557
vn 0.9808 0 -0.1951
usemtl black_metal
s 1
f 3//1 2//1 1//1
f 4//1 2//1 3//1
f 7//1 6//1 5//1
f 7//1 2//1 4//1
f 8//1 2//1 7//1
f 5//1 8//1 7//1
f 3//1 10//1 9//1
f 11//1 10//1 3//1
f 1//1 11//1 3//1
f 14//1 13//1 12//1
f 3//1 16//1 15//1
f 17//1 16//1 3//1
f 9//1 17//1 3//1
f 20//1 19//1 18//1
f 21//1 19//1 20//1
f 16//1 22//1 15//1
f 19//1 22//1 16//1
f 23//1 19//1 16//1
f 18//1 19//1 23//1
f 13//1 24//1 12//1
f 25//1 24//1 13//1
f 26//1 25//1 13//1
f 7//1 27//1 6//1
f 12//1 27//1 7//1
f 28//1 12//1 7//1
f 14//1 12//1 28//1
f 31//4 30//3 29//2
f 34//5 33//6 32//5
f 35//7 25//7 26//7
f 14//8 33//8 13//8
f 32//8 33//8 14//8
f 28//9 32//10 14//9
f 36//11 25//11 35//11
f 38//13 34//12 37//12
f 33//14 34//15 38//14
f 39//16 33//14 38//14
f 13//18 33//18 39//17
f 26//17 13//18 39//17
f 41//19 35//19 40//19
f 36//19 35//19 41//19
f 42//20 36//20 41//20
f 43//21 12//21 24//21
f 44//22 12//22 43//22
f 45//23 44//23 43//23
f 46//26 44//25 45//24
f 47//28 46//27 45//27
f 31//29 46//29 47//29
f 48//31 6//31 27//30
f 49//32 6//32 48//32
f 50//33 49//33 48//33
f 51//35 49//35 50//34
f 52//37 51//36 50//36
f 53//38 51//38 52//38
f 54//40 8//40 5//39
f 55//41 8//42 54//41
f 56//43 55//43 54//43
f 57//44 55//44 56//44
f 58//45 57//45 56//45
f 59//47 57//47 58//46
f 60//48 59//48 58//48
f 61//49 59//49 60//49
f 63//51 62//50 2//50
f 64//52 62//52 63//52
f 65//53 64//53 63//53
f 66//54 64//54 65//54
f 67//55 66//55 65//55
f 68//56 66//56 67//56
f 64//52 11//57 62//52
f 69//58 11//59 64//58
f 66//54 69//54 64//54
f 70//60 69//60 66//60
f 68//56 70//56 66//56
f 71//62 70//61 68//61
f 72//63 71//63 68//63
f 73//65 71//64 72//64
f 74//68 9//67 10//66
f 75//69 9//69 74//69
f 76//70 75//70 74//70
f 77//71 75//71 76//71
f 78//72 77//73 76//72
f 79//75 77//74 78//74
f 80//77 16//77 17//76
f 81//78 16//78 80//78
f 82//80 81//80 80//79
f 83//81 81//81 82//81
f 84//82 83//82 82//82
f 85//84 83//84 84//83
f 86//85 85//85 84//85
f 87//86 85//86 86//86
f 88//87 18//87 23//87
f 89//88 18//88 88//88
f 90//89 89//90 88//89
f 91//92 89//92 90//91
f 92//95 91//94 90//93
f 93//96 91//97 92//96
f 89//88 20//88 18//88
f 94//98 20//98 89//98
f 91//92 94//99 89//92
f 95//102 94//101 91//100
f 93//96 95//97 91//97
f 96//105 95//104 93//103
f 97//106 96//106 93//106
f 98//109 96//108 97//107
f 99//111 19//111 21//110
f 100//112 19//112 99//112
f 101//113 100//113 99//113
f 102//115 100//114 101//114
f 103//117 102//117 101//116
f 104//118 102//118 103//118
f 105//120 15//120 22//119
f 106//121 15//121 105//121
f 107//124 106//123 105//122
f 108//127 106//126 107//125
f 109//128 108//128 107//128
f 110//131 108//130 109//129
f 111//132 110//132 109//132
f 112//134 110//133 111//133
f 114//135 113//135 3//135
f 115//136 113//137 114//136
f 116//139 115//139 114//138
f 117//142 115//141 116//140
f 118//143 117//144 116//143
f 119//145 117//145 118//145
f 115//136 7//137 113//137
f 120//146 7//147 115//146
f 117//142 120//141 115//141
f 121//149 120//148 117//148
f 119//145 121//145 117//145
f 122//151 121//150 119//150
f 123//152 122//152 119//152
f 124//154 122//153 123//153
f 126//155 40//155 125//155
f 41//155 40//155 126//155
f 127//157 41//156 126//156
f 42//157 41//156 127//157
f 128//160 42//159 127//158
f 36//11 24//11 25//11
f 43//21 24//21 36//21
f 42//20 43//20 36//20
f 45//23 43//23 42//23
f 128//160 45//160 42//159
f 47//28 45//27 128//28
f 129//162 47//161 128//161
f 47//163 30//163 31//163
f 130//163 30//163 47//163
f 129//162 130//161 47//161
f 44//22 27//22 12//22
f 48//31 27//30 44//30
f 46//26 48//26 44//25
f 50//33 48//33 46//33
f 31//29 50//29 46//29
f 52//37 50//36 31//164
f 29//2 52//165 31//4
f 53//166 132//166 131//166
f 133//167 132//167 53//167
f 52//167 133//167 53//167
f 134//167 133//167 52//167
f 29//2 134//165 52//165
f 49//32 5//32 6//32
f 54//40 5//39 49//168
f 51//35 54//35 49//35
f 56//43 54//43 51//43
f 53//38 56//38 51//38
f 58//45 56//45 53//45
f 131//166 58//166 53//166
f 60//48 58//48 131//48
f 55//41 2//41 8//42
f 63//51 2//50 55//51
f 57//44 63//44 55//44
f 65//53 63//53 57//53
f 59//47 65//47 57//47
f 67//55 65//55 59//55
f 61//49 67//49 59//49
f 68//63 135//169 72//63
f 136//172 135//171 68//170
f 67//173 136//172 68//170
f 137//174 136//172 67//173
f 61//49 137//49 67//49
f 69//58 10//175 11//59
f 74//68 10//66 69//66
f 70//60 74//176 69//60
f 76//70 74//70 70//177
f 71//62 76//61 70//61
f 78//72 76//72 71//178
f 73//65 78//64 71//64
f 79//179 139//179 138//179
f 140//181 139//180 79//180
f 78//180 140//181 79//180
f 141//180 140//181 78//180
f 73//65 141//64 78//64
f 75//69 17//69 9//69
f 80//77 17//76 75//76
f 77//71 80//71 75//71
f 82//80 80//79 77//79
f 79//75 82//75 77//74
f 84//82 82//82 79//82
f 138//179 84//179 79//179
f 86//85 84//85 138//85
f 81//78 23//78 16//78
f 88//87 23//87 81//87
f 83//81 88//81 81//81
f 90//89 88//89 83//89
f 85//84 90//84 83//84
f 92//95 90//93 85//182
f 87//86 92//86 85//86
f 93//106 142//106 97//106
f 143//184 142//183 93//183
f 92//183 143//184 93//183
f 144//184 143//184 92//183
f 87//86 144//86 92//86
f 94//98 21//98 20//98
f 99//111 21//110 94//110
f 95//102 99//102 94//101
f 101//113 99//113 95//113
f 96//105 101//104 95//104
f 103//117 101//116 96//185
f 98//109 103//108 96//108
f 104//186 146//186 145//186
f 147//188 146//187 104//187
f 103//187 147//188 104//187
f 148//187 147//188 103//187
f 98//109 148//108 103//108
f 100//112 22//112 19//112
f 105//120 22//119 100//119
f 102//115 105//114 100//114
f 107//124 105//122 102//122
f 104//118 107//118 102//118
f 109//128 107//128 104//128
f 145//186 109//186 104//186
f 111//132 109//132 145//132
f 106//121 3//121 15//121
f 114//135 3//135 106//189
f 108//127 114//125 106//126
f 116//139 114//138 108//190
f 110//131 116//131 108//130
f 118//143 116//143 110//143
f 112//134 118//133 110//133
f 119//152 149//191 123//152
f 150//194 149//193 119//192
f 118//192 150//194 119//192
f 151//195 150//194 118//192
f 112//134 151//133 118//133
f 120//146 28//147 7//147
f 32//10 28//9 120//10
f 121//149 32//149 120//148
f 34//5 32//5 121//196
f 122//151 34//150 121//150
f 37//12 34//12 122//197
f 124//154 37//153 122//153
f 152//153 37//153 124//154
f 39//7 35//7 26//7
f 40//199 35//199 39//198
f 38//198 40//199 39//198
f 125//201 40//201 38//200
f 37//200 125//201 38//200
f 153//203 125//202 37//202
f 152//202 153//203 37//202
f 128//161 154//162 129//162
f 155//205 154//204 128//204
f 127//204 155//205 128//204
f 156//204 155//205 127//204
f 126//206 156//206 127//206
f 157//206 156//206 126//206
f 125//207 157//207 126//207
f 158//207 157//207 125//207
f 153//203 158//202 125//202
f 160//210 86//209 159//208
f 87//208 86//209 160//210
f 161//211 87//208 160//210
f 144//208 87//208 161//211
f 162//213 144//212 161//212
f 143//212 144//212 162//213
f 163//214 143//212 162//213
f 142//215 143//212 163//214
f 164//216 142//216 163//216
f 97//216 142//216 164//216
f 165//219 97//218 164//217
f 98//219 97//218 165//219
f 166//220 98//219 165//219
f 148//220 98//219 166//220
f 167//221 148//221 166//221
f 147//222 148//221 167//221
f 168//221 147//222 167//221
f 146//221 147//222 168//221
f 169//223 146//223 168//223
f 170//223 146//223 169//223
f 171//224 170//224 169//224
f 111//224 170//224 171//224
f 172//225 111//225 171//225
f 112//226 111//225 172//225
f 173//227 112//226 172//225
f 151//227 112//226 173//227
f 174//229 151//228 173//228
f 150//230 151//228 174//229
f 175//231 150//230 174//229
f 149//231 150//230 175//231
f 176//232 149//232 175//232
f 123//232 149//232 176//232
f 177//235 123//234 176//233
f 124//235 123//234 177//235
f 178//236 124//235 177//235
f 152//236 124//235 178//236
f 179//239 152//238 178//237
f 153//238 152//238 179//239
f 180//238 153//238 179//239
f 158//238 153//238 180//238
f 181//241 158//240 180//240
f 157//240 158//240 181//241
f 182//242 157//242 181//242
f 156//242 157//242 182//242
f 183//243 156//244 182//243
f 155//245 156//244 183//243
f 184//246 155//245 183//243
f 154//243 155//245 184//246
f 185//248 154//247 184//247
f 129//248 154//247 185//248
f 186//249 129//248 185//248
f 130//249 129//248 186//249
f 187//250 130//250 186//250
f 30//250 130//250 187//250
f 188//252 30//251 187//251
f 29//253 30//251 188//252
f 189//254 29//253 188//252
f 134//254 29//253 189//254
f 190//256 134//256 189//255
f 133//257 134//256 190//256
f 191//256 133//257 190//256
f 132//256 133//257 191//256
f 192//259 132//259 191//258
f 193//260 132//259 192//259
f 194//262 193//262 192//261
f 60//262 193//262 194//262
f 195//264 60//263 194//263
f 61//264 60//263 195//264
f 196//263 61//264 195//264
f 137//265 61//264 196//263
f 197//267 137//266 196//266
f 136//267 137//266 197//267
f 198//268 136//267 197//267
f 135//266 136//267 198//268
f 199//269 135//269 198//269
f 72//269 135//269 199//269
f 200//270 72//271 199//270
f 73//272 72//271 200//270
f 201//273 73//272 200//270
f 141//273 73//272 201//273
f 202//276 141//275 201//274
f 140//274 141//275 202//276
f 203//274 140//274 202//276
f 139//274 140//274 203//274
f 204//277 139//277 203//277
f 138//277 139//277 204//277
f 159//278 138//278 204//278
f 86//278 138//278 159//278
f 183//279 206//279 205//279
f 205//279 184//279 183//279
f 185//281 184//280 205//280
f 207//282 185//281 205//280
f 186//282 185//281 207//282
f 208//284 186//283 207//283
f 208//284 187//284 186//283
f 188//286 187//285 208//285
f 209//287 188//286 208//285
f 209//287 189//287 188//286
f 190//289 189//288 209//288
f 210//288 190//289 209//288
f 191//288 190//289 210//288
f 211//290 191//290 210//290
f 212//290 191//290 211//290
f 213//291 212//291 211//291
f 213//291 194//291 212//291
f 195//292 194//292 213//292
f 214//292 195//292 213//292
f 214//292 196//292 195//292
f 197//294 196//293 214//293
f 215//295 197//294 214//293
f 198//295 197//294 215//295
f 216//296 198//296 215//296
f 216//296 199//296 198//296
f 200//298 199//297 216//297
f 217//299 200//298 216//297
f 217//299 201//300 200//298
f 202//302 201//301 217//301
f 218//301 202//302 217//301
f 203//301 202//302 218//301
f 219//303 203//303 218//303
f 204//303 203//303 219//303
f 220//304 204//304 219//304
f 220//304 159//304 204//304
f 160//306 159//305 220//305
f 221//305 160//306 220//305
f 221//305 161//305 160//306
f 162//308 161//307 221//307
f 222//309 162//308 221//307
f 163//309 162//308 222//309
f 223//311 163//310 222//310
f 223//311 164//312 163//310
f 165//315 164//314 223//313
f 224//316 165//315 223//313
f 224//316 166//316 165//315
f 167//318 166//317 224//317
f 225//317 167//318 224//317
f 168//317 167//318 225//317
f 226//319 168//319 225//319
f 227//319 168//319 226//319
f 228//320 227//320 226//320
f 228//320 171//320 227//320
f 172//322 171//321 228//321
f 229//321 172//322 228//321
f 229//321 173//321 172//322
f 174//324 173//323 229//323
f 230//325 174//324 229//323
f 175//326 174//324 230//325
f 231//327 175//327 230//327
f 231//327 176//327 175//327
f 177//330 176//329 231//328
f 232//328 177//330 231//328
f 232//328 178//331 177//330
f 179//333 178//332 232//332
f 233//332 179//333 232//332
f 180//332 179//333 233//332
f 234//334 180//334 233//334
f 181//334 180//334 234//334
f 206//335 181//335 234//335
f 182//335 181//335 206//335
f 183//279 182//279 206//279
f 232//337 235//337 233//336
f 236//338 235//337 232//337
f 231//339 236//339 232//339
f 237//340 236//339 231//339
f 230//341 237//341 231//341
f 238//341 237//341 230//341
f 229//343 238//343 230//342
f 239//343 238//343 229//343
f 228//344 239//345 229//344
f 240//346 239//345 228//344
f 226//347 240//347 228//347
f 241//348 240//347 226//347
f 225//349 241//350 226//349
f 242//351 241//350 225//349
f 224//353 242//352 225//352
f 243//354 242//352 224//353
f 223//356 243//355 224//355
f 244//357 243//355 223//356
f 222//358 244//358 223//358
f 245//358 244//358 222//358
f 221//359 245//359 222//359
f 246//360 245//359 221//359
f 220//362 246//362 221//361
f 247//363 246//362 220//362
f 219//364 247//364 220//364
f 248//365 247//364 219//364
f 218//367 248//367 219//366
f 249//367 248//367 218//367
f 217//369 249//369 218//368
f 250//370 249//369 217//369
f 216//371 250//371 217//371
f 251//372 250//371 216//371
f 215//373 251//373 216//373
f 252//373 251//373 215//373
f 214//375 252//375 215//374
f 253//376 252//375 214//375
f 213//377 253//378 214//377
f 254//379 253//378 213//377
f 211//380 254//380 213//380
f 255//380 254//380 211//380
f 210//381 255//382 211//381
f 256//383 255//382 210//381
f 209//385 256//384 210//384
f 257//386 256//384 209//385
f 208//387 257//387 209//387
f 258//387 257//387 208//387
f 207//388 258//388 208//388
f 259//388 258//388 207//388
f 205//389 259//389 207//389
f 260//390 259//389 205//389
f 206//392 260//392 205//391
f 261//393 260//392 206//392
f 234//394 261//394 206//394
f 262//395 261//394 234//394
f 233//397 262//397 234//396
f 235//397 262//397 233//397
f 236//398 263//398 235//398
f 264//399 263//398 236//398
f 237//400 264//400 236//400
f 265//400 264//400 237//400
f 238//401 265//401 237//401
f 266//401 265//401 238//401
f 239//403 266//402 238//402
f 267//403 266//402 239//403
f 240//404 267//405 239//404
f 268//404 267//405 240//404
f 241//407 268//406 240//406
f 269//408 268//406 241//407
f 242//411 269//410 241//409
f 270//410 269//410 242//411
f 243//413 270//413 242//412
f 271//413 270//413 243//413
f 244//414 271//414 243//414
f 272//414 271//414 244//414
f 245//415 272//415 244//415
f 273//415 272//415 245//415
f 246//416 273//416 245//416
f 274//416 273//416 246//416
f 247//417 274//417 246//417
f 275//417 274//417 247//417
f 248//418 275//418 247//418
f 276//418 275//418 248//418
f 249//419 276//419 248//419
f 277//419 276//419 249//419
f 250//420 277//420 249//420
f 278//420 277//420 250//420
f 251//421 278//421 250//421
f 279//421 278//421 251//421
f 252//422 279//422 251//422
f 280//422 279//422 252//422
f 253//424 280//423 252//423
f 281//424 280//423 253//424
f 254//425 281//426 253//425
f 282//425 281//426 254//425
f 255//428 282//427 254//427
f 283//429 282//427 255//428
f 256//431 283//431 255//430
f 284//432 283//431 256//431
f 257//434 284//434 256//433
f 285//434 284//434 257//434
f 258//435 285//435 257//435
f 286//435 285//435 258//435
f 259//436 286//436 258//436
f 287//436 286//436 259//436
f 260//437 287//438 259//437
f 288//437 287//438 260//437
f 261//439 288//439 260//439
f 289//439 288//439 261//439
f 262//440 289//440 261//440
f 290//440 289//440 262//440
f 235//441 290//441 262//441
f 263//441 290//441 235//441
f 264//442 291//442 263//442
f 292//442 291//442 264//442
f 265//443 292//443 264//443
f 293//444 292//443 265//443
f 266//445 293//445 265//445
f 294//445 293//445 266//445
f 267//447 294//446 266//446
f 295//447 294//446 267//447
f 268//449 295//448 267//448
f 296//449 295//448 268//449
f 269//452 296//451 268//450
f 297//451 296//451 269//452
f 270//454 297//453 269//453
f 298//453 297//453 270//454
f 271//455 298//456 270//455
f 299//456 298//456 271//455
f 272//457 299//457 271//457
f 300//457 299//457 272//457
f 273//459 300//458 272//458
f 301//459 300//458 273//459
f 274//460 301//461 273//460
f 302//460 301//461 274//460
f 275//462 302//462 274//462
f 303//462 302//462 275//462
f 276//463 303//463 275//463
f 304//463 303//463 276//463
f 277//464 304//464 276//464
f 305//464 304//464 277//464
f 278//465 305//465 277//465
f 306//465 305//465 278//465
f 279//467 306//467 278//466
f 307//467 306//467 279//467
f 280//468 307//468 279//468
f 308//468 307//468 280//468
f 281//470 308//469 280//469
f 309//471 308//469 281//470
f 282//473 309//472 281//472
f 310//473 309//472 282//473
f 283//475 310//475 282//474
f 311//476 310//475 283//475
f 284//478 311//478 283//477
f 312//479 311//478 284//478
f 285//480 312//481 284//480
f 313//481 312//481 285//480
f 286//483 313//482 285//482
f 314//483 313//482 286//483
f 287//486 314//485 286//484
f 315//486 314//485 287//486
f 288//487 315//488 287//487
f 316//487 315//488 288//487
f 289//489 316//489 288//489
f 317//489 316//489 289//489
f 290//490 317//490 289//490
f 318//490 317//490 290//490
f 263//491 318//491 290//491
f 291//491 318//491 263//491
f 321//1 320//1 319//1
f 324//1 323//1 322//1
f 322//1 325//1 324//1
f 326//1 325//1 322//1
f 327//1 326//1 322//1
f 321//1 329//1 328//1
f 330//1 329//1 321//1
f 319//1 330//1 321//1
f 306//1 321//1 305//1
f 331//1 321//1 306//1
f 307//1 331//1 306//1
f 321//1 304//1 305//1
f 303//1 304//1 321//1
f 328//1 303//1 321//1
f 302//1 303//1 328//1
f 332//1 313//1 314//1
f 312//1 313//1 332//1
f 333//1 312//1 332//1
f 334//1 312//1 333//1
f 333//1 310//1 334//1
f 309//1 310//1 333//1
f 335//1 309//1 333//1
f 308//1 309//1 335//1
f 336//1 308//1 335//1
f 307//1 308//1 336//1
f 337//1 307//1 336//1
f 331//1 307//1 337//1
f 339//1 298//1 338//1
f 340//1 298//1 339//1
f 339//1 296//1 340//1
f 295//1 296//1 339//1
f 327//1 295//1 339//1
f 294//1 295//1 327//1
f 328//1 301//1 302//1
f 300//1 301//1 328//1
f 338//1 300//1 328//1
f 299//1 300//1 338//1
f 298//1 299//1 338//1
f 327//1 293//1 294//1
f 292//1 293//1 327//1
f 322//1 292//1 327//1
f 291//1 292//1 322//1
f 322//1 318//1 291//1
f 317//1 318//1 322//1
f 341//1 317//1 322//1
f 316//1 317//1 341//1
f 342//1 316//1 341//1
f 315//1 316//1 342//1
f 343//1 315//1 342//1
f 314//1 315//1 343//1
f 344//1 314//1 343//1
f 332//1 314//1 344//1
f 346//492 345//493 338//492
f 328//492 346//492 338//492
f 347//495 346//494 328//494
f 329//496 347//495 328//494
f 348//269 347//269 329//269
f 330//269 348//269 329//269
f 349//497 348//497 330//497
f 319//497 349//497 330//497
f 350//499 349//499 319//498
f 320//499 350//499 319//498
f 327//500 339//500 351//500
f 352//500 327//500 351//500
f 326//502 327//502 352//501
f 353//503 326//502 352//501
f 325//250 326//250 353//250
f 354//250 325//250 353//250
f 324//504 325//504 354//504
f 355//505 324//504 354//504
f 323//507 324//506 355//506
f 356//506 323//507 355//506
f 338//508 351//508 339//508
f 345//508 351//508 338//508
f 359//509 358//509 357//509
f 360//509 358//509 359//509
f 363//509 362//509 361//509
f 364//509 362//509 363//509
f 365//509 364//509 363//509
f 359//509 366//509 360//509
f 367//509 366//509 359//509
f 363//509 367//509 359//509
f 368//509 367//509 363//509
f 361//509 368//509 363//509
f 371//509 370//509 369//509
f 373//509 372//509 371//509
f 374//509 372//509 373//509
f 377//509 376//509 375//509
f 373//509 376//509 377//509
f 378//509 373//509 377//509
f 374//509 373//509 378//509
f 381//509 380//509 379//509
f 369//509 380//509 381//509
f 382//509 369//509 381//509
f 371//509 369//509 382//509
f 383//509 371//509 382//509
f 373//509 371//509 383//509
f 354//1 353//1 352//1
f 352//1 355//1 354//1
f 356//1 355//1 352//1
f 384//1 356//1 352//1
f 385//1 356//1 384//1
f 386//1 385//1 384//1
f 389//1 388//1 387//1
f 390//1 388//1 389//1
f 393//1 392//1 391//1
f 388//1 392//1 393//1
f 394//1 388//1 393//1
f 387//1 388//1 394//1
f 347//1 348//1 349//1
f 350//1 351//1 345//1
f 352//1 351//1 350//1
f 393//1 352//1 350//1
f 384//1 352//1 393//1
f 391//1 384//1 393//1
f 385//1 396//1 395//1
f 397//1 396//1 385//1
f 386//1 397//1 385//1
f 350//1 347//1 349//1
f 346//1 347//1 350//1
f 345//1 346//1 350//1
f 400//509 399//509 398//509
f 403//509 402//509 401//509
f 404//509 402//509 403//509
f 405//509 402//509 404//509
f 406//509 405//509 404//509
f 407//509 405//509 406//509
f 408//509 407//509 406//509
f 411//509 410//509 409//509
f 409//509 398//509 411//509
f 400//509 398//509 409//509
f 412//509 400//509 409//509
f 406//509 400//509 412//509
f 413//509 406//509 412//509
f 408//509 406//509 413//509
f 401//509 414//509 403//509
f 415//509 414//509 401//509
f 416//509 415//509 401//509
f 417//509 415//509 416//509
f 418//509 417//509 416//509
f 419//509 417//509 418//509
f 420//509 419//509 418//509
f 421//509 419//509 420//509
f 422//509 421//509 420//509
f 423//509 421//509 422//509
f 424//509 423//509 422//509
f 425//509 423//509 424//509
f 426//509 425//509 424//509
f 427//509 425//509 426//509
f 410//509 427//509 426//509
f 428//509 427//509 410//509
f 411//509 428//509 410//509
f 425//510 427//510 384//510
f 391//510 425//510 384//510
f 423//511 425//511 391//511
f 392//511 423//511 391//511
f 421//512 423//512 392//512
f 388//512 421//512 392//512
f 419//513 421//513 388//513
f 390//513 419//513 388//513
f 417//514 419//515 390//514
f 389//515 417//514 390//514
f 415//516 417//516 389//516
f 387//516 415//516 389//516
f 414//517 415//517 387//517
f 394//517 414//517 387//517
f 403//518 414//518 394//518
f 393//518 403//518 394//518
f 399//521 400//520 385//519
f 395//519 399//521 385//519
f 398//522 399//522 395//522
f 396//522 398//522 395//522
f 411//524 398//524 396//523
f 397//525 411//524 396//523
f 428//527 411//527 397//526
f 386//528 428//527 397//526
f 406//529 363//529 359//529
f 404//529 363//529 406//529
f 384//529 428//529 386//529
f 427//529 428//529 384//529
f 430//530 429//530 418//530
f 375//531 429//532 430//531
f 401//531 375//531 430//531
f 377//534 375//533 401//533
f 402//533 377//534 401//533
f 378//535 377//536 402//535
f 405//535 378//535 402//535
f 374//537 378//538 405//537
f 407//539 374//537 405//537
f 372//541 374//541 407//540
f 408//542 372//541 407//540
f 371//543 372//543 408//543
f 413//543 371//543 408//543
f 370//544 371//544 413//544
f 412//544 370//544 413//544
f 369//545 370//545 412//545
f 409//545 369//545 412//545
f 380//546 369//546 409//546
f 410//546 380//546 409//546
f 379//547 380//547 410//547
f 426//547 379//547 410//547
f 381//549 379//549 426//548
f 424//550 381//549 426//548
f 382//551 381//552 424//551
f 422//553 382//551 424//551
f 383//554 382//554 422//554
f 420//554 383//554 422//554
f 373//555 383//556 420//555
f 418//556 373//555 420//555
f 429//530 373//557 418//530
f 433//509 432//509 431//509
f 434//509 432//509 433//509
f 437//509 436//509 435//509
f 437//509 438//509 436//509
f 439//509 438//509 437//509
f 440//509 439//509 437//509
f 443//509 442//509 441//509
f 446//509 445//509 444//509
f 441//509 437//509 435//509
f 447//509 437//509 441//509
f 442//509 447//509 441//509
f 433//509 448//509 434//509
f 449//509 448//509 433//509
f 450//509 449//509 433//509
f 444//509 449//509 450//509
f 451//509 444//509 450//509
f 446//509 444//509 451//509
f 441//509 452//509 443//509
f 453//509 452//509 441//509
f 444//509 453//509 441//509
f 454//509 453//509 444//509
f 445//509 454//509 444//509
f 456//500 455//500 441//500
f 435//558 456//500 441//500
f 457//502 456//503 435//502
f 436//501 457//502 435//502
f 458//250 457//250 436//250
f 438//250 458//250 436//250
f 459//505 458//559 438//504
f 439//560 459//505 438//504
f 460//506 459//506 439//507
f 440//506 460//506 439//507
f 449//493 444//492 461//492
f 462//492 449//493 461//492
f 448//494 449//561 462//494
f 463//494 448//494 462//494
f 434//269 448//269 463//269
f 464//269 434//269 463//269
f 432//562 434//562 464//497
f 465//497 432//562 464//497
f 431//498 432//499 465//499
f 466//499 431//498 465//499
f 461//508 441//508 455//508
f 444//508 441//508 461//508
f 469//1 468//1 467//1
f 467//1 470//1 469//1
f 471//1 470//1 467//1
f 472//1 471//1 467//1
f 475//1 474//1 473//1
f 478//1 477//1 476//1
f 480//1 474//1 479//1
f 473//1 474//1 480//1
f 481//1 473//1 480//1
f 473//1 482//1 475//1
f 483//1 482//1 473//1
f 478//1 483//1 473//1
f 484//1 483//1 478//1
f 476//1 484//1 478//1
f 487//1 486//1 485//1
f 478//1 486//1 487//1
f 488//1 478//1 487//1
f 477//1 478//1 488//1
f 491//1 490//1 489//1
f 489//1 492//1 491//1
f 493//1 492//1 489//1
f 494//1 493//1 489//1
f 497//1 496//1 495//1
f 498//1 496//1 497//1
f 499//1 498//1 497//1
f 500//1 498//1 499//1
f 501//1 500//1 499//1
f 496//1 502//1 495//1
f 503//1 502//1 496//1
f 504//1 503//1 496//1
f 505//1 503//1 504//1
f 506//1 505//1 504//1
f 507//1 505//1 506//1
f 508//1 507//1 506//1
f 509//1 507//1 508//1
f 510//1 509//1 508//1
f 511//1 509//1 510//1
f 512//1 511//1 510//1
f 513//1 511//1 512//1
f 514//1 513//1 512//1
f 515//1 513//1 514//1
f 516//1 515//1 514//1
f 499//1 517//1 501//1
f 518//1 517//1 499//1
f 519//1 518//1 499//1
f 520//1 518//1 519//1
f 521//1 520//1 519//1
f 516//1 522//1 515//1
f 523//1 522//1 516//1
f 524//1 523//1 516//1
f 525//1 523//1 524//1
f 521//1 525//1 524//1
f 526//1 525//1 521//1
f 519//1 526//1 521//1
f 527//509 461//509 455//509
f 456//509 527//509 455//509
f 528//509 527//509 456//509
f 460//509 528//509 456//509
f 460//509 458//509 459//509
f 457//509 458//509 460//509
f 456//509 457//509 460//509
f 531//509 530//509 529//509
f 532//509 530//509 531//509
f 530//509 533//509 529//509
f 534//509 533//509 530//509
f 535//509 534//509 530//509
f 538//509 537//509 536//509
f 528//509 537//509 538//509
f 539//509 528//509 538//509
f 527//509 528//509 539//509
f 532//509 540//509 530//509
f 527//509 540//509 532//509
f 466//509 527//509 532//509
f 461//509 527//509 466//509
f 465//509 461//509 466//509
f 462//509 461//509 465//509
f 464//509 462//509 465//509
f 463//509 462//509 464//509
f 540//510 527//510 507//510
f 509//510 540//510 507//510
f 530//511 540//511 509//511
f 511//511 530//511 509//511
f 535//512 530//512 511//512
f 513//512 535//512 511//512
f 534//563 535//564 513//563
f 515//563 534//563 513//563
f 533//514 534//515 515//515
f 522//514 533//514 515//515
f 529//516 533//516 522//516
f 523//565 529//516 522//516
f 531//517 529//517 523//517
f 525//517 531//517 523//517
f 532//518 531//518 525//518
f 526//518 532//518 525//518
f 539//529 507//529 527//529
f 505//529 507//529 539//529
f 537//521 528//520 497//521
f 495//521 537//521 497//521
f 536//522 537//522 495//566
f 502//567 536//522 495//566
f 538//524 536//524 502//524
f 503//524 538//524 502//524
f 539//527 538//526 503//526
f 505//527 539//527 503//526
f 472//545 467//545 499//545
f 406//545 385//545 400//545
f 356//545 385//545 406//545
f 499//545 497//545 528//545
f 460//545 499//545 528//545
f 472//545 499//545 460//545
f 440//545 472//545 460//545
f 357//545 406//545 359//545
f 356//545 406//545 357//545
f 472//545 356//545 357//545
f 323//545 356//545 472//545
f 440//545 323//545 472//545
f 322//545 323//545 440//545
f 437//545 322//545 440//545
f 365//568 363//568 404//568
f 365//568 466//568 490//568
f 431//568 466//568 365//568
f 519//568 532//568 526//568
f 466//568 532//568 519//568
f 489//568 466//568 519//568
f 490//568 466//568 489//568
f 431//568 321//568 433//568
f 320//568 321//568 431//568
f 365//568 320//568 431//568
f 350//568 320//568 365//568
f 404//568 350//568 365//568
f 393//568 350//568 404//568
f 403//568 393//568 404//568
f 494//529 519//529 499//529
f 489//529 519//529 494//529
f 468//529 499//529 467//529
f 494//529 499//529 468//529
f 367//529 494//529 468//529
f 368//529 494//529 367//529
f 542//521 541//520 496//521
f 483//570 541//569 542//569
f 500//569 483//570 542//569
f 482//571 483//571 500//571
f 501//571 482//571 500//571
f 475//572 482//572 501//572
f 517//572 475//572 501//572
f 543//573 475//573 517//573
f 518//574 543//573 517//573
f 479//575 543//576 518//575
f 520//575 479//575 518//575
f 480//577 479//577 520//577
f 521//577 480//577 520//577
f 481//578 480//578 521//578
f 524//578 481//578 521//578
f 473//580 481//579 524//579
f 544//579 473//580 524//579
f 478//582 473//581 544//581
f 514//581 478//582 544//581
f 486//583 478//583 514//583
f 512//583 486//583 514//583
f 485//584 486//584 512//584
f 510//584 485//584 512//584
f 545//585 485//585 510//585
f 508//586 545//585 510//585
f 488//526 545//587 508//526
f 506//526 488//526 508//526
f 477//588 488//588 506//588
f 504//588 477//588 506//588
f 476//566 477//566 504//566
f 496//566 476//566 504//566
f 541//520 476//521 496//521
f 452//558 453//589 332//500
f 344//558 452//558 332//500
f 443//502 452//502 344//502
f 343//502 443//502 344//502
f 442//250 443//250 343//250
f 342//250 442//250 343//250
f 447//560 442//504 342//505
f 341//505 447//560 342//505
f 437//506 447//507 341//506
f 322//506 437//506 341//506
f 454//508 332//508 453//508
f 333//508 332//508 454//508
f 335//492 333//493 454//493
f 445//590 335//492 454//493
f 336//494 335//494 445//494
f 446//494 336//494 445//494
f 337//269 336//269 446//269
f 451//269 337//269 446//269
f 331//591 337//497 451//562
f 450//562 331//591 451//562
f 321//499 331//498 450//499
f 433//499 321//499 450//499
f 471//519 472//519 357//519
f 358//519 471//519 357//519
f 470//567 471//522 358//567
f 360//522 470//567 358//567
f 469//524 470//524 360//524
f 366//588 469//524 360//524
f 468//526 469//592 366//528
f 367//526 468//526 366//528
f 493//593 494//585 368//585
f 361//594 493//593 368//585
f 492//595 493//595 361//595
f 362//584 492//595 361//595
f 491//596 492//597 362//596
f 364//597 491//596 362//596
f 490//598 491//598 364//598
f 365//598 490//598 364//598
