# Blender v3.6.4 OBJ File: ''
# www.blender.org
mtllib link_13.0.mtl
o link_13.0
v 0.007813 0.00172 -0.000167
v 0.008 0 0.000333
v 0.008 0 -0.000167
v 0.007813 -0.00172 0.000333
v 0.007813 -0.00172 -0.000167
v 0.007261 -0.003359 0.000333
v 0.007261 -0.003359 -0.000167
v 0.006369 -0.004841 0.000333
v 0.006369 -0.004841 -0.000167
v 0.005179 -0.006097 0.000333
v 0.005179 -0.006097 -0.000167
v 0.003747 -0.007068 0.000333
v 0.003747 -0.007068 -0.000167
v 0.00214 -0.007708 0.000333
v 0.00214 -0.007708 -0.000167
v 0.000433 -0.007988 0.000333
v 0.000433 -0.007988 -0.000167
v -0.001294 -0.007895 0.000333
v -0.001294 -0.007895 -0.000167
v -0.002961 -0.007432 0.000333
v -0.002961 -0.007432 -0.000167
v -0.004489 -0.006622 0.000333
v -0.004489 -0.006622 -0.000167
v -0.005808 -0.005502 0.000333
v -0.005808 -0.005502 -0.000167
v -0.006855 -0.004124 0.000333
v -0.006855 -0.004124 -0.000167
v -0.007581 -0.002554 0.000333
v -0.007581 -0.002554 -0.000167
v -0.007953 -0.000865 0.000333
v -0.007953 -0.000865 -0.000167
v -0.007953 0.000865 0.000333
v -0.007953 0.000865 -0.000167
v -0.007581 0.002554 0.000333
v -0.007581 0.002554 -0.000167
v -0.006855 0.004124 0.000333
v -0.006855 0.004124 -0.000167
v -0.005808 0.005502 0.000333
v -0.005808 0.005502 -0.000167
v -0.004489 0.006622 0.000333
v -0.004489 0.006622 -0.000167
v -0.002961 0.007432 0.000333
v -0.002961 0.007432 -0.000167
v -0.001294 0.007895 0.000333
v -0.001294 0.007895 -0.000167
v 0.000433 0.007988 0.000333
v 0.000433 0.007988 -0.000167
v 0.00214 0.007708 0.000333
v 0.00214 0.007708 -0.000167
v 0.003747 0.007068 0.000333
v 0.003747 0.007068 -0.000167
v 0.005179 0.006097 0.000333
v 0.005179 0.006097 -0.000167
v 0.006369 0.004841 0.000333
v 0.006369 0.004841 -0.000167
v 0.007261 0.003359 0.000333
v 0.007261 0.003359 -0.000167
v 0.007813 0.00172 0.000333
v 0.008 0 0.000333
v 0.0093 0.01145 0.004133
v 0.0093 0.01345 0.004133
v 0.0098 0.01345 0.004133
v 0.0098 -0.01345 0.004133
v 0.0093 -0.01345 0.004133
v 0.0093 -0.01125 0.004133
v -0.0098 -0.01125 0.004133
v -0.0098 0.01145 0.004133
v -0.002298 0.01075 0.013605
v -0.002819 0.01075 0.014507
v -0.003 0.01075 0.015533
v 0.000521 0.01075 0.018487
v 0.000521 0.01075 0.012578
v -0.000521 0.01075 0.018487
v -0.000521 0.01075 0.012578
v -0.0015 0.01075 0.012935
v -0.002819 0.01075 0.016559
v -0.002298 0.01075 0.017461
v 0.0015 0.01075 0.018131
v 0.002298 0.01075 0.013605
v 0.0015 0.01075 0.012935
v -0.0015 0.01075 0.018131
v 0.003 0.01075 0.015533
v 0.002819 0.01075 0.014507
v 0.002819 0.01075 0.016559
v 0.002298 0.01075 0.017461
v 0.0098 0.01345 -0.000167
v 0.00905 0.01345 0.0042
v -0.0098 0.01345 -0.000167
v 0.008867 0.01345 0.004383
v 0.0088 0.01345 0.004633
v 0.0088 0.01345 0.007833
v -0.0098 0.01345 0.018833
v -0.0068 0.01345 0.021833
v -0.0052 0.01345 0.021833
v 0.008628 0.01345 0.010023
v 0.008115 0.01345 0.012159
v 0.007274 0.01345 0.014189
v 0.003029 0.01345 0.019159
v 0.001156 0.01345 0.020307
v -0.007727 0.01345 0.021686
v -0.008563 0.01345 0.02126
v -0.009653 0.01345 0.01976
v -0.009227 0.01345 0.020596
v -0.000874 0.01345 0.021148
v -0.00301 0.01345 0.021661
v 0.006126 0.01345 0.016062
v 0.004699 0.01345 0.017732
v 0.00905 0.01145 0.0042
v 0.008867 0.01145 0.004383
v 0.0088 0.01145 0.004633
v -0.007727 0.01145 0.021686
v -0.002298 0.01145 0.017461
v -0.008563 0.01145 0.02126
v -0.002819 0.01145 0.016559
v -0.009227 0.01145 0.020596
v 0.003 0.01145 0.015533
v 0.002819 0.01145 0.016559
v 0.004699 0.01145 0.017732
v -0.002819 0.01145 0.014507
v -0.002298 0.01145 0.013605
v 0.003029 0.01145 0.019159
v -0.003 0.01145 0.015533
v -0.0098 0.01145 0.018833
v -0.009653 0.01145 0.01976
v -0.0068 0.01145 0.021833
v -0.0052 0.01145 0.021833
v -0.0015 0.01145 0.018131
v -0.00301 0.01145 0.021661
v -0.000521 0.01145 0.018487
v -0.000874 0.01145 0.021148
v 0.000521 0.01145 0.018487
v 0.001156 0.01145 0.020307
v 0.0015 0.01145 0.018131
v 0.002298 0.01145 0.017461
v -0.0015 0.01145 0.012935
v -0.000521 0.01145 0.012578
v 0.0015 0.01145 0.012935
v 0.002298 0.01145 0.013605
v 0.0088 0.01145 0.007833
v 0.000521 0.01145 0.012578
v 0.006126 0.01145 0.016062
v 0.007274 0.01145 0.014189
v 0.002819 0.01145 0.014507
v 0.008115 0.01145 0.012159
v 0.008628 0.01145 0.010023
v 0.003614 -0.01045 0.016707
v 0.003074 -0.01045 0.017766
v -0.002234 -0.01045 0.012459
v 0.002234 -0.01045 0.018607
v 0.001174 -0.01045 0.019147
v 0 -0.01045 0.019333
v -0.001174 -0.01045 0.019147
v -0.002234 -0.01045 0.018607
v -0.0038 -0.01045 0.015533
v -0.003074 -0.01045 0.013299
v -0.003614 -0.01045 0.014359
v -0.001174 -0.01045 0.011919
v 0 -0.01045 0.011733
v 0.001174 -0.01045 0.011919
v 0.002234 -0.01045 0.012459
v 0.003074 -0.01045 0.013299
v 0.0038 -0.01045 0.015533
v 0.003614 -0.01045 0.014359
v -0.003074 -0.01045 0.017766
v -0.003614 -0.01045 0.016707
v 0.0098 -0.01345 -0.000167
v 0.00905 -0.01345 0.0042
v 0.008867 -0.01345 0.004383
v -0.0098 -0.01345 -0.000167
v 0.0088 -0.01345 0.004633
v 0.001156 -0.01345 0.020307
v 0.003029 -0.01345 0.019159
v 0.007274 -0.01345 0.014189
v 0.008115 -0.01345 0.012159
v -0.000874 -0.01345 0.021148
v 0.008628 -0.01345 0.010023
v 0.0088 -0.01345 0.007833
v -0.008563 -0.01345 0.02126
v -0.007727 -0.01345 0.021686
v -0.009227 -0.01345 0.020596
v -0.0068 -0.01345 0.021833
v -0.009653 -0.01345 0.01976
v 0.004699 -0.01345 0.017732
v 0.006126 -0.01345 0.016062
v -0.0098 -0.01345 0.018833
v -0.0052 -0.01345 0.021833
v -0.00301 -0.01345 0.021661
v 0.00905 -0.01125 0.0042
v 0.008867 -0.01125 0.004383
v 0.0088 -0.01125 0.004633
v 0.003614 -0.01125 0.014359
v 0.003074 -0.01125 0.013299
v -0.001174 -0.01125 0.011919
v -0.002234 -0.01125 0.012459
v -0.009653 -0.01125 0.01976
v -0.0098 -0.01125 0.018833
v -0.003614 -0.01125 0.016707
v 0.002234 -0.01125 0.012459
v 0.001174 -0.01125 0.011919
v 0 -0.01125 0.011733
v 0.0088 -0.01125 0.007833
v 0.008628 -0.01125 0.010023
v -0.003074 -0.01125 0.013299
v -0.003614 -0.01125 0.014359
v -0.0038 -0.01125 0.015533
v -0.0068 -0.01125 0.021833
v -0.007727 -0.01125 0.021686
v -0.003074 -0.01125 0.017766
v -0.008563 -0.01125 0.02126
v -0.009227 -0.01125 0.020596
v 0.008115 -0.01125 0.012159
v 0.007274 -0.01125 0.014189
v 0.006126 -0.01125 0.016062
v -0.0052 -0.01125 0.021833
v -0.002234 -0.01125 0.018607
v -0.00301 -0.01125 0.021661
v -0.001174 -0.01125 0.019147
v -0.000874 -0.01125 0.021148
v 0 -0.01125 0.019333
v 0.001156 -0.01125 0.020307
v 0.001174 -0.01125 0.019147
v 0.003029 -0.01125 0.019159
v 0.002234 -0.01125 0.018607
v 0.004699 -0.01125 0.017732
v 0.003074 -0.01125 0.017766
v 0.003614 -0.01125 0.016707
v 0.0038 -0.01125 0.015533
v 0 -0.01045 0.011733
v 0 -0.01125 0.011733
v 0 -0.01125 0.019333
v 0.008 0 -0.000167
vn -0.9941 -0.1081 0
vn -0.9941 0.1081 0
vn -0.9477 0.3192 0
vn -0.9476 0.3195 0
vn -0.8568 0.5157 0
vn -0.7259 0.6878 0
vn -0.5612 0.8277 0
vn -0.37 0.929 0
vn -0.1619 0.9868 0
vn 0.0538 0.9986 0
vn 0.0541 0.9985 0
vn 0.2676 0.9635 0
vn 0.2673 0.9636 0
vn 0.4684 0.8835 0
vn 0.6473 0.7623 0
vn 0.7962 0.605 0
vn 0.9077 0.4197 0
vn 0.9766 0.2151 0
vn 1 0 0
vn 0.9766 -0.2151 0
vn 0.9077 -0.4197 0
vn 0.7962 -0.605 0
vn 0.6473 -0.7623 0
vn 0.4684 -0.8835 0
vn 0.2676 -0.9635 0
vn 0.2673 -0.9636 0
vn 0.0538 -0.9986 0
vn 0.0541 -0.9985 0
vn -0.1619 -0.9868 0
vn -0.37 -0.929 0
vn -0.5612 -0.8277 0
vn -0.7259 -0.6878 0
vn -0.8568 -0.5157 0
vn -0.9477 -0.3192 0
vn -0.9476 -0.3195 0
vn 0 0 -1
vn 0 0 1
vn 0 -1 0
vn 0 1 0
vn 0.2589 0 0.9659
vn 0.7071 0 0.7071
vn 0.9659 0 0.2589
vn 0.9969 0 0.0783
vn 0.9724 0 0.2335
vn 0.9239 0 0.3827
vn 0.8526 0 0.5226
vn 0.7603 0 0.6496
vn 0.6493 0 0.7606
vn 0.6496 0 0.7603
vn 0.5226 0 0.8526
vn 0.3827 0 0.9239
vn 0.2335 0 0.9723
vn 0.0783 0 0.9969
vn -0.1566 0 0.9877
vn -0.1561 0 0.9877
vn -0.454 0 0.891
vn -0.7071 0 0.7071
vn -0.891 0 0.454
vn -0.9877 0 0.1563
vn -0.9877 0 0.1566
vn 0.9848 0 -0.1737
vn 0.9848 0 0.1737
vn 0.8661 0 0.4999
vn 0.8659 0 0.5002
vn 0.643 0 0.7659
vn 0.3421 0 0.9397
vn 0.3417 0 0.9398
vn -0.3421 0 0.9397
vn -0.3417 0 0.9398
vn -0.643 0 0.7659
vn -0.8661 0 0.4999
vn -0.8659 0 0.5002
vn -0.9848 0 0.1737
vn -0.9848 0 -0.1737
vn -0.8659 0 -0.5002
vn -0.643 0 -0.7659
vn -0.3421 0 -0.9397
vn -0.3421 0 -0.9396
vn 0.3421 0 -0.9397
vn 0.3423 0 -0.9396
vn 0.3421 0 -0.9396
vn 0.643 0 -0.7659
vn 0.8659 0 -0.5002
vn -0.1563 0 0.9877
vn 0.2335 0 0.9724
vn 0.1565 0 -0.9877
vn -0.1565 0 -0.9877
vn -0.4539 0 -0.891
vn -0.7071 0 -0.7071
vn -0.891 0 -0.4539
vn -0.9877 0 -0.1565
vn -0.9877 0 0.1565
vn -0.8909 0 0.4543
vn -0.8911 0 0.4538
vn -0.7073 0 0.7069
vn -0.7072 0 0.707
vn -0.4539 0 0.891
vn -0.1565 0 0.9877
vn 0.1565 0 0.9877
vn 0.4539 0 0.891
vn 0.7072 0 0.707
vn 0.7073 0 0.7069
vn 0.891 0 0.454
vn 0.8909 0 0.4543
vn 0.9877 0 0.1565
vn 0.9877 0 -0.1565
vn 0.891 0 -0.4539
vn 0.7071 0 -0.7071
vn 0.4539 0 -0.891
vn -1 0 0
usemtl black_metal
s 1
f 3//1 2//1 1//1
f 4//2 2//2 3//2
f 5//2 4//2 3//2
f 6//3 4//4 5//3
f 7//3 6//3 5//3
f 8//5 6//5 7//5
f 9//5 8//5 7//5
f 10//6 8//6 9//6
f 11//6 10//6 9//6
f 12//7 10//7 11//7
f 13//7 12//7 11//7
f 14//8 12//8 13//8
f 15//8 14//8 13//8
f 16//9 14//9 15//9
f 17//9 16//9 15//9
f 18//10 16//11 17//10
f 19//10 18//10 17//10
f 20//12 18//13 19//12
f 21//12 20//12 19//12
f 22//14 20//14 21//14
f 23//14 22//14 21//14
f 24//15 22//15 23//15
f 25//15 24//15 23//15
f 26//16 24//16 25//16
f 27//16 26//16 25//16
f 28//17 26//17 27//17
f 29//17 28//17 27//17
f 30//18 28//18 29//18
f 31//18 30//18 29//18
f 32//19 30//19 31//19
f 33//19 32//19 31//19
f 34//20 32//20 33//20
f 35//20 34//20 33//20
f 36//21 34//21 35//21
f 37//21 36//21 35//21
f 38//22 36//22 37//22
f 39//22 38//22 37//22
f 40//23 38//23 39//23
f 41//23 40//23 39//23
f 42//24 40//24 41//24
f 43//24 42//24 41//24
f 44//25 42//25 43//25
f 45//26 44//25 43//25
f 46//27 44//27 45//27
f 47//28 46//27 45//27
f 48//29 46//29 47//29
f 49//29 48//29 47//29
f 50//30 48//30 49//30
f 51//30 50//30 49//30
f 52//31 50//31 51//31
f 53//31 52//31 51//31
f 54//32 52//32 53//32
f 55//32 54//32 53//32
f 56//33 54//33 55//33
f 57//33 56//33 55//33
f 58//34 56//34 57//34
f 1//35 58//34 57//34
f 2//1 58//1 1//1
f 16//36 42//36 44//36
f 46//36 16//36 44//36
f 14//36 16//36 46//36
f 12//36 14//36 46//36
f 12//36 52//36 54//36
f 16//36 40//36 42//36
f 38//36 40//36 16//36
f 36//36 38//36 16//36
f 16//36 34//36 36//36
f 32//36 34//36 16//36
f 30//36 32//36 16//36
f 58//36 8//36 10//36
f 6//36 8//36 58//36
f 59//36 6//36 58//36
f 4//36 6//36 59//36
f 12//36 58//36 10//36
f 56//36 58//36 12//36
f 54//36 56//36 12//36
f 12//36 50//36 52//36
f 48//36 50//36 12//36
f 46//36 48//36 12//36
f 16//36 28//36 30//36
f 26//36 28//36 16//36
f 24//36 26//36 16//36
f 16//36 22//36 24//36
f 20//36 22//36 16//36
f 18//36 20//36 16//36
f 62//37 61//37 60//37
f 65//37 64//37 63//37
f 65//37 67//37 66//37
f 60//37 67//37 65//37
f 63//37 60//37 65//37
f 62//37 60//37 63//37
f 70//38 69//38 68//38
f 73//38 72//38 71//38
f 74//38 72//38 73//38
f 75//38 74//38 73//38
f 77//38 76//38 70//38
f 72//38 78//38 71//38
f 79//38 78//38 72//38
f 80//38 79//38 72//38
f 73//38 68//38 75//38
f 70//38 68//38 73//38
f 81//38 70//38 73//38
f 77//38 70//38 81//38
f 84//38 83//38 82//38
f 79//38 83//38 84//38
f 85//38 79//38 84//38
f 78//38 79//38 85//38
f 86//39 61//39 62//39
f 87//39 61//39 86//39
f 88//39 87//39 86//39
f 88//39 89//39 87//39
f 90//39 89//39 88//39
f 91//39 90//39 88//39
f 93//39 88//39 92//39
f 94//39 88//39 93//39
f 88//39 95//39 91//39
f 96//39 95//39 88//39
f 97//39 96//39 88//39
f 99//39 98//39 88//39
f 92//39 100//39 93//39
f 101//39 100//39 92//39
f 102//39 101//39 92//39
f 103//39 101//39 102//39
f 88//39 104//39 99//39
f 105//39 104//39 88//39
f 94//39 105//39 88//39
f 88//39 106//39 97//39
f 107//39 106//39 88//39
f 98//39 107//39 88//39
f 108//40 60//40 61//40
f 87//40 108//40 61//40
f 109//41 108//41 87//41
f 89//41 109//41 87//41
f 110//42 109//42 89//42
f 90//42 110//42 89//42
f 108//38 67//38 60//38
f 109//38 67//38 108//38
f 113//38 112//38 111//38
f 114//38 112//38 113//38
f 115//38 114//38 113//38
f 118//38 117//38 116//38
f 120//38 119//38 67//38
f 121//38 117//38 118//38
f 122//38 67//38 119//38
f 123//38 67//38 122//38
f 114//38 123//38 122//38
f 124//38 123//38 114//38
f 115//38 124//38 114//38
f 112//38 125//38 111//38
f 126//38 125//38 112//38
f 127//38 126//38 112//38
f 128//38 126//38 127//38
f 129//38 128//38 127//38
f 130//38 128//38 129//38
f 131//38 130//38 129//38
f 132//38 130//38 131//38
f 133//38 132//38 131//38
f 121//38 132//38 133//38
f 134//38 121//38 133//38
f 117//38 121//38 134//38
f 67//38 135//38 120//38
f 136//38 135//38 67//38
f 109//38 136//38 67//38
f 139//38 138//38 137//38
f 109//38 140//38 136//38
f 137//38 140//38 109//38
f 110//38 137//38 109//38
f 139//38 137//38 110//38
f 116//38 141//38 118//38
f 142//38 141//38 116//38
f 143//38 142//38 116//38
f 144//38 142//38 143//38
f 138//38 144//38 143//38
f 145//38 144//38 138//38
f 139//38 145//38 138//38
f 145//43 139//43 91//43
f 95//43 145//43 91//43
f 144//44 145//44 95//44
f 96//44 144//44 95//44
f 142//45 144//45 96//45
f 97//45 142//45 96//45
f 141//46 142//46 97//46
f 106//46 141//46 97//46
f 118//47 141//47 106//47
f 107//47 118//47 106//47
f 121//49 118//49 107//48
f 98//49 121//49 107//48
f 132//50 121//50 98//50
f 99//50 132//50 98//50
f 130//51 132//51 99//51
f 104//51 130//51 99//51
f 128//52 130//52 104//52
f 105//52 128//52 104//52
f 126//53 128//53 105//53
f 94//53 126//53 105//53
f 110//19 91//19 139//19
f 90//19 91//19 110//19
f 111//54 125//55 93//54
f 100//54 111//54 93//54
f 113//56 111//56 100//56
f 101//56 113//56 100//56
f 115//57 113//57 101//57
f 103//57 115//57 101//57
f 124//58 115//58 103//58
f 102//58 124//58 103//58
f 123//60 124//60 102//59
f 92//59 123//60 102//59
f 93//37 126//37 94//37
f 125//37 126//37 93//37
f 116//61 82//61 143//61
f 84//62 82//62 116//62
f 117//62 84//62 116//62
f 85//64 84//64 117//63
f 134//64 85//64 117//63
f 78//65 85//65 134//65
f 133//65 78//65 134//65
f 71//67 78//67 133//66
f 131//67 71//67 133//66
f 73//37 71//37 131//37
f 129//37 73//37 131//37
f 81//69 73//69 129//68
f 127//69 81//69 129//68
f 77//70 81//70 127//70
f 112//70 77//70 127//70
f 76//72 77//72 112//71
f 114//72 76//72 112//71
f 70//73 76//73 114//73
f 122//73 70//73 114//73
f 69//74 70//74 122//74
f 119//74 69//74 122//74
f 68//75 69//75 119//75
f 120//75 68//75 119//75
f 75//76 68//76 120//76
f 135//76 75//76 120//76
f 74//78 75//78 135//77
f 136//78 74//78 135//77
f 72//36 74//36 136//36
f 140//36 72//36 136//36
f 80//81 72//80 140//79
f 137//81 80//81 140//79
f 79//82 80//82 137//82
f 138//82 79//82 137//82
f 83//83 79//83 138//83
f 143//83 83//83 138//83
f 82//61 83//61 143//61
f 148//39 147//39 146//39
f 149//39 147//39 148//39
f 150//39 149//39 148//39
f 148//39 151//39 150//39
f 152//39 151//39 148//39
f 153//39 152//39 148//39
f 155//39 154//39 148//39
f 156//39 154//39 155//39
f 146//39 157//39 148//39
f 158//39 157//39 146//39
f 159//39 158//39 146//39
f 146//39 160//39 159//39
f 161//39 160//39 146//39
f 162//39 161//39 146//39
f 163//39 161//39 162//39
f 148//39 164//39 153//39
f 165//39 164//39 148//39
f 154//39 165//39 148//39
f 64//38 166//38 63//38
f 167//38 166//38 64//38
f 168//38 166//38 167//38
f 169//38 166//38 168//38
f 170//38 169//38 168//38
f 169//38 172//38 171//38
f 174//38 173//38 169//38
f 175//38 169//38 171//38
f 169//38 176//38 174//38
f 177//38 176//38 169//38
f 170//38 177//38 169//38
f 180//38 179//38 178//38
f 181//38 179//38 180//38
f 182//38 181//38 180//38
f 169//38 183//38 172//38
f 184//38 183//38 169//38
f 173//38 184//38 169//38
f 185//38 181//38 182//38
f 186//38 181//38 185//38
f 169//38 186//38 185//38
f 187//38 186//38 169//38
f 175//38 187//38 169//38
f 167//40 64//40 65//40
f 188//40 167//40 65//40
f 168//41 167//41 188//41
f 189//41 168//41 188//41
f 170//42 168//42 189//42
f 190//42 170//42 189//42
f 192//39 191//39 189//39
f 188//39 194//39 193//39
f 66//39 194//39 188//39
f 65//39 66//39 188//39
f 197//39 196//39 195//39
f 189//39 198//39 192//39
f 199//39 198//39 189//39
f 188//39 199//39 189//39
f 200//39 199//39 188//39
f 193//39 200//39 188//39
f 202//39 201//39 190//39
f 66//39 203//39 194//39
f 204//39 203//39 66//39
f 196//39 204//39 66//39
f 205//39 204//39 196//39
f 197//39 205//39 196//39
f 208//39 207//39 206//39
f 209//39 207//39 208//39
f 197//39 209//39 208//39
f 210//39 209//39 197//39
f 195//39 210//39 197//39
f 190//39 211//39 202//39
f 212//39 211//39 190//39
f 213//39 212//39 190//39
f 214//39 208//39 206//39
f 215//39 208//39 214//39
f 216//39 215//39 214//39
f 217//39 215//39 216//39
f 218//39 217//39 216//39
f 219//39 217//39 218//39
f 220//39 219//39 218//39
f 221//39 219//39 220//39
f 222//39 221//39 220//39
f 223//39 221//39 222//39
f 224//39 223//39 222//39
f 225//39 223//39 224//39
f 226//39 225//39 224//39
f 190//39 224//39 213//39
f 226//39 224//39 190//39
f 189//39 226//39 190//39
f 227//39 226//39 189//39
f 191//39 227//39 189//39
f 179//84 181//54 206//84
f 207//54 179//84 206//84
f 178//56 179//56 207//56
f 209//56 178//56 207//56
f 180//57 178//57 209//57
f 210//57 180//57 209//57
f 182//58 180//58 210//58
f 195//58 182//58 210//58
f 185//60 182//59 195//60
f 196//60 185//60 195//60
f 170//19 201//19 177//19
f 190//19 201//19 170//19
f 176//43 177//43 201//43
f 202//43 176//43 201//43
f 174//44 176//44 202//44
f 211//44 174//44 202//44
f 173//45 174//45 211//45
f 212//45 173//45 211//45
f 184//46 173//46 212//46
f 213//46 184//46 212//46
f 183//47 184//47 213//47
f 224//47 183//47 213//47
f 172//49 183//49 224//49
f 222//49 172//49 224//49
f 171//50 172//50 222//50
f 220//50 171//50 222//50
f 175//51 171//51 220//51
f 218//51 175//51 220//51
f 187//85 175//52 218//85
f 216//85 187//85 218//85
f 186//53 187//53 216//53
f 214//53 186//53 216//53
f 186//37 206//37 181//37
f 214//37 206//37 186//37
f 229//86 228//86 199//86
f 157//87 228//87 229//87
f 193//87 157//87 229//87
f 148//88 157//88 193//88
f 194//88 148//88 193//88
f 155//89 148//89 194//89
f 203//89 155//89 194//89
f 156//90 155//90 203//90
f 204//90 156//90 203//90
f 154//91 156//91 204//91
f 205//91 154//91 204//91
f 165//92 154//92 205//92
f 197//92 165//92 205//92
f 164//93 165//93 197//93
f 208//94 164//93 197//93
f 153//96 164//57 208//95
f 215//95 153//96 208//95
f 152//97 153//97 215//97
f 217//97 152//97 215//97
f 151//98 152//98 217//98
f 230//98 151//98 217//98
f 150//99 151//99 230//99
f 221//99 150//99 230//99
f 149//100 150//100 221//100
f 223//100 149//100 221//100
f 147//102 149//102 223//101
f 225//41 147//102 223//101
f 146//104 147//104 225//103
f 226//104 146//104 225//103
f 162//105 146//105 226//105
f 227//105 162//105 226//105
f 163//106 162//106 227//106
f 191//106 163//106 227//106
f 161//107 163//107 191//107
f 192//107 161//107 191//107
f 160//108 161//108 192//108
f 198//108 160//108 192//108
f 159//109 160//109 198//109
f 199//109 159//109 198//109
f 228//86 159//86 199//86
f 88//36 31//36 169//36
f 33//36 31//36 88//36
f 35//36 33//36 88//36
f 88//36 37//36 35//36
f 39//36 37//36 88//36
f 41//36 39//36 88//36
f 169//36 23//36 21//36
f 25//36 23//36 169//36
f 51//36 49//36 86//36
f 166//36 9//36 7//36
f 11//36 9//36 166//36
f 13//36 11//36 166//36
f 166//36 15//36 13//36
f 17//36 15//36 166//36
f 169//36 17//36 166//36
f 19//36 17//36 169//36
f 21//36 19//36 169//36
f 169//36 27//36 25//36
f 29//36 27//36 169//36
f 31//36 29//36 169//36
f 88//36 43//36 41//36
f 45//36 43//36 88//36
f 86//36 45//36 88//36
f 47//36 45//36 86//36
f 49//36 47//36 86//36
f 86//36 53//36 51//36
f 55//36 53//36 86//36
f 57//36 55//36 86//36
f 86//36 1//36 57//36
f 231//36 1//36 86//36
f 166//36 231//36 86//36
f 5//36 231//36 166//36
f 7//36 5//36 166//36
f 62//19 166//19 86//19
f 63//19 166//19 62//19
f 66//110 185//110 196//110
f 169//110 185//110 66//110
f 67//110 169//110 66//110
f 88//110 169//110 67//110
f 123//110 88//110 67//110
f 92//110 88//110 123//110
