# Blender v3.6.4 OBJ File: ''
# www.blender.org
mtllib link_3.0.mtl
o link_3.0
v 0.0005 0.000866 0.0157
v 0 0.001 0.0114
v 0 0.001 0.0157
v -0.0005 0.000866 0.0114
v -0.0005 0.000866 0.0157
v -0.000866 0.0005 0.0114
v -0.000866 0.0005 0.0157
v -0.001 0 0.0114
v -0.001 0 0.0157
v -0.000866 -0.0005 0.0114
v -0.000866 -0.0005 0.0157
v -0.0005 -0.000866 0.0114
v -0.0005 -0.000866 0.0157
v 0 -0.001 0.0114
v 0 -0.001 0.0157
v 0.0005 -0.000866 0.0114
v 0.0005 -0.000866 0.0157
v 0.000866 -0.0005 0.0114
v 0.000866 -0.0005 0.0157
v 0.001 0 0.0114
v 0.001 0 0.0157
v 0.000866 0.0005 0.0114
v 0.000866 0.0005 0.0157
v 0.0005 0.000866 0.0114
v -0.0098 0.01345 0.0157
v -0.0098 -0.01345 0.0157
v -0.001 0 0.0157
v 0.0098 0.01345 0.0157
v 0 0.001 0.0157
v 0 -0.001 0.0157
v 0.0098 -0.01345 0.0157
v 0.001 0 0.0157
v 0.002234 -0.01045 0.003074
v 0.001174 -0.01045 0.003614
v -0.003074 -0.01045 -0.002234
v 0 -0.01045 0.0038
v -0.002234 -0.01045 -0.003074
v -0.001174 -0.01045 -0.003614
v 0 -0.01045 -0.0038
v 0.003614 -0.01045 -0.001174
v 0.0038 -0.01045 0
v 0.001174 -0.01045 -0.003614
v 0.002234 -0.01045 -0.003074
v 0.003074 -0.01045 -0.002234
v 0.003614 -0.01045 0.001174
v 0.003074 -0.01045 0.002234
v -0.001174 -0.01045 0.003614
v -0.002234 -0.01045 0.003074
v -0.003074 -0.01045 0.002234
v -0.003614 -0.01045 0.001174
v -0.0038 -0.01045 0
v -0.003614 -0.01045 -0.001174
v 0.0038 -0.01125 0
v 0.003614 -0.01125 -0.001174
v 0.005699 -0.01125 -0.002199
v -0.009227 -0.01125 -0.005063
v -0.008563 -0.01125 -0.005727
v -0.003074 -0.01125 -0.002234
v 0.004029 -0.01125 -0.003626
v -0.0098 -0.01125 -0.0033
v -0.003614 -0.01125 -0.001174
v -0.0038 -0.01125 0
v -0.0098 -0.01125 0.0114
v -0.003614 -0.01125 0.001174
v -0.003074 -0.01125 0.002234
v -0.002234 -0.01125 0.003074
v 0.003074 -0.01125 -0.002234
v 0.002234 -0.01125 -0.003074
v 0.002156 -0.01125 -0.004774
v 0.001174 -0.01125 -0.003614
v 0.000126 -0.01125 -0.005615
v 0 -0.01125 -0.0038
v -0.00201 -0.01125 -0.006128
v -0.001174 -0.01125 -0.003614
v -0.0042 -0.01125 -0.0063
v -0.002234 -0.01125 -0.003074
v -0.0068 -0.01125 -0.0063
v -0.007727 -0.01125 -0.006153
v -0.009653 -0.01125 -0.004227
v -0.001174 -0.01125 0.003614
v 0 -0.01125 0.0038
v 0.0098 -0.01125 0.0114
v 0.003074 -0.01125 0.002234
v 0.0098 -0.01125 0.0077
v 0.002234 -0.01125 0.003074
v 0.001174 -0.01125 0.003614
v 0.007126 -0.01125 -0.000529
v 0.008274 -0.01125 0.001344
v 0.003614 -0.01125 0.001174
v 0.009115 -0.01125 0.003374
v 0.009628 -0.01125 0.00551
v -0.00201 -0.01345 -0.006128
v -0.0042 -0.01345 -0.0063
v 0.0098 -0.01345 0.0077
v -0.008563 -0.01345 -0.005727
v -0.009227 -0.01345 -0.005063
v -0.009653 -0.01345 -0.004227
v 0.009628 -0.01345 0.00551
v 0.009115 -0.01345 0.003374
v 0.008274 -0.01345 0.001344
v 0.007126 -0.01345 -0.000529
v 0.005699 -0.01345 -0.002199
v 0.004029 -0.01345 -0.003626
v -0.0098 -0.01345 -0.0033
v -0.0068 -0.01345 -0.0063
v -0.007727 -0.01345 -0.006153
v 0.002156 -0.01345 -0.004774
v 0.000126 -0.01345 -0.005615
v -0.0038 -0.01045 0
v 0 -0.01045 0.0038
v 0.0038 -0.01125 0
v 0 -0.01045 -0.0038
v 0.0098 0.01105 0.0114
v 0.001 0 0.0114
v -0.0098 0.01105 0.0114
v 0 0.001 0.0114
v -0.001 0 0.0114
v 0.0098 0.01105 0.0097
v -0.0098 0.01105 0.0097
v 0.002819 0.00975 -0.001026
v 0.002298 0.00975 -0.001928
v 0.0015 0.00975 -0.002598
v 0.002298 0.00975 0.001928
v -0.002298 0.00975 -0.001928
v -0.002819 0.00975 -0.001026
v -0.003 0.00975 0
v -0.002819 0.00975 0.001026
v -0.002298 0.00975 0.001928
v 0.003 0.00975 0
v 0.002819 0.00975 0.001026
v 0.000521 0.00975 -0.002954
v -0.000521 0.00975 -0.002954
v -0.0015 0.00975 -0.002598
v 0.000521 0.00975 0.002954
v 0.0015 0.00975 0.002598
v -0.000521 0.00975 0.002954
v -0.0015 0.00975 0.002598
v 0.0098 0.01345 0.0077
v -0.0042 0.01345 -0.0063
v -0.0098 0.01345 -0.0033
v 0.009628 0.01345 0.00551
v -0.00201 0.01345 -0.006128
v 0.000126 0.01345 -0.005615
v 0.002156 0.01345 -0.004774
v -0.009227 0.01345 -0.005063
v -0.008563 0.01345 -0.005727
v -0.009653 0.01345 -0.004227
v -0.007727 0.01345 -0.006153
v -0.0068 0.01345 -0.0063
v 0.004029 0.01345 -0.003626
v 0.005699 0.01345 -0.002199
v 0.007126 0.01345 -0.000529
v 0.008274 0.01345 0.001344
v 0.009115 0.01345 0.003374
v 0.0098 0.01145 0.0097
v 0.0098 0.01145 0.0077
v 0.002298 0.01145 0.001928
v 0.009628 0.01145 0.00551
v 0.002819 0.01145 0.001026
v 0.0015 0.01145 0.002598
v 0.000521 0.01145 0.002954
v -0.0098 0.01145 0.0097
v -0.000521 0.01145 0.002954
v -0.0015 0.01145 0.002598
v -0.002298 0.01145 0.001928
v -0.002819 0.01145 0.001026
v -0.0098 0.01145 -0.0033
v -0.002298 0.01145 -0.001928
v -0.007727 0.01145 -0.006153
v -0.008563 0.01145 -0.005727
v -0.003 0.01145 0
v -0.002819 0.01145 -0.001026
v -0.009653 0.01145 -0.004227
v -0.009227 0.01145 -0.005063
v 0.009115 0.01145 0.003374
v 0.008274 0.01145 0.001344
v 0.003 0.01145 0
v 0.007126 0.01145 -0.000529
v 0.002819 0.01145 -0.001026
v 0.005699 0.01145 -0.002199
v 0.002298 0.01145 -0.001928
v 0.004029 0.01145 -0.003626
v 0.0015 0.01145 -0.002598
v 0.002156 0.01145 -0.004774
v 0.000521 0.01145 -0.002954
v 0.000126 0.01145 -0.005615
v -0.000521 0.01145 -0.002954
v -0.00201 0.01145 -0.006128
v -0.0015 0.01145 -0.002598
v -0.0042 0.01145 -0.0063
v -0.0068 0.01145 -0.0063
v 0.003 0.00975 0
v 0.003 0.01145 0
v -0.003 0.01145 0
vn -0.2589 -0.9659 0
vn 0.2589 -0.9659 0
vn 0.7071 -0.7071 0
vn 0.9659 -0.2589 0
vn 0.9659 0.2589 0
vn 0.7071 0.7071 0
vn 0.2589 0.9659 0
vn -0.2589 0.9659 0
vn -0.7071 0.7071 0
vn -0.9659 0.2589 0
vn -0.9659 -0.2589 0
vn -0.7071 -0.7071 0
vn 0 0 1
vn 0 1 0
vn 0 -1 0
vn 0.0783 0 -0.9969
vn 0.2335 0 -0.9724
vn 0.3827 0 -0.9239
vn 0.5226 0 -0.8526
vn 0.6496 0 -0.7603
vn 0.6494 0 -0.7605
vn 0.7603 0 -0.6496
vn 0.8526 0 -0.5226
vn 0.9239 0 -0.3827
vn 0.9724 0 -0.2335
vn 0.9969 0 -0.0783
vn 0 0 -1
vn -0.9877 0 -0.1563
vn -0.9877 0 -0.1566
vn -0.891 0 -0.454
vn -0.7071 0 -0.7071
vn -0.454 0 -0.891
vn -0.1563 0 -0.9877
vn -0.1566 0 -0.9877
vn -0.9877 0 -0.1565
vn -0.9877 0 0.1565
vn -0.891 0 0.4539
vn -0.7071 0 0.7071
vn -0.4539 0 0.891
vn -0.1565 0 0.9877
vn 0.1565 0 0.9877
vn 0.4539 0 0.891
vn 0.7071 0 0.7071
vn 0.891 0 0.4539
vn 0.9877 0 0.1565
vn 0.9877 0 -0.1565
vn 0.891 0 -0.4539
vn 0.7071 0 -0.7071
vn 0.4539 0 -0.891
vn 0.1565 0 -0.9877
vn -0.1565 0 -0.9877
vn -0.4539 0 -0.891
vn -0.891 0 -0.4539
vn 0.0786 0 -0.9969
vn -1 0 0
vn 1 0 0
vn 0.9848 0 -0.1737
vn 0.9848 0 0.1737
vn 0.8659 0 0.5002
vn 0.643 0 0.7659
vn 0.3417 0 0.9398
vn -0.3417 0 0.9398
vn -0.643 0 0.7659
vn -0.8659 0 0.5002
vn -0.9848 0 0.1737
vn -0.9848 0 -0.1737
vn -0.8659 0 -0.5002
vn -0.643 0 -0.7659
vn -0.3417 0 -0.9398
vn 0.3417 0 -0.9398
vn 0.643 0 -0.7659
vn 0.8659 0 -0.5002
usemtl black_metal
s 1
f 3//1 2//1 1//1
f 4//2 2//2 3//2
f 5//2 4//2 3//2
f 6//3 4//3 5//3
f 7//3 6//3 5//3
f 8//4 6//4 7//4
f 9//4 8//4 7//4
f 10//5 8//5 9//5
f 11//5 10//5 9//5
f 12//6 10//6 11//6
f 13//6 12//6 11//6
f 14//7 12//7 13//7
f 15//7 14//7 13//7
f 16//8 14//8 15//8
f 17//8 16//8 15//8
f 18//9 16//9 17//9
f 19//9 18//9 17//9
f 20//10 18//10 19//10
f 21//10 20//10 19//10
f 22//11 20//11 21//11
f 23//11 22//11 21//11
f 24//12 22//12 23//12
f 1//12 24//12 23//12
f 2//1 24//1 1//1
f 7//13 5//13 25//13
f 26//13 7//13 25//13
f 27//13 7//13 26//13
f 11//13 27//13 26//13
f 25//13 1//13 28//13
f 29//13 1//13 25//13
f 5//13 29//13 25//13
f 26//13 13//13 11//13
f 30//13 13//13 26//13
f 31//13 30//13 26//13
f 17//13 30//13 31//13
f 31//13 19//13 17//13
f 32//13 19//13 31//13
f 28//13 32//13 31//13
f 23//13 32//13 28//13
f 1//13 23//13 28//13
f 35//14 34//14 33//14
f 36//14 34//14 35//14
f 39//14 38//14 37//14
f 35//14 41//14 40//14
f 37//14 42//14 39//14
f 43//14 42//14 37//14
f 35//14 43//14 37//14
f 44//14 43//14 35//14
f 40//14 44//14 35//14
f 35//14 45//14 41//14
f 46//14 45//14 35//14
f 33//14 46//14 35//14
f 35//14 47//14 36//14
f 48//14 47//14 35//14
f 49//14 48//14 35//14
f 35//14 50//14 49//14
f 51//14 50//14 35//14
f 52//14 51//14 35//14
f 55//14 54//14 53//14
f 58//14 57//14 56//14
f 59//14 54//14 55//14
f 62//14 61//14 60//14
f 63//14 62//14 60//14
f 63//14 64//14 62//14
f 65//14 64//14 63//14
f 66//14 65//14 63//14
f 59//14 67//14 54//14
f 68//14 67//14 59//14
f 69//14 68//14 59//14
f 70//14 68//14 69//14
f 71//14 70//14 69//14
f 72//14 70//14 71//14
f 73//14 72//14 71//14
f 74//14 72//14 73//14
f 75//14 74//14 73//14
f 76//14 74//14 75//14
f 77//14 76//14 75//14
f 58//14 76//14 77//14
f 78//14 58//14 77//14
f 57//14 58//14 78//14
f 58//14 60//14 61//14
f 79//14 60//14 58//14
f 56//14 79//14 58//14
f 63//14 80//14 66//14
f 81//14 80//14 63//14
f 82//14 81//14 63//14
f 85//14 84//14 83//14
f 82//14 84//14 85//14
f 86//14 82//14 85//14
f 81//14 82//14 86//14
f 53//14 87//14 55//14
f 88//14 87//14 53//14
f 89//14 88//14 53//14
f 90//14 88//14 89//14
f 83//14 90//14 89//14
f 91//14 90//14 83//14
f 84//14 91//14 83//14
f 26//15 93//15 92//15
f 94//15 31//15 26//15
f 97//15 96//15 95//15
f 26//15 98//15 94//15
f 99//15 98//15 26//15
f 100//15 99//15 26//15
f 26//15 101//15 100//15
f 102//15 101//15 26//15
f 103//15 102//15 26//15
f 104//15 93//15 26//15
f 105//15 93//15 104//15
f 97//15 105//15 104//15
f 106//15 105//15 97//15
f 95//15 106//15 97//15
f 26//15 107//15 103//15
f 108//15 107//15 26//15
f 92//15 108//15 26//15
f 92//16 93//16 75//16
f 73//16 92//16 75//16
f 108//17 92//17 73//17
f 71//17 108//17 73//17
f 107//18 108//18 71//18
f 69//18 107//18 71//18
f 103//19 107//19 69//19
f 59//19 103//19 69//19
f 102//20 103//20 59//20
f 55//21 102//20 59//20
f 101//22 102//22 55//22
f 87//22 101//22 55//22
f 100//23 101//23 87//23
f 88//23 100//23 87//23
f 99//24 100//24 88//24
f 90//24 99//24 88//24
f 98//25 99//25 90//25
f 91//25 98//25 90//25
f 94//26 98//26 91//26
f 84//26 94//26 91//26
f 105//27 75//27 93//27
f 77//27 75//27 105//27
f 97//28 104//29 60//28
f 79//29 97//28 60//28
f 96//30 97//30 79//30
f 56//30 96//30 79//30
f 95//31 96//31 56//31
f 57//31 95//31 56//31
f 106//32 95//32 57//32
f 78//32 106//32 57//32
f 105//33 106//34 78//33
f 77//34 105//33 78//33
f 62//35 109//35 61//35
f 50//36 109//36 62//36
f 64//36 50//36 62//36
f 49//37 50//37 64//37
f 65//37 49//37 64//37
f 48//38 49//38 65//38
f 66//38 48//38 65//38
f 47//39 48//39 66//39
f 80//39 47//39 66//39
f 110//40 47//40 80//40
f 81//40 110//40 80//40
f 34//41 110//41 81//41
f 86//41 34//41 81//41
f 33//42 34//42 86//42
f 85//42 33//42 86//42
f 46//43 33//43 85//43
f 83//43 46//43 85//43
f 45//44 46//44 83//44
f 89//44 45//44 83//44
f 41//45 45//45 89//45
f 111//45 41//45 89//45
f 40//46 41//46 111//46
f 54//46 40//46 111//46
f 44//47 40//47 54//47
f 67//47 44//47 54//47
f 43//48 44//48 67//48
f 68//48 43//48 67//48
f 42//49 43//49 68//49
f 70//49 42//49 68//49
f 112//50 42//50 70//50
f 72//50 112//50 70//50
f 38//51 112//51 72//51
f 74//51 38//51 72//51
f 37//52 38//52 74//52
f 76//52 37//52 74//52
f 35//31 37//31 76//31
f 58//31 35//31 76//31
f 52//53 35//53 58//53
f 61//53 52//53 58//53
f 109//35 52//35 61//35
f 114//27 22//27 113//27
f 82//27 114//27 113//27
f 115//27 4//27 6//27
f 116//27 4//27 115//27
f 113//27 116//27 115//27
f 24//27 116//27 113//27
f 22//27 24//27 113//27
f 82//27 18//27 114//27
f 16//27 18//27 82//27
f 63//27 16//27 82//27
f 14//27 16//27 63//27
f 63//27 12//27 14//27
f 10//27 12//27 63//27
f 115//27 10//27 63//27
f 117//27 10//27 115//27
f 6//27 117//27 115//27
f 113//15 119//15 118//15
f 115//15 119//15 113//15
f 122//15 121//15 120//15
f 125//15 124//15 123//15
f 123//15 126//15 125//15
f 127//15 126//15 123//15
f 128//15 127//15 123//15
f 130//15 120//15 129//15
f 122//15 120//15 130//15
f 123//15 122//15 130//15
f 131//15 122//15 123//15
f 123//15 132//15 131//15
f 133//15 132//15 123//15
f 124//15 133//15 123//15
f 136//15 135//15 134//15
f 123//15 135//15 136//15
f 137//15 123//15 136//15
f 128//15 123//15 137//15
f 25//14 28//14 138//14
f 140//14 25//14 139//14
f 141//14 25//14 138//14
f 25//14 142//14 139//14
f 143//14 142//14 25//14
f 144//14 143//14 25//14
f 147//14 146//14 145//14
f 148//14 146//14 147//14
f 140//14 148//14 147//14
f 149//14 148//14 140//14
f 139//14 149//14 140//14
f 25//14 150//14 144//14
f 151//14 150//14 25//14
f 152//14 151//14 25//14
f 25//14 153//14 152//14
f 154//14 153//14 25//14
f 141//14 154//14 25//14
f 157//15 156//15 155//15
f 158//15 156//15 157//15
f 159//15 158//15 157//15
f 155//15 160//15 157//15
f 161//15 160//15 155//15
f 162//15 161//15 155//15
f 163//15 161//15 162//15
f 164//15 163//15 162//15
f 162//15 165//15 164//15
f 166//15 165//15 162//15
f 167//15 166//15 162//15
f 170//15 169//15 168//15
f 167//15 171//15 166//15
f 172//15 171//15 167//15
f 173//15 172//15 167//15
f 168//15 172//15 173//15
f 174//15 168//15 173//15
f 170//15 168//15 174//15
f 159//15 175//15 158//15
f 176//15 175//15 159//15
f 177//15 176//15 159//15
f 178//15 176//15 177//15
f 179//15 178//15 177//15
f 180//15 178//15 179//15
f 181//15 180//15 179//15
f 182//15 180//15 181//15
f 183//15 182//15 181//15
f 184//15 182//15 183//15
f 185//15 184//15 183//15
f 186//15 184//15 185//15
f 187//15 186//15 185//15
f 188//15 186//15 187//15
f 189//15 188//15 187//15
f 190//15 188//15 189//15
f 168//15 190//15 189//15
f 191//15 190//15 168//15
f 169//15 191//15 168//15
f 188//54 190//16 139//54
f 142//16 188//54 139//54
f 186//17 188//17 142//17
f 143//17 186//17 142//17
f 184//18 186//18 143//18
f 144//18 184//18 143//18
f 182//19 184//19 144//19
f 150//19 182//19 144//19
f 180//20 182//20 150//20
f 151//21 180//20 150//20
f 178//22 180//22 151//22
f 152//22 178//22 151//22
f 176//23 178//23 152//23
f 153//23 176//23 152//23
f 175//24 176//24 153//24
f 154//24 175//24 153//24
f 158//25 175//25 154//25
f 141//25 158//25 154//25
f 156//26 158//26 141//26
f 138//26 156//26 141//26
f 173//28 167//29 140//28
f 147//29 173//28 140//28
f 174//30 173//30 147//30
f 145//30 174//30 147//30
f 170//31 174//31 145//31
f 146//31 170//31 145//31
f 169//32 170//32 146//32
f 148//32 169//32 146//32
f 191//33 169//33 148//33
f 149//34 191//33 148//33
f 63//55 25//55 115//55
f 26//55 25//55 63//55
f 60//55 26//55 63//55
f 104//55 26//55 60//55
f 162//55 140//55 167//55
f 25//55 140//55 162//55
f 119//55 25//55 162//55
f 115//55 25//55 119//55
f 162//27 118//27 119//27
f 155//27 118//27 162//27
f 28//56 156//56 138//56
f 155//56 156//56 28//56
f 82//56 94//56 84//56
f 31//56 94//56 82//56
f 113//56 31//56 82//56
f 28//56 31//56 113//56
f 118//56 28//56 113//56
f 155//56 28//56 118//56
f 139//27 191//27 149//27
f 190//27 191//27 139//27
f 193//57 192//57 179//57
f 130//58 192//58 193//58
f 159//58 130//58 193//58
f 123//59 130//59 159//59
f 157//59 123//59 159//59
f 135//60 123//60 157//60
f 160//60 135//60 157//60
f 134//61 135//61 160//61
f 161//61 134//61 160//61
f 136//13 134//13 161//13
f 163//13 136//13 161//13
f 137//62 136//62 163//62
f 164//62 137//62 163//62
f 128//63 137//63 164//63
f 165//63 128//63 164//63
f 127//64 128//64 165//64
f 166//64 127//64 165//64
f 126//65 127//65 166//65
f 194//65 126//65 166//65
f 125//66 126//66 194//66
f 172//66 125//66 194//66
f 124//67 125//67 172//67
f 168//67 124//67 172//67
f 133//68 124//68 168//68
f 189//68 133//68 168//68
f 132//69 133//69 189//69
f 187//69 132//69 189//69
f 131//27 132//27 187//27
f 185//27 131//27 187//27
f 122//70 131//70 185//70
f 183//70 122//70 185//70
f 121//71 122//71 183//71
f 181//71 121//71 183//71
f 120//72 121//72 181//72
f 179//72 120//72 181//72
f 192//57 120//57 179//57
