# Blender v3.6.4 OBJ File: ''
# www.blender.org
mtllib link_15.0.mtl
o link_15.0
v 0.0005 0.000766 0.0313
v 0 0.0009 0.0293
v 0 0.0009 0.0313
v -0.0005 0.000766 0.0293
v -0.0005 0.000766 0.0313
v -0.000866 0.0004 0.0293
v -0.000866 0.0004 0.0313
v -0.001 -0.0001 0.0293
v -0.001 -0.0001 0.0313
v -0.000866 -0.0006 0.0293
v -0.000866 -0.0006 0.0313
v -0.0005 -0.000966 0.0293
v -0.0005 -0.000966 0.0313
v 0 -0.0011 0.0293
v 0 -0.0011 0.0313
v 0.0005 -0.000966 0.0293
v 0.0005 -0.000966 0.0313
v 0.000866 -0.0006 0.0293
v 0.000866 -0.0006 0.0313
v 0.001 -0.0001 0.0293
v 0.001 -0.0001 0.0313
v 0.000866 0.0004 0.0293
v 0.000866 0.0004 0.0313
v 0.0005 0.000766 0.0293
v 0 0.0009 0.0293
v -0.0098 0.01105 0.027
v -0.0068 0.01105 0.027
v -0.007948 0.01105 0.026772
v -0.008921 0.01105 0.026121
v -0.009572 0.01105 0.025148
v -0.0098 0.01105 0.024
v 0.0098 0.01105 0.027
v 0.0098 0.01105 0.024
v 0.009572 0.01105 0.025148
v 0.008921 0.01105 0.026121
v 0.007948 0.01105 0.026772
v 0.0068 0.01105 0.027
v 0.0098 0.01345 0.0313
v -0.0098 0.01345 0.0313
v 0.0098 0.01345 0.013
v -0.0098 0.01345 0.013
v -0.009555 0.01345 0.011455
v -0.008845 0.01345 0.010061
v -0.0048 0.01345 0.008
v -0.007739 0.01345 0.008955
v -0.006345 0.01345 0.008245
v 0.007739 0.01345 0.008955
v 0.008845 0.01345 0.010061
v 0.006345 0.01345 0.008245
v 0.009555 0.01345 0.011455
v 0.0048 0.01345 0.008
v 0.0098 -0.01105 0.013
v 0.0098 -0.01355 0.013
v 0.0098 -0.00955 0.024
v 0.0098 -0.01355 0.0313
v 0.0098 -0.00955 0.027
v 0.0098 0.01075 0.013
v 0.0098 0.01075 -0.0038
v 0.0098 -0.01105 -0.0038
v -0.0098 0.01075 0.013
v -0.0098 -0.00955 0.027
v -0.0098 -0.01355 0.0313
v -0.0098 -0.00955 0.024
v -0.0098 -0.01355 0.013
v -0.0098 -0.01105 0.013
v -0.0098 -0.01105 -0.0038
v -0.0098 0.01075 -0.0038
v -0.000575 0.01135 -0.00547
v 0.00275 0.01135 0.004763
v -0.0017 0.01135 -0.005231
v -0.00275 0.01135 -0.004763
v 0.0017 0.01135 0.005231
v 0.000575 0.01135 0.00547
v -0.00538 0.01135 0.001144
v -0.00368 0.01135 0.004087
v -0.00445 0.01135 0.003233
v -0.00275 0.01135 0.004763
v -0.0017 0.01135 0.005231
v -0.000575 0.01135 0.00547
v -0.005024 0.01135 0.002237
v -0.00538 0.01135 -0.001144
v -0.005024 0.01135 -0.002237
v 0.000575 0.01135 -0.00547
v 0.0017 0.01135 -0.005231
v 0.00275 0.01135 -0.004763
v -0.0055 0.01135 0
v -0.00445 0.01135 -0.003233
v -0.00368 0.01135 -0.004087
v 0.00368 0.01135 -0.004087
v 0.00445 0.01135 -0.003233
v 0.005024 0.01135 -0.002237
v 0.00538 0.01135 -0.001144
v 0.0055 0.01135 0
v 0.00538 0.01135 0.001144
v 0.005024 0.01135 0.002237
v 0.00445 0.01135 0.003233
v 0.00368 0.01135 0.004087
v -0.003706 0.011342 -0.004116
v -0.004481 0.011342 -0.003255
v -0.004507 0.011321 -0.003274
v 0.000579 0.011342 -0.005508
v -0.000579 0.011342 -0.005508
v -0.000582 0.011321 -0.00554
v 0.003706 0.011342 0.004116
v 0.004481 0.011342 0.003255
v 0.004507 0.011321 0.003274
v -0.000579 0.011342 0.005508
v 0.000579 0.011342 0.005508
v 0.000582 0.011321 0.00554
v -0.005417 0.011342 -0.001151
v -0.005538 0.011342 0
v 0.001728 0.011288 0.005319
v 0.001721 0.011321 0.005298
v 0.001711 0.011342 0.005267
v 0.005109 0.011288 0.002275
v 0.005089 0.011321 0.002266
v 0.005059 0.011342 0.002253
v 0.005571 0.011321 0
v 0.005449 0.011321 0.001158
v 0.005417 0.011342 0.001151
v -0.001728 0.011288 -0.005319
v -0.001721 0.011321 -0.005298
v -0.001711 0.011342 -0.005267
v -0.005109 0.011288 -0.002275
v -0.005089 0.011321 -0.002266
v -0.005059 0.011342 -0.002253
v -0.005449 0.011321 -0.001158
v -0.005571 0.011321 0
v -0.005449 0.011321 0.001158
v -0.0055 0.01135 0
v -0.005417 0.011342 0.001151
v -0.005059 0.011342 0.002253
v -0.005089 0.011321 0.002266
v -0.004507 0.011321 0.003274
v -0.004524 0.011288 0.003287
v -0.003742 0.011288 0.004156
v -0.003706 0.011342 0.004116
v -0.002769 0.011342 0.004796
v -0.002785 0.011321 0.004824
v -0.001721 0.011321 0.005298
v -0.001728 0.011288 0.005319
v -0.000585 0.011288 0.005562
v -0.001711 0.011342 0.005267
v -0.000582 0.011321 0.00554
v 0.000585 0.011288 0.005562
v 0.000585 0.01125 0.005569
v 0.000793 0.01125 0.005525
v 0.003742 0.011288 0.004156
v 0.002796 0.011288 0.004843
v 0.002785 0.011321 0.004824
v 0.00469 0.01125 0.003015
v 0.00453 0.01125 0.003292
v 0.004524 0.011288 0.003287
v 0.003728 0.011321 0.00414
v 0.002769 0.011342 0.004796
v 0.00547 0.011288 0.001163
v 0.005592 0.011288 0
v 0.00547 0.011288 -0.001163
v 0.005538 0.011342 0
v 0.005449 0.011321 -0.001158
v 0.005109 0.011288 -0.002275
v 0.0055 0.01135 0
v 0.005417 0.011342 -0.001151
v 0.005059 0.011342 -0.002253
v 0.005089 0.011321 -0.002266
v 0.004507 0.011321 -0.003274
v 0.004524 0.011288 -0.003287
v 0.003742 0.011288 -0.004156
v 0.003706 0.011342 -0.004116
v 0.002769 0.011342 -0.004796
v 0.002785 0.011321 -0.004824
v 0.001721 0.011321 -0.005298
v 0.001728 0.011288 -0.005319
v 0.000585 0.011288 -0.005562
v 0.001711 0.011342 -0.005267
v 0.000582 0.011321 -0.00554
v -0.000585 0.011288 -0.005562
v -0.000585 0.01125 -0.005569
v -0.000793 0.01125 -0.005525
v -0.003742 0.011288 -0.004156
v -0.002796 0.011288 -0.004843
v -0.002785 0.011321 -0.004824
v -0.00469 0.01125 -0.003015
v -0.00453 0.01125 -0.003292
v -0.004524 0.011288 -0.003287
v -0.003728 0.011321 -0.00414
v -0.002769 0.011342 -0.004796
v -0.00547 0.011288 -0.001163
v -0.005592 0.011288 0
v -0.00547 0.011288 0.001163
v -0.005109 0.011288 0.002275
v -0.00469 0.01125 0.003015
v -0.002314 0.01125 0.005066
v -0.0028 0.01125 0.00485
v -0.002796 0.011288 0.004843
v -0.003728 0.011321 0.00414
v -0.004481 0.011342 0.003255
v -0.003661 0.01125 0.004224
v -0.003747 0.01125 0.004162
v -0.00453 0.01125 0.003292
v -0.000585 0.01125 0.005569
v -0.000793 0.01125 0.005525
v -0.00173 0.01125 0.005326
v 0.00173 0.01125 0.005326
v 0.002314 0.01125 0.005066
v 0.003747 0.01125 0.004162
v 0.003661 0.01125 0.004224
v 0.0028 0.01125 0.00485
v 0.005116 0.01125 0.002278
v 0.005346 0.01125 0.001569
v 0.00469 0.01125 -0.003015
v 0.005116 0.01125 -0.002278
v 0.005346 0.01125 -0.001569
v 0.005478 0.01125 -0.001164
v 0.0056 0.01125 0
v 0.005478 0.01125 0.001164
v 0.002314 0.01125 -0.005066
v 0.0028 0.01125 -0.00485
v 0.002796 0.011288 -0.004843
v 0.003728 0.011321 -0.00414
v 0.004481 0.011342 -0.003255
v 0.003661 0.01125 -0.004224
v 0.003747 0.01125 -0.004162
v 0.00453 0.01125 -0.003292
v 0.000585 0.01125 -0.005569
v 0.000793 0.01125 -0.005525
v 0.00173 0.01125 -0.005326
v -0.00173 0.01125 -0.005326
v -0.002314 0.01125 -0.005066
v -0.003747 0.01125 -0.004162
v -0.003661 0.01125 -0.004224
v -0.0028 0.01125 -0.00485
v -0.005116 0.01125 -0.002278
v -0.005346 0.01125 -0.001569
v -0.005116 0.01125 0.002278
v -0.005346 0.01125 0.001569
v -0.005478 0.01125 0.001164
v -0.0056 0.01125 0
v -0.005478 0.01125 -0.001164
v 0.005478 0.01085 -0.001164
v 0.005346 0.01085 -0.001569
v 0.005116 0.01085 -0.002278
v 0.00469 0.01085 -0.003015
v 0.00453 0.01085 -0.003292
v 0.003747 0.01085 -0.004162
v 0.003661 0.01085 -0.004224
v 0.0028 0.01085 -0.00485
v 0.002314 0.01085 -0.005066
v 0.00173 0.01085 -0.005326
v 0.000793 0.01085 -0.005525
v 0.000585 0.01085 -0.005569
v -0.000585 0.01085 -0.005569
v -0.000793 0.01085 -0.005525
v -0.00173 0.01085 -0.005326
v -0.002314 0.01085 -0.005066
v -0.0028 0.01085 -0.00485
v -0.003661 0.01085 -0.004224
v -0.003747 0.01085 -0.004162
v -0.00453 0.01085 -0.003292
v -0.00469 0.01085 -0.003015
v -0.005116 0.01085 -0.002278
v -0.005346 0.01085 -0.001569
v -0.005478 0.01085 -0.001164
v -0.0056 0.01085 0
v -0.0056 0.01125 0
v -0.005478 0.01085 0.001164
v -0.005346 0.01085 0.001569
v -0.005116 0.01085 0.002278
v -0.00469 0.01085 0.003015
v -0.00453 0.01085 0.003292
v -0.003747 0.01085 0.004162
v -0.003661 0.01085 0.004224
v -0.0028 0.01085 0.00485
v -0.002314 0.01085 0.005066
v -0.00173 0.01085 0.005326
v -0.000793 0.01085 0.005525
v -0.000585 0.01085 0.005569
v 0.000585 0.01085 0.005569
v 0.000793 0.01085 0.005525
v 0.00173 0.01085 0.005326
v 0.002314 0.01085 0.005066
v 0.0028 0.01085 0.00485
v 0.003661 0.01085 0.004224
v 0.003747 0.01085 0.004162
v 0.00453 0.01085 0.003292
v 0.00469 0.01085 0.003015
v 0.005116 0.01085 0.002278
v 0.005346 0.01085 0.001569
v 0.005478 0.01085 0.001164
v 0.0056 0.01085 0
v 0.0056 0.01125 0
v -0.005104 0.0108 0.002272
v -0.005465 0.0108 0.001162
v -0.00452 0.0108 0.003284
v -0.003738 0.0108 0.004152
v -0.002793 0.0108 0.004838
v -0.001726 0.0108 0.005313
v -0.000584 0.0108 0.005556
v 0.000584 0.0108 0.005556
v 0.001726 0.0108 0.005313
v 0.002793 0.0108 0.004838
v 0.003738 0.0108 0.004152
v 0.00452 0.0108 0.003284
v 0.005104 0.0108 0.002272
v 0.005465 0.0108 0.001162
v 0.005587 0.0108 0
v 0.0056 0.01085 0
v 0.005465 0.0108 -0.001162
v 0.005104 0.0108 -0.002272
v 0.00452 0.0108 -0.003284
v 0.003738 0.0108 -0.004152
v 0.002793 0.0108 -0.004838
v 0.001726 0.0108 -0.005313
v 0.000584 0.0108 -0.005556
v -0.000584 0.0108 -0.005556
v -0.001726 0.0108 -0.005313
v -0.002793 0.0108 -0.004838
v -0.003738 0.0108 -0.004152
v -0.00452 0.0108 -0.003284
v -0.005104 0.0108 -0.002272
v -0.005465 0.0108 -0.001162
v -0.005587 0.0108 0
v -0.0056 0.01085 0
v -0.005429 0.010763 -0.001154
v -0.00507 0.010763 -0.002257
v -0.00449 0.010763 -0.003262
v -0.003714 0.010763 -0.004124
v -0.002775 0.010763 -0.004806
v -0.001715 0.010763 -0.005278
v -0.00058 0.010763 -0.00552
v 0.00058 0.010763 -0.00552
v 0.001715 0.010763 -0.005278
v 0.002775 0.010763 -0.004806
v 0.003714 0.010763 -0.004124
v 0.00449 0.010763 -0.003262
v 0.00507 0.010763 -0.002257
v 0.005429 0.010763 -0.001154
v 0.00555 0.010763 0
v 0.005429 0.010763 0.001154
v 0.00507 0.010763 0.002257
v 0.00449 0.010763 0.003262
v 0.003714 0.010763 0.004124
v 0.002775 0.010763 0.004806
v 0.001715 0.010763 0.005278
v 0.00058 0.010763 0.00552
v -0.00058 0.010763 0.00552
v -0.001715 0.010763 0.005278
v -0.002775 0.010763 0.004806
v -0.003714 0.010763 0.004124
v -0.00449 0.010763 0.003262
v -0.00507 0.010763 0.002257
v -0.005429 0.010763 0.001154
v -0.00555 0.010763 0
v -0.00538 0.01075 -0.001144
v -0.005025 0.01075 -0.002237
v -0.00445 0.01075 -0.003233
v -0.00368 0.01075 -0.004087
v -0.00275 0.01075 -0.004763
v -0.0017 0.01075 -0.005231
v -0.000575 0.01075 -0.00547
v 0.000575 0.01075 -0.00547
v 0.0017 0.01075 -0.005231
v 0.00275 0.01075 -0.004763
v 0.00368 0.01075 -0.004087
v 0.00445 0.01075 -0.003233
v 0.005025 0.01075 -0.002237
v 0.00538 0.01075 -0.001144
v 0.0055 0.01075 0
v 0.00538 0.01075 0.001144
v 0.005025 0.01075 0.002237
v 0.00445 0.01075 0.003233
v 0.00368 0.01075 0.004087
v 0.00275 0.01075 0.004763
v 0.0017 0.01075 0.005231
v 0.000575 0.01075 0.00547
v -0.000575 0.01075 0.00547
v -0.0017 0.01075 0.005231
v -0.00275 0.01075 0.004763
v -0.00368 0.01075 0.004087
v -0.00445 0.01075 0.003233
v -0.005025 0.01075 0.002237
v -0.00538 0.01075 0.001144
v -0.0055 0.01075 0
v -0.009555 0.01075 0.011455
v 0.007739 0.01075 0.008955
v 0.006345 0.01075 0.008245
v 0.009555 0.01075 0.011455
v 0.008845 0.01075 0.010061
v -0.006345 0.01075 0.008245
v -0.007739 0.01075 0.008955
v -0.008845 0.01075 0.010061
v 0.0048 0.01075 -0.0088
v -0.0048 0.01075 -0.0088
v 0.0048 0.01075 0.008
v -0.0048 0.01075 0.008
v -0.006345 0.01075 -0.008555
v 0.0055 0.01075 0
v -0.009555 0.01075 -0.005345
v -0.008845 0.01075 -0.006739
v -0.007739 0.01075 -0.007845
v -0.0055 0.01075 0
v 0.007739 0.01075 -0.007845
v 0.006345 0.01075 -0.008555
v 0.009555 0.01075 -0.005345
v 0.008845 0.01075 -0.006739
v -0.0068 -0.00955 0.027
v 0.0068 -0.00955 0.027
v 0.009555 -0.01105 0.011455
v 0.008845 -0.01105 0.010061
v -0.008845 -0.01105 0.010061
v -0.009555 -0.01105 0.011455
v 0.0048 -0.01105 0.008
v 0.006345 -0.01105 0.008245
v 0.007739 -0.01105 0.008955
v -0.0048 -0.01105 0.008
v -0.006345 -0.01105 -0.008555
v -0.007739 -0.01105 -0.007845
v 0.009555 -0.01105 -0.005345
v 0.008845 -0.01105 -0.006739
v 0.007739 -0.01105 -0.007845
v -0.007739 -0.01105 0.008955
v -0.006345 -0.01105 0.008245
v -0.009555 -0.01105 -0.005345
v -0.008845 -0.01105 -0.006739
v 0.006345 -0.01105 -0.008555
v 0.0048 -0.01105 -0.0088
v -0.0048 -0.01105 -0.0088
v 0.0048 -0.01355 0.008
v 0.006345 -0.01355 0.008245
v 0.007739 -0.01355 0.008955
v 0.008845 -0.01355 0.010061
v 0.009555 -0.01355 0.011455
v -0.0048 -0.01355 0.008
v -0.006345 -0.01355 0.008245
v -0.007739 -0.01355 0.008955
v -0.008845 -0.01355 0.010061
v -0.009555 -0.01355 0.011455
v 0.007948 -0.00955 0.026772
v 0.008921 -0.00955 0.026121
v 0.009572 -0.00955 0.025148
v -0.007948 -0.00955 0.026772
v -0.008921 -0.00955 0.026121
v -0.009572 -0.00955 0.025148
vn -0.2589 -0.9659 0
vn 0.2589 -0.9659 0
vn 0.7071 -0.7071 0
vn 0.9659 -0.2589 0
vn 0.9659 0.2589 0
vn 0.7071 0.7071 0
vn 0.2589 0.9659 0
vn -0.2589 0.9659 0
vn -0.7071 0.7071 0
vn -0.9659 0.2589 0
vn -0.9659 -0.2589 0
vn -0.7071 -0.7071 0
vn 0 0 1
vn 0 -1 0
vn 0 1 0
vn 1 0 0
vn -1 0 0
vn -0.4144 0.8301 -0.3732
vn 0 0.8301 -0.5576
vn 0.4144 0.8301 0.3732
vn 0 0.8301 0.5576
vn -0.1865 0.9806 -0.0606
vn 0 0.9806 0.1961
vn 0 0.9806 0.1962
vn -0.0408 0.9806 0.1917
vn -0.0408 0.9806 0.1918
vn 0.1457 0.9806 0.1312
vn 0.1153 0.9806 0.1586
vn 0.1153 0.9806 0.1587
vn 0 0.9806 -0.1961
vn 0 0.9806 -0.1962
vn 0.0408 0.9806 -0.1917
vn 0.0408 0.9806 -0.1918
vn -0.1457 0.9806 -0.1312
vn -0.1153 0.9806 -0.1586
vn -0.1153 0.9806 -0.1587
vn -0.195 0.9806 -0.0205
vn 0.1732 0.5534 0.8147
vn 0.1732 0.5535 0.8146
vn 0.1159 0.8301 0.5455
vn 0.0408 0.9806 0.1918
vn 0.7213 0.5535 0.4164
vn 0.483 0.83 0.2788
vn 0.483 0.8301 0.2788
vn 0.1698 0.9806 0.0981
vn 0.1698 0.9806 0.098
vn 0.5546 0.8301 0.0583
vn -0.1732 0.5534 -0.8147
vn -0.1732 0.5535 -0.8146
vn -0.1159 0.8301 -0.5455
vn -0.0408 0.9806 -0.1918
vn -0.7213 0.5535 -0.4164
vn -0.483 0.83 -0.2788
vn -0.483 0.8301 -0.2788
vn -0.1698 0.9806 -0.0981
vn -0.1698 0.9806 -0.098
vn -0.5546 0.8301 -0.0583
vn -0.5546 0.8301 0.0583
vn -0.195 0.9806 0.0205
vn -0.1865 0.9806 0.0606
vn -0.5304 0.8301 0.1723
vn -0.483 0.8301 0.2788
vn -0.7213 0.5535 0.4164
vn -0.6189 0.5534 0.5573
vn -0.619 0.5534 0.5573
vn -0.6189 0.5535 0.5573
vn -0.1457 0.9806 0.1312
vn -0.1153 0.9806 0.1587
vn -0.3278 0.8301 0.4512
vn -0.2268 0.8301 0.5094
vn -0.3388 0.5535 0.7608
vn -0.3388 0.5535 0.7609
vn -0.1732 0.5535 0.8146
vn -0.1732 0.5535 0.8147
vn -0.1153 0.9806 0.1586
vn -0.0798 0.9806 0.1792
vn -0.0798 0.9806 0.1791
vn -0.2268 0.8301 0.5095
vn -0.1159 0.8301 0.5455
vn 0 0.5535 0.8329
vn 0 0.1941 0.981
vn 0.204 0.1941 0.9595
vn 0.4896 0.5535 0.6738
vn 0.4896 0.5534 0.6738
vn 0.8496 0.1941 0.4905
vn 0.8496 0.194 0.4905
vn 0.729 0.1941 0.6564
vn 0.6189 0.5535 0.5573
vn 0.3278 0.83 0.4512
vn 0.8283 0.5535 0.0871
vn 0.8283 0.5535 -0.0871
vn 0.1865 0.9806 0.0606
vn 0.195 0.9806 0.0205
vn 0.5546 0.8301 -0.0583
vn 0.7921 0.5535 -0.2574
vn 0.195 0.9806 -0.0205
vn 0.1865 0.9806 -0.0606
vn 0.5304 0.8301 -0.1723
vn 0.483 0.8301 -0.2788
vn 0.7213 0.5535 -0.4164
vn 0.6189 0.5534 -0.5573
vn 0.619 0.5534 -0.5573
vn 0.6189 0.5535 -0.5573
vn 0.1457 0.9806 -0.1312
vn 0.1153 0.9806 -0.1587
vn 0.3278 0.8301 -0.4512
vn 0.2268 0.8301 -0.5094
vn 0.3388 0.5535 -0.7608
vn 0.3388 0.5535 -0.7609
vn 0.1732 0.5535 -0.8146
vn 0.1732 0.5535 -0.8147
vn 0.1153 0.9806 -0.1586
vn 0.0798 0.9806 -0.1792
vn 0.0798 0.9806 -0.1791
vn 0.2268 0.8301 -0.5095
vn 0.1159 0.8301 -0.5455
vn 0 0.5535 -0.8329
vn 0 0.1941 -0.981
vn -0.204 0.1941 -0.9595
vn -0.4896 0.5535 -0.6738
vn -0.4896 0.5534 -0.6738
vn -0.8496 0.1941 -0.4905
vn -0.8496 0.194 -0.4905
vn -0.729 0.1941 -0.6564
vn -0.6189 0.5535 -0.5573
vn -0.3278 0.83 -0.4512
vn -0.8283 0.5535 -0.0871
vn -0.8283 0.5535 0.0871
vn -0.7921 0.5535 0.2574
vn -0.7213 0.5535 0.4165
vn -0.8495 0.1942 0.4905
vn -0.8496 0.1941 0.4905
vn -0.8495 0.1941 0.4905
vn -0.399 0.1941 0.8962
vn -0.5766 0.1941 0.7937
vn -0.5766 0.1941 0.7936
vn -0.4895 0.5535 0.6738
vn -0.619 0.5535 0.5573
vn -0.4144 0.8301 0.3732
vn -0.1698 0.9806 0.0981
vn -0.729 0.1941 0.6564
vn -0.3278 0.83 0.4512
vn -0.4896 0.5535 0.6738
vn -0.204 0.1941 0.9595
vn -0.0408 0.9806 0.1919
vn -0.1159 0.83 0.5455
vn 0 0.8301 0.5577
vn 0.0798 0.9806 0.1791
vn 0.0798 0.9806 0.1792
vn 0.2268 0.8301 0.5094
vn 0.2268 0.8301 0.5095
vn 0.3388 0.5535 0.7608
vn 0.3388 0.5535 0.7609
vn 0.3388 0.5534 0.7609
vn 0.399 0.1941 0.8962
vn 0.5766 0.1941 0.7936
vn 0.5766 0.194 0.7937
vn 0.3278 0.8301 0.4512
vn 0.619 0.5535 0.5573
vn 0.7213 0.5535 0.4165
vn 0.8495 0.1941 0.4905
vn 0.5304 0.8301 0.1723
vn 0.7921 0.5535 0.2574
vn 0.933 0.1942 0.3031
vn 0.933 0.194 0.3031
vn 0.933 0.1941 0.3031
vn 0.8495 0.1941 -0.4905
vn 0.8495 0.1942 -0.4905
vn 0.933 0.1942 -0.3031
vn 0.933 0.194 -0.3031
vn 0.9756 0.1941 -0.1024
vn 0.9756 0.1941 -0.1025
vn 0.9756 0.1941 0.1025
vn 0.7213 0.5535 -0.4165
vn 0.8496 0.1941 -0.4905
vn 0.399 0.1941 -0.8962
vn 0.5766 0.1941 -0.7937
vn 0.5766 0.1941 -0.7936
vn 0.4895 0.5535 -0.6738
vn 0.619 0.5535 -0.5573
vn 0.4144 0.8301 -0.3732
vn 0.1698 0.9806 -0.0981
vn 0.729 0.1941 -0.6564
vn 0.3278 0.83 -0.4512
vn 0.4896 0.5535 -0.6738
vn 0.204 0.1941 -0.9595
vn 0.0408 0.9806 -0.1919
vn 0.1159 0.83 -0.5455
vn 0 0.8301 -0.5577
vn -0.0798 0.9806 -0.1791
vn -0.0798 0.9806 -0.1792
vn -0.2268 0.8301 -0.5094
vn -0.2268 0.8301 -0.5095
vn -0.3388 0.5535 -0.7608
vn -0.3388 0.5535 -0.7609
vn -0.3388 0.5534 -0.7609
vn -0.399 0.1941 -0.8962
vn -0.5766 0.1941 -0.7936
vn -0.5766 0.194 -0.7937
vn -0.3278 0.8301 -0.4512
vn -0.619 0.5535 -0.5573
vn -0.7213 0.5535 -0.4165
vn -0.8495 0.1941 -0.4905
vn -0.5304 0.8301 -0.1723
vn -0.7921 0.5535 -0.2574
vn -0.933 0.1942 -0.3031
vn -0.933 0.194 -0.3031
vn -0.933 0.1942 0.3031
vn -0.933 0.1941 0.3031
vn -0.933 0.194 0.3031
vn -0.9756 0.1941 0.1024
vn -0.9756 0.1941 0.1025
vn -0.9756 0.1941 -0.1025
vn 0.9511 0 -0.309
vn 0.951 0 -0.3092
vn 0.9511 0 -0.3089
vn 0.866 0 -0.5
vn 0.8659 0 -0.5001
vn 0.8659 0 -0.5003
vn 0.8659 0 -0.5002
vn 0.7433 0 -0.669
vn 0.5878 0 -0.809
vn 0.5877 0 -0.809
vn 0.5881 0 -0.8088
vn 0.4066 0 -0.9136
vn 0.4064 0 -0.9137
vn 0.4067 0 -0.9136
vn 0.2077 0 -0.9782
vn 0.2078 0 -0.9782
vn 0.2079 0 -0.9782
vn 0 0 -1
vn -0.2079 0 -0.9782
vn -0.2079 0 -0.9781
vn -0.2077 0 -0.9782
vn -0.4067 0 -0.9136
vn -0.4064 0 -0.9137
vn -0.4066 0 -0.9136
vn -0.5881 0 -0.8088
vn -0.5878 0 -0.809
vn -0.7433 0 -0.669
vn -0.8659 0 -0.5002
vn -0.8658 0 -0.5003
vn -0.8659 0 -0.5003
vn -0.866 0 -0.5
vn -0.9511 0 -0.3089
vn -0.9512 0 -0.3086
vn -0.951 0 -0.3092
vn -0.9511 0 -0.309
vn -0.9946 0 -0.1042
vn -0.9945 0 -0.1046
vn -0.9945 0 -0.1047
vn -0.9946 0 0.1042
vn -0.9945 0 0.1046
vn -0.9945 0 0.1047
vn -0.9511 0 0.309
vn -0.951 0 0.3092
vn -0.9511 0 0.3089
vn -0.866 0 0.5
vn -0.8659 0 0.5001
vn -0.8659 0 0.5003
vn -0.8659 0 0.5002
vn -0.7433 0 0.669
vn -0.5878 0 0.809
vn -0.5881 0 0.8088
vn -0.4066 0 0.9136
vn -0.4064 0 0.9137
vn -0.4067 0 0.9136
vn -0.2077 0 0.9782
vn -0.2078 0 0.9782
vn -0.2079 0 0.9782
vn 0.2079 0 0.9782
vn 0.2079 0 0.9781
vn 0.2077 0 0.9782
vn 0.4067 0 0.9136
vn 0.4064 0 0.9137
vn 0.4066 0 0.9136
vn 0.5881 0 0.8088
vn 0.5878 0 0.809
vn 0.7433 0 0.669
vn 0.8659 0 0.5002
vn 0.8658 0 0.5003
vn 0.8659 0 0.5003
vn 0.866 0 0.5
vn 0.9511 0 0.3089
vn 0.9512 0 0.3086
vn 0.951 0 0.3092
vn 0.9511 0 0.309
vn 0.9946 0 0.1042
vn 0.9945 0 0.1046
vn 0.9945 0 0.1047
vn 0.9946 0 -0.1042
vn 0.9945 0 -0.1046
vn 0.9945 0 -0.1047
vn -0.919 -0.2574 0.2986
vn -0.919 -0.2575 0.2986
vn -0.8368 -0.2575 0.4831
vn -0.8369 -0.2575 0.4831
vn -0.7181 -0.2575 0.6466
vn -0.7181 -0.2577 0.6465
vn -0.7181 -0.2576 0.6465
vn -0.568 -0.2575 0.7817
vn -0.393 -0.2575 0.8827
vn -0.393 -0.2576 0.8827
vn -0.2008 -0.2575 0.9452
vn -0.2009 -0.2575 0.9452
vn 0 -0.2575 0.9663
vn 0.2009 -0.2575 0.9452
vn 0.393 -0.2575 0.8827
vn 0.568 -0.2575 0.7817
vn 0.7181 -0.2575 0.6466
vn 0.718 -0.2576 0.6466
vn 0.7181 -0.2575 0.6465
vn 0.8368 -0.2575 0.4831
vn 0.919 -0.2574 0.2986
vn 0.919 -0.2575 0.2986
vn 0.961 -0.2575 0.101
vn 0.961 -0.2575 0.1009
vn 0.961 -0.2575 -0.101
vn 0.919 -0.2575 -0.2986
vn 0.919 -0.2574 -0.2986
vn 0.8368 -0.2575 -0.4831
vn 0.8369 -0.2575 -0.4831
vn 0.7181 -0.2575 -0.6466
vn 0.7181 -0.2577 -0.6465
vn 0.7181 -0.2576 -0.6465
vn 0.568 -0.2575 -0.7817
vn 0.393 -0.2575 -0.8827
vn 0.393 -0.2576 -0.8827
vn 0.2008 -0.2575 -0.9452
vn 0.2009 -0.2575 -0.9452
vn 0 -0.2575 -0.9663
vn -0.2009 -0.2575 -0.9452
vn -0.393 -0.2575 -0.8827
vn -0.568 -0.2575 -0.7817
vn -0.7181 -0.2575 -0.6466
vn -0.718 -0.2576 -0.6466
vn -0.7181 -0.2575 -0.6465
vn -0.8368 -0.2575 -0.4831
vn -0.919 -0.2575 -0.2986
vn -0.919 -0.2574 -0.2986
vn -0.961 -0.2575 -0.101
vn -0.961 -0.2575 -0.1009
vn -0.961 -0.2575 0.101
vn -0.6743 -0.7052 -0.2191
vn -0.614 -0.7052 -0.3545
vn -0.6141 -0.7052 -0.3545
vn -0.5269 -0.7052 -0.4745
vn -0.5269 -0.7052 -0.4744
vn -0.4168 -0.7052 -0.5736
vn -0.4168 -0.7051 -0.5736
vn -0.2884 -0.7052 -0.6477
vn -0.1474 -0.7052 -0.6935
vn -0.1474 -0.7051 -0.6936
vn 0 -0.7052 -0.709
vn 0 -0.7052 -0.7091
vn 0.1474 -0.7052 -0.6935
vn 0.1474 -0.7052 -0.6936
vn 0.1474 -0.7051 -0.6936
vn 0.2884 -0.7051 -0.6478
vn 0.2884 -0.7052 -0.6477
vn 0.4168 -0.7052 -0.5735
vn 0.4168 -0.7052 -0.5736
vn 0.5269 -0.7052 -0.4745
vn 0.5269 -0.7052 -0.4744
vn 0.614 -0.7052 -0.3545
vn 0.6141 -0.7052 -0.3545
vn 0.6743 -0.7052 -0.2191
vn 0.7052 -0.7051 -0.0741
vn 0.7052 -0.7051 -0.0739
vn 0.7052 -0.7052 -0.0739
vn 0.7052 -0.7052 0.074
vn 0.7052 -0.7051 0.074
vn 0.7051 -0.7052 0.0741
vn 0.6743 -0.7052 0.2191
vn 0.614 -0.7052 0.3545
vn 0.6141 -0.7052 0.3545
vn 0.5269 -0.7052 0.4745
vn 0.5269 -0.7052 0.4744
vn 0.4168 -0.7052 0.5736
vn 0.4168 -0.7051 0.5736
vn 0.2884 -0.7052 0.6477
vn 0.1474 -0.7052 0.6935
vn 0.1474 -0.7051 0.6936
vn 0 -0.7052 0.709
vn 0 -0.7052 0.7091
vn -0.1474 -0.7052 0.6935
vn -0.1474 -0.7052 0.6936
vn -0.1474 -0.7051 0.6936
vn -0.2884 -0.7051 0.6478
vn -0.2884 -0.7052 0.6477
vn -0.4168 -0.7052 0.5735
vn -0.4168 -0.7052 0.5736
vn -0.5269 -0.7052 0.4745
vn -0.5269 -0.7052 0.4744
vn -0.614 -0.7052 0.3545
vn -0.6141 -0.7052 0.3545
vn -0.6743 -0.7052 0.2191
vn -0.7052 -0.7051 0.0741
vn -0.7052 -0.7051 0.0739
vn -0.7052 -0.7052 0.0739
vn -0.7052 -0.7052 -0.074
vn -0.7052 -0.7051 -0.074
vn -0.7051 -0.7052 -0.0741
vn -0.2474 -0.9656 -0.0804
vn -0.2253 -0.9656 -0.13
vn -0.2253 -0.9656 -0.1301
vn -0.1933 -0.9656 -0.1741
vn -0.1529 -0.9656 -0.2104
vn -0.1529 -0.9656 -0.2105
vn -0.1058 -0.9656 -0.2377
vn -0.1058 -0.9656 -0.2376
vn -0.0541 -0.9656 -0.2544
vn 0 -0.9656 -0.2601
vn 0 -0.9656 -0.2602
vn 0.0541 -0.9656 -0.2544
vn 0.0541 -0.9656 -0.2545
vn 0.1058 -0.9656 -0.2376
vn 0.1058 -0.9656 -0.2377
vn 0.1529 -0.9656 -0.2104
vn 0.1529 -0.9656 -0.2105
vn 0.1933 -0.9656 -0.1741
vn 0.2253 -0.9656 -0.1301
vn 0.2252 -0.9656 -0.1301
vn 0.2474 -0.9656 -0.0804
vn 0.2473 -0.9656 -0.0804
vn 0.2587 -0.9656 -0.0272
vn 0.2587 -0.9656 0.0272
vn 0.2474 -0.9656 0.0804
vn 0.2253 -0.9656 0.13
vn 0.2253 -0.9656 0.1301
vn 0.1933 -0.9656 0.1741
vn 0.1529 -0.9656 0.2104
vn 0.1529 -0.9656 0.2105
vn 0.1058 -0.9656 0.2377
vn 0.1058 -0.9656 0.2376
vn 0.0541 -0.9656 0.2544
vn 0 -0.9656 0.2601
vn 0 -0.9656 0.2602
vn -0.0541 -0.9656 0.2544
vn -0.0541 -0.9656 0.2545
vn -0.1058 -0.9656 0.2376
vn -0.1058 -0.9656 0.2377
vn -0.1529 -0.9656 0.2104
vn -0.1529 -0.9656 0.2105
vn -0.1933 -0.9656 0.1741
vn -0.2253 -0.9656 0.1301
vn -0.2252 -0.9656 0.1301
vn -0.2474 -0.9656 0.0804
vn -0.2473 -0.9656 0.0804
vn -0.2587 -0.9656 0.0272
vn -0.2587 -0.9656 -0.0272
vn -0.1566 0 -0.9877
vn -0.1563 0 -0.9877
vn -0.4538 0 -0.8911
vn -0.4541 0 -0.8909
vn -0.7071 0 -0.7071
vn -0.8911 0 -0.4538
vn -0.8909 0 -0.4541
vn -0.9877 0 -0.1563
vn -0.9877 0 -0.1566
vn 0.1566 0 -0.9877
vn 0.1563 0 -0.9877
vn 0.4538 0 -0.8911
vn 0.4539 0 -0.8911
vn 0.7071 0 -0.7071
vn 0.8911 0 -0.4538
vn 0.8909 0 -0.4541
vn 0.9877 0 -0.1566
vn 0.9877 0 -0.1563
vn 0.4541 0 -0.8909
vn -0.9877 0 -0.1561
vn 0.9808 0 0.1951
vn 0.9807 0 0.1953
vn 0.8313 0 0.5558
vn 0.8314 0 0.5557
vn 0.5557 0 0.8314
vn 0.5556 0 0.8314
vn 0.1953 0 0.9807
vn 0.1948 0 0.9808
vn -0.1953 0 0.9807
vn -0.1948 0 0.9808
vn -0.5557 0 0.8314
vn -0.5556 0 0.8314
vn -0.8313 0 0.5558
vn -0.8314 0 0.5557
vn -0.9807 0 0.1953
vn -0.9808 0 0.1951
usemtl black_metal
s 1
f 3//1 2//1 1//1
f 4//2 2//2 3//2
f 5//2 4//2 3//2
f 6//3 4//3 5//3
f 7//3 6//3 5//3
f 8//4 6//4 7//4
f 9//4 8//4 7//4
f 10//5 8//5 9//5
f 11//5 10//5 9//5
f 12//6 10//6 11//6
f 13//6 12//6 11//6
f 14//7 12//7 13//7
f 15//7 14//7 13//7
f 16//8 14//8 15//8
f 17//8 16//8 15//8
f 18//9 16//9 17//9
f 19//9 18//9 17//9
f 20//10 18//10 19//10
f 21//10 20//10 19//10
f 22//11 20//11 21//11
f 23//11 22//11 21//11
f 24//12 22//12 23//12
f 1//12 24//12 23//12
f 2//1 24//1 1//1
f 6//13 25//13 4//13
f 24//13 25//13 6//13
f 8//13 24//13 6//13
f 10//13 24//13 8//13
f 18//13 20//13 22//13
f 12//13 24//13 10//13
f 22//13 24//13 12//13
f 14//13 22//13 12//13
f 18//13 22//13 14//13
f 16//13 18//13 14//13
f 28//14 27//14 26//14
f 26//14 29//14 28//14
f 30//14 29//14 26//14
f 31//14 30//14 26//14
f 34//14 33//14 32//14
f 32//14 35//14 34//14
f 36//14 35//14 32//14
f 37//14 36//14 32//14
f 40//15 39//15 38//15
f 41//15 39//15 40//15
f 44//15 43//15 42//15
f 45//15 43//15 44//15
f 46//15 45//15 44//15
f 49//15 48//15 47//15
f 50//15 48//15 49//15
f 51//15 50//15 49//15
f 40//15 50//15 51//15
f 44//15 40//15 51//15
f 41//15 40//15 44//15
f 42//15 41//15 44//15
f 54//16 53//16 52//16
f 55//16 53//16 54//16
f 56//16 55//16 54//16
f 32//16 55//16 56//16
f 38//16 55//16 32//16
f 33//16 38//16 32//16
f 40//16 38//16 33//16
f 54//16 40//16 33//16
f 57//16 40//16 54//16
f 52//16 57//16 54//16
f 58//16 57//16 52//16
f 59//16 58//16 52//16
f 31//17 41//17 60//17
f 39//17 41//17 31//17
f 26//17 39//17 31//17
f 61//17 39//17 26//17
f 62//17 39//17 61//17
f 63//17 62//17 61//17
f 64//17 62//17 63//17
f 65//17 64//17 63//17
f 65//17 67//17 66//17
f 60//17 67//17 65//17
f 63//17 60//17 65//17
f 31//17 60//17 63//17
f 70//15 69//15 68//15
f 71//15 69//15 70//15
f 74//15 73//15 72//15
f 77//15 76//15 75//15
f 78//15 76//15 77//15
f 74//15 79//15 73//15
f 78//15 79//15 74//15
f 80//15 78//15 74//15
f 76//15 78//15 80//15
f 69//15 82//15 81//15
f 69//15 83//15 68//15
f 84//15 83//15 69//15
f 85//15 84//15 69//15
f 69//15 74//15 72//15
f 86//15 74//15 69//15
f 81//15 86//15 69//15
f 69//15 87//15 82//15
f 88//15 87//15 69//15
f 71//15 88//15 69//15
f 69//15 89//15 85//15
f 90//15 89//15 69//15
f 91//15 90//15 69//15
f 69//15 92//15 91//15
f 93//15 92//15 69//15
f 94//15 93//15 69//15
f 69//15 95//15 94//15
f 96//15 95//15 69//15
f 97//15 96//15 69//15
f 100//18 99//18 98//18
f 103//19 102//19 101//19
f 106//20 105//20 104//20
f 109//21 108//21 107//21
f 110//22 81//22 82//22
f 79//24 108//24 73//23
f 107//24 108//24 79//24
f 78//26 107//26 79//25
f 97//27 105//27 96//27
f 104//27 105//27 97//27
f 69//29 104//28 97//28
f 83//31 102//31 68//30
f 101//31 102//31 83//31
f 84//33 101//33 83//32
f 88//34 99//34 87//34
f 98//34 99//34 88//34
f 71//36 98//35 88//35
f 111//37 81//37 110//37
f 113//39 109//38 112//38
f 108//40 109//40 113//40
f 114//40 108//40 113//40
f 73//41 108//41 114//41
f 72//41 73//41 114//41
f 116//42 106//42 115//42
f 105//43 106//44 116//43
f 117//43 105//43 116//43
f 96//46 105//45 117//45
f 95//46 96//46 117//45
f 120//47 119//47 118//47
f 122//49 103//48 121//48
f 102//50 103//50 122//50
f 123//50 102//50 122//50
f 68//51 102//51 123//51
f 70//51 68//51 123//51
f 125//52 100//52 124//52
f 99//53 100//54 125//53
f 126//53 99//53 125//53
f 87//56 99//55 126//55
f 82//56 87//56 126//55
f 128//57 110//57 127//57
f 111//57 110//57 128//57
f 129//58 111//58 128//58
f 131//59 74//59 130//59
f 132//60 74//60 131//60
f 133//61 132//61 131//61
f 134//62 132//62 133//62
f 135//63 134//63 133//63
f 136//66 134//65 135//64
f 137//67 75//67 76//67
f 138//68 75//68 137//68
f 139//69 138//69 137//69
f 140//70 138//70 139//70
f 141//72 140//71 139//71
f 142//74 140//74 141//73
f 138//68 77//75 75//68
f 143//77 77//77 138//76
f 140//70 143//78 138//70
f 144//79 143//79 140//79
f 142//74 144//74 140//74
f 145//80 144//80 142//80
f 146//81 145//81 142//81
f 147//82 145//82 146//82
f 150//83 149//84 148//83
f 153//86 152//85 151//85
f 148//87 152//87 153//87
f 154//88 148//88 153//88
f 150//83 148//83 154//83
f 155//89 150//89 154//89
f 157//90 119//90 156//90
f 118//90 119//90 157//90
f 158//91 118//91 157//91
f 120//92 94//92 95//92
f 159//93 94//93 120//93
f 118//47 159//47 120//47
f 160//94 159//94 118//94
f 158//91 160//91 118//91
f 161//95 160//95 158//95
f 163//96 92//96 162//96
f 164//97 92//97 163//97
f 165//98 164//98 163//98
f 166//99 164//99 165//99
f 167//100 166//100 165//100
f 168//103 166//102 167//101
f 169//104 89//104 90//104
f 170//105 89//105 169//105
f 171//106 170//106 169//106
f 172//107 170//107 171//107
f 173//109 172//108 171//108
f 174//111 172//111 173//110
f 170//105 85//112 89//105
f 175//114 85//114 170//113
f 172//107 175//115 170//107
f 176//116 175//116 172//116
f 174//111 176//111 172//111
f 177//117 176//117 174//117
f 178//118 177//118 174//118
f 179//119 177//119 178//119
f 182//120 181//121 180//120
f 185//123 184//122 183//122
f 180//124 184//124 185//124
f 186//125 180//125 185//125
f 182//120 180//120 186//120
f 187//126 182//126 186//126
f 189//127 127//127 188//127
f 128//127 127//127 189//127
f 190//128 128//128 189//128
f 129//128 128//128 190//128
f 191//129 129//129 190//129
f 111//37 130//37 81//37
f 131//59 130//59 111//59
f 129//58 131//58 111//58
f 133//61 131//61 129//61
f 191//129 133//129 129//129
f 135//63 133//63 191//130
f 192//133 135//132 191//131
f 195//134 194//134 193//134
f 136//136 194//136 195//135
f 196//137 136//137 195//137
f 134//65 136//66 196//138
f 197//139 134//139 196//139
f 132//62 134//62 197//62
f 80//140 132//140 197//140
f 74//60 132//60 80//60
f 136//136 198//136 194//136
f 199//136 198//136 136//136
f 135//141 199//141 136//141
f 200//141 199//141 135//141
f 192//133 200//132 135//132
f 197//140 76//140 80//140
f 137//67 76//67 197//67
f 196//139 137//139 197//139
f 139//69 137//69 196//142
f 195//137 139//143 196//137
f 141//72 139//71 195//72
f 193//134 141//134 195//134
f 142//81 201//81 146//81
f 202//144 201//144 142//144
f 141//144 202//144 142//144
f 203//144 202//144 141//144
f 193//134 203//134 141//134
f 143//77 78//77 77//77
f 107//26 78//26 143//145
f 144//79 107//146 143//79
f 109//21 107//21 144//147
f 145//80 109//80 144//80
f 112//38 109//38 145//38
f 147//82 112//82 145//82
f 204//82 112//82 147//82
f 114//149 155//148 72//148
f 150//150 155//151 114//150
f 113//150 150//150 114//150
f 149//153 150//153 113//152
f 112//154 149//153 113//152
f 205//155 149//155 112//155
f 204//155 205//155 112//155
f 148//87 206//87 152//87
f 207//157 206//156 148//156
f 149//156 207//157 148//156
f 208//156 207//157 149//156
f 205//155 208//155 149//155
f 155//148 69//148 72//148
f 104//28 69//29 155//29
f 154//89 104//158 155//89
f 106//20 104//20 154//20
f 153//88 106//159 154//88
f 115//42 106//42 153//160
f 151//85 115//161 153//86
f 209//161 115//161 151//85
f 117//92 120//92 95//92
f 119//162 120//162 117//162
f 116//162 119//162 117//162
f 156//163 119//163 116//163
f 115//163 156//163 116//163
f 210//166 156//165 115//164
f 209//164 210//166 115//164
f 161//168 212//167 211//167
f 213//170 212//169 161//169
f 158//170 213//170 161//169
f 214//170 213//170 158//170
f 157//172 214//172 158//171
f 215//172 214//172 157//172
f 156//173 215//173 157//173
f 216//173 215//173 156//173
f 210//166 216//165 156//165
f 159//93 162//93 94//93
f 163//96 162//96 159//96
f 160//94 163//94 159//94
f 165//98 163//98 160//98
f 161//95 165//95 160//95
f 167//100 165//100 161//174
f 211//167 167//175 161//168
f 219//176 218//176 217//176
f 168//178 218//178 219//177
f 220//179 168//179 219//179
f 166//102 168//103 220//180
f 221//181 166//181 220//181
f 164//99 166//99 221//99
f 91//182 164//182 221//182
f 92//97 164//97 91//97
f 168//178 222//178 218//178
f 223//178 222//178 168//178
f 167//183 223//183 168//183
f 224//183 223//183 167//183
f 211//167 224//175 167//175
f 221//182 90//182 91//182
f 169//104 90//104 221//104
f 220//181 169//181 221//181
f 171//106 169//106 220//184
f 219//179 171//185 220//179
f 173//109 171//108 219//109
f 217//176 173//176 219//176
f 174//118 225//118 178//118
f 226//186 225//186 174//186
f 173//186 226//186 174//186
f 227//186 226//186 173//186
f 217//176 227//176 173//176
f 175//114 84//114 85//114
f 101//33 84//33 175//187
f 176//116 101//188 175//116
f 103//19 101//19 176//189
f 177//117 103//117 176//117
f 121//48 103//48 177//48
f 179//119 121//119 177//119
f 228//119 121//119 179//119
f 123//191 187//190 70//190
f 182//192 187//193 123//192
f 122//192 182//192 123//192
f 181//195 182//195 122//194
f 121//196 181//195 122//194
f 229//197 181//197 121//197
f 228//197 229//197 121//197
f 180//124 230//124 184//124
f 231//199 230//198 180//198
f 181//198 231//199 180//198
f 232//198 231//199 181//198
f 229//197 232//197 181//197
f 187//190 71//190 70//190
f 98//35 71//36 187//36
f 186//126 98//200 187//126
f 100//18 98//18 186//18
f 185//125 100//201 186//125
f 124//52 100//52 185//202
f 183//122 124//203 185//123
f 233//203 124//203 183//122
f 126//22 110//22 82//22
f 127//204 110//204 126//204
f 125//204 127//204 126//204
f 188//205 127//205 125//205
f 124//205 188//205 125//205
f 234//207 188//207 124//206
f 233//206 234//207 124//206
f 191//131 235//133 192//133
f 236//209 235//208 191//208
f 190//210 236//209 191//208
f 237//210 236//209 190//210
f 189//212 237//212 190//211
f 238//212 237//212 189//212
f 188//213 238//213 189//213
f 239//213 238//213 188//213
f 234//207 239//207 188//207
f 241//215 214//214 240//214
f 213//215 214//214 241//215
f 242//214 213//215 241//215
f 212//216 213//215 242//214
f 243//219 212//218 242//217
f 211//219 212//218 243//219
f 244//220 211//219 243//219
f 224//220 211//219 244//220
f 245//221 224//221 244//221
f 223//221 224//221 245//221
f 246//223 223//222 245//222
f 222//222 223//222 246//223
f 247//224 222//222 246//223
f 218//224 222//222 247//224
f 248//226 218//225 247//225
f 217//226 218//225 248//226
f 249//227 217//226 248//226
f 227//227 217//226 249//227
f 250//229 227//228 249//228
f 226//229 227//228 250//229
f 251//230 226//229 250//229
f 225//230 226//229 251//230
f 252//231 225//231 251//231
f 178//231 225//231 252//231
f 253//233 178//232 252//232
f 179//233 178//232 253//233
f 254//234 179//233 253//233
f 228//234 179//233 254//234
f 255//236 228//235 254//235
f 229//236 228//235 255//236
f 256//237 229//236 255//236
f 232//236 229//236 256//237
f 257//239 232//238 256//238
f 231//239 232//238 257//239
f 258//239 231//239 257//239
f 230//239 231//239 258//239
f 259//240 230//240 258//240
f 184//240 230//240 259//240
f 260//242 184//241 259//241
f 183//243 184//241 260//242
f 261//244 183//243 260//242
f 233//244 183//243 261//244
f 262//247 233//246 261//245
f 234//245 233//246 262//247
f 263//248 234//245 262//247
f 239//248 234//245 263//248
f 264//250 239//249 263//249
f 265//251 239//249 264//250
f 266//253 265//252 264//252
f 237//254 265//252 266//253
f 267//256 237//255 266//255
f 236//256 237//255 267//256
f 268//255 236//256 267//256
f 235//257 236//256 268//255
f 269//260 235//259 268//258
f 192//260 235//259 269//260
f 270//261 192//260 269//260
f 200//261 192//260 270//261
f 271//262 200//262 270//262
f 199//262 200//262 271//262
f 272//263 199//263 271//263
f 198//263 199//263 272//263
f 273//264 198//263 272//263
f 194//264 198//263 273//264
f 274//266 194//265 273//265
f 193//266 194//265 274//266
f 275//267 193//266 274//266
f 203//267 193//266 275//267
f 276//269 203//268 275//268
f 202//269 203//268 276//269
f 277//270 202//269 276//269
f 201//270 202//269 277//270
f 278//13 201//13 277//13
f 146//13 201//13 278//13
f 279//272 146//271 278//271
f 147//272 146//271 279//272
f 280//273 147//272 279//272
f 204//273 147//272 280//273
f 281//275 204//274 280//274
f 205//275 204//274 281//275
f 282//276 205//275 281//275
f 208//275 205//275 282//276
f 283//278 208//277 282//277
f 207//278 208//277 283//278
f 284//278 207//278 283//278
f 206//278 207//278 284//278
f 285//279 206//279 284//279
f 152//279 206//279 285//279
f 286//281 152//280 285//280
f 151//282 152//280 286//281
f 287//283 151//282 286//281
f 209//283 151//282 287//283
f 288//286 209//285 287//284
f 210//284 209//285 288//286
f 289//287 210//284 288//286
f 216//287 210//284 289//287
f 290//289 216//288 289//288
f 291//290 216//288 290//289
f 240//292 291//291 290//291
f 214//293 291//291 240//292
f 267//295 293//295 292//294
f 292//294 268//294 267//295
f 269//296 268//297 292//296
f 294//296 269//296 292//296
f 270//296 269//296 294//296
f 295//299 270//298 294//298
f 295//299 271//300 270//298
f 272//301 271//301 295//301
f 296//301 272//301 295//301
f 296//301 273//301 272//301
f 274//302 273//302 296//302
f 297//303 274//302 296//302
f 297//303 275//302 274//302
f 276//305 275//305 297//304
f 298//305 276//305 297//304
f 277//305 276//305 298//305
f 299//306 277//306 298//306
f 299//306 278//306 277//306
f 279//307 278//307 299//307
f 300//307 279//307 299//307
f 300//307 280//307 279//307
f 281//308 280//308 300//308
f 301//308 281//308 300//308
f 282//308 281//308 301//308
f 302//309 282//309 301//309
f 302//309 283//309 282//309
f 284//309 283//309 302//309
f 303//310 284//311 302//310
f 303//310 285//312 284//311
f 286//313 285//313 303//313
f 304//313 286//313 303//313
f 304//313 287//313 286//313
f 288//315 287//314 304//314
f 305//315 288//315 304//314
f 289//315 288//315 305//315
f 306//316 289//316 305//316
f 307//317 289//316 306//316
f 308//318 307//318 306//318
f 308//318 240//318 307//318
f 241//319 240//319 308//319
f 309//320 241//319 308//319
f 309//320 242//320 241//319
f 243//321 242//322 309//321
f 310//321 243//321 309//321
f 244//321 243//321 310//321
f 311//324 244//323 310//323
f 311//324 245//325 244//323
f 246//326 245//326 311//326
f 312//326 246//326 311//326
f 312//326 247//326 246//326
f 248//327 247//327 312//327
f 313//328 248//327 312//327
f 313//328 249//327 248//327
f 250//330 249//330 313//329
f 314//330 250//330 313//329
f 251//330 250//330 314//330
f 315//331 251//331 314//331
f 315//331 252//331 251//331
f 253//332 252//332 315//332
f 316//332 253//332 315//332
f 316//332 254//332 253//332
f 255//333 254//333 316//333
f 317//333 255//333 316//333
f 256//333 255//333 317//333
f 318//334 256//334 317//334
f 318//334 257//334 256//334
f 258//334 257//334 318//334
f 319//335 258//336 318//335
f 319//335 259//337 258//336
f 260//338 259//338 319//338
f 320//338 260//338 319//338
f 320//338 261//338 260//338
f 262//339 261//340 320//339
f 321//339 262//339 320//339
f 263//339 262//339 321//339
f 322//341 263//341 321//341
f 323//342 263//341 322//341
f 293//343 323//343 322//343
f 266//343 323//343 293//343
f 267//295 266//295 293//295
f 320//344 324//344 321//344
f 325//344 324//344 320//344
f 319//345 325//346 320//345
f 326//345 325//346 319//345
f 318//347 326//348 319//347
f 327//348 326//348 318//347
f 317//349 327//350 318//349
f 328//349 327//350 317//349
f 316//351 328//351 317//351
f 329//351 328//351 316//351
f 315//353 329//353 316//352
f 330//353 329//353 315//353
f 314//354 330//354 315//354
f 331//355 330//354 314//354
f 313//358 331//357 314//356
f 332//358 331//357 313//358
f 312//360 332//360 313//359
f 333//360 332//360 312//360
f 311//362 333//362 312//361
f 334//362 333//362 311//362
f 310//364 334//364 311//363
f 335//364 334//364 310//364
f 309//365 335//365 310//365
f 336//366 335//365 309//365
f 308//367 336//367 309//367
f 337//367 336//367 308//367
f 306//369 337//368 308//368
f 338//370 337//368 306//369
f 305//373 338//372 306//371
f 339//373 338//372 305//373
f 304//374 339//374 305//374
f 340//374 339//374 304//374
f 303//375 340//376 304//375
f 341//375 340//376 303//375
f 302//377 341//378 303//377
f 342//378 341//378 302//377
f 301//379 342//380 302//379
f 343//379 342//380 301//379
f 300//381 343//381 301//381
f 344//381 343//381 300//381
f 299//383 344//383 300//382
f 345//383 344//383 299//383
f 298//384 345//384 299//384
f 346//385 345//384 298//384
f 297//388 346//387 298//386
f 347//388 346//387 297//388
f 296//390 347//390 297//389
f 348//390 347//390 296//390
f 295//392 348//392 296//391
f 349//392 348//392 295//392
f 294//394 349//394 295//393
f 350//394 349//394 294//394
f 292//395 350//395 294//395
f 351//396 350//395 292//395
f 293//397 351//397 292//397
f 352//397 351//397 293//397
f 322//399 352//398 293//398
f 353//400 352//398 322//399
f 321//403 353//402 322//401
f 324//403 353//402 321//403
f 325//404 354//404 324//404
f 355//404 354//404 325//404
f 326//405 355//405 325//405
f 356//406 355//405 326//405
f 327//407 356//407 326//407
f 357//407 356//407 327//407
f 328//409 357//408 327//408
f 358//409 357//408 328//409
f 329//411 358//410 328//410
f 359//410 358//410 329//411
f 330//412 359//412 329//412
f 360//412 359//412 330//412
f 331//413 360//413 330//413
f 361//414 360//413 331//413
f 332//415 361//416 331//415
f 362//416 361//416 332//415
f 333//417 362//417 332//417
f 363//418 362//417 333//417
f 334//419 363//419 333//419
f 364//420 363//419 334//419
f 335//421 364//421 334//421
f 365//421 364//421 335//421
f 336//423 365//422 335//422
f 366//422 365//422 336//423
f 337//424 366//425 336//424
f 367//424 366//425 337//424
f 338//426 367//426 337//426
f 368//426 367//426 338//426
f 339//427 368//427 338//427
f 369//427 368//427 339//427
f 340//428 369//428 339//428
f 370//428 369//428 340//428
f 341//429 370//429 340//429
f 371//430 370//429 341//429
f 342//431 371//431 341//431
f 372//431 371//431 342//431
f 343//433 372//432 342//432
f 373//433 372//432 343//433
f 344//435 373//434 343//434
f 374//434 373//434 344//435
f 345//436 374//436 344//436
f 375//436 374//436 345//436
f 346//437 375//437 345//437
f 376//438 375//437 346//437
f 347//439 376//440 346//439
f 377//440 376//440 347//439
f 348//441 377//441 347//441
f 378//442 377//441 348//441
f 349//443 378//443 348//443
f 379//444 378//443 349//443
f 350//445 379//445 349//445
f 380//445 379//445 350//445
f 351//447 380//446 350//446
f 381//446 380//446 351//447
f 352//448 381//449 351//448
f 382//448 381//449 352//448
f 353//450 382//450 352//450
f 383//450 382//450 353//450
f 324//451 383//451 353//451
f 354//451 383//451 324//451
f 67//15 60//15 384//15
f 58//15 386//15 385//15
f 58//15 387//15 57//15
f 388//15 387//15 58//15
f 385//15 388//15 58//15
f 67//15 390//15 389//15
f 391//15 390//15 67//15
f 384//15 391//15 67//15
f 393//15 361//15 392//15
f 360//15 361//15 393//15
f 376//15 394//15 375//15
f 395//15 394//15 376//15
f 377//15 395//15 376//15
f 393//15 359//15 360//15
f 358//15 359//15 393//15
f 396//15 358//15 393//15
f 357//15 358//15 396//15
f 394//15 374//15 375//15
f 373//15 374//15 394//15
f 386//15 373//15 394//15
f 372//15 373//15 386//15
f 386//15 371//15 372//15
f 370//15 371//15 386//15
f 58//15 370//15 386//15
f 369//15 370//15 58//15
f 397//15 369//15 58//15
f 355//15 67//15 354//15
f 398//15 67//15 355//15
f 356//15 398//15 355//15
f 399//15 398//15 356//15
f 357//15 399//15 356//15
f 400//15 399//15 357//15
f 396//15 400//15 357//15
f 67//15 401//15 354//15
f 382//15 401//15 67//15
f 389//15 382//15 67//15
f 381//15 382//15 389//15
f 389//15 380//15 381//15
f 379//15 380//15 389//15
f 395//15 379//15 389//15
f 378//15 379//15 395//15
f 377//15 378//15 395//15
f 402//15 364//15 365//15
f 403//15 364//15 402//15
f 363//15 364//15 403//15
f 392//15 363//15 403//15
f 362//15 363//15 392//15
f 361//15 362//15 392//15
f 58//15 367//15 397//15
f 366//15 367//15 58//15
f 404//15 366//15 58//15
f 365//15 366//15 404//15
f 405//15 365//15 404//15
f 402//15 365//15 405//15
f 46//453 44//453 395//452
f 389//452 46//453 395//452
f 45//455 46//454 389//454
f 390//455 45//455 389//454
f 43//456 45//456 390//456
f 391//456 43//456 390//456
f 42//457 43//457 391//457
f 384//458 42//457 391//457
f 41//460 42//460 384//459
f 60//460 41//460 384//459
f 386//462 394//461 51//461
f 49//461 386//462 51//461
f 385//463 386//463 49//463
f 47//464 385//463 49//463
f 388//465 385//465 47//465
f 48//465 388//465 47//465
f 387//466 388//466 48//466
f 50//467 387//466 48//466
f 57//468 387//468 50//468
f 40//469 57//468 50//468
f 395//231 51//231 394//231
f 44//231 51//231 395//231
f 27//231 61//231 26//231
f 406//231 61//231 27//231
f 407//231 32//231 56//231
f 37//231 32//231 407//231
f 59//14 52//14 408//14
f 409//14 59//14 408//14
f 411//14 66//14 410//14
f 65//14 66//14 411//14
f 59//14 413//14 412//14
f 414//14 413//14 59//14
f 409//14 414//14 59//14
f 417//14 416//14 415//14
f 412//14 418//14 59//14
f 419//14 418//14 412//14
f 420//14 419//14 412//14
f 66//14 421//14 410//14
f 422//14 421//14 66//14
f 423//14 422//14 66//14
f 415//14 422//14 423//14
f 424//14 415//14 423//14
f 417//14 415//14 424//14
f 412//14 425//14 420//14
f 426//14 425//14 412//14
f 415//14 426//14 412//14
f 427//14 426//14 415//14
f 416//14 427//14 415//14
f 429//461 428//461 412//461
f 413//461 429//461 412//461
f 430//463 429//463 413//463
f 414//470 430//463 413//463
f 431//465 430//465 414//465
f 409//465 431//465 414//465
f 432//466 431//466 409//466
f 408//467 432//466 409//466
f 53//468 432//469 408//469
f 52//469 53//468 408//469
f 422//452 415//452 433//452
f 434//452 422//452 433//452
f 421//454 422//454 434//454
f 435//454 421//454 434//454
f 410//456 421//456 435//456
f 436//456 410//456 435//456
f 411//457 410//457 436//457
f 437//458 411//457 436//457
f 65//459 411//460 437//459
f 64//471 65//459 437//459
f 433//231 412//231 428//231
f 415//231 412//231 433//231
f 438//15 407//15 56//15
f 56//15 439//15 438//15
f 440//15 439//15 56//15
f 54//15 440//15 56//15
f 425//461 426//462 392//461
f 403//461 425//461 392//461
f 420//463 425//463 403//463
f 402//470 420//463 403//463
f 419//465 420//465 402//465
f 405//465 419//465 402//465
f 418//466 419//466 405//466
f 404//466 418//466 405//466
f 59//468 418//468 404//468
f 58//468 59//468 404//468
f 427//231 392//231 426//231
f 393//231 392//231 427//231
f 396//453 393//452 427//452
f 416//452 396//453 427//452
f 400//454 396//454 416//454
f 417//454 400//454 416//454
f 399//456 400//456 417//456
f 424//456 399//456 417//456
f 398//457 399//457 424//457
f 423//457 398//457 424//457
f 67//460 398//460 423//460
f 66//460 67//460 423//460
f 440//473 54//473 33//472
f 34//472 440//473 33//472
f 439//474 440//475 34//474
f 35//475 439//474 34//474
f 438//476 439//477 35//476
f 36//476 438//476 35//476
f 407//478 438//478 36//478
f 37//479 407//478 36//478
f 441//480 406//481 27//480
f 28//480 441//480 27//480
f 442//482 441//483 28//482
f 29//482 442//482 28//482
f 443//484 442//485 29//484
f 30//485 443//484 29//484
f 63//487 443//487 30//486
f 31//486 63//487 30//486
f 13//13 11//13 62//13
f 55//13 19//13 17//13
f 21//13 19//13 55//13
f 38//13 21//13 55//13
f 23//13 21//13 38//13
f 38//13 1//13 23//13
f 3//13 1//13 38//13
f 39//13 3//13 38//13
f 55//13 13//13 62//13
f 15//13 13//13 55//13
f 17//13 15//13 55//13
f 39//13 5//13 3//13
f 7//13 5//13 39//13
f 62//13 7//13 39//13
f 9//13 7//13 62//13
f 11//13 9//13 62//13
f 443//15 63//15 61//15
f 61//15 442//15 443//15
f 441//15 442//15 61//15
f 406//15 441//15 61//15
f 64//14 55//14 62//14
f 53//14 55//14 64//14
f 432//14 430//14 431//14
f 53//14 430//14 432//14
f 435//14 433//14 436//14
f 434//14 433//14 435//14
f 53//14 429//14 430//14
f 428//14 429//14 53//14
f 64//14 428//14 53//14
f 433//14 428//14 64//14
f 437//14 433//14 64//14
f 436//14 433//14 437//14
