# Blender v3.6.4 OBJ File: ''
# www.blender.org
mtllib link_14.0.mtl
o link_14.0
v 0.0098 -0.01135 0.027
v 0.0098 -0.00955 0.027
v 0.0098 -0.00955 0.024
v 0.0098 0.01145 0.0437
v 0.0098 0.01345 0.0437
v 0.0098 0.01145 0.0287
v 0.0098 0.01345 0.013
v 0.0098 -0.01355 0.0437
v 0.0098 -0.01135 0.0437
v 0.0098 -0.01355 0.013
v 0.0098 -0.01105 0.013
v 0.0098 0.01105 0.0287
v 0.0098 0.01105 0.024
v 0.0098 0.01075 0.013
v 0.0098 0.01075 -0.0038
v 0.0098 -0.01105 -0.0038
v -0.0098 0.01145 0.0287
v -0.0098 0.01105 0.0287
v -0.0098 0.01105 0.024
v -0.0098 -0.01135 0.0547
v -0.0098 -0.01355 0.0547
v -0.0098 -0.01135 0.027
v -0.0098 -0.01355 0.013
v -0.0098 -0.00955 0.027
v -0.0098 -0.00955 0.024
v -0.0098 -0.01105 0.013
v -0.0098 -0.01105 -0.0038
v -0.0098 0.01075 -0.0038
v -0.0098 0.01075 0.013
v -0.0098 0.01345 0.013
v -0.0098 0.01345 0.0547
v -0.0098 0.01145 0.0547
v -0.002025 0.01135 0.005114
v -0.001368 0.01135 -0.005327
v -0.000689 0.01135 0.005457
v 0.000689 0.01135 0.005457
v 0 0.01135 -0.0055
v 0.001368 0.01135 -0.005327
v 0.00265 0.01135 -0.00482
v 0.003233 0.01135 0.00445
v 0.005403 0.01135 0.001031
v 0.004238 0.01135 0.003506
v 0.004977 0.01135 0.002342
v 0.005231 0.01135 -0.0017
v 0.005489 0.01135 -0.000345
v 0.002025 0.01135 0.005114
v -0.003233 0.01135 0.00445
v -0.005489 0.01135 -0.000345
v -0.005231 0.01135 -0.0017
v 0.003765 0.01135 -0.004009
v 0.004644 0.01135 -0.002947
v -0.004238 0.01135 0.003506
v -0.004977 0.01135 0.002342
v -0.005403 0.01135 0.001031
v -0.004644 0.01135 -0.002947
v -0.003765 0.01135 -0.004009
v -0.00265 0.01135 -0.00482
v -0.005224 0.01125 0.001903
v -0.005501 0.01125 0.001049
v -0.005493 0.011288 0.001048
v -0.000968 0.01125 -0.005478
v 0 0.01125 -0.0056
v 0 0.011288 -0.005592
v 0.005527 0.011342 -0.000348
v 0.005267 0.011342 -0.001711
v 0.005298 0.011321 -0.001721
v -0.000694 0.011342 0.005495
v 0.000694 0.011342 0.005495
v 0.000698 0.011321 0.005527
v 0.002059 0.011288 0.0052
v 0.002051 0.011321 0.00518
v 0.002039 0.011342 0.005149
v 0.004722 0.011288 -0.002997
v 0.004704 0.011321 -0.002985
v 0.004676 0.011342 -0.002968
v 0.001377 0.011342 -0.005364
v 0 0.011342 -0.005538
v 0 0.011321 -0.005571
v -0.001385 0.011321 -0.005396
v -0.001391 0.011288 -0.005417
v -0.002694 0.011288 -0.004901
v -0.002668 0.011342 -0.004853
v -0.003791 0.011342 -0.004037
v -0.003813 0.011321 -0.004061
v -0.004704 0.011321 -0.002985
v -0.004722 0.011288 -0.002997
v -0.005319 0.011288 -0.001728
v -0.004676 0.011342 -0.002968
v -0.005298 0.011321 -0.001721
v -0.005581 0.011288 -0.000351
v -0.005589 0.01125 -0.000352
v -0.005567 0.01125 -2e-06
v -0.005527 0.011342 -0.000348
v -0.00544 0.011342 0.001038
v -0.005472 0.011321 0.001044
v -0.005041 0.011321 0.002372
v -0.00506 0.011288 0.002381
v -0.004309 0.011288 0.003565
v -0.004267 0.011342 0.00353
v -0.003255 0.011342 0.004481
v -0.003274 0.011321 0.004507
v -0.002051 0.011321 0.00518
v -0.002059 0.011288 0.0052
v -0.000701 0.011288 0.005548
v -0.002039 0.011342 0.005149
v -0.000698 0.011321 0.005527
v 0.000701 0.011288 0.005548
v 0.000702 0.01125 0.005556
v 0.000966 0.01125 0.005488
v 0.004309 0.011288 0.003565
v 0.003287 0.011288 0.004524
v 0.003274 0.011321 0.004507
v 0.005224 0.01125 0.001903
v 0.005067 0.01125 0.002384
v 0.00506 0.011288 0.002381
v 0.004292 0.011321 0.003551
v 0.003255 0.011342 0.004481
v 0.004267 0.011342 0.00353
v 0.005011 0.011342 0.002358
v 0.005041 0.011321 0.002372
v 0.005472 0.011321 0.001044
v 0.005493 0.011288 0.001048
v 0.005581 0.011288 -0.000351
v 0.00544 0.011342 0.001038
v 0.00556 0.011321 -0.00035
v 0.005319 0.011288 -0.001728
v 0.005326 0.01125 -0.00173
v 0.005243 0.01125 -0.001906
v 0.002694 0.011288 -0.004901
v 0.003828 0.011288 -0.004077
v 0.003813 0.011321 -0.004061
v 0.000968 0.01125 -0.005478
v 0.001393 0.01125 -0.005424
v 0.001391 0.011288 -0.005417
v 0.002684 0.011321 -0.004882
v 0.003791 0.011342 -0.004037
v 0.002668 0.011342 -0.004853
v 0.001385 0.011321 -0.005396
v -0.004256 0.01125 -0.003572
v -0.003833 0.01125 -0.004082
v -0.003828 0.011288 -0.004077
v -0.002684 0.011321 -0.004882
v -0.001377 0.011342 -0.005364
v 0 0.01135 -0.0055
v -0.002792 0.01125 -0.004839
v -0.002698 0.01125 -0.004907
v -0.001393 0.01125 -0.005424
v -0.005326 0.01125 -0.00173
v -0.005243 0.01125 -0.001906
v -0.004728 0.01125 -0.003001
v -0.005267 0.011342 -0.001711
v -0.00556 0.011321 -0.00035
v -0.002779 0.01125 0.004812
v -0.003292 0.01125 0.00453
v -0.003287 0.011288 0.004524
v -0.004292 0.011321 0.003551
v -0.005011 0.011342 0.002358
v -0.004287 0.01125 0.003596
v -0.004315 0.01125 0.00357
v -0.005067 0.01125 0.002384
v -0.000702 0.01125 0.005556
v -0.000966 0.01125 0.005488
v -0.002061 0.01125 0.005207
v 0.002061 0.01125 0.005207
v 0.002779 0.01125 0.004812
v 0.004315 0.01125 0.00357
v 0.004287 0.01125 0.003596
v 0.003292 0.01125 0.00453
v 0.005589 0.01125 -0.000352
v 0.005567 0.01125 -2e-06
v 0.005501 0.01125 0.001049
v 0.004728 0.01125 -0.003001
v 0.004256 0.01125 -0.003572
v 0.002698 0.01125 -0.004907
v 0.002792 0.01125 -0.004839
v 0.003833 0.01125 -0.004082
v 0.005589 0.01085 -0.000352
v 0.0056 0.01085 0
v 0.005501 0.01085 0.001049
v 0.005224 0.01085 0.001903
v 0.005067 0.01085 0.002384
v 0.004315 0.01085 0.00357
v 0.004287 0.01085 0.003596
v 0.003292 0.01085 0.00453
v 0.002779 0.01085 0.004812
v 0.002061 0.01085 0.005207
v 0.000966 0.01085 0.005488
v 0.000702 0.01085 0.005556
v -0.000702 0.01085 0.005556
v -0.000966 0.01085 0.005488
v -0.002061 0.01085 0.005207
v -0.002779 0.01085 0.004812
v -0.003292 0.01085 0.00453
v -0.004287 0.01085 0.003596
v -0.004315 0.01085 0.00357
v -0.005067 0.01085 0.002384
v -0.005224 0.01085 0.001903
v -0.005501 0.01085 0.001049
v -0.005567 0.01085 -2e-06
v -0.005589 0.01085 -0.000352
v -0.005326 0.01085 -0.00173
v -0.005243 0.01085 -0.001906
v -0.004728 0.01085 -0.003001
v -0.004256 0.01085 -0.003572
v -0.003833 0.01085 -0.004082
v -0.002792 0.01085 -0.004839
v -0.002698 0.01085 -0.004907
v -0.001393 0.01085 -0.005424
v -0.000968 0.01085 -0.005478
v 0 0.01125 -0.0056
v 0 0.01085 -0.0056
v 0.000968 0.01085 -0.005478
v 0.001393 0.01085 -0.005424
v 0.002698 0.01085 -0.004907
v 0.002792 0.01085 -0.004839
v 0.003833 0.01085 -0.004082
v 0.004256 0.01085 -0.003572
v 0.004728 0.01085 -0.003001
v 0.005243 0.01085 -0.001906
v 0.005326 0.01085 -0.00173
v 0 0.0108 -0.005587
v -0.001389 0.0108 -0.005411
v -0.002691 0.0108 -0.004896
v -0.003824 0.0108 -0.004072
v -0.004717 0.0108 -0.002993
v -0.005313 0.0108 -0.001726
v -0.005576 0.0108 -0.000351
v -0.005488 0.0108 0.001047
v -0.005055 0.0108 0.002379
v -0.004305 0.0108 0.003561
v -0.003284 0.0108 0.00452
v -0.002057 0.0108 0.005194
v -0.0007 0.0108 0.005543
v 0.0007 0.0108 0.005543
v 0.002057 0.0108 0.005194
v 0.003284 0.0108 0.00452
v 0.004305 0.0108 0.003561
v 0.005055 0.0108 0.002379
v 0.005488 0.0108 0.001047
v 0.0056 0.01085 0
v 0.005576 0.0108 -0.000351
v 0.005313 0.0108 -0.001726
v 0.004717 0.0108 -0.002993
v 0.003824 0.0108 -0.004072
v 0.002691 0.0108 -0.004896
v 0.001389 0.0108 -0.005411
v 0 0.01085 -0.0056
v 0.00138 0.010763 -0.005376
v 0.002674 0.010763 -0.004864
v 0.003799 0.010763 -0.004046
v 0.004686 0.010763 -0.002974
v 0.005278 0.010763 -0.001715
v 0.005539 0.010763 -0.000348
v 0.005452 0.010763 0.00104
v 0.005022 0.010763 0.002363
v 0.004276 0.010763 0.003538
v 0.003262 0.010763 0.00449
v 0.002043 0.010763 0.00516
v 0.000696 0.010763 0.005506
v -0.000696 0.010763 0.005506
v -0.002043 0.010763 0.00516
v -0.003262 0.010763 0.00449
v -0.004276 0.010763 0.003538
v -0.005022 0.010763 0.002363
v -0.005452 0.010763 0.00104
v -0.005539 0.010763 -0.000348
v -0.005278 0.010763 -0.001715
v -0.004686 0.010763 -0.002974
v -0.003799 0.010763 -0.004046
v -0.002674 0.010763 -0.004864
v -0.00138 0.010763 -0.005376
v 0 0.010763 -0.00555
v 0.001368 0.01075 -0.005327
v 0.00265 0.01075 -0.00482
v 0.003765 0.01075 -0.004009
v 0.004644 0.01075 -0.002947
v 0.005231 0.01075 -0.0017
v 0.005489 0.01075 -0.000345
v 0.005403 0.01075 0.001031
v 0.004977 0.01075 0.002342
v 0.004238 0.01075 0.003506
v 0.003233 0.01075 0.00445
v 0.002025 0.01075 0.005114
v 0.000689 0.01075 0.005457
v -0.000689 0.01075 0.005457
v -0.002025 0.01075 0.005114
v -0.003233 0.01075 0.00445
v -0.004238 0.01075 0.003506
v -0.004977 0.01075 0.002342
v -0.005403 0.01075 0.001031
v -0.005489 0.01075 -0.000345
v -0.005231 0.01075 -0.0017
v -0.004644 0.01075 -0.002947
v -0.003765 0.01075 -0.004009
v -0.00265 0.01075 -0.00482
v -0.001368 0.01075 -0.005327
v 0 0.01075 -0.0055
v 0.009555 0.01075 0.011455
v -0.006345 0.01075 0.008245
v -0.007739 0.01075 0.008955
v -0.008845 0.01075 0.010061
v -0.009555 0.01075 0.011455
v 0.006345 0.01075 0.008245
v 0.007739 0.01075 0.008955
v 0.008845 0.01075 0.010061
v -0.006345 0.01075 -0.008555
v -0.0048 0.01075 -0.0088
v 0.009555 0.01075 -0.005345
v 0.008845 0.01075 -0.006739
v 0.007739 0.01075 -0.007845
v 0.006345 0.01075 -0.008555
v 0.0048 0.01075 -0.0088
v 0 0.01075 -0.0055
v -0.009555 0.01075 -0.005345
v -0.008845 0.01075 -0.006739
v -0.007739 0.01075 -0.007845
v -0.0048 0.01075 0.008
v 0.0048 0.01075 0.008
v -0.0048 0.01345 0.008
v -0.006345 0.01345 0.008245
v -0.007739 0.01345 0.008955
v -0.008845 0.01345 0.010061
v -0.009555 0.01345 0.011455
v 0.0048 0.01345 0.008
v 0.006345 0.01345 0.008245
v 0.007739 0.01345 0.008955
v 0.008845 0.01345 0.010061
v 0.009555 0.01345 0.011455
v 0.008921 0.01105 0.026121
v 0.009572 0.01105 0.025148
v -0.007948 0.01105 0.026772
v -0.008921 0.01105 0.026121
v -0.009572 0.01105 0.025148
v 0.007948 0.01105 0.026772
v 0.0068 0.01105 0.027
v -0.0068 0.01105 0.027
v -0.008921 0.01345 0.056821
v -0.009572 0.01345 0.055848
v 0.001874 0.01345 0.056314
v -0.001085 0.01345 0.057349
v -0.0042 0.01345 0.0577
v -0.0068 0.01345 0.0577
v -0.007948 0.01345 0.057472
v 0.009449 0.01345 0.046815
v 0.008414 0.01345 0.049774
v 0.004529 0.01345 0.054646
v 0.006746 0.01345 0.052429
v 0.002656 0.00975 0.050006
v -0.002246 0.00975 0.053389
v -0.001064 0.00975 0.054205
v 0.001704 0.00975 0.048931
v 0.000362 0.00975 0.048422
v -0.001064 0.00975 0.048595
v -0.002246 0.00975 0.049411
v -0.002913 0.00975 0.050682
v 0.002656 0.00975 0.052794
v 0.003 0.00975 0.0514
v 0.001704 0.00975 0.053869
v 0.000362 0.00975 0.054378
v -0.002913 0.00975 0.052118
v 0.003 0.01145 0.0514
v 0.002656 0.01145 0.052794
v 0.004529 0.01145 0.054646
v 0.001874 0.01145 0.056314
v 0.001704 0.01145 0.053869
v 0.000362 0.01145 0.054378
v -0.001085 0.01145 0.057349
v -0.001064 0.01145 0.054205
v -0.0042 0.01145 0.0577
v -0.002246 0.01145 0.053389
v -0.001064 0.01145 0.048595
v 0.000362 0.01145 0.048422
v 0.001704 0.01145 0.048931
v -0.009572 0.01145 0.055848
v -0.002913 0.01145 0.052118
v -0.002913 0.01145 0.050682
v -0.002246 0.01145 0.049411
v 0.006746 0.01145 0.052429
v 0.008414 0.01145 0.049774
v 0.002656 0.01145 0.050006
v 0.009449 0.01145 0.046815
v -0.008921 0.01145 0.056821
v -0.007948 0.01145 0.057472
v -0.0068 0.01145 0.0577
v -0.008845 -0.01105 0.010061
v -0.009555 -0.01105 0.011455
v 0.009555 -0.01105 0.011455
v 0.008845 -0.01105 0.010061
v 0.0048 -0.01105 0.008
v 0.006345 -0.01105 0.008245
v 0.007739 -0.01105 0.008955
v -0.007739 -0.01105 0.008955
v -0.006345 -0.01105 0.008245
v -0.009555 -0.01105 -0.005345
v -0.0048 -0.01105 0.008
v 0.009555 -0.01105 -0.005345
v 0.008845 -0.01105 -0.006739
v 0.007739 -0.01105 -0.007845
v -0.006345 -0.01105 -0.008555
v -0.007739 -0.01105 -0.007845
v -0.008845 -0.01105 -0.006739
v 0.006345 -0.01105 -0.008555
v 0.0048 -0.01105 -0.0088
v -0.0048 -0.01105 -0.0088
v 0.0048 -0.01355 0.008
v 0.006345 -0.01355 0.008245
v 0.007739 -0.01355 0.008955
v 0.008845 -0.01355 0.010061
v 0.009555 -0.01355 0.011455
v -0.0048 -0.01355 0.008
v -0.006345 -0.01355 0.008245
v -0.007739 -0.01355 0.008955
v -0.008845 -0.01355 0.010061
v -0.009555 -0.01355 0.011455
v 0.0068 -0.00955 0.027
v 0.007948 -0.00955 0.026772
v 0.008921 -0.00955 0.026121
v 0.009572 -0.00955 0.025148
v -0.009572 -0.00955 0.025148
v -0.008921 -0.00955 0.026121
v -0.007948 -0.00955 0.026772
v -0.0068 -0.00955 0.027
v -0.001174 -0.01055 0.047786
v 0.000397 -0.01055 0.047621
v 0.0019 -0.01055 0.048109
v 0.003074 -0.01055 0.053634
v -0.002543 -0.01055 0.048576
v 0.003074 -0.01055 0.049166
v 0.003717 -0.01055 0.05061
v 0.0019 -0.01055 0.054691
v 0.000397 -0.01055 0.055179
v -0.001174 -0.01055 0.055014
v 0.003717 -0.01055 0.05219
v -0.0038 -0.01055 0.0514
v -0.003471 -0.01055 0.049854
v -0.003471 -0.01055 0.052946
v -0.002543 -0.01055 0.054224
v -0.001174 -0.01135 0.047786
v 0.000397 -0.01135 0.047621
v 0.0019 -0.01135 0.048109
v 0.003074 -0.01135 0.049166
v -0.002543 -0.01135 0.048576
v -0.003471 -0.01135 0.049854
v -0.0038 -0.01135 0.0514
v -0.009572 -0.01135 0.055848
v -0.003471 -0.01135 0.052946
v -0.002543 -0.01135 0.054224
v -0.001174 -0.01135 0.055014
v -0.001085 -0.01135 0.057349
v 0.000397 -0.01135 0.055179
v 0.001874 -0.01135 0.056314
v 0.0019 -0.01135 0.054691
v 0.004529 -0.01135 0.054646
v 0.003074 -0.01135 0.053634
v 0.006746 -0.01135 0.052429
v -0.008921 -0.01135 0.056821
v -0.007948 -0.01135 0.057472
v -0.0068 -0.01135 0.0577
v -0.0042 -0.01135 0.0577
v 0.003717 -0.01135 0.05219
v 0.0038 -0.01135 0.0514
v 0.008414 -0.01135 0.049774
v 0.003717 -0.01135 0.05061
v 0.009449 -0.01135 0.046815
v -0.007948 -0.01355 0.057472
v -0.0068 -0.01355 0.0577
v -0.0042 -0.01355 0.0577
v -0.001085 -0.01355 0.057349
v 0.001874 -0.01355 0.056314
v -0.008921 -0.01355 0.056821
v -0.009572 -0.01355 0.055848
v 0.004529 -0.01355 0.054646
v 0.006746 -0.01355 0.052429
v 0.009449 -0.01355 0.046815
v 0.008414 -0.01355 0.049774
vn 1 0 0
vn -1 0 0
vn 0 1 0
vn -0.9331 0.1936 0.3032
vn -0.933 0.1937 0.3032
vn -0.123 0.1936 -0.9733
vn 0.5487 0.8294 -0.1047
vn 0 0.8294 0.5586
vn 0 0.9805 0.1966
vn 0 0.9805 0.1965
vn -0.0489 0.9805 0.1904
vn 0.1931 0.9805 -0.0368
vn 0.1962 0.9805 0.0123
vn 0.2073 0.5525 0.8073
vn 0.1389 0.8294 0.541
vn 0.1389 0.8294 0.5411
vn 0.1389 0.8295 0.541
vn 0.0489 0.9805 0.1904
vn 0.7542 0.5525 -0.3549
vn 0.5054 0.8295 -0.2378
vn 0.5054 0.8294 -0.2379
vn 0.1779 0.9805 -0.0837
vn 0.0724 0.9805 -0.1828
vn 0.0724 0.9805 -0.1827
vn 0.0246 0.9805 -0.195
vn 0.07 0.8294 -0.5542
vn -0.07 0.8294 -0.5542
vn -0.1045 0.5525 -0.8269
vn -0.3068 0.5525 -0.775
vn -0.0724 0.9805 -0.1828
vn -0.1155 0.9805 -0.159
vn -0.3283 0.8294 -0.4519
vn -0.4304 0.8294 -0.3561
vn -0.6422 0.5525 -0.5313
vn -0.7542 0.5525 -0.3549
vn -0.1515 0.9805 -0.1253
vn -0.5055 0.8294 -0.2378
vn -0.5055 0.8294 -0.2379
vn -0.7541 0.5526 -0.3549
vn -0.8186 0.5527 -0.1562
vn -0.8187 0.5526 -0.1562
vn -0.9637 0.1936 -0.1838
vn -0.9791 0.1936 0.0616
vn -0.1931 0.9805 -0.0368
vn -0.1962 0.9805 0.0123
vn -0.5575 0.8294 0.0351
vn -0.5313 0.8294 0.1726
vn -0.7927 0.5525 0.2576
vn -0.7927 0.5526 0.2575
vn -0.7037 0.5525 0.4466
vn -0.7038 0.5525 0.4466
vn -0.166 0.9805 0.1053
vn -0.1346 0.9805 0.1433
vn -0.3824 0.8294 0.4072
vn -0.2691 0.8294 0.4895
vn -0.4015 0.5525 0.7304
vn -0.2073 0.5525 0.8073
vn -0.0947 0.9805 0.1723
vn -0.0947 0.9805 0.1722
vn -0.1389 0.8294 0.541
vn -0.1389 0.8295 0.541
vn 0 0.5525 0.8335
vn 0 0.1936 0.9811
vn 0.244 0.1936 0.9503
vn 0.5707 0.5523 0.6077
vn 0.5706 0.5525 0.6076
vn 0.9331 0.1936 0.3032
vn 0.8284 0.1937 0.5256
vn 0.8284 0.1936 0.5257
vn 0.7038 0.5525 0.4466
vn 0.7037 0.5526 0.4466
vn 0.7038 0.5524 0.4466
vn 0.5706 0.5524 0.6076
vn 0.3824 0.8294 0.4072
vn 0.1346 0.9805 0.1433
vn 0.166 0.9805 0.1054
vn 0.166 0.9805 0.1053
vn 0.4717 0.8294 0.2993
vn 0.5313 0.8294 0.1726
vn 0.7927 0.5525 0.2576
vn 0.8319 0.5525 0.0523
vn 0.1869 0.9805 0.0608
vn 0.1869 0.9805 0.0607
vn 0.5575 0.8294 0.0351
vn 0.8318 0.5525 0.0523
vn 0.8187 0.5525 -0.1562
vn 0.8187 0.5526 -0.1562
vn 0.9637 0.1936 -0.1838
vn 0.8877 0.1936 -0.4177
vn 0.4899 0.5525 -0.6743
vn 0.123 0.1936 -0.9733
vn 0.3612 0.1936 -0.9122
vn 0.3068 0.5525 -0.775
vn 0.3283 0.8294 -0.4519
vn 0.3283 0.8295 -0.4519
vn 0.1155 0.9805 -0.159
vn 0.2056 0.8294 -0.5194
vn 0.1045 0.5525 -0.8269
vn -0.7559 0.1936 -0.6254
vn -0.756 0.1936 -0.6253
vn -0.5767 0.1936 -0.7937
vn -0.4899 0.5525 -0.6743
vn -0.2056 0.8294 -0.5194
vn -0.0246 0.9805 -0.195
vn -0.3612 0.1936 -0.9122
vn -0.3283 0.8295 -0.4519
vn -0.8877 0.1936 -0.4177
vn -0.7559 0.1936 -0.6253
vn -0.1779 0.9805 -0.0837
vn -0.5054 0.8294 -0.2379
vn -0.5487 0.8294 -0.1047
vn -0.8187 0.5525 -0.1562
vn -0.8319 0.5525 0.0523
vn -0.9791 0.1936 0.0617
vn -0.8318 0.5525 0.0523
vn -0.4726 0.1936 0.8597
vn -0.6716 0.1936 0.7152
vn -0.5706 0.5525 0.6076
vn -0.5706 0.5524 0.6076
vn -0.5706 0.5523 0.6077
vn -0.4716 0.8295 0.2993
vn -0.4716 0.8294 0.2993
vn -0.187 0.9805 0.0607
vn -0.1869 0.9805 0.0607
vn -0.8283 0.1936 0.5257
vn -0.8284 0.1937 0.5256
vn -0.244 0.1936 0.9503
vn 0.0947 0.9805 0.1723
vn 0.2691 0.8294 0.4895
vn 0.4015 0.5525 0.7304
vn 0.4016 0.5525 0.7304
vn 0.4726 0.1936 0.8597
vn 0.6716 0.1936 0.7152
vn 0.0947 0.9805 0.1722
vn 0.4716 0.8294 0.2993
vn 0.7927 0.5526 0.2576
vn 0.9791 0.1936 0.0616
vn 0.933 0.1937 0.3032
vn 0.1515 0.9805 -0.1253
vn 0.4304 0.8294 -0.3561
vn 0.6422 0.5525 -0.5313
vn 0.6422 0.5526 -0.5313
vn 0.7559 0.1936 -0.6254
vn 0.756 0.1936 -0.6253
vn 0.5767 0.1936 -0.7937
vn 0.998 0 0.0627
vn 0.9961 0.082 -0.0311
vn 0.9946 0.0824 0.0625
vn 0.9956 0 0.094
vn 0.9511 0 0.309
vn 0.951 0 0.3091
vn 0.9511 0 0.3089
vn 0.8445 0 0.5355
vn 0.8444 0 0.5358
vn 0.6846 0 0.729
vn 0.6845 0 0.729
vn 0.6844 0 0.7291
vn 0.4817 0 0.8763
vn 0.4819 0 0.8762
vn 0.4816 0 0.8764
vn 0.482 0 0.8762
vn 0.2486 0 0.9686
vn 0.2487 0 0.9686
vn 0.249 0 0.9685
vn 0 0 1
vn -0.2487 0 0.9686
vn -0.2488 0 0.9686
vn -0.2485 0 0.9686
vn -0.249 0 0.9685
vn -0.2489 0 0.9685
vn -0.482 0 0.8762
vn -0.4816 0 0.8764
vn -0.4819 0 0.8762
vn -0.4817 0 0.8763
vn -0.6848 0 0.7288
vn -0.6844 0 0.7291
vn -0.6845 0 0.729
vn -0.8445 0 0.5355
vn -0.9511 0 0.309
vn -0.951 0 0.3091
vn -0.998 0 0.0627
vn -0.9823 0 -0.1875
vn -0.9048 0 -0.4259
vn -0.9048 0 -0.4258
vn -0.9047 0 -0.4261
vn -0.9049 0 -0.4256
vn -0.7708 0 -0.6371
vn -0.7702 0 -0.6378
vn -0.7705 0 -0.6374
vn -0.7706 0 -0.6374
vn -0.5881 0 -0.8088
vn -0.5877 0 -0.8091
vn -0.5878 0 -0.809
vn -0.3683 0 -0.9297
vn -0.368 0 -0.9298
vn -0.1255 0 -0.9921
vn -0.1256 0 -0.9921
vn -0.125 0 -0.9922
vn 0.125 0 -0.9922
vn 0.1255 0 -0.9921
vn 0.1256 0 -0.9921
vn 0.3683 0 -0.9297
vn 0.368 0 -0.9298
vn 0.5878 0 -0.809
vn 0.5877 0 -0.8091
vn 0.5881 0 -0.8088
vn 0.7705 0 -0.6374
vn 0.7702 0 -0.6378
vn 0.7708 0 -0.6371
vn 0.9049 0 -0.4256
vn 0.9047 0 -0.4261
vn 0.9048 0 -0.4259
vn 0.9823 0 -0.1875
vn -0.1211 -0.2569 -0.9588
vn -0.3558 -0.2569 -0.8986
vn -0.5681 -0.2569 -0.7818
vn -0.5682 -0.2565 -0.7819
vn -0.5681 -0.2569 -0.7819
vn -0.7446 -0.257 -0.6161
vn -0.7447 -0.2569 -0.6159
vn -0.7447 -0.2569 -0.616
vn -0.8744 -0.257 -0.4115
vn -0.8745 -0.2569 -0.4115
vn -0.8745 -0.2569 -0.4114
vn -0.9493 -0.2569 -0.1811
vn -0.9645 -0.2569 0.0607
vn -0.9191 -0.2569 0.2986
vn -0.9192 -0.2569 0.2986
vn -0.9191 -0.257 0.2986
vn -0.816 -0.2569 0.5178
vn -0.8161 -0.2568 0.5178
vn -0.816 -0.257 0.5178
vn -0.6616 -0.2569 0.7045
vn -0.4656 -0.2569 0.8469
vn -0.4658 -0.257 0.8467
vn -0.2403 -0.2569 0.9361
vn 0 -0.2569 0.9664
vn 0.2403 -0.2569 0.9361
vn 0.4658 -0.257 0.8467
vn 0.4655 -0.2568 0.847
vn 0.4656 -0.2569 0.8469
vn 0.6616 -0.2569 0.7045
vn 0.6615 -0.2569 0.7045
vn 0.816 -0.257 0.5178
vn 0.816 -0.2571 0.5178
vn 0.816 -0.2569 0.5178
vn 0.9191 -0.2569 0.2986
vn 0.9192 -0.2569 0.2986
vn 0.9619 -0.2577 0.0909
vn 0.7316 -0.6802 0.046
vn 0.9655 -0.2587 -0.0303
vn 0.9493 -0.2569 -0.1811
vn 0.8745 -0.2569 -0.4115
vn 0.8745 -0.2569 -0.4114
vn 0.8744 -0.257 -0.4115
vn 0.7447 -0.2569 -0.616
vn 0.7446 -0.257 -0.6161
vn 0.7447 -0.2569 -0.6159
vn 0.5681 -0.257 -0.7818
vn 0.5681 -0.2569 -0.7818
vn 0.5681 -0.2569 -0.7819
vn 0.5681 -0.2568 -0.7818
vn 0.3558 -0.2569 -0.8986
vn 0.1211 -0.2569 -0.9588
vn 0.2613 -0.7043 -0.66
vn 0.2613 -0.7043 -0.6601
vn 0.4173 -0.7043 -0.5743
vn 0.547 -0.7043 -0.4525
vn 0.6423 -0.7043 -0.3023
vn 0.6973 -0.7043 -0.133
vn 0.7085 -0.7043 0.0446
vn 0.7083 -0.7045 0.0446
vn 0.6752 -0.7043 0.2194
vn 0.5994 -0.7043 0.3804
vn 0.486 -0.7043 0.5175
vn 0.342 -0.7043 0.6221
vn 0.342 -0.7042 0.6221
vn 0.1764 -0.7043 0.6876
vn 0.1765 -0.7043 0.6876
vn 0 -0.7043 0.7099
vn -0.1765 -0.7043 0.6876
vn -0.342 -0.7043 0.6221
vn -0.342 -0.7042 0.6222
vn -0.486 -0.7043 0.5175
vn -0.5994 -0.7043 0.3804
vn -0.6752 -0.7043 0.2194
vn -0.6751 -0.7043 0.2194
vn -0.7085 -0.7043 0.0446
vn -0.7083 -0.7045 0.0444
vn -0.7084 -0.7044 0.0445
vn -0.6973 -0.7043 -0.133
vn -0.6423 -0.7043 -0.3023
vn -0.547 -0.7043 -0.4525
vn -0.4173 -0.7043 -0.5743
vn -0.2613 -0.7043 -0.66
vn -0.2613 -0.7043 -0.6601
vn -0.089 -0.7043 -0.7043
vn -0.0888 -0.7041 -0.7045
vn -0.0888 -0.7043 -0.7043
vn 0.0892 -0.7043 -0.7043
vn 0.0893 -0.7041 -0.7045
vn 0.089 -0.7043 -0.7043
vn 0.096 -0.9654 -0.2424
vn 0.1533 -0.9654 -0.2109
vn 0.2009 -0.9654 -0.1662
vn 0.2359 -0.9654 -0.111
vn 0.2561 -0.9654 -0.0488
vn 0.2561 -0.9654 -0.0489
vn 0.2602 -0.9654 0.0164
vn 0.248 -0.9654 0.0806
vn 0.2201 -0.9654 0.1397
vn 0.1785 -0.9654 0.1901
vn 0.1256 -0.9654 0.2285
vn 0.0648 -0.9654 0.2525
vn 0 -0.9654 0.2607
vn 0 -0.9654 0.2608
vn -0.0648 -0.9654 0.2525
vn -0.0648 -0.9654 0.2526
vn -0.1256 -0.9654 0.2285
vn -0.1785 -0.9654 0.1901
vn -0.2201 -0.9654 0.1397
vn -0.248 -0.9654 0.0806
vn -0.2602 -0.9654 0.0164
vn -0.2561 -0.9654 -0.0488
vn -0.2561 -0.9654 -0.0489
vn -0.2359 -0.9654 -0.111
vn -0.2009 -0.9654 -0.1662
vn -0.1533 -0.9654 -0.2109
vn -0.096 -0.9654 -0.2424
vn -0.0327 -0.9654 -0.2587
vn 0.0327 -0.9654 -0.2587
vn -0.1566 0 -0.9877
vn -0.1563 0 -0.9877
vn -0.4538 0 -0.8911
vn -0.4541 0 -0.8909
vn -0.7071 0 -0.7071
vn -0.8911 0 -0.4538
vn -0.8909 0 -0.4541
vn -0.9877 0 -0.1563
vn -0.9877 0 -0.1566
vn 0.1566 0 -0.9877
vn 0.1563 0 -0.9877
vn 0.4538 0 -0.8911
vn 0.4539 0 -0.8911
vn 0.7071 0 -0.7071
vn 0.8911 0 -0.4538
vn 0.8909 0 -0.4541
vn 0.9877 0 -0.1566
vn 0.9877 0 -0.1563
vn 0 0 -1
vn 0 -1 0
vn -0.1951 0 0.9808
vn -0.5558 0 0.8313
vn -0.5557 0 0.8314
vn -0.8314 0 0.5557
vn -0.8315 0 0.5555
vn -0.9808 0 0.1951
vn -0.9807 0 0.1953
vn 0.9709 0 -0.2396
vn 0.971 0 -0.2391
vn 0.971 0 -0.2393
vn 0.971 0 0.2391
vn 0.9709 0 0.2396
vn 0.7486 0 0.663
vn 0.3546 0 0.935
vn -0.1204 0 0.9927
vn -0.5681 0 0.8229
vn -0.8855 0 0.4647
vn -0.8855 0 -0.4647
vn -0.5681 0 -0.8229
vn -0.1204 0 -0.9927
vn 0.3546 0 -0.935
vn 0.7486 0 -0.663
vn 0.9937 0 0.112
vn 0.9439 0 0.3302
vn 0.9438 0 0.3305
vn 0.8468 0 0.532
vn 0.7071 0 0.7071
vn 0.532 0 0.8468
vn 0.3305 0 0.9438
vn 0.3306 0 0.9438
vn 0.112 0 0.9937
vn 0.4541 0 -0.8909
vn -0.9877 0 -0.1561
vn 0.974 0.2021 -0.1023
vn 0.9135 0 -0.4068
vn 0.6691 0 -0.7432
vn 0.3088 0 -0.9511
vn -0.1045 0 -0.9945
vn -0.4998 0 -0.8661
vn -0.5001 0 -0.866
vn -0.8092 0 -0.5876
vn -0.9782 0 -0.2078
vn -0.9781 0 -0.2081
vn -0.9781 0 0.2081
vn -0.8092 0 0.5876
vn -0.4998 0 0.8661
vn -0.5001 0 0.866
vn -0.1045 0 0.9945
vn 0.3088 0 0.9511
vn 0.6691 0 0.7432
vn 0.9135 0 0.4068
vn 0.9945 0 0.1045
vn 0.3302 0 0.9439
vn -0.1953 0 0.9807
vn -0.8313 0 0.5558
vn -0.8311 0 0.5561
vn -0.8315 0 0.5556
vn 0.9808 0 0.1951
vn 0.9807 0 0.1953
vn 0.8313 0 0.5558
vn 0.8314 0 0.5557
vn 0.5557 0 0.8314
vn 0.5556 0 0.8314
vn 0.1953 0 0.9807
vn 0.1948 0 0.9808
vn -0.1948 0 0.9808
vn -0.5556 0 0.8314
usemtl black_metal
s 1
f 3//1 2//1 1//1
f 6//1 5//1 4//1
f 7//1 5//1 6//1
f 1//1 9//1 8//1
f 10//1 1//1 8//1
f 3//1 1//1 10//1
f 11//1 3//1 10//1
f 13//1 6//1 12//1
f 7//1 6//1 13//1
f 3//1 7//1 13//1
f 14//1 7//1 3//1
f 11//1 14//1 3//1
f 15//1 14//1 11//1
f 16//1 15//1 11//1
f 19//2 18//2 17//2
f 22//2 21//2 20//2
f 23//2 21//2 22//2
f 25//2 22//2 24//2
f 23//2 22//2 25//2
f 19//2 23//2 25//2
f 26//2 23//2 19//2
f 26//2 28//2 27//2
f 29//2 28//2 26//2
f 19//2 29//2 26//2
f 30//2 29//2 19//2
f 17//2 30//2 19//2
f 31//2 30//2 17//2
f 32//2 31//2 17//2
f 35//3 34//3 33//3
f 36//3 34//3 35//3
f 36//3 37//3 34//3
f 38//3 37//3 36//3
f 39//3 38//3 36//3
f 42//3 41//3 40//3
f 43//3 41//3 42//3
f 36//3 45//3 44//3
f 41//3 45//3 36//3
f 46//3 41//3 36//3
f 40//3 41//3 46//3
f 49//3 48//3 47//3
f 36//3 50//3 39//3
f 51//3 50//3 36//3
f 44//3 51//3 36//3
f 48//3 52//3 47//3
f 53//3 52//3 48//3
f 54//3 53//3 48//3
f 47//3 55//3 49//3
f 56//3 55//3 47//3
f 33//3 56//3 47//3
f 57//3 56//3 33//3
f 34//3 57//3 33//3
f 60//4 59//5 58//4
f 63//6 62//6 61//6
f 66//7 65//7 64//7
f 69//8 68//8 67//8
f 35//9 68//9 36//9
f 67//10 68//9 35//9
f 33//11 67//11 35//11
f 45//12 65//12 44//12
f 64//12 65//12 45//12
f 41//13 64//13 45//13
f 71//14 69//14 70//14
f 68//17 69//16 71//15
f 72//17 68//17 71//15
f 36//18 68//18 72//18
f 46//18 36//18 72//18
f 74//19 66//19 73//19
f 65//21 66//20 74//20
f 75//21 65//21 74//20
f 44//22 65//22 75//22
f 51//22 44//22 75//22
f 76//23 38//24 39//23
f 77//25 38//25 76//25
f 78//26 77//26 76//26
f 79//27 77//27 78//27
f 80//28 79//28 78//28
f 81//29 79//29 80//29
f 82//30 57//30 34//30
f 83//31 57//31 82//31
f 84//32 83//32 82//32
f 85//33 83//33 84//33
f 86//34 85//34 84//34
f 87//35 85//35 86//35
f 83//31 56//31 57//31
f 88//36 56//36 83//36
f 85//33 88//33 83//33
f 89//38 88//38 85//37
f 87//35 89//39 85//35
f 90//41 89//41 87//40
f 91//42 90//42 87//42
f 92//43 90//43 91//43
f 93//44 48//44 49//44
f 94//45 48//45 93//45
f 95//46 94//46 93//46
f 96//47 94//47 95//47
f 97//48 96//49 95//48
f 98//51 96//51 97//50
f 99//52 52//52 53//52
f 100//53 52//53 99//53
f 101//54 100//54 99//54
f 102//55 100//55 101//55
f 103//56 102//56 101//56
f 104//57 102//57 103//57
f 100//53 47//53 52//53
f 105//59 47//58 100//58
f 102//55 105//55 100//55
f 106//60 105//61 102//60
f 104//57 106//57 102//57
f 107//62 106//62 104//62
f 108//63 107//63 104//63
f 109//64 107//64 108//64
f 112//66 111//66 110//65
f 115//67 114//67 113//67
f 110//69 114//69 115//68
f 116//72 110//71 115//70
f 112//66 110//65 116//73
f 117//74 112//74 116//74
f 118//75 42//75 40//75
f 119//76 42//77 118//76
f 120//78 119//78 118//78
f 121//79 119//79 120//79
f 122//80 121//80 120//80
f 123//81 121//81 122//81
f 119//76 43//77 42//77
f 124//82 43//83 119//82
f 121//79 124//79 119//79
f 125//84 124//84 121//84
f 123//81 125//85 121//81
f 126//87 125//87 123//86
f 127//88 126//88 123//88
f 128//89 126//89 127//89
f 131//90 130//90 129//90
f 134//91 133//91 132//91
f 129//92 133//92 134//92
f 135//93 129//93 134//93
f 131//90 129//90 135//90
f 136//95 131//94 135//94
f 137//96 39//96 50//96
f 76//23 39//23 137//23
f 138//97 76//97 137//97
f 78//26 76//26 138//26
f 63//98 78//98 138//98
f 80//28 78//28 63//28
f 61//6 80//6 63//6
f 141//99 140//100 139//99
f 81//101 140//101 141//101
f 142//102 81//102 141//102
f 79//29 81//29 142//29
f 143//103 79//103 142//103
f 77//27 79//27 143//27
f 144//104 77//104 143//104
f 38//25 77//25 144//25
f 81//101 145//101 140//101
f 146//101 145//101 81//101
f 80//105 146//105 81//105
f 147//105 146//105 80//105
f 61//6 147//6 80//6
f 143//104 34//104 144//104
f 82//30 34//30 143//30
f 142//103 82//103 143//103
f 84//32 82//32 142//106
f 141//102 84//102 142//102
f 86//34 84//34 141//34
f 139//99 86//99 141//99
f 87//42 148//42 91//42
f 149//107 148//107 87//107
f 86//107 149//107 87//107
f 150//107 149//107 86//107
f 139//99 150//108 86//99
f 88//36 55//36 56//36
f 151//109 55//109 88//109
f 89//38 151//110 88//38
f 152//111 151//111 89//111
f 90//41 152//112 89//41
f 60//113 152//113 90//113
f 92//43 60//114 90//43
f 59//43 60//114 92//43
f 151//109 49//109 55//109
f 93//44 49//44 151//44
f 152//111 93//111 151//111
f 95//46 93//46 152//46
f 60//113 95//115 152//113
f 97//48 95//48 60//48
f 58//4 97//4 60//4
f 155//116 154//116 153//116
f 98//117 154//117 155//117
f 156//120 98//119 155//118
f 96//51 98//51 156//51
f 157//122 96//122 156//121
f 94//47 96//47 157//47
f 54//123 94//124 157//123
f 48//45 94//45 54//45
f 98//117 158//117 154//117
f 159//117 158//117 98//117
f 97//126 159//125 98//125
f 160//126 159//125 97//126
f 58//4 160//4 97//4
f 157//123 53//123 54//123
f 99//52 53//52 157//52
f 156//121 99//122 157//122
f 101//54 99//54 156//54
f 155//118 101//118 156//120
f 103//56 101//56 155//56
f 153//116 103//116 155//116
f 104//63 161//63 108//63
f 162//127 161//127 104//127
f 103//127 162//127 104//127
f 163//127 162//127 103//127
f 153//116 163//116 103//116
f 105//59 33//59 47//58
f 67//11 33//11 105//11
f 106//60 67//61 105//61
f 69//8 67//8 106//8
f 107//62 69//62 106//62
f 70//14 69//14 107//14
f 109//64 70//64 107//64
f 164//64 70//64 109//64
f 72//128 117//128 46//128
f 112//129 117//129 72//129
f 71//129 112//129 72//129
f 111//131 112//131 71//130
f 70//130 111//131 71//130
f 165//132 111//132 70//132
f 164//132 165//132 70//132
f 110//69 166//69 114//69
f 167//133 166//133 110//133
f 111//133 167//133 110//133
f 168//133 167//133 111//133
f 165//132 168//132 111//132
f 117//128 40//134 46//128
f 118//75 40//75 117//75
f 116//74 118//74 117//74
f 120//78 118//78 116//135
f 115//70 120//70 116//72
f 122//80 120//80 115//136
f 113//67 122//67 115//67
f 123//88 169//88 127//88
f 170//137 169//137 123//137
f 122//137 170//137 123//137
f 171//137 170//137 122//137
f 113//67 171//138 122//67
f 124//82 41//83 43//83
f 64//13 41//13 124//13
f 125//84 64//84 124//84
f 66//7 64//7 125//7
f 126//87 66//87 125//87
f 73//19 66//19 126//19
f 128//89 73//89 126//89
f 172//89 73//89 128//89
f 75//139 136//139 51//139
f 131//140 136//140 75//140
f 74//140 131//140 75//140
f 130//141 131//142 74//141
f 73//141 130//141 74//141
f 173//143 130//143 73//143
f 172//144 173//143 73//143
f 129//92 174//92 133//92
f 175//145 174//145 129//145
f 130//145 175//145 129//145
f 176//145 175//145 130//145
f 173//143 176//144 130//143
f 136//139 50//139 51//139
f 137//96 50//96 136//96
f 135//94 137//94 136//95
f 138//97 137//97 135//97
f 134//93 138//93 135//93
f 63//98 138//98 134//98
f 132//91 63//91 134//91
f 62//91 63//91 132//91
f 170//146 177//146 169//146
f 178//147 177//147 170//147
f 171//148 178//148 170//148
f 179//149 178//149 171//149
f 113//151 179//150 171//150
f 180//151 179//150 113//151
f 114//150 180//151 113//151
f 181//152 180//151 114//150
f 166//154 181//154 114//153
f 182//153 181//154 166//154
f 167//156 182//156 166//155
f 183//156 182//156 167//156
f 168//157 183//156 167//156
f 184//157 183//156 168//157
f 165//159 184//158 168//158
f 185//159 184//158 165//159
f 164//160 185//159 165//159
f 186//161 185//159 164//160
f 109//163 186//162 164//162
f 187//164 186//162 109//163
f 108//163 187//164 109//163
f 188//162 187//164 108//163
f 161//165 188//165 108//165
f 189//165 188//165 161//165
f 162//168 189//167 161//166
f 190//169 189//167 162//168
f 163//170 190//169 162//168
f 191//169 190//169 163//170
f 153//173 191//172 163//171
f 192//173 191//172 153//173
f 154//174 192//173 153//173
f 193//174 192//173 154//174
f 158//177 193//176 154//175
f 194//177 193//176 158//177
f 159//177 194//177 158//177
f 195//177 194//177 159//177
f 160//178 195//178 159//178
f 196//178 195//178 160//178
f 58//179 196//179 160//179
f 197//180 196//179 58//179
f 59//179 197//180 58//179
f 198//179 197//180 59//179
f 92//181 198//181 59//181
f 199//181 198//181 92//181
f 91//181 199//181 92//181
f 200//181 199//181 91//181
f 148//182 200//182 91//182
f 201//182 200//182 148//182
f 149//185 201//184 148//183
f 202//185 201//184 149//185
f 150//186 202//185 149//185
f 203//186 202//185 150//186
f 139//188 203//187 150//187
f 204//189 203//187 139//188
f 140//189 204//189 139//188
f 205//190 204//189 140//189
f 145//192 205//191 140//191
f 206//192 205//191 145//192
f 146//193 206//192 145//192
f 207//193 206//192 146//193
f 147//194 207//194 146//194
f 208//195 207//194 147//194
f 61//196 208//197 147//196
f 209//196 208//197 61//196
f 210//198 209//196 61//196
f 211//198 209//196 210//198
f 132//200 211//199 210//199
f 212//200 211//199 132//200
f 133//201 212//200 132//200
f 213//201 212//200 133//201
f 174//202 213//202 133//202
f 214//203 213//202 174//202
f 175//205 214//204 174//204
f 215//205 214//204 175//205
f 176//206 215//205 175//205
f 216//206 215//205 176//206
f 173//208 216//207 176//207
f 217//207 216//207 173//208
f 172//207 217//207 173//208
f 218//209 217//207 172//207
f 128//211 218//210 172//210
f 219//211 218//210 128//211
f 127//212 219//211 128//211
f 220//212 219//211 127//212
f 169//213 220//213 127//213
f 177//213 220//213 169//213
f 222//214 209//214 221//214
f 208//214 209//214 222//214
f 223//215 208//215 222//215
f 223//215 207//215 208//215
f 206//217 207//216 223//216
f 224//218 206//217 223//216
f 224//218 205//218 206//217
f 204//221 205//220 224//219
f 225//221 204//221 224//219
f 225//221 203//221 204//221
f 202//224 203//223 225//222
f 226//223 202//224 225//222
f 201//223 202//224 226//223
f 227//225 201//225 226//225
f 227//225 200//225 201//225
f 199//226 200//226 227//226
f 228//226 199//226 227//226
f 228//226 198//226 199//226
f 197//229 198//228 228//227
f 229//227 197//229 228//227
f 196//227 197//229 229//227
f 230//231 196//230 229//230
f 230//231 195//232 196//230
f 194//233 195//233 230//233
f 231//233 194//233 230//233
f 231//233 193//233 194//233
f 192//234 193//234 231//234
f 232//235 192//234 231//234
f 232//235 191//234 192//234
f 190//236 191//236 232//236
f 233//236 190//236 232//236
f 189//236 190//236 233//236
f 234//237 189//237 233//237
f 234//237 188//237 189//237
f 187//238 188//238 234//238
f 235//238 187//238 234//238
f 235//238 186//238 187//238
f 185//241 186//240 235//239
f 236//241 185//241 235//239
f 184//241 185//241 236//241
f 237//242 184//242 236//242
f 237//242 183//243 184//242
f 182//242 183//243 237//242
f 238//246 182//245 237//244
f 238//246 181//246 182//245
f 180//247 181//247 238//247
f 239//247 180//247 238//247
f 239//247 179//248 180//247
f 240//249 179//249 239//249
f 241//250 240//250 239//250
f 177//251 240//251 241//251
f 242//252 177//252 241//252
f 242//252 220//252 177//252
f 219//254 220//253 242//253
f 243//253 219//254 242//253
f 243//253 218//255 219//254
f 217//256 218//256 243//256
f 244//257 217//256 243//256
f 216//258 217//256 244//257
f 245//261 216//260 244//259
f 245//261 215//262 216//260
f 214//260 215//262 245//261
f 246//263 214//263 245//263
f 246//263 213//263 214//263
f 212//264 213//264 246//264
f 221//264 212//264 246//264
f 247//264 212//264 221//264
f 209//214 247//214 221//214
f 245//266 248//265 246//265
f 249//266 248//265 245//266
f 244//267 249//267 245//267
f 250//267 249//267 244//267
f 243//268 250//268 244//268
f 251//268 250//268 243//268
f 242//269 251//269 243//269
f 252//269 251//269 242//269
f 241//270 252//270 242//270
f 253//270 252//270 241//270
f 239//271 253//272 241//271
f 254//271 253//272 239//271
f 238//273 254//273 239//273
f 255//273 254//273 238//273
f 237//274 255//274 238//274
f 256//274 255//274 237//274
f 236//275 256//275 237//275
f 257//275 256//275 236//275
f 235//277 257//276 236//276
f 258//276 257//276 235//277
f 234//279 258//279 235//278
f 259//279 258//279 234//279
f 233//280 259//280 234//280
f 260//280 259//280 233//280
f 232//281 260//281 233//281
f 261//281 260//281 232//281
f 231//282 261//283 232//282
f 262//282 261//283 231//282
f 230//284 262//284 231//284
f 263//284 262//284 230//284
f 229//285 263//285 230//285
f 264//285 263//285 229//285
f 228//287 264//286 229//286
f 265//286 264//286 228//287
f 227//289 265//288 228//288
f 266//290 265//288 227//289
f 226//291 266//291 227//291
f 267//291 266//291 226//291
f 225//292 267//292 226//292
f 268//292 267//292 225//292
f 224//293 268//293 225//293
f 269//293 268//293 224//293
f 223//294 269//294 224//294
f 270//294 269//294 223//294
f 222//296 270//295 223//295
f 271//296 270//295 222//296
f 221//298 271//297 222//297
f 272//299 271//297 221//298
f 246//302 272//301 221//300
f 248//302 272//301 246//302
f 249//303 273//303 248//303
f 274//303 273//303 249//303
f 250//304 274//304 249//304
f 275//304 274//304 250//304
f 251//305 275//305 250//305
f 276//305 275//305 251//305
f 252//306 276//306 251//306
f 277//306 276//306 252//306
f 253//308 277//308 252//307
f 278//308 277//308 253//308
f 254//309 278//309 253//309
f 279//309 278//309 254//309
f 255//310 279//310 254//310
f 280//310 279//310 255//310
f 256//311 280//311 255//311
f 281//311 280//311 256//311
f 257//312 281//312 256//312
f 282//312 281//312 257//312
f 258//313 282//313 257//313
f 283//313 282//313 258//313
f 259//314 283//314 258//314
f 284//314 283//314 259//314
f 260//316 284//316 259//315
f 285//316 284//316 260//316
f 261//318 285//317 260//317
f 286//318 285//317 261//318
f 262//319 286//319 261//319
f 287//319 286//319 262//319
f 263//320 287//320 262//320
f 288//320 287//320 263//320
f 264//321 288//321 263//321
f 289//321 288//321 264//321
f 265//322 289//322 264//322
f 290//322 289//322 265//322
f 266//323 290//323 265//323
f 291//323 290//323 266//323
f 267//324 291//325 266//324
f 292//325 291//325 267//324
f 268//326 292//326 267//326
f 293//326 292//326 268//326
f 269//327 293//327 268//327
f 294//327 293//327 269//327
f 270//328 294//328 269//328
f 295//328 294//328 270//328
f 271//329 295//329 270//329
f 296//329 295//329 271//329
f 272//330 296//330 271//330
f 297//330 296//330 272//330
f 248//331 297//331 272//331
f 273//331 297//331 248//331
f 298//3 14//3 15//3
f 300//3 299//3 28//3
f 28//3 301//3 300//3
f 302//3 301//3 28//3
f 29//3 302//3 28//3
f 285//3 286//3 303//3
f 305//3 281//3 304//3
f 280//3 281//3 305//3
f 298//3 280//3 305//3
f 279//3 280//3 298//3
f 15//3 279//3 298//3
f 303//3 284//3 285//3
f 283//3 284//3 303//3
f 304//3 283//3 303//3
f 282//3 283//3 304//3
f 281//3 282//3 304//3
f 295//3 306//3 294//3
f 307//3 306//3 295//3
f 296//3 307//3 295//3
f 15//3 278//3 279//3
f 277//3 278//3 15//3
f 308//3 277//3 15//3
f 276//3 277//3 308//3
f 309//3 276//3 308//3
f 275//3 276//3 309//3
f 310//3 275//3 309//3
f 311//3 275//3 310//3
f 274//3 275//3 311//3
f 312//3 274//3 311//3
f 273//3 274//3 312//3
f 307//3 273//3 312//3
f 313//3 273//3 307//3
f 296//3 313//3 307//3
f 28//3 292//3 293//3
f 28//3 291//3 292//3
f 290//3 291//3 28//3
f 299//3 290//3 28//3
f 289//3 290//3 299//3
f 293//3 314//3 28//3
f 315//3 314//3 293//3
f 294//3 315//3 293//3
f 316//3 315//3 294//3
f 306//3 316//3 294//3
f 299//3 288//3 289//3
f 287//3 288//3 299//3
f 317//3 287//3 299//3
f 286//3 287//3 317//3
f 318//3 286//3 317//3
f 303//3 286//3 318//3
f 320//333 319//333 317//332
f 299//332 320//333 317//332
f 321//335 320//334 299//334
f 300//335 321//335 299//334
f 322//336 321//336 300//336
f 301//336 322//336 300//336
f 323//337 322//337 301//337
f 302//338 323//337 301//337
f 30//340 323//340 302//339
f 29//340 30//340 302//339
f 303//342 318//341 324//341
f 325//341 303//342 324//341
f 304//343 303//343 325//343
f 326//344 304//343 325//343
f 305//345 304//345 326//345
f 327//345 305//345 326//345
f 298//346 305//346 327//346
f 328//347 298//346 327//346
f 14//348 298//348 328//348
f 7//349 14//348 328//348
f 317//350 324//350 318//350
f 319//350 324//350 317//350
f 330//351 12//351 329//351
f 13//351 12//351 330//351
f 18//351 332//351 331//351
f 333//351 332//351 18//351
f 19//351 333//351 18//351
f 12//351 334//351 329//351
f 335//351 334//351 12//351
f 18//351 335//351 12//351
f 336//351 335//351 18//351
f 331//351 336//351 18//351
f 31//3 338//3 337//3
f 324//3 7//3 328//3
f 5//3 7//3 324//3
f 319//3 5//3 324//3
f 340//3 339//3 5//3
f 5//3 341//3 340//3
f 342//3 341//3 5//3
f 343//3 342//3 5//3
f 323//3 321//3 322//3
f 30//3 321//3 323//3
f 339//3 344//3 5//3
f 345//3 344//3 339//3
f 346//3 345//3 339//3
f 347//3 345//3 346//3
f 5//3 337//3 343//3
f 31//3 337//3 5//3
f 319//3 31//3 5//3
f 30//3 31//3 319//3
f 320//3 30//3 319//3
f 321//3 30//3 320//3
f 324//3 326//3 325//3
f 327//3 326//3 324//3
f 328//3 327//3 324//3
f 350//351 349//351 348//351
f 353//351 352//351 351//351
f 355//351 354//351 353//351
f 358//351 357//351 356//351
f 348//351 357//351 358//351
f 359//351 348//351 358//351
f 350//351 348//351 359//351
f 349//351 351//351 348//351
f 353//351 351//351 349//351
f 360//351 353//351 349//351
f 355//351 353//351 360//351
f 363//351 362//351 361//351
f 364//351 362//351 363//351
f 364//351 365//351 362//351
f 366//351 365//351 364//351
f 367//351 366//351 364//351
f 368//351 366//351 367//351
f 369//351 368//351 367//351
f 370//351 368//351 369//351
f 6//351 371//351 17//351
f 372//351 371//351 6//351
f 373//351 372//351 6//351
f 32//351 375//351 374//351
f 376//351 375//351 32//351
f 17//351 376//351 32//351
f 377//351 376//351 17//351
f 371//351 377//351 17//351
f 361//351 378//351 363//351
f 379//351 378//351 361//351
f 380//351 379//351 361//351
f 381//351 379//351 380//351
f 373//351 381//351 380//351
f 4//351 381//351 373//351
f 6//351 4//351 373//351
f 375//351 382//351 374//351
f 383//351 382//351 375//351
f 370//351 383//351 375//351
f 384//351 383//351 370//351
f 369//351 384//351 370//351
f 383//352 384//352 342//352
f 343//352 383//352 342//352
f 382//353 383//354 343//353
f 337//354 382//353 343//353
f 374//355 382//356 337//355
f 338//355 374//355 337//355
f 32//357 374//358 338//357
f 31//358 32//357 338//357
f 361//361 357//360 380//359
f 356//363 357//363 361//362
f 362//362 356//363 361//362
f 358//364 356//364 362//364
f 365//364 358//364 362//364
f 359//365 358//365 365//365
f 366//365 359//365 365//365
f 350//366 359//366 366//366
f 368//366 350//366 366//366
f 349//367 350//367 368//367
f 370//367 349//367 368//367
f 360//368 349//368 370//368
f 375//368 360//368 370//368
f 355//2 360//2 375//2
f 376//2 355//2 375//2
f 354//369 355//369 376//369
f 377//369 354//369 376//369
f 353//370 354//370 377//370
f 371//370 353//370 377//370
f 352//371 353//371 371//371
f 372//371 352//371 371//371
f 351//372 352//372 372//372
f 373//372 351//372 372//372
f 348//373 351//373 373//373
f 380//373 348//373 373//373
f 357//360 348//361 380//359
f 18//165 6//165 17//165
f 12//165 6//165 18//165
f 381//374 4//374 5//374
f 344//374 381//374 5//374
f 379//375 381//376 344//375
f 345//376 379//375 344//375
f 378//377 379//377 345//377
f 347//377 378//377 345//377
f 363//378 378//378 347//378
f 346//378 363//378 347//378
f 364//379 363//379 346//379
f 339//379 364//379 346//379
f 367//380 364//380 339//380
f 340//381 367//380 339//380
f 369//382 367//382 340//382
f 341//382 369//382 340//382
f 342//165 369//165 341//165
f 384//165 369//165 342//165
f 386//351 27//351 385//351
f 26//351 27//351 386//351
f 387//351 16//351 11//351
f 388//351 16//351 387//351
f 16//351 390//351 389//351
f 391//351 390//351 16//351
f 388//351 391//351 16//351
f 27//351 392//351 385//351
f 393//351 392//351 27//351
f 394//351 393//351 27//351
f 395//351 393//351 394//351
f 389//351 396//351 16//351
f 397//351 396//351 389//351
f 398//351 397//351 389//351
f 395//351 400//351 399//351
f 401//351 400//351 395//351
f 394//351 401//351 395//351
f 389//351 402//351 398//351
f 403//351 402//351 389//351
f 395//351 403//351 389//351
f 404//351 403//351 395//351
f 399//351 404//351 395//351
f 406//341 405//341 389//341
f 390//341 406//341 389//341
f 407//343 406//343 390//343
f 391//383 407//343 390//343
f 408//345 407//345 391//345
f 388//345 408//345 391//345
f 409//346 408//346 388//346
f 387//347 409//346 388//346
f 10//348 409//349 387//349
f 11//349 10//348 387//349
f 393//332 395//332 410//332
f 411//332 393//332 410//332
f 392//334 393//334 411//334
f 412//334 392//334 411//334
f 385//336 392//336 412//336
f 413//336 385//336 412//336
f 386//337 385//337 413//337
f 414//338 386//337 413//337
f 26//339 386//340 414//339
f 23//384 26//339 414//339
f 410//350 389//350 405//350
f 395//350 389//350 410//350
f 416//3 415//3 2//3
f 2//3 417//3 416//3
f 418//3 417//3 2//3
f 3//3 418//3 2//3
f 419//3 25//3 24//3
f 24//3 420//3 419//3
f 421//3 420//3 24//3
f 422//3 421//3 24//3
f 425//3 424//3 423//3
f 423//3 427//3 426//3
f 429//3 428//3 425//3
f 427//3 430//3 426//3
f 431//3 430//3 427//3
f 432//3 431//3 427//3
f 426//3 425//3 423//3
f 429//3 425//3 426//3
f 433//3 429//3 426//3
f 436//3 435//3 434//3
f 427//3 435//3 436//3
f 437//3 427//3 436//3
f 432//3 427//3 437//3
f 439//3 22//3 438//3
f 1//3 22//3 439//3
f 440//3 1//3 439//3
f 441//3 1//3 440//3
f 22//3 442//3 438//3
f 443//3 442//3 22//3
f 20//3 443//3 22//3
f 444//3 443//3 20//3
f 445//3 444//3 20//3
f 446//3 444//3 445//3
f 449//3 448//3 447//3
f 450//3 448//3 449//3
f 451//3 450//3 449//3
f 452//3 450//3 451//3
f 453//3 452//3 451//3
f 454//3 452//3 453//3
f 455//3 454//3 453//3
f 457//3 445//3 456//3
f 446//3 445//3 457//3
f 458//3 446//3 457//3
f 447//3 446//3 458//3
f 459//3 447//3 458//3
f 449//3 447//3 459//3
f 455//3 460//3 454//3
f 461//3 460//3 455//3
f 462//3 461//3 455//3
f 463//3 461//3 462//3
f 464//3 463//3 462//3
f 441//3 463//3 464//3
f 9//3 441//3 464//3
f 1//3 441//3 9//3
f 8//351 466//351 465//351
f 405//351 8//351 23//351
f 10//351 8//351 405//351
f 409//351 10//351 405//351
f 8//351 467//351 466//351
f 468//351 467//351 8//351
f 469//351 468//351 8//351
f 471//351 465//351 470//351
f 8//351 465//351 471//351
f 21//351 8//351 471//351
f 23//351 8//351 21//351
f 8//351 472//351 469//351
f 473//351 472//351 8//351
f 474//351 473//351 8//351
f 475//351 473//351 474//351
f 405//351 408//351 409//351
f 407//351 408//351 405//351
f 406//351 407//351 405//351
f 413//351 412//351 411//351
f 23//351 410//351 405//351
f 411//351 410//351 23//351
f 414//351 411//351 23//351
f 413//351 411//351 414//351
f 433//385 461//385 463//385
f 463//1 429//1 433//1
f 428//386 429//386 463//386
f 441//386 428//386 463//386
f 425//387 428//387 441//387
f 440//387 425//387 441//387
f 424//388 425//388 440//388
f 439//388 424//388 440//388
f 423//389 424//389 439//389
f 438//389 423//389 439//389
f 427//391 423//390 438//390
f 442//391 427//391 438//390
f 435//392 427//392 442//392
f 443//392 435//392 442//392
f 434//393 435//394 443//393
f 444//394 434//393 443//393
f 436//395 434//395 444//395
f 446//395 436//395 444//395
f 437//396 436//396 446//396
f 447//396 437//396 446//396
f 432//398 437//397 447//397
f 448//398 432//398 447//397
f 431//399 432//399 448//399
f 450//399 431//399 448//399
f 430//400 431//400 450//400
f 452//400 430//400 450//400
f 426//401 430//401 452//401
f 454//401 426//401 452//401
f 433//402 426//402 454//402
f 460//402 433//402 454//402
f 461//403 433//403 460//403
f 474//374 8//374 9//374
f 464//374 474//374 9//374
f 475//376 474//376 464//376
f 462//376 475//376 464//376
f 473//377 475//377 462//377
f 455//377 473//377 462//377
f 472//378 473//378 455//378
f 453//378 472//378 455//378
f 469//379 472//379 453//379
f 451//379 469//379 453//379
f 468//404 469//404 451//380
f 449//380 468//404 451//380
f 467//382 468//382 449//382
f 459//382 467//382 449//382
f 467//165 458//165 466//165
f 459//165 458//165 467//165
f 465//352 466//405 458//352
f 457//352 465//352 458//352
f 470//354 465//354 457//354
f 456//354 470//354 457//354
f 471//355 470//407 456//406
f 445//408 471//355 456//406
f 21//358 471//358 445//357
f 20//358 21//358 445//357
f 1//165 2//165 415//165
f 422//165 24//165 22//165
f 422//165 335//165 336//165
f 415//165 335//165 422//165
f 22//165 415//165 422//165
f 1//165 415//165 22//165
f 402//341 403//342 312//341
f 311//341 402//341 312//341
f 398//343 402//343 311//343
f 310//383 398//343 311//343
f 397//345 398//345 310//345
f 309//345 397//345 310//345
f 396//346 397//346 309//346
f 308//346 396//346 309//346
f 16//348 396//348 308//348
f 15//348 16//348 308//348
f 404//350 312//350 403//350
f 307//350 312//350 404//350
f 306//333 307//332 404//332
f 399//332 306//333 404//332
f 316//334 306//334 399//334
f 400//334 316//334 399//334
f 315//336 316//336 400//336
f 401//336 315//336 400//336
f 314//337 315//337 401//337
f 394//337 314//337 401//337
f 28//340 314//340 394//340
f 27//340 28//340 394//340
f 418//410 3//410 13//409
f 330//409 418//410 13//409
f 417//411 418//412 330//411
f 329//412 417//411 330//411
f 416//413 417//414 329//413
f 334//413 416//413 329//413
f 415//415 416//415 334//415
f 335//416 415//415 334//415
f 421//405 422//417 336//405
f 331//405 421//405 336//405
f 420//354 421//418 331//354
f 332//354 420//354 331//354
f 419//406 420//355 332//406
f 333//355 419//406 332//406
f 25//357 419//357 333//358
f 19//358 25//357 333//358
